<?xml version="1.0" encoding="UTF-8"?>
<svg width="430px" height="117px" viewBox="0 0 430 117" version="1.1" xmlns="http://www.w3.org/2000/svg" xmlns:xlink="http://www.w3.org/1999/xlink">
    <!-- Generator: Sketch 49.3 (51167) - http://www.bohemiancoding.com/sketch -->
    <title>lw4</title>
    <desc>Created with Sketch.</desc>
    <defs></defs>
    <g id="logo" stroke="none" stroke-width="1" fill="none" fill-rule="evenodd">
        <g id="lw4" transform="translate(5.000000, 5.000000)">
            <rect id="Rectangle-path" stroke="#FFFFFF" stroke-width="10" x="0" y="0" width="107" height="107"></rect>
            <g id="Group" transform="translate(13.000000, 14.000000)" fill="#FFFFFF" fill-rule="nonzero">
                <polygon id="Shape" points="36 54 36 63 72 63 72 72 36 72 27 72 26 72 26 63 26 54 17 54 0 54 0 63 17 63 17 72 0 72 0 81 17 81 26 81 27 81 36 81 72 81 81 81 81 72 81 63 81 54 72 54"></polygon>
                <rect id="Rectangle-path" x="0" y="18" width="9" height="9"></rect>
                <rect id="Rectangle-path" x="0" y="0" width="9" height="9"></rect>
                <polygon id="Shape" points="72 0 27 0 18 0 18 9 18 27 18 36 0 36 0 45 18 45 27 45 27 36 27 27 27 9 72 9 72 36 54 36 54 45 72 45 81 45 81 36 81 9 81 0"></polygon>
                <rect id="Rectangle-path" x="54" y="18" width="9" height="9"></rect>
                <rect id="Rectangle-path" x="36" y="18" width="9" height="9"></rect>
                <rect id="Rectangle-path" x="36" y="36" width="9" height="9"></rect>
            </g>
            <g id="Group" transform="translate(132.000000, 41.000000)" fill="#FFFFFF" fill-rule="nonzero">
                <path d="M4.6,28.2 C2.7,27.5 1.2,26.7 0.2,25.6 L1.4,23.3 C2.4,24.3 3.8,25.1 5.4,25.8 C7,26.5 8.8,26.7 10.6,26.7 C13.1,26.7 15,26.2 16.2,25.3 C17.5,24.4 18.1,23.2 18.1,21.7 C18.1,20.6 17.8,19.7 17.1,19 C16.4,18.3 15.6,17.8 14.6,17.5 C13.6,17.1 12.2,16.7 10.5,16.3 C8.4,15.8 6.7,15.3 5.5,14.8 C4.2,14.3 3.2,13.6 2.3,12.5 C1.4,11.5 1,10.1 1,8.4 C1,7 1.4,5.7 2.1,4.5 C2.8,3.3 4,2.4 5.5,1.7 C7,1 9,0.7 11.3,0.7 C12.9,0.7 14.5,0.9 16,1.4 C17.5,1.8 18.9,2.4 20,3.2 L19,5.6 C17.8,4.8 16.6,4.2 15.2,3.9 C13.9,3.5 12.6,3.3 11.3,3.3 C8.8,3.3 7,3.8 5.8,4.7 C4.6,5.6 3.9,6.9 3.9,8.4 C3.9,9.5 4.2,10.4 4.9,11.1 C5.6,11.8 6.4,12.3 7.5,12.7 C8.6,13.1 9.9,13.5 11.6,13.9 C13.7,14.4 15.3,14.9 16.6,15.4 C17.9,15.9 18.9,16.6 19.8,17.6 C20.7,18.6 21.1,20 21.1,21.7 C21.1,23.1 20.7,24.4 20,25.6 C19.3,26.8 18.1,27.7 16.5,28.4 C14.9,29.1 13,29.4 10.7,29.4 C8.5,29.2 6.5,28.8 4.6,28.2 Z" id="Shape"></path>
                <polygon id="Shape" points="47.2 26.4 47.2 29 27.4 29 27.4 1 46.6 1 46.6 3.6 30.4 3.6 30.4 13.6 44.9 13.6 44.9 16 30.4 16 30.4 26.4"></polygon>
                <polygon id="Shape" points="83.3 0.9 83.3 28.9 80.5 28.9 80.5 6.5 69.5 25.3 68 25.3 57 6.6 57 28.9 54.2 28.9 54.2 0.9 56.6 0.9 68.8 21.7 80.8 0.9 83.3 0.9"></polygon>
                <path d="M110,21.4 L94.4,21.4 L91,28.9 L87.9,28.9 L100.7,0.9 L103.6,0.9 L116.4,28.9 L113.3,28.9 L110,21.4 Z M108.9,19 L102.2,4 L95.5,19 L108.9,19 Z" id="Shape"></path>
                <polygon id="Shape" points="129.8 15.8 124.1 21.6 124.1 29 121.1 29 121.1 1 124.1 1 124.1 17.9 140.5 1 143.9 1 131.8 13.7 144.8 29 141.3 29"></polygon>
                <polygon id="Shape" points="185.1 0.9 185.1 28.9 175.7 28.9 175.7 18.6 167 18.6 167 28.9 157.6 28.9 157.6 0.9 167 0.9 167 10.8 175.7 10.8 175.7 0.9 185.1 0.9"></polygon>
                <path d="M208.8,24 L198.2,24 L196.3,28.9 L186.7,28.9 L198.9,0.9 L208.2,0.9 L220.4,28.9 L210.6,28.9 L208.8,24 Z M206.2,17.2 L203.5,10.2 L200.8,17.2 L206.2,17.2 Z" id="Shape"></path>
                <path d="M221.9,0.9 L235.7,0.9 C238.8,0.9 241.6,1.5 244,2.6 C246.4,3.7 248.2,5.4 249.6,7.5 C250.9,9.6 251.6,12.1 251.6,14.9 C251.6,17.7 250.9,20.2 249.6,22.3 C248.3,24.4 246.4,26 244,27.2 C241.6,28.3 238.9,28.9 235.7,28.9 L221.9,28.9 L221.9,0.9 Z M235.3,21.6 C237.3,21.6 238.9,21 240.2,19.9 C241.4,18.7 242,17.1 242,15 C242,12.9 241.4,11.3 240.2,10.1 C239,8.9 237.4,8.4 235.3,8.4 L231.3,8.4 L231.3,21.7 L235.3,21.7 L235.3,21.6 Z" id="Shape"></path>
                <polygon id="Shape" points="255 0.9 264.4 0.9 264.4 28.9 255 28.9"></polygon>
                <path d="M272.6,28.8 C270.4,28.3 268.6,27.6 267.2,26.7 L270.2,19.8 C271.5,20.6 273,21.2 274.7,21.7 C276.4,22.2 277.9,22.4 279.5,22.4 C280.8,22.4 281.7,22.3 282.3,22 C282.9,21.7 283.1,21.4 283.1,20.9 C283.1,20.3 282.7,19.9 282,19.6 C281.3,19.3 280.1,19 278.4,18.6 C276.2,18.1 274.4,17.7 273,17.1 C271.6,16.6 270.3,15.7 269.2,14.5 C268.1,13.3 267.6,11.7 267.6,9.7 C267.6,7.9 268.1,6.3 269.1,4.9 C270.1,3.5 271.6,2.3 273.5,1.5 C275.5,0.7 277.8,0.3 280.6,0.3 C282.5,0.3 284.4,0.5 286.3,0.9 C288.2,1.3 289.8,1.9 291.2,2.7 L288.4,9.5 C285.7,8.1 283.1,7.4 280.6,7.4 C278.2,7.4 277,8 277,9.2 C277,9.8 277.4,10.2 278.1,10.5 C278.8,10.8 280,11.1 281.7,11.4 C283.8,11.8 285.6,12.3 287.1,12.8 C288.6,13.3 289.8,14.2 290.9,15.3 C292,16.4 292.5,18.1 292.5,20.1 C292.5,21.9 292,23.5 291,24.9 C290,26.3 288.5,27.5 286.6,28.3 C284.7,29.1 282.3,29.6 279.5,29.6 C277.1,29.6 274.8,29.3 272.6,28.8 Z" id="Shape"></path>
            </g>
        </g>
    </g>
</svg>