<svg height="167" viewBox="0 0 409 167" width="409" xmlns="http://www.w3.org/2000/svg"><g fill="none" fill-rule="evenodd"><path d="m39 167c0-92.2317445 74.545391-167 166.500405-167 91.955826 0 166.499595 74.7682555 166.499595 167z" fill="#665965"/><path d="m285 45.4995983c0 10.2173951-8.283007 18.5004017-18.500402 18.5004017s-18.499598-8.2830066-18.499598-18.5004017c0-10.2165917 8.282203-18.4995983 18.499598-18.4995983s18.500402 8.2830066 18.500402 18.4995983" fill="#b3a6b1"/><path d="m285.776983 45.9995923h-1.223017c-.000816 4.8513015-1.963351 9.2321491-5.141565 12.4128091-3.18066 3.1790293-7.561507 5.1407489-12.412809 5.1415642-4.851301-.0008153-9.232149-1.9625349-12.411993-5.1415642-3.17903-3.18066-5.141565-7.5615076-5.141565-12.4128091 0-4.8504861 1.962535-9.2313337 5.141565-12.4119937 3.179844-3.1790293 7.560692-5.1407489 12.411993-5.1415642 4.851302.0008153 9.232149 1.9625349 12.412809 5.1415642 3.178214 3.18066 5.140749 7.5615076 5.141565 12.4119937h2.446034c-.000815-11.0454758-8.954116-19.998777-20.000408-19.9995923-11.046291.0008153-19.998777 8.9541165-19.999592 19.9995923.000815 11.0462912 8.953301 19.9995924 19.999592 20.0004077 11.046292-.0008153 19.999593-8.9541165 20.000408-20.0004077z" fill="#494846"/><path d="m2 165h407" fill="#d0d2cc"/><path d="m1.21515949 166h406.56968151c.670768 0 1.215159-.447482 1.215159-.999667 0-.552851-.544391-1.000333-1.215159-1.000333h-406.56968151c-.67157815 0-1.21515949.447482-1.21515949 1.000333 0 .552185.54358134.999667 1.21515949.999667" fill="#494846"/><path d="m169 70.065 24.513-14.807 10.889 7.011 18.213-12.269 72.385 72h-94.361z" fill="#695f69"/><path d="m77 148.356 63.304-109.692 18.36-6.664 53.72 88.562.616 31.438z" fill="#695f69"/><path d="m188.815 81 5.683-13.339 11.747 2.31 6.703-2.433-2.22-1.301 4.234-5.107 31.038 12.273-23.618-23.403-18.348 12.313-10.97-7.036-14.064 8.463z" fill="#827a81"/><path d="m124 68 13.125-5.842 3.739-5.194 16.861-4.82 16.275 4.559-14.916-24.703-18.22 6.644z" fill="#827a81"/><path d="m213.732987 121-.191085-.326875c-.021677-.050666-.046566-.099697-.074667-.147094l-.624637-1.047635-22.842598-39.0583272 3.111141-7.4200688 12.931106 26.7890633 22.0614 18.0271717v3.076713c0 .036774.002409.07273.008832.107052zm15.596651 0c.00562-.034322.008831-.070278.008831-.107052v-2.067486l2.661531 2.174538z" fill="#5a525b"/><path d="m188.839 78-7.839-13.978 6.308-4.022 4.692 10.138z" fill="#6f6b70"/><path d="m224.776312 89-8.180049-19.6149877-2.018748-1.2121622c.023532-.0742629.039501-.1517199.047065-.2315725.043703-.4639434-.195824-.9071253-.619408-1.1426904l-1.005172-.558968 2.832299-3.2396192 5.816718 2.1815725 1.786786 4.5755528 2.564197 18.7398034z" fill="#5a525b"/><path d="m210.154587 66-4.154587-2.7513073 6.053154-4.2486927 7.924099 3.2782439.022747.0638454-4.410491-1.8234221c-.144607-.0604403-.296525-.0893835-.446005-.0893835-.355017 0-.701909.1625927-.938316.4613888z" fill="#6f6b70"/><path d="m123.788032 93h-12.788032l14.565472-25.5701518 11.335526-5.0883186 3.099002-4.3415296c-4.739841 10.1725429-10.845699 23.3740028-16.211968 35" fill="#5a525b"/><path d="m126 67 16.015204-27.5914221 14.984796-5.4085779c-3.147295 2.6772259-8.049046 6.8312076-8.433417 7.0695243-.169026.105021-3.478033 6.9879312-8.054734 16.6272369l-3.115603 4.2832383z" fill="#6f6b70"/><path d="m179.214791 63.8224363.625332 1.0403176 13.329625-7.9957219 10.266145 6.5638696c.407438.2604839.929088.2556301 1.330856-.0137522l17.407246-11.6449227 69.654905 68.8009053h-77.374358l-34.19645-57.371165-1.043301.6204693.625332 1.0403176-.625332-1.0403176-1.044111.6204694 34.548807 57.9649383c.220325.368884.613992.592156 1.044111.592156h81.021861c.49168 0 .937189-.298505 1.123492-.752329.187114-.453825.080192-.978837-.268925-1.323452l-72.462421-71.5748158c-.409868-.403669-1.052211-.4651497-1.53093-.1448031l-17.57087 11.7541317-10.230503-6.5412188c-.388808-.2483495-.885348-.2548211-1.280636-.017797l-13.976017 8.3824028c-.571872.3438064-.759796 1.088046-.417969 1.6607869z" fill="#494846"/><path d="m77.2190417 149.120146 1.0550535.608606 63.3438188-109.8196621 17.079033-6.2038809 53.254616 87.842404.586412 29.980955-135.2864451-3.627259-.0324882 1.218837 1.0550535.608606-1.0550535-.608606-.0324881 1.218025 136.5624174 3.661386c.334629.008939.653013-.11782.890989-.353462.237163-.235642.366304-.554165.359806-.888939l-.618087-31.585758c-.004061-.21289-.066601-.42578-.176249-.607793l-53.943365-88.9767349c-.301328-.4972856-.911293-.7118009-1.457095-.5135367l-18.435414 6.6954786c-.269652.0983195-.496257.2884581-.640017.5371008l-63.5655507 110.2048152c-.2160464.373776-.218483.827996-.0081221 1.204211.2111732.377027.5994068.611856 1.0306874.623232z" fill="#494846"/><path d="m188.967786 80.7911435 1.1169.4745558 5.260525-12.2602977 10.706525 2.0899791c.214633.042702.442224.0249766.647948-.0491475l6.659282-2.4001727c.443844-.1595281.753239-.5583483.796166-1.0264585.042116-.4681102-.188715-.9152723-.596922-1.152953l-.968682-.5639882 2.72948-3.2687145 30.021035 11.785742c.535367.210287 1.148487.0153082 1.463552-.4640817.314254-.4801957.24541-1.1166967-.163607-1.5195454l-23.466235-23.0880654c-.409827-.4020431-1.052105-.4632761-1.530776-.1442199l-17.569101 11.7067836-10.229474-6.5148694c-.388769-.2473491-.885259-.2537946-1.280507-.0177253l-13.974611 8.3486367c-.565334.338393-.756479 1.0643263-.430075 1.6347601l9.753232 17.0284151c.227592.3988203.664146.6340839 1.124999.6083016.460043-.026588.86663-.3101935 1.047246-.732379l-1.1169-.4745558 1.055345-.5978274-9.16522-16.0027623 12.311006-7.3552118 10.265111 6.5374289c.407397.2594345.928994.2546004 1.330722-.0136969l17.405494-11.5980144 18.543453 18.2442125-25.321795-9.9406949c-.487581-.1917559-1.044816-.0499532-1.380129.3520898l-4.2068 5.038026c-.226782.2723258-.323164.6324725-.261609.9813395s.275378.655032.583153.8338968l2.204642 1.283476.61393-1.0433781-.413876-1.1360334-6.342598 2.2857636-11.340704-2.2148622c-.561285-.1095749-1.126619.1885332-1.350971.7114308l-5.646864 13.1610675 1.11771.47375 1.055345-.5978274z" fill="#494846"/><path d="m203.594146 63.2976646 11.684756 7.0266943 7.408344 18.9027858c.247931.6320655.946137.9378241 1.561166.6830253.61423-.2539769.911747-.9723452.664616-1.6044107l-7.561101-19.2940254c-.099972-.2539769-.276723-.4643914-.507059-.6032978l-12.039058-7.2395747c-.571841-.3435674-1.306837-.1463038-1.641144.4413774-.335107.5876811-.142361 1.3430364.42948 1.6874258m-79.376942 5.4751081.493552 1.1221417 13.273121-5.9299173c.194011-.0867593.36854-.2291756.493551-.4026942l3.5336-4.9289113 16.315605-4.681729 16.128089 4.5352204c.482186.1358684.996032-.0384688 1.298007-.4403445.301976-.4018756.329575-.9478045.070623-1.3783272l-15.084974-25.0767158c-.301163-.5009123-.910797-.7178106-1.456301-.517282l-18.425374 6.744309c-.269505.0990366-.495987.2905619-.639669.541018l-17.054309 29.7993691c-.263011.4591696-.20294 1.0402933.149365 1.4348026.351493.3936909.917291.5164635 1.398666.3012022l-.493552-1.1221417 1.054479.613863 16.832698-29.4122261 17.069732-6.2491261 12.971146 21.5629636-13.495544-3.7944923c-.216741-.0605678-.443222-.0605678-.659963.001637l-17.051062 4.892898c-.260575.0753005-.494363.2406343-.653468.461625l-3.5888 5.0050303-12.972769 5.7948674.493551 1.1229602 1.054479.613863z" fill="#494846"/><g fill="#d6d2cc"><path d="m292 60.367287v2.265426c0 .2027424.224.367287.5.367287.277 0 .5-.1645446.5-.367287v-2.265426c0-.2027424-.223-.367287-.5-.367287-.276 0-.5.1645446-.5.367287"/><path d="m293.663639 62h-1.327278c-.186344 0-.336361.224-.336361.5s.150017.5.336361.5h1.327278c.185671 0 .336361-.224.336361-.5s-.15069-.5-.336361-.5m-22.663639 21.3673769v2.2652462c0 .202792.224.3673769.5.3673769.277 0 .5-.1645849.5-.3673769v-2.2652462c0-.202792-.223-.3673769-.5-.3673769-.276 0-.5.1645849-.5.3673769"/><path d="m271.663639 84h-1.327278c-.186344 0-.336361.223-.336361.5 0 .276.150017.5.336361.5h1.327278c.185671 0 .336361-.224.336361-.5 0-.277-.15069-.5-.336361-.5m-40.663639-41.6326231v2.2652462c0 .202792.224.3673769.5.3673769.277 0 .5-.1645849.5-.3673769v-2.2652462c0-.2035268-.223-.3673769-.5-.3673769-.276 0-.5.1638501-.5.3673769"/><path d="m231.663639 43h-1.327278c-.186344 0-.336361.224-.336361.5s.150017.5.336361.5h1.327278c.185671 0 .336361-.224.336361-.5s-.15069-.5-.336361-.5m78.336361 33.3673769v2.2652462c0 .202792.223.3673769.5.3673769.276 0 .5-.1645849.5-.3673769v-2.2652462c0-.202792-.224-.3673769-.5-.3673769-.277 0-.5.1645849-.5.3673769"/><path d="m311.663639 78h-1.327278c-.185671 0-.336361.224-.336361.5 0 .277.15069.5.336361.5h1.327278c.186344 0 .336361-.223.336361-.5 0-.276-.150017-.5-.336361-.5m-6.663639-33.6326231v2.2652462c0 .202792.224.3673769.5.3673769s.5-.1645849.5-.3673769v-2.2652462c0-.202792-.224-.3673769-.5-.3673769s-.5.1645849-.5.3673769"/><path d="m305.663753 45h-1.327506c-.185608 0-.336247.224-.336247.5 0 .277.150639.5.336247.5h1.327506c.185608 0 .336247-.223.336247-.5 0-.276-.150639-.5-.336247-.5m-46.663753 23.367287v2.265426c0 .2027424.224.367287.5.367287.277 0 .5-.1645446.5-.367287v-2.265426c0-.2027424-.223-.367287-.5-.367287-.276 0-.5.1645446-.5.367287"/><path d="m259.663639 69h-1.327278c-.186344 0-.336361.224-.336361.5s.150017.5.336361.5h1.327278c.185671 0 .336361-.224.336361-.5s-.15069-.5-.336361-.5m31.336361 9.3673769v2.2652462c0 .202792.224.3673769.5.3673769.277 0 .5-.1645849.5-.3673769v-2.2652462c0-.202792-.223-.3673769-.5-.3673769-.276 0-.5.1645849-.5.3673769"/><path d="m291.663639 79h-1.327278c-.186344 0-.336361.224-.336361.5 0 .277.150017.5.336361.5h1.327278c.185671 0 .336361-.223.336361-.5 0-.276-.15069-.5-.336361-.5m-1.663639-43.6326231v2.2652462c0 .202792.224.3673769.5.3673769s.5-.1645849.5-.3673769v-2.2652462c0-.2035268-.224-.3673769-.5-.3673769s-.5.1638501-.5.3673769"/><path d="m291.663753 37h-1.327506c-.185608 0-.336247.224-.336247.5s.150639.5.336247.5h1.327506c.185608 0 .336247-.224.336247-.5s-.150639-.5-.336247-.5m-57.663753-11.632713v2.265426c0 .2027424.224.367287.5.367287s.5-.1645446.5-.367287v-2.265426c0-.2027424-.224-.367287-.5-.367287s-.5.1645446-.5.367287"/><path d="m235.663753 27h-1.327506c-.185608 0-.336247.224-.336247.5s.150639.5.336247.5h1.327506c.185608 0 .336247-.224.336247-.5s-.150639-.5-.336247-.5m-21.663753 15.3673769v2.2652462c0 .202792.223.3673769.5.3673769.276 0 .5-.1645849.5-.3673769v-2.2652462c0-.2035268-.224-.3673769-.5-.3673769-.277 0-.5.1638501-.5.3673769"/><path d="m214.663639 43h-1.327278c-.185671 0-.336361.224-.336361.5s.15069.5.336361.5h1.327278c.186344 0 .336361-.224.336361-.5s-.150017-.5-.336361-.5m-34.663639 9.3673769v2.2652462c0 .202792.224.3673769.5.3673769s.5-.1645849.5-.3673769v-2.2652462c0-.2035268-.224-.3673769-.5-.3673769s-.5.1638501-.5.3673769"/><path d="m180.663753 54h-1.327506c-.185608 0-.336247.224-.336247.5s.150639.5.336247.5h1.327506c.185608 0 .336247-.224.336247-.5s-.150639-.5-.336247-.5m-24.663753-34.6326231v2.2652462c0 .202792.224.3673769.5.3673769s.5-.1645849.5-.3673769v-2.2652462c0-.202792-.224-.3673769-.5-.3673769s-.5.1645849-.5.3673769"/><path d="m156.663639 20h-1.327278c-.185671 0-.336361.224-.336361.5 0 .277.15069.5.336361.5h1.327278c.186344 0 .336361-.223.336361-.5 0-.276-.150017-.5-.336361-.5m28.336361 12.367287v2.265426c0 .2027424.224.367287.5.367287s.5-.1645446.5-.367287v-2.265426c0-.2027424-.224-.367287-.5-.367287s-.5.1645446-.5.367287"/><path d="m185.663753 33h-1.327506c-.185608 0-.336247.224-.336247.5s.150639.5.336247.5h1.327506c.185608 0 .336247-.224.336247-.5s-.150639-.5-.336247-.5m.336247-26.63262307v2.26524614c0 .20279207.224.36737693.5.36737693s.5-.16458486.5-.36737693v-2.26524614c0-.20279207-.224-.36737693-.5-.36737693s-.5.16458486-.5.36737693"/><path d="m186.663753 7h-1.327506c-.185608 0-.336247.223-.336247.5 0 .276.150639.5.336247.5h1.327506c.185608 0 .336247-.224.336247-.5 0-.277-.150639-.5-.336247-.5m-72.663753 51.3673769v2.2652462c0 .202792.224.3673769.5.3673769s.5-.1645849.5-.3673769v-2.2652462c0-.2035268-.224-.3673769-.5-.3673769s-.5.1638501-.5.3673769"/><path d="m115.663753 59h-1.327506c-.185608 0-.336247.224-.336247.5s.150639.5.336247.5h1.327506c.185608 0 .336247-.224.336247-.5s-.150639-.5-.336247-.5m-1.663753-23.6326231v2.2652462c0 .202792.224.3673769.5.3673769s.5-.1645849.5-.3673769v-2.2652462c0-.2035268-.224-.3673769-.5-.3673769s-.5.1638501-.5.3673769"/><path d="m114.663753 37h-1.327506c-.185608 0-.336247.224-.336247.5s.150639.5.336247.5h1.327506c.185608 0 .336247-.224.336247-.5s-.150639-.5-.336247-.5m-33.663753 41.3673769v2.2652462c0 .202792.224.3673769.5.3673769s.5-.1645849.5-.3673769v-2.2652462c0-.2035268-.224-.3673769-.5-.3673769s-.5.1638501-.5.3673769"/><path d="m81.6637525 79h-1.327505c-.1856086 0-.3362475.224-.3362475.5s.1506389.5.3362475.5h1.327505c.1856086 0 .3362475-.224.3362475-.5s-.1506389-.5-.3362475-.5m125.3362475-59.6326231v2.2652462c0 .202792.224.3673769.5.3673769s.5-.1645849.5-.3673769v-2.2652462c0-.202792-.224-.3673769-.5-.3673769s-.5.1645849-.5.3673769"/><path d="m207.663639 20h-1.327278c-.185671 0-.336361.223-.336361.5 0 .276.15069.5.336361.5h1.327278c.186344 0 .336361-.224.336361-.5 0-.277-.150017-.5-.336361-.5m44.336361 3.367287v2.265426c0 .2027424.223.367287.5.367287.276 0 .5-.1645446.5-.367287v-2.265426c0-.2027424-.224-.367287-.5-.367287-.277 0-.5.1645446-.5.367287"/><path d="m252.663639 24h-1.327278c-.185671 0-.336361.224-.336361.5s.15069.5.336361.5h1.327278c.185671 0 .336361-.224.336361-.5s-.15069-.5-.336361-.5"/></g><path d="m230.410023 119-1.230364-1.021118v-6.441727h-2.564724c-.208794 0-.403188-.109967-.516785-.291039-.112797-.1819-.129596-.410101-.043999-.606884l1.273563-2.918661h-.712779c-.209594 0-.403988-.109967-.517585-.291867-.112797-.182726-.128796-.411754-.041599-.609363l1.292762-2.914528h-.220793c-.202394 0-.392789-.104179-.507985-.276984-.114397-.173631-.138396-.394391-.065599-.590347l2.871916-7.632342c.091997-.2439108.31999-.40514.573583-.40514.253592 0 .481586.1612292.574383.40514l2.871115 7.632342c.073598.195956.048799.416716-.065598.590347-.115197.172805-.304791.276984-.507985.276984h-.220793l1.292761 2.914528c.087998.197609.071998.426637-.040798.609363-.113597.1819-.308791.291867-.518385.291867h-.706379l1.267962 2.920315c.085598.195956.068798.424157-.044798.606057-.113597.181072-.307991.290212-.516785.290212h-2.974312v2.802081l.851175-.515934c.098397-.05953.205593-.087642.31119-.087642.211194 0 .416788.112447.531185.31419.171995.302615.073598.692872-.219194.870638l-1.474356.893788z" fill="#5a525b"/><path d="m229.007152 121c-.005201-.032341-.007152-.066222-.007152-.100873v-2.899127l1 .950975v1.948152c0 .034651-.002601.068532-.007152.100873z" fill="#4e474e"/><path d="m229.862137 121.408h-.724274c-.070581-.109-.120053-.25-.137863-.408h1c-.01781.158-.067282.299-.137863.408" fill="#403f3d"/><path d="m267 92-4-3.5465027.412433-.9523443c.132047-.3020754.45702-.501153.818006-.501153.361844 0 .686817.1990776.818007.501153z" fill="#584d57"/><path d="m262.371695 120v-11.48663h-3.525539c-.287039 0-.554226-.143128-.710567-.37844-.155514-.236121-.178676-.532889-.060386-.789226l1.751189-3.795722h-.980236c-.287866 0-.55588-.143128-.712221-.380058-.155515-.236929-.177022-.535315-.057077-.791651l1.777659-3.7908709h-.302757c-.279594 0-.54099-.1350417-.698986-.3606503-.157169-.2247999-.191084-.5118646-.090165-.7665839l2.570119-6.4601679 6.96174 6.7310599c.005791.1746647-.043842.3485207-.147242.4956919-.157996.2256086-.419392.3606503-.698159.3606503h-.303584l1.777659 3.7908709c.119945.256336.098438.554722-.057077.791651-.155514.23693-.424355.380058-.712221.380058h-.971137l.925641 2.017539h-1.324352c-.326746 0-.646046.129381-.876835.35499-.231617.226417-.36397.538549-.36397.857959v1.7329h-1.479039v3.644509l1.170493-.671166c.098437-.056604.202664-.090567.308546-.105931v1.846918l-1.479039.848256v3.53696c-.835475.553105-1.450914 1.398935-1.692457 2.387084" fill="#5a525b"/><path d="m269 98-7-6.5883388.985623-2.4116612 3.880109 3.6519216 2.076877 5.0829302c.034934.0862721.054064.1757102.057391.2651482" fill="#403f3d"/><path d="m168.410569 121h-1.231134v-8.98485h-2.563864c-.208789 0-.403979-.106496-.516773-.281853-.113593-.176158-.130393-.397156-.043997-.587727l1.273532-2.826532h-.712762c-.209589 0-.404778-.106496-.518372-.282653-.112794-.176959-.128794-.398758-.040798-.590129l1.292731-2.822529h-.220788c-.203189 0-.392779-.100891-.507973-.26824-.114394-.168151-.139193-.381943-.065597-.571713l2.871848-7.3914225c.091995-.2362116.319983-.3923515.573569-.3923515.253587 0 .481575.1561399.57357.3923515l2.871847 7.3914225c.072796.18977.048797.403562-.065596.571713-.115194.167349-.304784.26824-.507973.26824h-.220789l1.292732 2.822529c.087195.191371.071996.41317-.041598.590129-.112794.176157-.307984.282653-.517573.282653h-.706362l1.267132 2.828134c.086396.18977.068797.410768-.044797.586926-.112794.175357-.307184.281052-.515973.281052h-2.974242v2.713631l.851155-.499648c.097595-.057651.204789-.084876.311184-.084876.210388 0 .415977.108898.531171.304273.171991.293062.073596.671001-.219988.843155l-1.473522.865576z" fill="#5a525b"/><path d="m350.321982 136c-.412281-.141914-.833578-.265677-1.261432-.370462v-9.127063h-2.626958c-.16311 0-.318022-.063531-.433592-.174092 1.597486-.75 2.704825-2.381188 2.704825-4.273928v-3.246699c0-.575908-.39179-1.074258-.948328-1.205446l-1.121273-.264026 2.678596-6.933168c.094259-.244225.327858-.405116.587685-.405116s.493426.160891.587685.405116l2.942521 7.616336c.074588.195545.049998.415842-.067211.588284-.118028.173267-.312284.276403-.520474.276403h-.226221l1.324544 2.909241c.089341.196369.073768.424917-.042621.60726-.11557.182343-.315563.292079-.53031.292079h-.723745l1.298316 2.913367c.088521.196369.071309.424092-.045901.604785-.115569.180693-.314743.289604-.52867.289604h-3.047436v2.79703l.872101-.514852c.099997-.059405.209829-.087458.318022-.087458.216386 0 .427035.111386.544244.313531.176223.30198.076227.690594-.224583.868812l-1.509784.891914zm-293.9119977 11h-1.230353v-9.101965h-2.563902c-.208792 0-.4039846-.105717-.5175802-.279791-.1127957-.17487-.1295951-.394252-.0439983-.583429l1.2743513-2.805863h-.7127728c-.209592 0-.4047845-.105717-.5183802-.280586-.1127957-.175665-.1287951-.395842-.0415984-.585814l1.2927506-2.801888h-.2199916c-.2031922 0-.393585-.099358-.5079806-.266279-.1151956-.166921-.1391947-.379149-.0663975-.567531l2.8718903-7.337372c.0919965-.234484.3199878-.389482.5735781-.389482.2543903 0 .4815816.154998.5743781.389482l2.8718903 7.337372c.0727972.188382.0487981.40061-.0663975.567531-.1143956.166921-.3047884.266279-.5079806.266279h-.2199916l1.2927506 2.801888c.0871967.189972.0711973.410149-.0415984.585814-.1135957.174869-.3087882.280586-.5183802.280586h-.706373l1.2679515 2.807453c.0855968.188382.0687974.407764-.0447982.582634-.1135957.174074-.3079883.278996-.5167803.278996h-2.9742864v2.693787l.8519675-.495993c.0975963-.057231.2047922-.084256.3103881-.084256.211192 0 .4167841.108101.5311797.302048.1719935.290919.0735972.666094-.2191916.836989l-1.4743437.859246z" fill="#584d57"/><path d="m152 121.79935v-31.5987002c0-.6627587-.447333-1.2006498-1-1.2006498-.552 0-1 .5378911-1 1.2006498v31.5987002c0 .663559.448 1.20065 1 1.20065.552667 0 1-.537091 1-1.20065" fill="#494846"/><path d="m145 90h13l-4.794-11.038-1.706-3.962-1.787 4.201z" fill="#7d9e85"/><path d="m145 84h13l-6.5-15z" fill="#7d9e85"/><path d="m146 76h11l-5.499-15z" fill="#7d9e85"/><path d="m145.2353 75.7857143v1.2142857h11.528743c.40927 0 .788895-.1967143 1.020293-.528619.230575-.3319048.279161-.7512381.131758-1.1260477l-5.765196-14.5714285c-.184459-.4679048-.639845-.7739048-1.150403-.7739048-.511382 0-.966768.306-1.152051.7739048l-5.763548 14.5714285c-.149051.3748096-.099642.7941429.130933 1.1260477.231399.3319047.611024.528619 1.019471.528619v-1.2142857l1.15205.4403809 4.613145-11.662 3.958476 10.0073334h-9.723671v1.2142857l1.15205.4403809zm-1.003475 14.9642857v1.25h13.537711c.416003 0 .807389-.2166667 1.033852-.5708333.225642-.3541667.259283-.8058334.089436-1.1908334l-3.312427-7.4966666c-.199386-.4508334-.635901-.7383334-1.122467-.7383334l-6.895626-.0033333c-.482464 0-.923902.2891667-1.122467.7358333l-3.330479 7.5c-.172309.3883334-.139488.8341667.087795 1.1925.228104.3583334.614568.5716667 1.034672.5716667v-1.25l1.121647.5141667 3.003093-6.7641667 5.303822.0033333 2.208011 4.9966667h-11.636573v1.25l1.121647.5141667z" fill="#494846"/><path d="m144.231231 83.75v1.25h13.537538c.420099 0 .80984-.2158333 1.0363-.575.226459-.3583333.257639-.8083333.082871-1.1958333l-3.38459-7.5c-.201024-.4458334-.635892-.7291667-1.11835-.7291667h-6.769179c-.483279 0-.918147.2833333-1.119171.7291667l-3.38459 7.5c-.174768.3875-.143588.8375.082871 1.1958333.22646.3591667.616201.575 1.0363.575v-1.25l1.118351.5208333 3.055566-6.7708333h5.189704l2.256393 5h-11.620014v1.25l1.118351.5208333zm7.109406 23.101284-3.487516-1.714013c-.610273-.299381-1.372068-.092937-1.7019.462403-.329833.55534-.102131 1.248562.508142 1.548705l3.488353 1.714012c.610273.300143 1.372068.092938 1.701063-.462402.329833-.55534.102131-1.248563-.508142-1.548705" fill="#494846"/><path d="m156 89h-3.25694l-.20956-.9969915c-.604466-1.971419-2.359424-3.1238509-4.419119-3.1238509h-.114381l.309747-.7404312.061783-.1387264 5.382592.0033428z" fill="#5d7463"/><path d="m149 84.166.053-.166h4.945l.002.004-4.943-.004z" fill="#353433"/><path d="m154 84.011h-5l.004-.011h4.992z" fill="#353433"/><path d="m156 82h-3.144799l-.212441-.8758759c-.606377-1.9678011-2.4046-3.237404-4.468792-3.237404h-.173968l.139676-.3044712.291897-.5822489h5.247465l2.249033 4.8440107z" fill="#5d7463"/><path d="m156 82h-3.140889v-.00151h3.139219l-.071801-.1411854zm-7.987477-3.7244243h-.012523l.151952-.2755757z" fill="#353433"/><path d="m155 75h-1.301l-2.699-9.274.292-.726z" fill="#5d7463"/><path d="m155 75.005h-.330373c-.024275-.003-.049142-.005-.074008-.005h-.595619.998816z" fill="#353433"/><path d="m155 75.005h-.999116l-.000884-.005h.889478c.037136 0 .074271.002.110522.005" fill="#353433"/><path d="m282 122.816335v-13.63267c0-.653383-.447333-1.183665-1-1.183665-.552 0-1 .530282-1 1.183665v13.63267c0 .653383.448 1.183665 1 1.183665.552667 0 1-.530282 1-1.183665" fill="#494846"/><path d="m275 109h13l-4.793-11.038-1.707-3.962-1.787 4.201z" fill="#7d9e85"/><path d="m275 103h13l-6.5-15z" fill="#7d9e85"/><path d="m276 95h11l-5.5-15z" fill="#7d9e85"/><path d="m276.235518 94.7857143v1.2142857h11.528964c.409278 0 .78891-.1967143 1.01949-.528619.230579-.3319048.279989-.7504286.131759-1.1252381l-5.764482-14.5714286c-.185287-.4679048-.639857-.7747143-1.151249-.7747143-.510568 0-.965962.3068095-1.151249.7747143l-5.764482 14.5714286c-.14823.3748095-.09882.7933333.131759 1.1252381.23058.3319047.611035.528619 1.01949.528619v-1.2142857l1.151249.4403809 4.613233-11.6611904 3.958552 10.0065238h-9.723034v1.2142857l1.151249.4403809zm-1.004177 14.9642857v1.25h13.538425c.415999 0 .807382-.215833 1.033023-.570833.226461-.354167.260102-.805834.089436-1.190834l-3.312402-7.496666c-.199384-.45-.635895-.7375-1.121638-.7375l-6.895571-.004167c-.48246 0-.923895.289167-1.122458.736667l-3.330453 7.5c-.173128.388333-.139487.834166.087795 1.191666.228102.358334.614562.571667 1.033843.571667v-1.25l1.121638.514167 3.003889-6.763334 5.30296.0025 2.208815 4.996667h-11.637302v1.25l1.121638.514167z" fill="#494846"/><path d="m275.231113 102.75v1.25h13.537774c.420081 0 .808984-.215833 1.035434-.574167.227271-.359166.258449-.809166.083688-1.196666l-3.384443-7.5000003c-.201015-.445-.636686-.7291667-1.119123-.7291667h-6.768886c-.482437 0-.918108.2841667-1.119123.7291667l-3.384443 7.5000003c-.174761.3875-.143583.8375.083688 1.196666.22645.358334.616174.574167 1.035434.574167v-1.25l1.119123.520833 3.055434-6.770833h5.18948l2.255475 5h-11.619512v1.25l1.119123.520833zm7.752606 16.092216 3.366184-1.713354c.626879-.319969.836716-1.02009.468842-1.564036-.367874-.544708-1.175618-.726785-1.802497-.407578l-3.365305 1.714115c-.627757.319969-.837595 1.02009-.469721 1.564036.368753.544708 1.175618.726785 1.802497.406817" fill="#494846"/><path d="m286 105h-3.282617c-.875536-.808345-2.165258-1.256011-3.599902-1.256011h-.117481l.318143-.626592.064314-.117397 5.527625.002122z" fill="#5d7463"/><path d="m279 103.167.054-.167h4.945l.001.004-4.942-.003z" fill="#353433"/><path d="m284 103.01h-5l.003-.01h4.993z" fill="#353433"/><path d="m287 101h-3.145128l-.212463-.876022c-.605604-1.9681295-2.404851-3.2379443-4.468423-3.2379443h-.173986l.138854-.3028533.292765-.5831804h5.248013l2.249268 4.845653z" fill="#5d7463"/><path d="m287 101h-3.140054l-.000835-.002265h3.139219l-.070966-.139702zm-7.986642-3.7258826h-.013358l.151952-.2741174z" fill="#353433"/><path d="m285 94h-1.302l-2.698-9.274.292-.726z" fill="#5d7463"/><path d="m285 94.006h-.329781c-.024867-.004-.049734-.006-.0746-.006h-.595619.998816z" fill="#353433"/><path d="m285 94.006h-.998233l-.001767-.006h.888693c.037102 0 .074205.002.111307.006" fill="#353433"/><path d="m306 149h-205v-14.04803c0-7.152726 5.795682-12.95197 12.944013-12.95197h179.111974c7.14914 0 12.944013 5.799244 12.944013 12.95197z" fill="#a3af72"/><path d="m305 136h-20.132121c3.630804-1.361014 6.225957-4.976731 6.225957-9.222795 0-.201477-.005624-.401282-.017676-.598579h8.089164-7.600665 7.600665v3.344852h-.909508.909508v.006688h3.964237c1.164204 1.865125 1.847139 4.082207 1.870439 6.469834m-26.516359 0h-11.646854v-1.549951c0-4.231016-1.889721-7.999722-4.836787-10.450049h1.267045c.507783 1.977149 2.240027 3.431796 4.300081 3.432632h4.303294c.141408 0 .277191-.02508.403333-.071896.224967 3.991918 2.747006 7.34095 6.209888 8.639264" fill="#8d9864"/><path d="m306.783147 148.803433v-1.196567h-204.34944v-12.646917c.000811-3.198025 1.315013-6.081751 3.445317-8.178935 2.132739-2.09479 5.066167-3.387082 8.317599-3.38788h179.606754c3.252243.000798 6.18486 1.29309 8.317599 3.38788 2.130304 2.097184 3.444506 4.98091 3.445317 8.178935v13.843484h1.216854v-1.196567 1.196567h1.216853v-13.843484c-.000811-7.70988-6.35522-13.959151-14.196623-13.959949h-179.606754c-7.840592.000798-14.195812 6.250069-14.196623 13.959949v13.843484c0 .315096.129798.62381.356944.846372.226334.222561.539471.350195.859909.350195h205.566294c.320438 0 .633575-.127634.860721-.350195.226334-.222562.356132-.531276.356132-.846372z" fill="#494846"/><path d="m359 165h-106v-15.853662c0-7.260887 5.80307-13.146338 12.960515-13.146338h80.07897c7.157445 0 12.960515 5.885451 12.960515 13.146338z" fill="#a3af72"/><path d="m357 155h-46.221241v-.292909c-.000803-2.422939-.648062-4.69379-1.778759-6.648396h26.895001c3.463562 0 5.719333-3.643661 4.187914-6.757029-.605501-1.230379-1.490464-2.40604-2.781771-3.301666h8.054608c3.218631.000805 6.122465 1.303607 8.233688 3.417542 2.108813 2.11474 3.409757 5.02452 3.41056 8.250545z" fill="#8d9864"/><path d="m358.790569 164.785742v-1.214257h-104.370094v-14.405145c.000807-3.245306 1.307864-6.172477 3.426587-8.299856 2.121143-2.12657 5.037816-3.437159 8.272378-3.437969h79.761927c3.233755.00081 6.151235 1.311399 8.272378 3.437969 2.118723 2.127379 3.42578 5.05455 3.426586 8.299856v15.619402h1.210238v-1.214257 1.214257h1.209431v-15.619402c-.000807-7.824677-6.320668-14.16553-14.118633-14.16634h-79.761927c-7.797965.00081-14.118633 6.341663-14.11944 14.16634v15.619402c0 .319755.129092.632224.355003.858076.225104.225852.536539.356182.855235.356182h105.580331c.318696 0 .630131-.13033.855235-.356182s.354196-.538321.354196-.858076z" fill="#494846"/><path d="m309.68236 165h-187.36472c-.175474 0-.31764-.143581-.31764-.3208v-22.3584c0-.177219.142166-.3208.31764-.3208h175.496671c6.72975 0 12.185689 5.51022 12.185689 12.306924v10.372276c0 .177219-.142166.3208-.31764.3208" fill="#a3af72"/><path d="m200.187904 163h-9.791038v-4.054825c0-2.65686-.892665-5.105511-2.396866-7.065397h34.220164c-.008079.061096-.012118.123799-.012118.187307v1.751678c0 .111741.012926.22107.036353.326379h-12.775205c-4.99973.000804-9.076098 3.929419-9.28129 8.854858m107.812096-8.854858h-67.93785c.023427-.105309.035545-.214638.035545-.326379v-1.751678c0-.063508-.003231-.126211-.01131-.187307h47.610136c2.522081 0 4.172501-2.723582 2.900959-4.890872-.93952-1.60135-2.239337-2.967965-3.790393-3.988906h10.287053c3.014865 0 5.734059 1.213071 7.711655 3.178584 1.975172 1.967925 3.193397 4.673018 3.194205 7.673942z" fill="#8d9864"/><path d="m309.467317 164.791609v-1.208391h-186.934634v.893404h.898861c-.000811-.493829-.402016-.892599-.898861-.893404v.893404h.898861v-21.953244h-.898861v.893404c.496845-.000805.89805-.399575.898861-.893404h-.898861v.893404h175.093828c3.02484 0 5.753032 1.215642 7.737171 3.185319 1.981708 1.972094 3.203964 4.682918 3.204774 7.690201v10.18432h.898861v-.893404c-.496845.000805-.89805.398769-.898861.893404h.898861v-.893404 2.416782c.846177-.000806 1.531872-.681533 1.532683-1.523378v-10.18432c-.000811-7.342184-5.987271-13.291496-13.373489-13.292302h-175.093828c-.846988.000806-1.531872.681533-1.532683 1.523378v21.953244c.000811.841845.685695 1.522572 1.532683 1.523378h186.934634z" fill="#494846"/><path d="m391 165h-189v-.941982c0-4.450443 3.633851-8.058018 8.114897-8.058018h172.770206c4.481046 0 8.114897 3.607575 8.114897 8.058018z" fill="#a3af72"/><path d="m389 164h-186c.038836-1.077978.297741-2.093402.730598-2.999143h144.045204c1.666703 0 2.789705-1.816624 2.118169-3.431877-.080098-.193659-.167479-.38389-.260523-.56898h32.495043c1.902954 0 3.614157.813196 4.862566 2.132819 1.187728 1.260497 1.940171 2.964867 2.008943 4.867181" fill="#8d9864"/><path d="m390.785528 164.835486v-1.164514h-188.571056v1.164514h1.214472v-.907545c.00081-1.825958.768356-3.468699 2.016023-4.666596 1.249287-1.195568 2.961692-1.932317 4.865984-1.932317h172.378098c1.904292 0 3.616697.736749 4.865984 1.932317 1.246858 1.197897 2.015213 2.840638 2.016023 4.666596v.907545h1.214472v-1.164514 1.164514h1.214472v-.907545c-.00081-4.931329-4.168877-8.927165-9.310951-8.927941h-172.378098c-5.142883.000776-9.310141 3.996612-9.310951 8.927941v.907545c0 .306655.129544.606324.356245.822923.225892.2166.538416.341591.858227.341591h188.571056c.319811 0 .632335-.124991.858227-.341591.226701-.216599.356245-.516268.356245-.822923z" fill="#494846"/><path d="m190 165h-163v-5.440552c0-5.832065 4.7248965-10.559448 10.5538926-10.559448h141.8922144c5.828996 0 10.553893 4.727383 10.553893 10.559448z" fill="#a3af72"/><path d="m188 164h-160v-4.358127c.000809-2.667026 1.0395441-5.06911 2.7246573-6.818062 1.6875402-1.746436 4.0060876-2.822973 6.578656-2.823811h45.8766603c-1.1843522.966703-2.1632226 2.189963-2.8581396 3.590131-1.1228695 2.264582.495098 4.960115 2.9519817 4.960115h104.6671283c.038831.358006.059056.721882.059056 1.091627z" fill="#8d9864"/><path d="m189.785449 164.810468v-1.189532h-161.3563469v-4.122126c.0008097-2.522601 1.0404654-4.794607 2.727072-6.44885 1.6890357-1.651863 4.0096379-2.670103 6.5844861-2.670896h141.5186798c2.575658.000793 4.89545 1.019033 6.584486 2.670896 1.686606 1.654243 2.726262 3.926249 2.727072 6.44885v5.311658h1.214551v-1.189532 1.189532h1.214551v-5.311658c-.00081-6.351308-5.255767-11.498017-11.74066-11.49881h-141.5186798c-6.4848929.000793-11.7398505 5.147502-11.7406602 11.49881v5.311658c0 .313243.1295521.61935.3554586.840603.2267162.221253.5392607.348929.8590925.348929h162.5708979c.319832 0 .633186-.127676.859092-.348929.225907-.221253.355459-.52736.355459-.840603z" fill="#494846"/><path d="m33.2054033 158h-6.4108066c-.4386174 0-.7945967.447-.7945967 1 0 .552.3559793 1 .7945967 1h6.4108066c.4386174 0 .7945967-.448.7945967-1 0-.553-.3559793-1-.7945967-1m35.9885451 0h-24.3878968c-.4449405 0-.8060516.447-.8060516 1 0 .552.3611111 1 .8060516 1h24.3878968c.4449405 0 .8060516-.448.8060516-1 0-.553-.3611111-1-.8060516-1m8.075191 0h-2.5382788c-.4034351 0-.7308606.447-.7308606 1 0 .552.3274255 1 .7308606 1h2.5382788c.4034351 0 .7308606-.448.7308606-1 0-.553-.3274255-1-.7308606-1m48.9110846 0h-37.3604485c-.4533358 0-.8197755.447-.8197755 1 0 .552.3664397 1 .8197755 1h37.3604485c.452517 0 .819776-.448.819776-1 0-.553-.367259-1-.819776-1m20.000402 0h-16.361252c-.452295 0-.819374.447-.819374 1 0 .552.367079 1 .819374 1h16.361252c.452295 0 .819374-.448.819374-1 0-.553-.367079-1-.819374-1m44.004167 0h-39.369586c-.449994 0-.815207.447-.815207 1 0 .552.365213 1 .815207 1h39.369586c.45081 0 .815207-.448.815207-1 0-.553-.364397-1-.815207-1m129.61644 4h11.397534c.443082 0 .801233-.448.801233-1 0-.553-.358151-1-.801233-1h-11.397534c-.442281 0-.801233.447-.801233 1 0 .552.358952 1 .801233 1m-15.959373 0h11.31628c.465549 0 .84186-.448.84186-1 0-.553-.376311-1-.84186-1h-11.31628c-.465549 0-.84186.447-.84186 1 0 .552.376311 1 .84186 1m-77.039382 0h48.395044c.442968 0 .802478-.448.802478-1 0-.553-.35951-1-.802478-1h-48.395044c-.44377 0-.802478.447-.802478 1 0 .552.358708 1 .802478 1m-9.920255 0h2.235554c.486987 0 .882223-.448.882223-1 0-.553-.395236-1-.882223-1h-2.235554c-.486987 0-.882223.447-.882223 1 0 .552.395236 1 .882223 1m-14.077358 0h7.39027c.444285 0 .804865-.448.804865-1 0-.553-.36058-1-.804865-1h-7.39027c-.44509 0-.804865.447-.804865 1 0 .552.359775 1 .804865 1m72.968171-8h8.453928c.427489 0 .773036-.448.773036-1 0-.553-.345547-1-.773036-1h-8.453928c-.426716 0-.773036.447-.773036 1 0 .552.34632 1 .773036 1m-80.969823 0h6.393574c.443374 0 .803213-.448.803213-1 0-.553-.359839-1-.803213-1h-6.393574c-.443374 0-.803213.447-.803213 1 0 .552.359839 1 .803213 1m113.97114-4h8.451294c.427443 0 .774353-.447.774353-1 0-.552-.34691-1-.774353-1h-8.451294c-.427443 0-.774353.448-.774353 1 0 .553.34691 1 .774353 1" fill="#494846"/><path d="m163 148h-47l8.057-47h30.886z" fill="#8a6569"/><path d="m124 101h-40.687l-10.313 47h42.84z" fill="#665965"/><path d="m155 101h-31l15.5-7z" fill="#8a6569"/><path d="m139 94h-39.666l-16.334 7h40.451z" fill="#665965"/><path d="m139 110s-2.560833 24.215116-10.991485 39l-9.008515-7.060352s14.874299-7.364162 20-31.939648" fill="#e4be82"/><path d="m139.758467 109.229201-1.235217-.129442s-.009107.088479-.029804.268714c-.1573 1.346027-.936348 7.611646-2.679891 15.263434-1.738577 7.649331-4.459035 16.693025-8.408915 23.530479l1.078745.609522.765802-.968353-9.241776-7.157781-.764974.967533.549722 1.101891c.109282-.054071 4.060818-2.006342 8.664734-7.133204 4.603916-5.125224 9.846137-13.432412 12.516922-26.101284l-1.215348-.251509-1.235217-.129442 1.235217.129442-1.216175-.25069c-2.58634 12.247777-7.601719 20.133052-11.942365 24.970719-2.169909 2.417605-4.174239 4.071669-5.622225 5.114573-.724407.521862-1.308899.890524-1.707116 1.125649-.197867.117153-.350199.201535-.448718.253967l-.106799.056529-.022353.011469h-.000828c-.383314.187608-.641617.555451-.685496.976545-.04305.420275.133291.832358.470244 1.092879l9.240948 7.1586c.283139.21874.65238.3064 1.005062.237583.352683-.067998.660659-.287557.839484-.596414 4.43337-7.696847 7.259799-17.665473 9.015761-25.744091 1.750995-8.074521 2.411654-14.248384 2.414966-14.277877.070371-.652941-.386627-1.241982-1.042318-1.343569-.654864-.101587-1.272473.320327-1.408247.963438z" fill="#494846"/><path d="m139 110s2.560833 24.215116 10.991485 39l9.008515-7.060352s-14.875106-7.364162-20-31.939648" fill="#e4be82"/><path d="m139.242201 109.229201-1.235215.129441c.003312.029493.66397 6.203356 2.414961 14.277877 1.756787 8.078618 4.582382 18.047244 9.016571 25.744091.177997.308857.485973.528416.838655.596414.352682.068817.721922-.018843 1.005061-.237583l9.24093-7.1586c.336952-.260521.514121-.672604.470242-1.092879-.043878-.421094-.301352-.788937-.684666-.976545h-.000828c-.123356-.061444-3.819894-1.937525-8.111685-6.790758-4.29262-4.857329-9.192085-12.685256-11.73868-24.742148-.135775-.643111-.752554-1.065025-1.408245-.963438-.654862.101587-1.111859.690628-1.042316 1.343569l1.235215-.129441-1.216173.251509c2.670779 12.668872 7.912991 20.97606 12.516898 26.101284 4.603907 5.126862 8.555436 7.079133 8.664717 7.133204l.550549-1.101891-.7658-.967533-9.24093 7.157781.7658.968353 1.077915-.609522c-4.21397-7.293776-7.025491-17.096094-8.744195-25.041174-.862663-3.974179-1.45709-7.48712-1.835436-10.002215-.18876-1.257548-.323706-2.266044-.411463-2.95831-.043878-.345723-.076166-.612798-.096863-.792214-.020697-.180235-.030632-.268714-.030632-.268714l-1.234387.129442-1.216173.251509z" fill="#494846"/><path d="m139.246453 112s-3.223211 23.456285-10.246453 37h21s-10.753547-19.6222-10.753547-37" fill="#ed974e"/><path d="m115.360838 148h-40.360838l9.7291034-45c.0358256.112627.0879356.220356.15633.320741.2279814.334615.6033363.532935 1.0080032.532935h.4372356l-2.5656042 5.610922c-.1734286.379502-.1424883.820215.0822361 1.171152.2255387.351754.6122928.563133 1.0283587.563133h1.4142985l-2.5273359 5.617451c-.1718003.381134-.1392315.81695.0871214 1.167887.2255387.350938.6098501.559868 1.025916.559868h9.686764c2.0143779 10.296348 7.4484762 22.097646 21.4375732 25.718833zm-18.5829678-49-.7778702-2.0827377 4.140599-1.9172623h6.859401c-4.562396 1.1652588-7.9425957 2.7099848-10.2221298 4" fill="#584d57"/><path d="m123.879472 143-1.879472-1.45129c1.560959-1.021101 4.09853-2.928969 6.880051-6.017059 2.351974-2.610723 4.874146-6.066634 7.119949-10.531651-3.917796 9.83839-9.851221 15.919417-12.120528 18" fill="#c1a473"/><path d="m122.474411 144-2.474411-2.153092c12.973193-9.465373 18-24.846908 18-24.846908-.636881 2.899573-1.48091 5.57399-2.447604 8.018412-2.251015 4.506321-4.779041 7.994201-7.136474 10.629076-2.787977 3.116657-5.331438 5.042173-6.896019 6.07272l1.883834 1.464716c-.586515.541501-.929326.815076-.929326.815076" fill="#403f3d"/><path d="m155.008055 144c-2.310914-2.236957-8.054773-8.478817-11.895288-18.48525-.037858-.172138-.075715-.343444-.112767-.51475 2.25292 4.731705 4.794201 8.383185 7.161498 11.133228 2.764398 3.211572 5.287153 5.195729 6.838502 6.25766z" fill="#c1a473"/><path d="m156.525589 144s-.380179-.303434-1.025995-.904654l2.008936-1.561556c-1.564582-1.030547-4.108855-2.956063-6.896832-6.072721-2.38749-2.668768-4.950447-6.212332-7.222583-10.804196.037368.166243.075548.332486.113728.499537-.989439-2.481544-1.853777-5.201154-2.502843-8.15641 0 0 5.02762 15.381535 18 24.846908z" fill="#403f3d"/><path d="m163.781809 148.782014v-1.218799h-46.118431l7.736094-45.125617h29.201056l7.979802 46.549987 1.201479-.205571v-1.218799 1.218799l1.200667-.206383-8.153647-47.563216c-.099921-.583398-.608457-1.012415-1.200667-1.012415h-31.256324c-.59221 0-1.100746.429017-1.200667 1.012415l-8.153647 47.563216c-.060926.351826.038994.718278.268891.991289.229898.273011.574338.43308.931776.43308h47.563618c.356626 0 .701066-.160069.931776-.43308.229897-.273011.329817-.639463.268891-.991289z" fill="#494846"/><path d="m123.790469 101.218799v-1.218799h-40.3521076c-.5700543 0-1.0618975.399766-1.1820363.960413l-10.2287263 47.563215c-.0774049.361577.0096756.735342.2402775 1.022979.2306019.288449.5740858.453393.9417588.453393h42.4879969c.587793 0 1.092537-.429017 1.191712-1.012415l8.093643-47.563216c.059667-.351826-.039508-.718278-.267691-.991289-.22899-.273011-.570055-.43308-.924827-.43308v1.218799l-1.191712-.206384-7.921094 46.5508h-39.9683092l9.7038248-45.125617h39.3772904v-1.218799l-1.191712-.206384z" fill="#494846"/><path d="m155.770701 101.74854v-1.25146h-26.003002l10.232328-4.8640081 15.250122 7.2492911.520552-1.133823v-1.25146 1.25146l.519732-1.133823-15.769854-7.4970798c-.330366-.1568496-.710737-.1568496-1.041103 0l-15.770674 7.4970798c-.521371.247789-.804191.833473-.679586 1.404973.124604.5715.624662.98031 1.200138.98031h31.541347c.575476 0 1.075534-.40881 1.200138-.98031.124605-.5715-.159035-1.157184-.680406-1.404973z" fill="#494846"/><path d="m139.775957 94.25146v-1.25146h-40.0562413c-.1714072 0-.341182.0367095-.4978972.1076256l-16.4950908 7.4970794c-.5264651.239447-.8194899.826798-.7003211 1.403304.1199851.576506.6211472.991991 1.1982183.991991h40.8487961c.178753 0 .355874-.040047.518303-.117637l15.702536-7.4970802c.519119-.2477891.800717-.8334724.67665-1.4049724-.124066-.5715001-.621963-.9803104-1.194953-.9803104v1.25146l-.518303-1.1338228-15.456036 7.3794428h-34.8103635l10.9880207-4.9941599h39.7966818v-1.2514601l-.518303-1.1338228zm-.018124 14.977741-1.235181-.129442c0 .00082-.009107.088479-.029804.268714-.156467 1.346027-.93632 7.611646-2.679813 15.263434-1.738526 7.649331-4.458904 16.693025-8.408669 23.530479l1.078713.609522.76578-.968353-9.241506-7.157781-.764952.967533.550533 1.101891c.108451-.054071 4.059872-2.006342 8.663654-7.134023 4.603781-5.124405 9.84585-13.431593 12.516557-26.100465l-1.215312-.251509-1.235181-.129442 1.235181.129442-1.215312-.25069c-2.587092 12.247777-7.602325 20.133052-11.942844 24.970719-2.169846 2.417605-4.17329 4.071669-5.622062 5.114573-.724385.521862-1.309689.890524-1.707066 1.125649-.198689.117153-.350189.201535-.448705.253967l-.107623.056529-.021525.011469-.000828.000819c-.383303.186789-.641599.554632-.685476.975726-.043049.420275.133287.832358.47023 1.092879l9.240678 7.1586c.283132.21874.652361.3064 1.005034.237583.352672-.067998.66064-.287557.839459-.596414 4.433241-7.696847 7.259587-17.665473 9.015498-25.744091 1.750944-8.074521 2.411584-14.248384 2.415723-14.277877.069541-.652941-.387443-1.241162-1.043115-1.343569-.654845-.101587-1.272436.320327-1.407378.963438z" fill="#494846"/><path d="m139.242201 109.229201-1.235215.129441c.003312.029493.66397 6.203356 2.414961 14.277877 1.756787 8.078618 4.582382 18.047244 9.016571 25.744091.177997.308857.485973.528416.838655.596414.352682.068817.721922-.018843 1.005061-.237583l9.24093-7.1586c.336952-.260521.514121-.672604.470242-1.092879-.043878-.421094-.301352-.788937-.684666-.975726l-.000828-.000819c-.123356-.061444-3.819894-1.936705-8.111685-6.790758-4.29262-4.857329-9.192085-12.685256-11.73868-24.742148-.135775-.643111-.753382-1.065025-1.408245-.963438-.654862.102407-1.111859.690628-1.042316 1.343569l1.235215-.129441-1.216173.251509c2.670779 12.668872 7.912991 20.97606 12.516898 26.100465 4.603907 5.127681 8.555436 7.079952 8.664717 7.134023l.550549-1.101891-.7658-.967533-9.24093 7.157781.7658.968353 1.077915-.609522c-4.21397-7.293776-7.025491-17.096094-8.744195-25.041174-.862663-3.974179-1.45709-7.48712-1.835436-10.002215-.18876-1.257548-.323706-2.266044-.411463-2.95831-.043878-.345723-.076166-.612798-.096863-.792214-.020697-.180235-.030632-.267894-.030632-.268714l-1.234387.129442-1.216173.251509z" fill="#494846"/><path d="m138 101.243406v8.513188c0 .687189.447333 1.243406 1 1.243406.552 0 1-.556217 1-1.243406v-8.513188c0-.687189-.448-1.243406-1-1.243406-.552667 0-1 .556217-1 1.243406m-35.931 41.321219 2.446363 6.634547c.228043.617974.953018.948243 1.62013.736997.667113-.211247 1.023643-.88282.7956-1.500794l-2.446363-6.634547c-.228044-.617974-.953869-.948243-1.620981-.736997-.667113.211247-1.022793.88282-.794749 1.500794" fill="#494846"/><path d="m104.12982 145.557717c.06583-.085848 13.874177-16.995418 20.830533-44.020317.16859-.655714-.215956-1.325327-.859811-1.497023-.643051-.1716952-1.301356.219934-1.469946.875648-3.407129 13.247548-8.508992 24.037394-12.754256 31.504521-2.122632 3.733972-4.03011 6.636446-5.40372 8.601135-.686403.981936-1.23954 1.729221-1.618466 2.227956-.189464.249367-.335575.437415-.433518.560872l-.109183.138174-.032915.04088c-.42549.52081-.355645 1.294259.155746 1.726768.51139.433327 1.270849.362196 1.695536-.158614m-44.0102897-2.882821 3.3747482 6.634884c.3018637.593569 1.0805845.854487 1.7403097.582533.6588503-.271954.9475894-.973515.6457258-1.567084l-3.3747483-6.634884c-.3018637-.594357-1.0805845-.854487-1.7394347-.582533-.6588503.271954-.9484644.973515-.6466007 1.567084" fill="#494846"/><path d="m62.1140032 145.609972c.0740744-.087483 15.7770342-17.000297 22.8458488-44.072574.1709409-.655713-.2197812-1.325325-.8717988-1.497021-.6520175-.171695-1.3195012.219934-1.4904421.875647-3.4489369 13.223816-9.0297513 24.001382-13.7460931 31.461956-2.3573569 3.729878-4.4981886 6.630713-6.044797 8.593764-.7733043.981116-1.3976457 1.727583-1.826626 2.226317-.2148972.250185-.3801401.437414-.4908447.560871l-.1237287.137357-.0374442.04088c-.4599125.495463-.4330503 1.271363.0602363 1.733306.4932867.461942 1.265777.434961 1.7256895-.060503m113.3507728-4.869688-3.375417 7.681164c-.262338.596445.07258 1.267833.747663 1.499612.675084.231779 1.43499-.064126 1.697328-.661344l3.376291-7.680392c.262338-.597217-.07258-1.268605-.747663-1.500384-.675958-.231779-1.435864.064126-1.698202.661344" fill="#494846"/><path d="m176.722125 143.989563-.033718-.04088c-.745006-.924703-13.720787-17.364973-20.319063-43.032658-.16859-.655714-.826089-1.0473432-1.469941-.875648-.643049.171696-1.028397.841309-.859807 1.497023 6.956329 27.024899 20.764621 43.934469 20.830451 44.020317.425488.52081 1.184142.591941 1.69553.158614.511389-.432509.581233-1.205958.156548-1.726768" fill="#494846"/><path d="m341.776337 126h2.810452c1.885246 0 3.413211-1.528273 3.413211-3.412899v-3.186939l-3.250369-.762112v-17.767486c0-1.5282727-.444779-3.0241496-1.280866-4.3037844-1.45343-2.2255927-3.933335-3.5667796-6.591476-3.5667796h-36.382743c-1.886057 0-3.567952 1.184877-4.202309 2.9601679l-4.020833 11.2551171h-25.055062v11.375791h-.413182c-1.548219 0-2.80316 1.254528-2.80316 2.802239v1.334707c0 1.806877 1.465583 3.271978 3.273053 3.271978z" fill="#ed974e"/><path d="m291 126h30z" fill="#ed974e"/><path d="m289.335423 121.921093-2.085178-2.921093h-11.632587l-2.025208 2.921093h-.744764c-.539731 1.163694-.847686 2.451504-.847686 3.812046 0 5.118039 4.253828 9.266861 9.500405 9.266861s9.499595-4.148822 9.499595-9.266861c0-1.360542-.307144-2.648352-.846876-3.812046zm50.05997 0-2.085178-2.921093h-11.633397l-2.025208 2.921093h-.804734c-.538921 1.163694-.846876 2.451504-.846876 3.812046 0 5.118039 4.253018 9.266861 9.499595 9.266861 5.247387 0 9.500405-4.148822 9.500405-9.266861 0-1.360542-.307955-2.648352-.847686-3.812046z" fill="#727773"/><path d="m328 93.5001139v3.0373747c0 3.8804694 1.75526 7.5559484 4.784069 10.0182314l.546153.44428h11.669778v-6.248633c0-1.5051273-.442238-2.9783497-1.27355-4.2386049-1.445129-2.191887-3.91087-3.5127621-6.553829-3.5127621h-9.172621z" fill="#a59a7b"/><path d="m298.987351 98.5750554-2.987351 8.3989666 21 .025978v-11l-14.352524.021107c-1.649249.0024354-3.116444 1.0269373-3.660125 2.5539484" fill="#727773"/><path d="m299 129h15v-6h-15z" fill="#a59a7b"/><path d="m296 107 3.818 16h14.975l2.207-15.973z" fill="#a59a7b"/><path d="m345 118h-4z" fill="#919997"/><path d="m267 118h4" fill="#919997"/><path d="m329 107h6z" fill="#919997"/><path d="m317 107h3z" fill="#919997"/><path d="m299 122h-9z" fill="#919997"/><path d="m335 126.500429c0 1.932189-1.567382 3.499571-3.500429 3.499571-1.932189 0-3.499571-1.567382-3.499571-3.499571 0-1.933047 1.567382-3.500429 3.499571-3.500429 1.933047 0 3.500429 1.567382 3.500429 3.500429m-50 0c0 1.932189-1.566716 3.499571-3.5 3.499571s-3.5-1.567382-3.5-3.499571c0-1.933047 1.566716-3.500429 3.5-3.500429s3.5 1.567382 3.5 3.500429" fill="#919997"/><path d="m298 129h18z" fill="#919997"/><path d="m272 122h-2" fill="#919997"/><path d="m340 122h3z" fill="#919997"/><path d="m323 122h-8z" fill="#919997"/><path d="m267 119h4v-8h-4z" fill="#727773"/><path d="m281.725599 136c-.590233 0-1.165432-.061907-1.725599-.168837 4.296986-.82248 7.549594-4.650266 7.549594-9.255508 0-.195369-.018989-.384306-.030857-.575655h3.450406c.011868.191349.030857.380286.030857.575655 0 5.205017-4.152197 9.424345-9.274401 9.424345" fill="#595e5b"/><path d="m315 129.337h-4v-.329h3.443v-.008h.557z" fill="#4f454d"/><path d="m311 129.008h3v-.008h-3z" fill="#7f7962"/><path d="m314 129h.607v-3h-.607z" fill="#4f454d"/><path d="m311 129h3v-3h-3z" fill="#7f7962"/><path d="m315 129h-4z" fill="#717a77"/><path d="m333 135c2.802105-1.694 4.683669-4.821577 4.683669-8.404271 0-.202182-.020241-.397707-.031576-.595729h2.327666c.012954.196358.020241.395211.020241.595729-.00081 2.352131-.924589 4.470463-2.424011 6.013867-1.216863 1.248868-2.800486 2.108348-4.575989 2.390404" fill="#595e5b"/><path d="m291 126h-.014241c-.000792-.012141-.001583-.023414-.002374-.035555l.012659.020813zm-3.949607-6.745045h-9.050393l8.900858-.254955z" fill="#c77539"/><path d="m290 125h-6.062552c-.273599-1.464901-1.584826-2.575726-3.161768-2.575726-1.576153 0-2.888169 1.110825-3.161768 2.575726h-5.278023c-.004731-.30702-.131675-.585498-.335889-.78992l3.05217-5.159167 2.006659-.050913h9.019317l3.919489 5.968372c.000788.0108.001577.020828.002365.031628" fill="#505452"/><path d="m284 126h-6c.259601-1.706199 1.504489-3 3-3 1.496259 0 2.740399 1.293801 3 3" fill="#6a7472"/><path d="m339 126h-3.660565c-.27615-2.176639-2.112709-3.857324-4.339958-3.858118-1.196391.000794-2.280596.486431-3.070607 1.273608l-.92887-2.41549h9.009414l1.667887 2.421838c.207898.302333.540534.488811.901412.508649.225942.657039.370293 1.349786.421287 2.069513" fill="#505452"/><path d="m333 126h-4c.251262-1.153598 1.051101-1.996778 1.999596-2 .949303.003222 1.748334.846402 2.000404 2" fill="#6a7472"/><path d="m339 126h-2z" fill="#4e5250"/><path d="m290.836123 126-.004028-.014679h.004028l-.008055-.013863-.0145-.045666c-.077329-1.117199-.347176-2.179761-.770876-3.159145h9.382619-9.382619c-.013694-.032619-.028193-.065238-.042692-.097041 2.799964-1.71331 5.521794-3.936291 7.983442-6.814098l1.635998 6.911139h13.667144c.054775.623022.57272 1.112306 1.202631 1.112306h2.602614l-.809541 2.107999-2.854739.001631v-.003262h1.234046v-1.881297h-1.234046v-.539028h-14.49924v2.430927zm52.366419-1.219133h-1.552224c-.124855-.737188-.323817-1.448281-.587219-2.125124h1.835764-1.835764c-.066053-.170434-.136132-.338422-.210239-.503963-.194935-.437094-.627495-.719248-1.101137-.719248h-.121633l-1.711715-2.488825c-.22635-.329452-.59608-.52435-.991587-.52435h-10.821266l-2.331961-6.070385c-.18124-.471344-.626689-.779593-1.126107-.779593-.500224 0-.944867.308249-1.126108.779593l-3.489483 9.08356h-3.542648c-.037054 0-.074913.001631-.111161.005709l1.966258-14.348259h3.084311-3.084311v-11.049667h-4.183836v.0065238l-5.019959.0073392c.142576-.6711348.275486-1.3553171.399535-2.054178h19.74152v2.3934151c0 3.9672789 1.755213 7.7249819 4.783943 10.2423489l.546138.454218h8.156628v11.50144h.000805-.174796.174796l2.448761.581433c.159491.298463.438199.525165.782153.608343v2.786474c0 .843199-.299651 1.615453-.797458 2.213195m-14.661148-17.690885h5.676453z" fill="#cb8443"/><path d="m291 125-1-2.910594c.055418-.029301.110008-.059353.164599-.089406.014888.029301.029777.059354.043838.089406h-.049628.049628c.43507.90233.712159 1.881293.791563 2.910594" fill="#626764"/><path d="m342 107h-8.467061l-.566923-.451096c-3.144001-2.500063-4.966016-6.231934-4.966016-10.1719416v-2.3769624h9.521472c.253359 0 .505883.0129579.755061.0396835.945709.5903937 1.767665 1.3727262 2.401482 2.312173.862927 1.2795913 1.321985 2.7754174 1.321985 4.3036385z" fill="#8e866c"/><path d="m313 107-9-.010565c1.542279-3.169561 2.82077-6.808053 3.747823-10.9821206l5.252177-.0073144z" fill="#626764"/><path d="m299 125v-2h15v.443h-14.261v1.548h14.261v.003z" fill="#8e866c"/><path d="m313.002369 123h-13.398526l-1.603843-7.046352c2.039747-2.478487 3.897868-5.434213 5.465386-8.953648l8.433008.010809v.00582h4.101606l-1.927613 14.628975c-.602527.0582-1.074756.591977-1.074756 1.241322 0 .038245.001579.07566.004738.113074" fill="#8e866c"/><path d="m341.217 118h-.217z" fill="#7d8684"/><path d="m335 107h-6z" fill="#7d8684"/><path d="m320 107h-3z" fill="#7d8684"/><path d="m299 122h-9z" fill="#7d8684"/><path d="m341 122h2" fill="#7d8684"/><path d="m344.631602 125h-.993453c.539503-.608187.864252-1.393934.864252-2.251867v-2.835162c.001746.00083.004365.00083.006111.00166l2.491488.555084v2.278418c-.001746 1.242924-1.060672 2.249378-2.368398 2.251867zm-.976866-5.706002-2.653863-.591592h2.496726c0 .212409.056744.414861.157137.591592zm-2.654736-.591592h2.497599v-11.702406h-2.497599z" fill="#9c6939"/><path d="m343 107h-2.347006v-6.363932c0-1.5328998-.450369-3.033306-1.296964-4.3168154-.621822-.9423233-1.42822-1.7270511-2.35603-2.3192526 1.989336.2177092 3.794914 1.3046304 4.903199 2.9853777.716161 1.0852965 1.096801 2.3541836 1.096801 3.6506903z" fill="#6e6956"/><path d="m343 118h-2z" fill="#626a69"/><path d="m314 126h1v-2h-1z" fill="#ab6734"/><path d="m300 126h14v-2h-14z" fill="#6a634f"/><path d="m291.01 126.017h-.005l-.005-.017z" fill="#ab6734"/><path d="m312 96.008v-.008h4z" fill="#ab6734"/><path d="m316 107-4-.006v-10.988l4-.006z" fill="#464947"/><path d="m316 107.007h-4v-.007z" fill="#6a634f"/><path d="m299.143028 98.6698516-1.148471-.3880361-2.926697 8.1267655c-.129679.360543-.071323.758005.156426 1.069848.228559.311057.595713.49565.990424.496435l20.567927.025136c.325008 0 .630565-.122538.860745-.344834.22937-.222296.356618-.518429.356618-.833413v-10.6435019c0-.3149848-.127248-.6119031-.356618-.8341991-.23018-.222296-.536547-.3448337-.861556-.3440482l-14.056411.0204229c-2.131601.0039275-4.028159 1.3109966-4.730858 3.2613888l1.148471.3880361 1.147661.3880362c.36148-1.0046523 1.339747-1.6793953 2.437968-1.6809663l12.839859-.018852v8.2838645l-17.64123-.021208 2.363403-6.5628382zm15.02348 27.3301484h6.666984c.64469 0 1.166508-.448 1.166508-1 0-.552667-.521818-1-1.166508-1h-6.666984c-.64469 0-1.166508.447333-1.166508 1 0 .552.521818 1 1.166508 1m-22.969572 0h7.606128c.660709 0 1.196936-.448 1.196936-1 0-.552667-.536227-1-1.196936-1h-7.606128c-.661507 0-1.196936.447333-1.196936 1 0 .552.535429 1 1.196936 1" fill="#494846"/><path d="m341.271665 126h3.122934c2.544135-.0008 4.604595-2.046587 4.605401-4.571618v-3.148288c0-.558451-.385328-1.041695-.932688-1.168907l-2.301492-.535249.000806-16.6007174c0-1.7433594-.51189-3.4483153-1.471987-4.9076487-1.669488-2.537832-4.517533-4.0675719-7.57114-4.0675719h-36.201532c-2.387747 0-4.517533 1.4889361-5.320435 3.7203401l-3.713825 10.3225439h-24.078195c-.31842 0-.629585.128012-.854494.351232-.225715.224021-.354696.532849-.354696.848878v11.237827h1.20919v-1.20011h-.411124c-2.208787.0008-3.997582 1.776163-3.998388 3.968363v1.318521c.000806 2.448224 1.999194 4.431605 4.465941 4.432405h4.317614c.668279 0 1.20919-.537649 1.20919-1.20011 0-.66246-.540911-1.200109-1.20919-1.200109h-4.317614c-1.130189-.002401-2.045143-.910484-2.047561-2.032186v-1.318521c.001612-.865679.707779-1.566543 1.580008-1.568143h.411124c.31842 0 .630391-.128012.855301-.352032.224909-.223221.353889-.532049.353889-.848078v-10.037718h23.72108c.511085 0 .966546-.318429 1.138251-.796872l4.000806-11.118617c.459492-1.2761167 1.67755-2.1273946 3.043128-2.1273946h36.201532c2.237001 0 4.323256 1.1201025 5.54615 2.9794725.703749 1.0688977 1.077792 2.3186119 1.077792 3.5955287v17.5520044c0 .558451.386134 1.041696.933494 1.168907l2.300685.535249v2.197001c-.001612 1.19851-.979443 2.168998-2.187021 2.171399h-3.122934c-.668279 0-1.209996.537649-1.209996 1.200109 0 .662461.541717 1.20011 1.209996 1.20011" fill="#494846"/><path d="m289.176971 122.247386.977538-.700676-2.043221-3.020999c-.223143-.330307-.586841-.525711-.977538-.525711h-11.398525c-.394668 0-.766307.202763-.987067.53961l-1.630289 2.481389h-.096881c-.466931 0-.892569.282887-1.084742.721116-.595575 1.353113-.937039 2.859933-.936245 4.447695 0 5.970868 4.700284 10.809372 10.499603 10.81019 5.799319-.000818 10.499602-4.839322 10.500396-10.81019 0-1.587762-.341463-3.094582-.936245-4.447695-.192966-.438229-.618605-.721116-1.085536-.721116h-.801248v1.226387l.977538-.700676-.977538.700676v1.226387h.801248v-1.226387l-1.085536.505271c.462961 1.054693.72422 2.210767.725014 3.437153-.000794 2.31133-.906863 4.392917-2.378332 5.909549-1.472263 1.514179-3.494044 2.44705-5.739761 2.447868-2.245718-.000818-4.267499-.933689-5.739762-2.447868-1.471469-1.516632-2.377538-3.598219-2.378332-5.909549.000794-1.226386.262053-2.38246.725014-3.437153l-1.085536-.505271v1.226387h.729779c.393874 0 .765513-.202763.986273-.539611l1.630289-2.481389h10.14464l1.687464 2.495288c.223142.330307.587635.525712.977538.525712zm50.059558 0 .977538-.700676-2.043222-3.020999c-.223142-.330307-.587635-.525711-.977538-.525711h-11.399319c-.393875 0-.765514.202763-.986274.53961l-1.630289 2.481389h-.156438c-.466931 0-.89257.282887-1.084742.721116-.594782 1.353113-.936245 2.859933-.936245 4.447695.000794 5.970868 4.700284 10.809372 10.499603 10.81019 5.799319-.000818 10.499603-4.839322 10.500397-10.81019 0-1.587762-.341463-3.094582-.936245-4.447695-.192172-.438229-.618605-.721116-1.085536-.721116h-.74169v1.226387l.977538-.700676-.977538.700676v1.226387h.74169v-1.226387l-1.084742.506089c.462167 1.053875.72422 2.209949.72422 3.436335-.000794 2.31133-.906863 4.392917-2.377538 5.909549-1.473057 1.514179-3.494839 2.44705-5.740556 2.447868-2.244923-.000818-4.266705-.933689-5.739762-2.447868-1.470675-1.516632-2.376744-3.598219-2.377538-5.909549 0-1.226386.262053-2.383278.72422-3.436335l-1.085536-.506089v1.226387h.788542c.394668 0 .766308-.202763.987068-.539611l1.630289-2.481389h10.143846l1.688258 2.495288c.223143.330307.587635.525712.977539.525712zm-11.991922-29.4879952h-1.244607v3.1498638c0 4.3955824 1.974776 8.5595564 5.382509 11.3479464l.562562.460734c.22237.181977.501992.282065.789911.282065h12.021241c.326917 0 .648025-.132347.879522-.363128.231497-.231607.364255-.550895.364255-.877627v-6.480051c0-1.8024034-.526054-3.5651029-1.514271-5.0738612-1.718387-2.6237836-4.649851-4.2053328-7.792898-4.2053328h-9.448224c-.327747 0-.648026.1323472-.880352.3631277-.231497.2307804-.364255.5508953-.364255.8776275v.5186356h2.489213v-.5186356h-1.244606v1.2407551h9.448224c2.302522 0 4.449884 1.1588653 5.708596 3.0803815.724361 1.1050992 1.110189 2.397139 1.110189 3.7173022v5.239296h-10.331065l-.219051-.178669c-2.831065-2.317731-4.472287-5.7777832-4.472287-9.4305664v-3.1498638zm-28.101579 5.9104608-1.148471-.3880361-2.926697 8.1267655c-.129679.360543-.071323.758005.156426 1.069848.228559.311057.595713.49565.990424.496435l20.567927.025136c.325008 0 .630565-.122538.860745-.344834.22937-.222296.356618-.518429.356618-.833413v-10.6435019c0-.3149848-.127248-.6119031-.356618-.8341991-.23018-.222296-.536547-.3448337-.861556-.3440482l-14.056411.0204229c-2.131601.0039275-4.028159 1.3109966-4.730858 3.2613888l1.148471.3880361 1.147661.3880362c.36148-1.0046523 1.339747-1.6793953 2.437968-1.6809663l12.839859-.018852v8.2838645l-17.64123-.021208 2.363403-6.5628382zm14.642686 30.1301484v-1.2h-13.357143v-3.2h12.142858v4.4h1.214285v-1.2 1.2h1.214286v-5.6c0-.316-.129524-.6248-.355381-.8488-.226667-.2232-.539143-.3512-.858905-.3512h-14.571428c-.319762 0-.632238.128-.858905.3512-.225857.224-.355381.5328-.355381.8488v5.6c0 .316.129524.6248.355381.8488.226667.2232.539143.3512.858905.3512h14.571428c.319762 0 .632238-.128.858905-.3512.225857-.224.355381-.5328.355381-.8488z" fill="#494846"/><path d="m296.21605 107.213159-1.182524.282261 3.73966 15.573685c.131302.545111.620845.930895 1.182524.930895h14.666859c.605445 0 1.120925-.448059 1.204407-1.046549l2.161611-15.547805c.04782-.347771-.055925-.697969-.286918-.962437-.230993-.265277-.56411-.417325-.915868-.417325l-20.56813-.025881c-.373642-.000809-.72459.169033-.956394.460999-.230993.292775-.314475.672088-.227751 1.034418l1.182524-.282261-.001621 1.213155 19.174065.024264-1.824442 13.12311h-12.649517l-3.516772-14.643599-1.181713.28307-.001621 1.213155z" fill="#494846"/><path d="m301.226743 111h1.546514c.67798 0 1.226743-.448 1.226743-1 0-.552667-.548763-1-1.226743-1h-1.546514c-.67798 0-1.226743.447333-1.226743 1 0 .552.548763 1 1.226743 1m43.585609 6h-3.624704c-.655581 0-1.187648.448-1.187648 1 0 .552667.532067 1 1.187648 1h3.624704c.655581 0 1.187648-.447333 1.187648-1 0-.552-.532067-1-1.187648-1m-77.566209 2h4.507714c.688702 0 1.246143-.448 1.246143-1 0-.552667-.557441-1-1.246143-1h-4.507714c-.687871 0-1.246143.447333-1.246143 1 0 .552.558272 1 1.246143 1m61.948243-11h5.611228c.660097 0 1.194386-.448 1.194386-1 0-.552667-.534289-1-1.194386-1h-5.611228c-.659301 0-1.194386.447333-1.194386 1 0 .552.535085 1 1.194386 1m-12.876477 0h3.364182c.728364 0 1.317909-.448 1.317909-1 0-.552667-.589545-1-1.317909-1h-3.364182c-.728364 0-1.317909.447333-1.317909 1 0 .552.589545 1 1.317909 1m-16.541733 13h-9.552352c-.676367 0-1.223824.447333-1.223824 1 0 .552.547457 1 1.223824 1h9.552352c.676367 0 1.223824-.448 1.223824-1 0-.552667-.547457-1-1.223824-1m35.014303 5.500403h-1.211135c-.001614 1.147289-.931146 2.076737-2.079344 2.078351-1.147391-.001614-2.076923-.931062-2.079344-2.078351.002421-1.148095.931953-2.077543 2.079344-2.079964 1.148198.002421 2.07773.931869 2.079344 2.079964h2.420656c0-2.485791-2.013986-4.499596-4.5-4.500403-2.485207.000807-4.499193 2.014612-4.5 4.500403.000807 2.484985 2.014793 4.49879 4.5 4.499597 2.486014-.000807 4.5-2.014612 4.5-4.499597zm-50.000807 0h-1.210328c-.001614 1.147289-.931146 2.076737-2.079344 2.079158-1.148198-.002421-2.076923-.931869-2.079344-2.079158.002421-1.148095.931146-2.077543 2.079344-2.079964 1.148198.002421 2.07773.931869 2.079344 2.079964h2.420656c-.000807-2.485791-2.013986-4.499596-4.5-4.500403-2.486014.000807-4.499193 2.014612-4.5 4.500403.000807 2.484985 2.013986 4.49879 4.5 4.499597 2.486014-.000807 4.499193-2.014612 4.5-4.499597zm13.397715 3.499597h15.625226c.656229 0 1.187387-.448 1.187387-1s-.531158-1-1.187387-1h-15.625226c-.656229 0-1.187387.448-1.187387 1s.531158 1 1.187387 1m-25.424807-9h-2.52516c-.683881 0-1.23742.448-1.23742 1 0 .552667.553539 1 1.23742 1h2.52516c.683881 0 1.23742-.447333 1.23742-1 0-.552-.553539-1-1.23742-1m67.540446 2h3.393948c.71927 0 1.303026-.447333 1.303026-1 0-.552-.583756-1-1.303026-1h-3.393948c-.71927 0-1.303026.448-1.303026 1 0 .552667.583756 1 1.303026 1m-17.572322-2h-8.463099c-.700185 0-1.267605.448-1.267605 1 0 .552667.56742 1 1.267605 1h8.463099c.70103 0 1.269296-.447333 1.269296-1 0-.552-.568266-1-1.269296-1m-20.730704-29.141263v-3.717474c0-.630738-.448-1.141263-1-1.141263s-1 .510525-1 1.141263v3.717474c0 .6299772.448 1.141263 1 1.141263s1-.5112858 1-1.141263m36 0v-3.717474c0-.630738-.448-1.141263-1-1.141263-.552667 0-1 .510525-1 1.141263v3.717474c0 .6299772.447333 1.141263 1 1.141263.552 0 1-.5112858 1-1.141263m-16 0v-3.717474c0-.630738-.448-1.141263-1-1.141263-.552667 0-1 .510525-1 1.141263v3.717474c0 .6299772.447333 1.141263 1 1.141263.552 0 1-.5112858 1-1.141263" fill="#494846"/><path d="m297.210208 89h43.579584c.668035 0 1.210208-.448 1.210208-1 0-.5526667-.542173-1-1.210208-1h-43.579584c-.668842 0-1.210208.4473333-1.210208 1 0 .552.541366 1 1.210208 1m-25.456351 28.80163v-1.19837h-3.261571v-5.20652h2.015428v6.40489h1.246143v-1.19837 1.19837h1.246143v-7.60326c0-.315571-.132922-.623951-.364704-.847647-.232614-.222897-.553288-.350723-.881439-.350723h-4.507714c-.328151 0-.648825.127826-.880608.350723-.232613.222897-.365535.532076-.365535.847647v7.60326c0 .315571.132922.623951.365535.847647.231783.222897.552457.350723.880608.350723h4.507714c.328151 0 .648825-.127826.881439-.351522.231782-.222897.364704-.531277.364704-.846848z" fill="#494846"/><path d="m271.753857 117.80163v-1.19837h-3.261571v-5.20652h2.015428v6.40489h1.246143v-1.19837 1.19837h1.246143v-7.60326c0-.315571-.132922-.623951-.364704-.847647-.232614-.222897-.553288-.350723-.881439-.350723h-4.507714c-.328151 0-.648825.127826-.880608.350723-.232613.222897-.365535.532076-.365535.847647v7.60326c0 .315571.132922.623951.365535.847647.231783.222897.552457.350723.880608.350723h4.507714c.328151 0 .648825-.127826.881439-.351522.231782-.222897.364704-.531277.364704-.846848z" fill="#494846"/><path d="m199.349388 137h10.650612v5h-10.650612c-1.297388 0-2.349388-1.119064-2.349388-2.5s1.052-2.5 2.349388-2.5" fill="#8d7759"/><path d="m199.680585 137.174759v1.17476h9.848118v2.300962h-9.848118c-.66725-.001566-1.208464-.515328-1.209288-1.150481.000824-.635153.542038-1.148915 1.209288-1.150481v-2.349519c-2.033054.000783-3.679761 1.566346-3.680585 3.5.000824 1.933654 1.647531 3.499217 3.680585 3.5h11.083767c.325387 0 .644184-.125308.874015-.344596.22983-.218505.361633-.52081.361633-.830163v-4.650482c0-.309353-.131803-.611658-.361633-.830946-.229831-.218505-.548628-.343813-.874015-.343813h-11.083767z" fill="#494846"/><path d="m208 139.5c0 1.380936 1.119064 2.5 2.5 2.5s2.5-1.119064 2.5-2.5-1.119064-2.5-2.5-2.5-2.5 1.119064-2.5 2.5" fill="#b3945c"/><path d="m208.174759 139.5h-1.174759c.000783 1.933654 1.566346 3.499217 3.5 3.5 1.933654-.000783 3.499217-1.566346 3.5-3.5-.000783-1.933654-1.566346-3.499217-3.5-3.5-1.933654.000783-3.499217 1.566346-3.5 3.5h2.349519c.001566-.635153.515328-1.148915 1.150481-1.150481.635153.001566 1.149698.515328 1.150481 1.150481-.000783.635153-.515328 1.148915-1.150481 1.150481-.63437-.001566-1.148915-.515328-1.150481-1.150481z" fill="#494846"/><path d="m198.64982 137h-10.64982v5h10.64982c1.29818 0 2.35018-1.119064 2.35018-2.5s-1.052-2.5-2.35018-2.5" fill="#8d7759"/><path d="m199.318591 137.174759v-1.174759h-11.082943c-.326211 0-.644184.125308-.874015.343813-.22983.219288-.361633.521593-.361633.830946v4.650482c0 .309353.131803.611658.361633.830946.229831.218505.547804.343813.874015.343813h11.082943c2.033878-.000783 3.680585-1.566346 3.681409-3.5-.000824-1.933654-1.647531-3.499217-3.681409-3.5v2.349519c.668074.001566 1.209288.515328 1.210112 1.150481-.000824.635153-.542038 1.148915-1.210112 1.150481h-9.848118v-2.300962h9.848118z" fill="#494846"/><path d="m190 139.5c0 1.380936-1.119252 2.5-2.499579 2.5-1.381169 0-2.500421-1.119064-2.500421-2.5s1.119252-2.5 2.500421-2.5c1.380327 0 2.499579 1.119064 2.499579 2.5" fill="#b3945c"/><path d="m189.825109 139.5h-1.174891c-.000783.635153-.515385 1.148915-1.149826 1.150481-.635225-.001566-1.149827-.515328-1.15061-1.150481.000783-.635153.515385-1.148915 1.15061-1.150481.634441.001566 1.149043.515328 1.149826 1.150481h2.349782c-.000783-1.933654-1.566521-3.499217-3.499608-3.5-1.933871.000783-3.499609 1.566346-3.500392 3.5.000783 1.933654 1.566521 3.499217 3.500392 3.5 1.933087-.000783 3.498825-1.566346 3.499608-3.5z" fill="#494846"/><path d="m204 142h-5v-6.732558c0-1.252569 1.119857-2.267442 2.5-2.267442 1.381038 0 2.5 1.014873 2.5 2.267442z" fill="#8d7759"/><path d="m203.777648 141.829289v-1.170711h-3.332945v-5.306442c.00163-.558039.473458-1.009934 1.055297-1.010714.582654.00078 1.054482.452675 1.055297 1.010714v6.477153h1.222351v-1.170711 1.170711h1.222352v-6.477153c-.000815-1.852065-1.56624-3.351356-3.5-3.352136-1.932945.00078-3.499185 1.500071-3.5 3.352136v6.477153c0 .308287.131199.60955.358556.828083.227358.217752.54191.342628.863796.342628h4.555296c.321886 0 .636438-.124876.86461-.343409.227358-.217752.357742-.519015.357742-.827302z" fill="#494846"/><path d="m199 129c-3.313421 0-6-2.697582-6-6.024574v-3.338089c0-.351962.284211-.637337.635526-.637337h10.728948c.351315 0 .635526.285375.635526.637337v3.338089c0 3.326992-2.686579 6.024574-6 6.024574" fill="#727773"/><path d="m199 129c-3.313421 0-6-2.640259-6-5.896552v-3.103448c0 3.256293 2.686579 5.896552 6 5.896552s6-2.640259 6-5.896552v3.103448c0 3.256293-2.686579 5.896552-6 5.896552" fill="#b4b6b2"/><path d="m199.5 129.751201v-1.248799c-1.392033-.000833-2.641484-.566955-3.55467-1.487737-.912363-.923279-1.471978-2.184566-1.472803-3.590714v-3.505795h-.572802v.579442c.316484-.000832.571978-.258917.572802-.579442h-.572802v.579442h11.20055v-.579442h-.572802c.000824.320525.256318.57861.572802.579442v-.579442h-.572802v3.505795c-.000825 1.406148-.561264 2.667435-1.472803 3.590714-.913186.920782-2.162637 1.486904-3.55467 1.487737v2.497598c4.142308-.000833 7.499176-3.391739 7.5-7.576049v-3.505795c-.000824-1.059815-.849725-1.917323-1.899725-1.918156h-11.20055c-1.05.000833-1.898901.858341-1.899725 1.918156v3.505795c.000824 4.18431 3.357692 7.575216 7.5 7.576049z" fill="#494846"/><path d="m191.227663 120h15.544674c.67767 0 1.227663-.448 1.227663-1 0-.552667-.549993-1-1.227663-1h-15.544674c-.67767 0-1.227663.447333-1.227663 1 0 .552.549993 1 1.227663 1" fill="#494846"/><path d="m182 111v31" fill="#d0d2cc"/><path d="m181 111.21392v30.57216c0 .670084.448 1.21392 1 1.21392.552667 0 1-.543836 1-1.21392v-30.57216c0-.670084-.447333-1.21392-1-1.21392-.552 0-1 .543836-1 1.21392" fill="#494846"/><path d="m217 111v31" fill="#d0d2cc"/><path d="m215 111.21392v30.57216c0 .670084.447333 1.21392 1 1.21392.552 0 1-.543836 1-1.21392v-30.57216c0-.670084-.448-1.21392-1-1.21392-.552667 0-1 .543836-1 1.21392m-31.204737-6.570281-1.795481 3.589718-1.794705-3.589718c-.287091-.575007-.986196-.807803-1.561153-.520688-.574958.287891-.80851.987056-.520643 1.562063l2.835991 5.671692c.197084.394978.599011.643294 1.04051.643294.442275 0 .843426-.248316 1.041286-.643294l2.835991-5.671692c.287091-.575007.054315-1.274172-.520643-1.562063-.574957-.287115-1.274062-.054319-1.561153.520688" fill="#494846"/><path d="m217.794923 104.643639-1.794705 3.589718-1.794706-3.589718c-.287866-.575007-.986971-.807803-1.561928-.520688-.574958.287891-.807734.987056-.520643 1.562063l2.835991 5.671692c.19786.394978.599011.643294 1.041286.643294.441499 0 .843426-.248316 1.04051-.643294l2.835991-5.671692c.287867-.575007.054315-1.274172-.520643-1.562063-.574957-.287115-1.274062-.054319-1.561153.520688" fill="#494846"/><path d="m179.222924 109h41.554152c.675054 0 1.222924-.448 1.222924-1 0-.552667-.54787-1-1.222924-1h-41.554152c-.675869 0-1.222924.447333-1.222924 1 0 .552.547055 1 1.222924 1" fill="#494846"/><path d="m203.768876 118.780092v-1.219909h-7.764111l2.965613-7.875728 3.647713 9.528297 1.150785-.43266v-1.219909 1.219909l1.151607-.432661-4.808348-12.560177c-.1814-.474951-.641058-.788874-1.154069-.787248-.513011.001627-.971027.317176-1.149965.793754l-4.73037 12.559364c-.141181.374918-.087828.793753.142001 1.122315.23065.328562.608226.524561 1.011247.524561h9.537897c.403843 0 .784702-.198438 1.01371-.527.229008-.329376.280719-.752277.137897-1.125569zm-13.768876 7.152799v-.865782c0-.589755-.448-1.067109-1-1.067109s-1 .477354-1 1.067109v.865782c0 .589755.448 1.067109 1 1.067109s1-.477354 1-1.067109m4 11.797751v-2.636033c-.000866-1.618854-1.34296-2.928831-2.999567-2.929677-.220938-.000846-.401155-.176018-.401155-.391809v-1.503765c0-.700686-.582238-1.269358-1.299639-1.269358s-1.299639.568672-1.299639 1.269358v1.503765c.000866 1.618855 1.34296 2.929678 3.000433 2.930524.220939 0 .400289.175172.400289.390962v2.636033c0 .700686.582238 1.269358 1.299639 1.269358.718267 0 1.299639-.568672 1.299639-1.269358m13.467511.021198v-4.382705l.032078-.032452c1.381806-.000832 2.499588-1.132497 2.500411-2.529604v-3.558919c0-.689817-.5519-1.24816-1.233756-1.24816-.681033 0-1.233755.558343-1.233755 1.24816v3.558919l-.0329.033285c-1.380984.000832-2.498766 1.131664-2.499589 2.528771v4.382705c0 .689817.5519 1.24816 1.233756 1.24816.681033 0 1.233755-.558343 1.233755-1.24816m-11.467511-.967522v-5.568636c0-.671867-.447333-1.215682-1-1.215682-.552 0-1 .543815-1 1.215682v5.568636c0 .671867.448 1.215682 1 1.215682.552667 0 1-.543815 1-1.215682m7-6.681917v.795198c0 .608525.448 1.102401 1 1.102401.552667 0 1-.493876 1-1.102401v-.795198c0-.608525-.447333-1.102401-1-1.102401-.552 0-1 .493876-1 1.102401" fill="#494846"/><path d="m239.484082 156h-14.967351c-.83721 0-1.516731-.70643-1.516731-1.577834v-1.843486c0-.87225.679521-1.57868 1.516731-1.57868h14.967351c.837209 0 1.515918.70643 1.515918 1.57868v1.843486c0 .871404-.678709 1.577834-1.515918 1.577834" fill="#8a6569"/><path d="m235.946468 151h-8.892936c-1.686728 0-3.053532-1.406415-3.053532-3.140207v-11.719586c0-1.734606 1.366804-3.140207 3.053532-3.140207h8.892936c1.686728 0 3.053532 1.405601 3.053532 3.140207v11.719586c0 1.733792-1.366804 3.140207-3.053532 3.140207" fill="#e4be82"/><path d="m238.567082 156h-10.567082 10.567082c.701115 0 1.287344-.42769 1.432918-1-.145574.57231-.731803 1-1.432918 1" fill="#403f3d"/><path d="m240 152c-.109823-.57384-.516004-1-1-1 .483996 0 .890177.42616 1 1" fill="#8d9864"/><path d="m238.536681 156h-10.536681c1.217732-1.150592 2.542173-2.762267 3.752844-5h6.783837c.688113 0 1.265594.51269 1.421734 1.203046.027462.120135.041585.246193.041585.375634v1.843486c0 .117597-.011769.232656-.034523.343485-.145155.70643-.729698 1.234349-1.428796 1.234349" fill="#77575c"/><path d="m239.004 136.192c0-.008 0-.016 0-.024zm0-.034c0-.005 0-.01 0-.015zm0-.028c0-.004 0-.007 0-.011zm-.001-.026c0-.003 0-.006 0-.009zm0-.025c-.001-.002-.001-.005-.001-.008 0 .003 0 .006.001.008m-.001-.026c0-.002 0-.004 0-.006zm-.001-.026c0-.001 0-.002 0-.003zm-.001-.025c0-.001 0-.001 0-.002z" fill="#8d9864"/><path d="m235.954186 151h-3.954186c2.155608-3.813414 3.940758-9.525384 4.127962-18 1.549763.092115 2.792259 1.367058 2.868878 2.968887v.001631c0 .005706 0 .011412.00079.017934v.002445c0 .005706 0 .011413.00079.016304v.004891.014673c0 .002446 0 .004891.00079.006522v.013042.007337c0 .004076 0 .008152.00079.012228v.008967.010597.012228.008152.019564 11.731262c0 1.735519-1.363349 3.143336-3.045814 3.143336" fill="#c1a473"/><path d="m238.322835 155.821549v-1.178451h-14.64567c-.159866 0-.2911-.128844-.2911-.286757v-1.711897c0-.158698.131234-.287542.2911-.287542h14.64567c.159866 0 .290304.128844.2911.287542v1.711897c-.000796.157913-.131234.286757-.2911.286757v2.356902c1.478565 0 2.67637-1.183165 2.677165-2.643659v-1.711897c-.000795-1.461279-1.1986-2.643658-2.677165-2.644444h-14.64567c-1.478565.000786-2.67637 1.183165-2.677165 2.644444v1.711897c.000795 1.460494 1.1986 2.643659 2.677165 2.643659h14.64567z" fill="#494846"/><path d="m236.606235 150.804924v-1.195077h-9.21247c-1.067268-.00239-1.931091-.841333-1.932731-1.877066v-11.465562c.00164-1.036529.865463-1.875473 1.932731-1.877066h9.21247c1.067268.001593 1.931091.840537 1.932731 1.877066v11.465562c-.00164 1.035733-.865463 1.874676-1.932731 1.877066v2.390153c2.427399-.000797 4.392945-1.910529 4.393765-4.267219v-11.465562c-.00082-2.357487-1.966366-4.266422-4.393765-4.267219h-9.21247c-2.427399.000797-4.392945 1.909732-4.393765 4.267219v11.465562c.00082 2.35669 1.966366 4.266422 4.393765 4.267219h9.21247z" fill="#494846"/><path d="m228 148h8v-4h-8z" fill="#ed974e"/><path d="m235.783751 146.863493v-1.136507h-6.351253v-1.453972h5.135004v2.590479h1.216249v-1.136507 1.136507h1.216249v-3.726986c0-.29928-.129733-.591741-.355956-.803132-.226222-.212148-.540014-.333375-.860293-.333375h-7.567502c-.320279 0-.63326.121227-.859483.333375-.227033.211391-.356766.503852-.356766.803132v3.726986c0 .29928.129733.592499.356766.803889.226223.211391.539204.332618.859483.332618h7.567502c.320279 0 .634071-.121227.860293-.332618.226223-.21139.355956-.504609.355956-.803889z" fill="#494846"/><path d="m226 133h11v-4h-11z" fill="#727773"/><path d="m236.793765 132.840057v-1.159944h-9.381294v-1.360226h8.175058v2.52017h1.206236v-1.159944 1.159944h1.206235v-3.680114c0-.305451-.128665-.603944-.353025-.819693-.225164-.216523-.535568-.34025-.85321-.34025h-10.58753c-.317642 0-.62885.123727-.85321.34025-.22436.215749-.353025.514242-.353025.819693v3.680114c0 .305451.128665.603944.353025.820466.22436.21575.535568.339477.85321.339477h10.58753c.317642 0 .628046-.123727.85321-.339477.22436-.216522.353025-.515015.353025-.820466z" fill="#494846"/><path d="m228 133.16576v4.66848c0 .6435.447333 1.16576 1 1.16576.552 0 1-.52226 1-1.16576v-4.66848c0-.6435-.448-1.16576-1-1.16576-.552667 0-1 .52226-1 1.16576m5 0v4.66848c0 .6435.447333 1.16576 1 1.16576.552 0 1-.52226 1-1.16576v-4.66848c0-.6435-.448-1.16576-1-1.16576-.552667 0-1 .52226-1 1.16576m.745819-3.470918v-1.305159h-3.237458v-.747421c.000836-.569049.44398-1.031075.991639-1.031945.546823.00087.990803.462896.991639 1.031945v2.05258h1.25418v-1.305159 1.305159h1.254181v-2.05258c-.000836-2.011684-1.56689-3.641392-3.5-3.642262-1.933946.00087-3.499164 1.630578-3.5 3.642262v2.05258c0 .343691.133779.680422.367057.923182.234114.242759.556856.381976.887124.381976h4.491638c.330268 0 .65301-.139217.886288-.381976.234114-.24276.367893-.579491.367893-.923182z" fill="#494846"/><path d="m242 147h-3v-6h.988244c1.110555 0 2.011756.938355 2.011756 2.096442z" fill="#ed974e"/><path d="m242.713918 147.735126v-1.264874h-2.141755v-5.205378h-1.286081v1.264874h1.12918c.558159.000843 1.01086.446079 1.012575.995877v4.209501h1.286081v-1.264874 1.264874h1.286082v-4.209501c-.000857-1.947906-1.60503-3.524782-3.584738-3.525625h-1.12918c-.338668 0-.66962.13492-.908831.37103-.240069.235266-.377251.56076-.377251.893844v6.470252c0 .333084.137182.659421.377251.894688.239211.235266.570163.370186.908831.370186h3.427836c.338668 0 .66962-.13492.908831-.370186.240069-.235267.377251-.561604.377251-.894688z" fill="#494846"/><path d="m221 147h3v-6h-.988244c-1.111306 0-2.011756.938355-2.011756 2.096442z" fill="#ed974e"/><path d="m220.286082 147.735126v1.264874h3.427836c.338668 0 .66962-.13492.908831-.370186.240069-.235267.377251-.561604.377251-.894688v-6.470252c0-.333084-.137182-.658578-.377251-.893844-.239211-.23611-.570163-.37103-.908831-.37103h-1.12918c-1.980565.000843-3.583881 1.577719-3.584738 3.525625v4.209501c0 .333084.137182.659421.376393.894688.240069.235266.571021.370186.909689.370186v-1.264874h1.286081v-4.209501c.000858-.549798.453559-.995034 1.012575-.995877h1.12918v-1.264874h-1.286081v5.205378h-2.141755v1.264874h1.286081zm22.713918-25.935776v-31.5987002c0-.6627587-.448-1.2006498-1-1.2006498s-1 .5378911-1 1.2006498v31.5987002c0 .663559.448 1.20065 1 1.20065s1-.537091 1-1.20065" fill="#494846"/><path d="m236 90h13l-4.794-11.038-1.706-3.962-1.787 4.201z" fill="#7d9e85"/><path d="m236 84h13l-6.5-15z" fill="#7d9e85"/><path d="m237 76h11l-5.5-15z" fill="#7d9e85"/><path d="m236.235518 75.7857143v1.2142857h11.528964c.409278 0 .78891-.1967143 1.01949-.528619.230579-.3319048.279989-.7512381.131759-1.1260477l-5.764482-14.5714285c-.185287-.4679048-.640681-.7739048-1.151249-.7739048s-.965962.306-1.151249.7739048l-5.764482 14.5714285c-.14823.3748096-.09882.7941429.131759 1.1260477.23058.3319047.610212.528619 1.01949.528619v-1.2142857l1.151249.4403809 4.613233-11.662 3.958552 10.0073334h-9.723034v1.2142857l1.151249.4403809zm-1.003922 14.9642857v1.25h13.538424c.415178 0 .807382-.2166667 1.033023-.5708333.22564-.3541667.260101-.8058334.089435-1.1908334l-3.312401-7.4966666c-.198563-.4508334-.635895-.7383334-1.122458-.7383334l-6.89475-.0033333c-.48246 0-.923895.2891667-1.122458.7358333l-3.330452 7.5c-.173128.3883334-.140308.8341667.087794 1.1925.227282.3583334.613742.5716667 1.033843.5716667v-1.25l1.121638.5141667 3.003889-6.7641667 5.30378.0033333 2.207994 4.9966667h-11.637301v1.25l1.121638.5141667z" fill="#494846"/><path d="m235.231173 83.75v1.25h13.537719c.419259 0 .808981-.2158333 1.03543-.575.22727-.3583333.258447-.8083333.083688-1.1958333l-3.38443-7.5c-.201835-.4458334-.636683-.7291667-1.119118-.7291667h-6.768859c-.482435 0-.918104.2833333-1.119118.7291667l-3.38443 7.5c-.17476.3875-.143582.8375.082867 1.1958333.22727.3591667.616172.575 1.036251.575v-1.25l1.119118.5208333 3.054602-6.7708333h5.189459l2.256286 5h-11.619465v1.25l1.119118.5208333zm7.109824 23.101284-3.488409-1.714013c-.610283-.299381-1.37209-.092937-1.701928.462403-.329.55534-.101295 1.248562.508988 1.548705l3.487571 1.714012c.610284.300143 1.372091.092938 1.701929-.462402.329-.55534.102132-1.248563-.508151-1.548705m.642722-7.0085654 3.366184-1.7141765c.626879-.3192178.836716-1.0193637.468842-1.5640909-.367874-.5439653-1.175618-.7268108-1.802497-.4068312l-3.365305 1.7141765c-.627757.3192178-.837595 1.0193637-.469721 1.5640909.368753.5439653 1.175618.7260486 1.802497.4068312" fill="#494846"/><path d="m247 89h-3.25694l-.208725-.9969915c-.605301-1.971419-2.359424-3.1238509-4.419954-3.1238509h-.114381l.307243-.735417.065122-.1437406 5.381757.0033428z" fill="#5d7463"/><path d="m240 84.172.056-.172h4.943l.001.004-4.94-.004z" fill="#353433"/><path d="m245 84.011h-5l.003-.011h4.993z" fill="#353433"/><path d="m247 82h-3.145128l-.212463-.8758759c-.605604-1.9678011-2.404851-3.237404-4.468423-3.237404h-.173986l.139691-.3053054.291091-.5814147h5.24885l2.249268 4.8448448z" fill="#5d7463"/><path d="m247 82h-3.140054l-.000835-.0015097h3.139219l-.070966-.1404039zm-7.986642-3.7237215h-.013358l.152786-.2762785z" fill="#353433"/><path d="m246 75h-1.302l-2.698-9.274.292-.726z" fill="#5d7463"/><path d="m246 75.005h-.330373c-.024275-.003-.049142-.005-.074008-.005h-.595619.998816z" fill="#353433"/><path d="m246 75.005h-.998232l-.001768-.005h.889478c.037136 0 .074271.002.110522.005" fill="#353433"/><path d="m91 147.79935v-31.5987c0-.662759-.448-1.20065-1-1.20065-.5526667 0-1 .537891-1 1.20065v31.5987c0 .663559.4473333 1.20065 1 1.20065.552 0 1-.537091 1-1.20065" fill="#494846"/><path d="m84 117h13l-4.793-11.038-1.707-3.962-1.787 4.201z" fill="#7d9e85"/><path d="m84 110h13l-6.5-15z" fill="#7d9e85"/><path d="m85 103h11l-5.5-15z" fill="#7d9e85"/><path d="m85.2357207 102.785714v1.214286h11.5287809c.4084482 0 .788898-.196714 1.0194736-.528619s.2799847-.751238.1317575-1.125238l-5.7643904-14.5714287c-.185284-.4687143-.6406709-.7747143-1.1512311-.7747143-.5113838 0-.9659472.306-1.1512312.7747143l-5.7643904 14.5714287c-.1482272.374-.0996416.793333.1317575 1.125238.2305756.331905.6102019.528619 1.0194736.528619v-1.214286l1.1512312.440381 4.6131593-11.6611902 3.9584892 10.0065242h-9.7228797v1.214285l1.1512312.440381zm-1.0041243 14.964286v1.25h13.5384234c.4151783 0 .8073824-.215833 1.0330227-.570833.2256404-.354167.2601019-.805834.0894357-1.190834l-3.3124009-7.496666c-.1993841-.45-.6358957-.7375-1.1224584-.738334l-6.8947498-.003333c-.4824602 0-.9247154.289167-1.1224584.735833l-3.3304522 7.5c-.1731277.389167-.1403073.834167.0877946 1.1925.2272815.358334.6145624.571667 1.0338433.571667v-1.25l1.1216379.514167 3.0038889-6.763334 5.3029595.0025 2.2079937 4.996667h-11.63648v1.25l1.1216379.514167z" fill="#494846"/><path d="m84.2312047 109.75v1.25h13.5380667c.4192699 0 .8090021-.215833 1.035457-.575.2264549-.358333.258454-.808333.0828694-1.195833l-3.3845167-7.5c-.2010198-.445-.6358789-.729167-1.1183263-.729167h-6.7690334c-.4824475 0-.9181271.284167-1.1191468.729167l-3.3845167 7.5c-.1747642.3875-.1435856.8375.0828694 1.195833.2272754.359167.6170076.575 1.0362774.575v-1.25l1.1183264.520833 3.0563211-6.770833h5.1887718l2.2563444 5h-11.6197637v1.25l1.1183264.520833zm7.109795 24.101817-3.4883941-1.714194c-.6102806-.300174-1.3720849-.092947-1.7019211.462452-.328999.555399-.1012948 1.248695.5081486 1.548108l3.4883941 1.714194c.6102806.300174 1.3720849.092947 1.7019211-.462452.328999-.555399.102132-1.248695-.5081486-1.548108m.6427198-7.009437 3.3661831-1.714177c.6268792-.319217.8367169-1.019363.4688424-1.56409-.3678745-.543966-1.175618-.726049-1.8024971-.406832l-3.3653052 1.714177c-.6277571.319218-.8375948 1.020125-.4697204 1.564091.3687525.543965 1.175618.726811 1.8024972.406831" fill="#494846"/><path d="m96 116h-3.2569401l-.2095596-.997158c-.6044667-1.971749-2.358589-3.124373-4.4191192-3.124373h-.1143811l.3097474-.738884.0626175-.139585 5.3817574.002508z" fill="#5d7463"/><path d="m88 111.168.054-.168h4.945l.001.004-4.942-.003z" fill="#353433"/><path d="m93 111.01h-5l.003-.01h4.993z" fill="#353433"/><path d="m96 109h-3.1451276l-.2124634-.876022c-.6056043-1.96813-2.4048515-3.237944-4.4684232-3.237944h-.1739858l.1396905-.305357.2919281-.580677h5.2471769l2.2501045 4.845653z" fill="#5d7463"/><path d="m96 108h-3.1400543l-.0008349-.002264h3.1392194l-.0709664-.139623zm-7.9866416-3.723774h-.0133584l.1527865-.276226z" fill="#353433"/><path d="m95 101h-1.302l-2.698-9.274.292-.726z" fill="#5d7463"/><path d="m95 101.005h-.330373c-.0242747-.003-.0491415-.005-.0740083-.005h-.5956187.9988159z" fill="#353433"/><path d="m95 101.005h-.9982317l-.0017683-.005h.8894783c.0371353 0 .0742706.002.1105217.005" fill="#353433"/><path d="m323 154.816276v-13.632552c0-.654205-.448-1.183724-1-1.183724-.552667 0-1 .529519-1 1.183724v13.632552c0 .654205.447333 1.183724 1 1.183724.552 0 1-.529519 1-1.183724" fill="#494846"/><path d="m316 142h13l-4.794-11.038-1.706-3.962-1.787 4.201z" fill="#7d9e85"/><path d="m316 135h13l-6.5-15z" fill="#7d9e85"/><path d="m317 128h11l-5.5-15z" fill="#7d9e85"/><path d="m317.235721 126.785714v1.214286h11.528781c.408448 0 .788898-.196714 1.019473-.528619.230576-.331905.279985-.751238.131758-1.126048l-5.764391-14.571428c-.185284-.467905-.640671-.773905-1.151231-.773905-.511384 0-.965947.306-1.151231.773905l-5.76439 14.571428c-.148228.37481-.099642.794143.131757 1.126048.230576.331905.610202.528619 1.019474.528619v-1.214286l1.151231.439572 4.613159-11.661191 3.958489 10.007334h-9.722879v1.214285l1.151231.439572zm-1.00398 14.964286v1.25h13.538291c.415174 0 .807374-.216667 1.033012-.570833.225639-.354167.2601-.805833.089435-1.190833l-3.312368-7.496666c-.199382-.450833-.63589-.738333-1.122448-.738333l-6.894682-.003333c-.482456-.000834-.924707.289166-1.122448.735833l-3.33124 7.499999c-.172305.388333-.139485.834166.088614 1.192499.22728.3575.613736.571667 1.033834.571667v-1.25l1.121627.514167 3.003859-6.764166 5.302908.003334 2.207972 4.996665h-11.636366v1.25l1.121627.514167z" fill="#494846"/><path d="m316.231205 134.75v1.25h13.538066c.41927 0 .809002-.216667 1.035457-.575.226455-.359167.258454-.808333.08287-1.195833l-3.383696-7.5c-.201841-.445834-.6367-.729167-1.119147-.729167h-6.769034c-.482447 0-.918127.283333-1.119146.729167l-3.384517 7.5c-.174764.3875-.143586.836666.082869 1.195833.227276.358333.616187.575 1.036278.575v-1.25l1.119147.520833 3.05468-6.770833h5.189592l2.256344 5h-11.619763v1.25l1.119147.520833zm7.752514 16.092725 3.366184-1.714103c.626879-.319205.836716-1.020083.468842-1.564025-.367874-.544704-1.175618-.72678-1.802497-.406814l-3.365305 1.714104c-.627757.319204-.837595 1.01932-.469721 1.564024.368753.543943 1.175618.726018 1.802497.406814" fill="#494846"/><path d="m328 141h-3.25694l-.20956-.996991c-.604466-1.971419-2.359424-3.123851-4.419119-3.123851h-.114381l.310582-.742939.061783-.136219 5.381757.003343z" fill="#5d7463"/><path d="m320 136.163.053-.163h4.945l.002.004-4.943-.004z" fill="#353433"/><path d="m325 136.011h-5l.003-.011h4.994z" fill="#353433"/><path d="m328 133h-3.144799l-.212441-.87671c-.605541-1.966967-2.4046-3.23657-4.467956-3.23657h-.174804l.139676-.303637.291897-.583083h5.247465l2.249869 4.844011z" fill="#5d7463"/><path d="m328 133h-3.140054l-.000835-.00151h3.139219l-.070966-.141212zm-7.987477-3.725127h-.012523l.151952-.274873z" fill="#353433"/><path d="m327 126h-1.302l-2.698-9.274.292-.726z" fill="#5d7463"/><path d="m326 126.005h-.331557c-.024275-.003-.04855-.005-.072824-.005h-.595619.998816z" fill="#353433"/><path d="m326 126.005h-.998229l-.001771-.005h.891054c.036315 0 .072631.002.108946.005" fill="#353433"/><path d="m256 164.801482v-19.602964c0-.661582-.447333-1.198518-1-1.198518-.552 0-1 .536936-1 1.198518v19.602964c0 .662381.448 1.198518 1 1.198518.552667 0 1-.536137 1-1.198518" fill="#494846"/><path d="m249 146h13l-4.793-11.038-1.707-3.962-1.787 4.201z" fill="#7d9e85"/><path d="m249 139h13l-6.5-15z" fill="#7d9e85"/><path d="m250 132h11l-5.5-15z" fill="#7d9e85"/><path d="m249.235498 130.785714v1.214286h11.528781c.409272 0 .788898-.196714 1.019474-.528619.231399-.331905.279985-.751238.131757-1.125238l-5.76439-14.571429c-.185284-.468714-.639847-.774714-1.151231-.774714-.51056 0-.965947.306-1.151231.774714l-5.764391 14.571429c-.148227.374-.098818.793333.131758 1.125238.230575.331905.611025.528619 1.019473.528619v-1.214286l1.151232.440381 4.613159-11.66119 3.958489 10.006524h-9.72288v1.214285l1.151232.440381zm-1.004488 14.964286v1.25h13.538583c.416004 0 .807392-.216667 1.033035-.570833.226464-.354167.260105-.805834.090258-1.190834l-3.313261-7.496666c-.198566-.450834-.635903-.7375-1.121651-.7375l-6.895652-.004167c-.482466 0-.923906.289167-1.122472.736667l-3.330492 7.5c-.172309.388333-.139488.833333.087796 1.191666.228105.358334.61457.571667 1.033856.571667v-1.25l1.122471.514167 3.003104-6.763334 5.303843.0025 2.20802 4.996667h-11.637438v1.25l1.122471.514167z" fill="#494846"/><path d="m248.230411 138.75v1.25h13.538358c.420099 0 .809019-.215833 1.0363-.575.226459-.358333.257639-.808333.082871-1.195833l-3.38459-7.5c-.201024-.445-.636713-.729167-1.119171-.729167h-6.769179c-.482458 0-.917326.284167-1.11835.729167l-3.38459 7.5c-.174768.3875-.143588.8375.082871 1.195833.22646.359167.616201.575 1.03548.575v-1.25l1.119171.520833 3.055566-6.770833h5.189704l2.256393 5h-11.620834v1.25l1.119171.520833zm7.753135 16.09238 3.366328-1.714177c.626907-.319217.836754-1.019363.468863-1.56409-.36789-.543966-1.174791-.726049-1.802575-.406832l-3.365451 1.714177c-.627784.319218-.837631 1.020125-.468862 1.564091.36789.543965 1.174791.726811 1.801697.406831" fill="#494846"/><path d="m260 145h-3.25694l-.208725-.997158c-.605301-1.971749-2.359424-3.124373-4.419954-3.124373h-.114381l.310582-.741391.061783-.137078 5.382592.002508z" fill="#5d7463"/><path d="m253 140.165.053-.165h4.945l.002.004-4.943-.003z" fill="#353433"/><path d="m258 140.01h-5l.003-.01h4.993z" fill="#353433"/><path d="m260 137h-3.145635l-.212441-.876022c-.605541-1.96813-2.4046-3.237944-4.467956-3.237944h-.173968l.140512-.305357.291061-.580677h5.247465l2.264924 4.87986z" fill="#5d7463"/><path d="m260 137h-3.140054l-.000835-.002264h3.140054l-.055938-.108679zm-7.986642-3.723774h-.013358l.153621-.276226z" fill="#353433"/><path d="m259 130h-1.301l-2.699-9.274.292-.726z" fill="#5d7463"/><path d="m259 130.005h-.332149c-.023683-.003-.047958-.005-.072824-.005h-.595027.998816z" fill="#353433"/><path d="m259 130.005h-.999113l-.000887-.005h.890957c.037234 0 .073582.002.109043.005" fill="#353433"/></g></svg>