<?xml version="1.0" encoding="UTF-8" standalone="no"?>
<!DOCTYPE svg  PUBLIC '-//W3C//DTD SVG 1.1//EN'  'http://www.w3.org/Graphics/SVG/1.1/DTD/svg11.dtd'>
<svg version="1.1" xmlns="http://www.w3.org/2000/svg">
<defs>
<font id="BahijFedraArabic" horiz-adv-x="0">
<font-face underline-thickness="50" descent="-680" x-height="1019" panose-1="2 4 5 3 5 2 1 2 2 3" cap-height="1319" units-per-em="2048" font-weight="400" font-family="Bahij Fedra Arabic" underline-position="-150" unicode-range="U+0020-FEFC" ascent="1368" bbox="-397 -1163 5735 2596"/>
<missing-glyph horiz-adv-x="728" d="M0 0v1020h728v-1020h-728zM117 947l247 -372l248 372h-495zM655 881l-247 -371l247 -372v743zM612 73l-248 371l-247 -371h495zM73 138l247 372l-247 371v-743z"/>
<glyph horiz-adv-x="1372" glyph-name="uniFB01" d="M80 0q-10 50 -8 82l107 45q61 27 61 112l6 270v387h-147v93l147 22v51q0 165 137 290q134 122 305 122q185 0 282 -50q86 -44 86 -116q0 -68 -114 -123q-127 160 -159 166h-65q-138 0 -206 -37q-102 -57 -102 -211v-92h455q110 21 178 21q74 0 74 -67v-458l6 -341 q2 -36 32 -41l162 -30q0 -68 -7 -95h-530q-10 50 -8 82l118 41q22 8 41 43q18 32 18 58l6 283v389h-545v-387l10 -309q1 -35 7 -44q6 -11 32 -16l192 -39q0 -75 -9 -101h-562z" unicode="fi"/>
<glyph horiz-adv-x="1330" glyph-name="uniFB02" d="M1294 93q0 -67 -9 -93h-522q-8 57 -6 82l99 36q62 23 65 104l10 287v773q-101 67 -193 67q-179 0 -256 -52q-74 -50 -74 -164v-122h222v-115h-222v-387l10 -309q1 -35 7 -44q6 -11 32 -16l173 -39q0 -75 -9 -101h-543q-10 50 -8 82l107 45q61 27 61 112l6 270v387h-149 v93l149 26v91q0 150 143 261q133 103 292 103q173 0 280 -48q44 3 61 3q73 0 73 -72v-844l9 -349q0 -31 23 -35z" unicode="fl"/>
<glyph horiz-adv-x="2039" glyph-name="uniFC31" d="M1441 610q0 -33 25 -63t72 -53.5t111 -39.5t141 -19q9 37 9 71q0 76 -42 150t-137 133q-30 -9 -62 -28.5t-57.5 -44.5t-42.5 -52.5t-17 -53.5zM1530 1152l121 123l126 -123l-126 -126zM1161 0q-18 0 -54 5q11 -23 19 -47t8 -49q0 -62 -52.5 -119t-138 -101.5t-196 -72 t-224.5 -27.5q-220 0 -343 128t-123 358q0 93 21.5 200.5t67.5 228.5h114q-57 -185 -57 -335q0 -197 94 -303.5t255 -106.5q74 0 151.5 12t143.5 30t117.5 40t75.5 43q-15 21 -41 48t-57.5 53t-66.5 47.5t-63 31.5l-14 3l83 159q29 -16 65.5 -27.5t74.5 -20.5t77 -12.5 t73 -3.5h186q110 0 195 33t145 87q-83 5 -153.5 28t-122 61t-81 90t-29.5 118q0 51 26 105.5t69.5 103t100.5 88t119 64.5h114q100 -84 147 -183.5t47 -202.5q0 -106 -47 -206t-132 -177.5t-206 -124t-272 -46.5h-116z" arabic-form="isolated" unicode="ﻓﻰ"/>
<glyph horiz-adv-x="2039" glyph-name="uniFC32" d="M538 -593l122 123l125 -123l-125 -125zM287 -593l121 123l125 -123l-125 -125zM1441 610q0 -33 25 -63t72 -53.5t111 -39.5t141 -19q9 37 9 71q0 76 -42 150t-137 133q-30 -9 -62 -28.5t-57.5 -44.5t-42.5 -52.5t-17 -53.5zM1530 1152l121 123l126 -123l-126 -126z M1161 0q-18 0 -54 5q11 -23 19 -47t8 -49q0 -62 -52.5 -119t-138 -101.5t-196 -72t-224.5 -27.5q-220 0 -343 128t-123 358q0 93 21.5 200.5t67.5 228.5h114q-57 -185 -57 -335q0 -197 94 -303.5t255 -106.5q74 0 151.5 12t143.5 30t117.5 40t75.5 43q-15 21 -41 48 t-57.5 53t-66.5 47.5t-63 31.5l-14 3l83 159q29 -16 65.5 -27.5t74.5 -20.5t77 -12.5t73 -3.5h186q110 0 195 33t145 87q-83 5 -153.5 28t-122 61t-81 90t-29.5 118q0 51 26 105.5t69.5 103t100.5 88t119 64.5h114q100 -84 147 -183.5t47 -202.5q0 -106 -47 -206 t-132 -177.5t-206 -124t-272 -46.5h-116z" arabic-form="isolated" unicode="ﻓﻲ"/>
<glyph horiz-adv-x="1713" glyph-name="uniFC43" d="M1162 0q-19 0 -54 5q11 -23 18.5 -47t7.5 -49q0 -62 -52.5 -119t-138 -101.5t-196 -72t-224.5 -27.5q-219 0 -342.5 128t-123.5 358q0 93 22 200.5t68 228.5h114q-58 -185 -58 -335q0 -197 94 -303.5t255 -106.5q74 0 151.5 12t144 30t117.5 40t76 43q-16 21 -42 48 t-57.5 53t-66 47.5t-62.5 31.5l-14 3l83 159q28 -16 64.5 -27.5t74.5 -20.5t77 -12.5t73 -3.5h78q62 0 98 19t55 55t24.5 89.5t5.5 122.5v1007l142 44v-1074q-5 -97 -27 -175.5t-64 -134t-102.5 -85.5t-140.5 -30h-78z" arabic-form="isolated" unicode="ﻟﻰ"/>
<glyph horiz-adv-x="1713" glyph-name="uniFC44" d="M539 -593l121 123l125 -123l-125 -125zM287 -593l121 123l125 -123l-125 -125zM1162 0q-19 0 -54 5q11 -23 18.5 -47t7.5 -49q0 -62 -52.5 -119t-138 -101.5t-196 -72t-224.5 -27.5q-219 0 -342.5 128t-123.5 358q0 93 22 200.5t68 228.5h114q-58 -185 -58 -335 q0 -197 94 -303.5t255 -106.5q74 0 151.5 12t144 30t117.5 40t76 43q-16 21 -42 48t-57.5 53t-66 47.5t-62.5 31.5l-14 3l83 159q28 -16 64.5 -27.5t74.5 -20.5t77 -12.5t73 -3.5h78q62 0 98 19t55 55t24.5 89.5t5.5 122.5v1007l142 44v-1074q-5 -97 -27 -175.5t-64 -134 t-102.5 -85.5t-140.5 -30h-78z" arabic-form="isolated" unicode="ﻟﻲ"/>
<glyph horiz-adv-x="1802" glyph-name="uniFC64" d="M1660 1011q-28 -2 -71 -7.5t-92 -14t-102.5 -20.5t-103.5 -25q4 10 9.5 24.5t10.5 29.5q6 17 11 31l133 20q-54 9 -91.5 34.5t-37.5 50.5q0 41 26.5 77.5t68.5 65t93 47t102 25.5l37 -101q-39 0 -76.5 -7t-67.5 -18.5t-51.5 -27.5t-28.5 -34q17 -25 60 -36t86 -16 q50 -8 112 -8zM982 0q-78 0 -156.5 32t-152.5 132q-23 -82 -64 -160.5t-96 -152t-120.5 -139.5t-136.5 -123h-240l-2 32q118 64 217.5 146t175 172.5t122 186.5t58.5 191l-162 390h173q15 -43 28 -76.5t22 -62.5l69 -182q30 -76 65 -121t71.5 -67t72 -29t73.5 -7h143 q123 0 190 72t70 206v267h143v-251q0 -91 10 -148t35.5 -89t66.5 -44.5t103 -12.5h103l-37 -162h-82q-128 0 -200 42t-104 126q-52 -81 -130.5 -124.5t-177.5 -43.5h-150z" arabic-form="final" unicode="ﺌﺮ"/>
<glyph horiz-adv-x="2132" glyph-name="uniFC67" d="M451 705l121 123l125 -123l-125 -125zM1988 1011q-28 -2 -70.5 -7.5t-92 -14t-102.5 -20.5t-104 -25q4 10 9.5 24.5t10.5 29.5q6 17 11 31l133 20q-54 9 -91.5 34.5t-37.5 50.5q0 41 26.5 77.5t68.5 65t93.5 47t101.5 25.5l37 -101q-39 0 -76.5 -7t-67.5 -18.5 t-51.5 -27.5t-28.5 -34q17 -25 60 -36t86 -16q50 -8 112 -8zM1360 0q-90 0 -156.5 36.5t-114.5 103.5q-12 -110 -49 -209.5t-108 -175.5t-177.5 -121t-253.5 -45q-218 0 -331 111t-113 315q0 170 84 398h131q-37 -107 -54 -194t-17 -157q0 -155 84 -225t249 -70 q126 0 211.5 40t138 110t76 162t23.5 197q0 21 -1 42.5t-3 41.5l-73 196l144 47l78 -217q47 -126 111 -175t137 -49h94q123 0 190 72t71 206v267h142v-251q0 -91 10.5 -148t35.5 -89t66 -44.5t103 -12.5h104l-38 -162h-82q-128 0 -200 42t-104 126q-52 -81 -130.5 -124.5 t-177.5 -43.5h-100z" arabic-form="final" unicode="ﺌﻦ"/>
<glyph horiz-adv-x="1794" glyph-name="uniFC6A" d="M1309 -246l122 123l125 -123l-125 -126zM982 0q-78 0 -156.5 32t-152.5 132q-23 -82 -64 -160.5t-96 -152t-120.5 -139.5t-136.5 -123h-240l-2 32q118 64 217.5 146t175 172.5t122 186.5t58.5 191l-162 390h173q15 -43 28 -76.5t22 -62.5l69 -182q30 -76 65 -121 t71.5 -67t72 -29t73.5 -7h134q125 0 192.5 74t67.5 212v259h142v-251q0 -91 10.5 -148t35.5 -89t66 -44.5t103 -12.5h104l-37 -162h-82q-129 0 -200.5 42t-103.5 126q-52 -81 -130.5 -124.5t-177.5 -43.5h-141z" arabic-form="final" unicode="ﺒﺮ"/>
<glyph horiz-adv-x="1785" glyph-name="uniFC70" d="M1453 1015l122 123l125 -123l-125 -125zM1202 1015l121 123l125 -123l-125 -125zM982 0q-78 0 -156.5 32t-152.5 132q-23 -82 -64 -160.5t-96 -152t-120.5 -139.5t-136.5 -123h-240l-2 32q118 64 217.5 146t175 172.5t122 186.5t58.5 191l-162 390h173q15 -43 28 -76.5 t22 -62.5l69 -182q30 -76 65 -121t71.5 -67t72 -29t73.5 -7h125q123 0 190 72t70 206v267h142v-251q0 -91 10.5 -148t35.5 -89t66 -44.5t103 -12.5h104l-37 -162h-82q-129 0 -201 42t-103 126q-52 -81 -130.5 -124.5t-177.5 -43.5h-132z" arabic-form="final" unicode="ﺘﺮ"/>
<glyph horiz-adv-x="1972" glyph-name="uniFC86" d="M1161 0q-18 0 -54 5q11 -23 19 -47t8 -49q0 -62 -52.5 -119t-138 -101.5t-196 -72t-224.5 -27.5q-220 0 -343 128t-123 358q0 93 21.5 200.5t67.5 228.5h114q-57 -185 -57 -335q0 -197 94 -303.5t255 -106.5q74 0 151.5 12t143.5 30t117.5 40t75.5 43q-15 21 -41 48 t-57.5 53t-66.5 47.5t-63 31.5l-14 3l83 159q29 -16 65.5 -27.5t74.5 -20.5t77 -12.5t73 -3.5h135q123 0 190 72t71 206v1015l142 44v-1074q2 -80 13 -131.5t36 -80t65.5 -40t100.5 -11.5h104l-38 -162h-82q-128 0 -200 42t-104 126q-52 -81 -130.5 -124.5t-177.5 -43.5 h-135z" arabic-form="final" unicode="ﻠﻰ"/>
<glyph horiz-adv-x="1972" glyph-name="uniFC87" d="M538 -593l122 123l125 -123l-125 -125zM286 -593l122 123l125 -123l-125 -125zM1161 0q-18 0 -54 5q11 -23 19 -47t8 -49q0 -62 -52.5 -119t-138 -101.5t-196 -72t-224.5 -27.5q-220 0 -343 128t-123 358q0 93 21.5 200.5t67.5 228.5h114q-57 -185 -57 -335 q0 -197 94 -303.5t255 -106.5q74 0 151.5 12t143.5 30t117.5 40t75.5 43q-15 21 -41 48t-57.5 53t-66.5 47.5t-63 31.5l-14 3l83 159q29 -16 65.5 -27.5t74.5 -20.5t77 -12.5t73 -3.5h135q123 0 190 72t71 206v1015l142 44v-1074q2 -80 13 -131.5t36 -80t65.5 -40 t100.5 -11.5h104l-38 -162h-82q-128 0 -200 42t-104 126q-52 -81 -130.5 -124.5t-177.5 -43.5h-135z" arabic-form="final" unicode="ﻠﻲ"/>
<glyph horiz-adv-x="1735" glyph-name="uniFCCC" d="M628 552q-23 0 -46 -17.5t-49.5 -48t-55 -70t-58.5 -83.5q60 -62 134.5 -104t176.5 -80q53 49 76.5 100.5t23.5 99.5q0 41 -15 78.5t-42 65t-64.5 43.5t-80.5 16zM1158 0q-99 0 -156 50.5t-85 145.5q-28 -52 -71 -104.5t-105 -106.5q-72 19 -130.5 41t-107.5 49.5 t-91.5 60t-83.5 73.5q-68 -84 -145.5 -146.5t-164.5 -62.5h-73l37 162h56q56 0 106.5 40t99 101t97.5 132t103.5 131.5t115 100.5t135.5 40q43 0 85 -16t77 -45.5t62.5 -70.5t40.5 -92h2q0 -9 3 -24l4 -26q12 -54 30.5 -102.5t46.5 -86t65 -60t84 -22.5h82q62 0 98.5 19 t55 55t24 89.5t5.5 122.5v1007l142 44v-1074q-4 -97 -26.5 -175.5t-64.5 -134t-102.5 -85.5t-140.5 -30h-110z" arabic-form="initial" unicode="ﻟﻤ"/>
<glyph horiz-adv-x="2988" glyph-name="uniFCFB" d="M1161 0q-18 0 -54 5q11 -23 19 -47t8 -49q0 -62 -52.5 -119t-138 -101.5t-196 -72t-224.5 -27.5q-220 0 -343 128t-123 358q0 93 21.5 200.5t67.5 228.5h114q-57 -185 -57 -335q0 -197 94 -303.5t255 -106.5q74 0 151.5 12t143.5 30t117.5 40t75.5 43q-15 21 -41 48 t-57.5 53t-66.5 47.5t-63 31.5l-14 3l83 159q29 -16 65.5 -27.5t74.5 -20.5t77 -12.5t73 -3.5h161q125 0 193 74t68 212v259h137v-235q0 -146 47 -231.5t152 -85.5q52 0 92 21.5t65 58.5t38.5 88.5t13.5 111.5v272h136v-235q0 -61 13 -118t41 -102t71 -71t100 -26 q40 0 77 17t67 53t49 94t19 140q0 73 -18 166t-59 211h157q36 -97 51.5 -182.5t15.5 -162.5q0 -124 -36 -218.5t-91.5 -158.5t-121.5 -96.5t-126 -32.5q-119 0 -189.5 56t-105.5 140q-41 -92 -109 -144t-160 -52q-113 0 -181 52t-104 144q-48 -86 -128.5 -133.5 t-183.5 -47.5h-161z" arabic-form="isolated" unicode="ﺳﻰ"/>
<glyph horiz-adv-x="2988" glyph-name="uniFCFC" d="M538 -593l122 123l125 -123l-125 -125zM287 -593l121 123l125 -123l-125 -125zM1161 0q-18 0 -54 5q11 -23 19 -47t8 -49q0 -62 -52.5 -119t-138 -101.5t-196 -72t-224.5 -27.5q-220 0 -343 128t-123 358q0 93 21.5 200.5t67.5 228.5h114q-57 -185 -57 -335 q0 -197 94 -303.5t255 -106.5q74 0 151.5 12t143.5 30t117.5 40t75.5 43q-15 21 -41 48t-57.5 53t-66.5 47.5t-63 31.5l-14 3l83 159q29 -16 65.5 -27.5t74.5 -20.5t77 -12.5t73 -3.5h161q125 0 193 74t68 212v259h137v-235q0 -146 47 -231.5t152 -85.5q52 0 92 21.5 t65 58.5t38.5 88.5t13.5 111.5v272h136v-235q0 -61 13 -118t41 -102t71 -71t100 -26q40 0 77 17t67 53t49 94t19 140q0 73 -18 166t-59 211h157q36 -97 51.5 -182.5t15.5 -162.5q0 -124 -36 -218.5t-91.5 -158.5t-121.5 -96.5t-126 -32.5q-119 0 -189.5 56t-105.5 140 q-41 -92 -109 -144t-160 -52q-113 0 -181 52t-104 144q-48 -86 -128.5 -133.5t-183.5 -47.5h-161z" arabic-form="isolated" unicode="ﺳﻲ"/>
<glyph horiz-adv-x="2988" glyph-name="uniFCFD" d="M2097 1228l108 109l112 -109l-112 -112zM1958 1019l122 123l125 -123l-125 -125zM2211 1019l121 123l125 -123l-125 -125zM1161 0q-18 0 -54 5q11 -23 19 -47t8 -49q0 -62 -52.5 -119t-138 -101.5t-196 -72t-224.5 -27.5q-220 0 -343 128t-123 358q0 93 21.5 200.5 t67.5 228.5h114q-57 -185 -57 -335q0 -197 94 -303.5t255 -106.5q74 0 151.5 12t143.5 30t117.5 40t75.5 43q-15 21 -41 48t-57.5 53t-66.5 47.5t-63 31.5l-14 3l83 159q29 -16 65.5 -27.5t74.5 -20.5t77 -12.5t73 -3.5h161q125 0 193 74t68 212v259h137v-235 q0 -146 47 -231.5t152 -85.5q52 0 92 21.5t65 58.5t38.5 88.5t13.5 111.5v272h136v-235q0 -61 13 -118t41 -102t71 -71t100 -26q40 0 77 17t67 53t49 94t19 140q0 73 -18 166t-59 211h157q36 -97 51.5 -182.5t15.5 -162.5q0 -124 -36 -218.5t-91.5 -158.5t-121.5 -96.5 t-126 -32.5q-119 0 -189.5 56t-105.5 140q-41 -92 -109 -144t-160 -52q-113 0 -181 52t-104 144q-48 -86 -128.5 -133.5t-183.5 -47.5h-161z" arabic-form="isolated" unicode="ﺷﻰ"/>
<glyph horiz-adv-x="2988" glyph-name="uniFCFE" d="M538 -593l122 123l125 -123l-125 -125zM287 -593l121 123l125 -123l-125 -125zM2097 1228l108 109l112 -109l-112 -112zM1958 1019l122 123l125 -123l-125 -125zM2211 1019l121 123l125 -123l-125 -125zM1161 0q-18 0 -54 5q11 -23 19 -47t8 -49q0 -62 -52.5 -119 t-138 -101.5t-196 -72t-224.5 -27.5q-220 0 -343 128t-123 358q0 93 21.5 200.5t67.5 228.5h114q-57 -185 -57 -335q0 -197 94 -303.5t255 -106.5q74 0 151.5 12t143.5 30t117.5 40t75.5 43q-15 21 -41 48t-57.5 53t-66.5 47.5t-63 31.5l-14 3l83 159q29 -16 65.5 -27.5 t74.5 -20.5t77 -12.5t73 -3.5h161q125 0 193 74t68 212v259h137v-235q0 -146 47 -231.5t152 -85.5q52 0 92 21.5t65 58.5t38.5 88.5t13.5 111.5v272h136v-235q0 -61 13 -118t41 -102t71 -71t100 -26q40 0 77 17t67 53t49 94t19 140q0 73 -18 166t-59 211h157 q36 -97 51.5 -182.5t15.5 -162.5q0 -124 -36 -218.5t-91.5 -158.5t-121.5 -96.5t-126 -32.5q-119 0 -189.5 56t-105.5 140q-41 -92 -109 -144t-160 -52q-113 0 -181 52t-104 144q-48 -86 -128.5 -133.5t-183.5 -47.5h-161z" arabic-form="isolated" unicode="ﺷﻲ"/>
<glyph horiz-adv-x="2890" glyph-name="uniFD05" d="M2407 566q-68 0 -147 -29.5t-161 -80t-165 -117.5t-160 -141q26 -20 62.5 -28t87.5 -8h175q115 0 209.5 13.5t167.5 34.5t125 48t85 55q-9 57 -26 103.5t-48.5 79t-81 51.5t-123.5 19zM1161 0q-18 0 -54 5q11 -23 19 -47t8 -49q0 -62 -52.5 -119t-138 -101.5t-196 -72 t-224.5 -27.5q-220 0 -343 128t-123 358q0 93 21.5 200.5t67.5 228.5h114q-57 -185 -57 -335q0 -197 94 -303.5t255 -106.5q74 0 151.5 12t143.5 30t117.5 40t75.5 43q-15 21 -41 48t-57.5 53t-66.5 47.5t-63 31.5l-14 3l83 159q29 -16 65.5 -27.5t74.5 -20.5t77 -12.5 t73 -3.5h135q123 0 190 70t71 201v274h142v-251q0 -107 12 -167q96 106 194 191.5t191.5 144t181 89t161.5 30.5q112 0 180 -40t104.5 -104t49 -143.5t12.5 -155.5q0 -25 -39.5 -74t-118.5 -99.5t-200.5 -89t-285.5 -38.5h-243q-117 0 -185 34.5t-105 102.5l-12 12l4 4 l-6 15q-52 -81 -130.5 -124.5t-177.5 -43.5h-135z" arabic-form="isolated" unicode="ﺻﻰ"/>
<glyph horiz-adv-x="2890" glyph-name="uniFD06" d="M2407 566q-68 0 -147 -29.5t-161 -80t-165 -117.5t-160 -141q26 -20 62.5 -28t87.5 -8h175q115 0 209.5 13.5t167.5 34.5t125 48t85 55q-9 57 -26 103.5t-48.5 79t-81 51.5t-123.5 19zM1161 0q-18 0 -54 5q11 -23 19 -47t8 -49q0 -62 -52.5 -119t-138 -101.5t-196 -72 t-224.5 -27.5q-220 0 -343 128t-123 358q0 93 21.5 200.5t67.5 228.5h114q-57 -185 -57 -335q0 -197 94 -303.5t255 -106.5q74 0 151.5 12t143.5 30t117.5 40t75.5 43q-15 21 -41 48t-57.5 53t-66.5 47.5t-63 31.5l-14 3l83 159q29 -16 65.5 -27.5t74.5 -20.5t77 -12.5 t73 -3.5h135q123 0 190 70t71 201v274h142v-251q0 -107 12 -167q96 106 194 191.5t191.5 144t181 89t161.5 30.5q112 0 180 -40t104.5 -104t49 -143.5t12.5 -155.5q0 -25 -39.5 -74t-118.5 -99.5t-200.5 -89t-285.5 -38.5h-243q-117 0 -185 34.5t-105 102.5l-12 12l4 4 l-6 15q-52 -81 -130.5 -124.5t-177.5 -43.5h-135zM287 -593l121 123l125 -123l-125 -125zM538 -593l122 123l125 -123l-125 -125z" arabic-form="isolated" unicode="ﺻﻲ"/>
<glyph horiz-adv-x="2890" glyph-name="uniFD07" d="M2407 566q-68 0 -147 -29.5t-161 -80t-165 -117.5t-160 -141q26 -20 62.5 -28t87.5 -8h175q115 0 209.5 13.5t167.5 34.5t125 48t85 55q-9 57 -26 103.5t-48.5 79t-81 51.5t-123.5 19zM1957 935l122 123l124 -123l-124 -125zM1161 0q-18 0 -54 5q11 -23 19 -47t8 -49 q0 -62 -52.5 -119t-138 -101.5t-196 -72t-224.5 -27.5q-220 0 -343 128t-123 358q0 93 21.5 200.5t67.5 228.5h114q-57 -185 -57 -335q0 -197 94 -303.5t255 -106.5q74 0 151.5 12t143.5 30t117.5 40t75.5 43q-15 21 -41 48t-57.5 53t-66.5 47.5t-63 31.5l-14 3l83 159 q29 -16 65.5 -27.5t74.5 -20.5t77 -12.5t73 -3.5h135q123 0 190 70t71 201v274h142v-251q0 -107 12 -167q96 106 194 191.5t191.5 144t181 89t161.5 30.5q112 0 180 -40t104.5 -104t49 -143.5t12.5 -155.5q0 -25 -39.5 -74t-118.5 -99.5t-200.5 -89t-285.5 -38.5h-243 q-117 0 -185 34.5t-105 102.5l-12 12l4 4l-6 15q-52 -81 -130.5 -124.5t-177.5 -43.5h-135z" arabic-form="isolated" unicode="ﺿﻰ"/>
<glyph horiz-adv-x="2890" glyph-name="uniFD08" d="M2407 566q-68 0 -147 -29.5t-161 -80t-165 -117.5t-160 -141q26 -20 62.5 -28t87.5 -8h175q115 0 209.5 13.5t167.5 34.5t125 48t85 55q-9 57 -26 103.5t-48.5 79t-81 51.5t-123.5 19zM1957 935l122 123l124 -123l-124 -125zM1161 0q-18 0 -54 5q11 -23 19 -47t8 -49 q0 -62 -52.5 -119t-138 -101.5t-196 -72t-224.5 -27.5q-220 0 -343 128t-123 358q0 93 21.5 200.5t67.5 228.5h114q-57 -185 -57 -335q0 -197 94 -303.5t255 -106.5q74 0 151.5 12t143.5 30t117.5 40t75.5 43q-15 21 -41 48t-57.5 53t-66.5 47.5t-63 31.5l-14 3l83 159 q29 -16 65.5 -27.5t74.5 -20.5t77 -12.5t73 -3.5h135q123 0 190 70t71 201v274h142v-251q0 -107 12 -167q96 106 194 191.5t191.5 144t181 89t161.5 30.5q112 0 180 -40t104.5 -104t49 -143.5t12.5 -155.5q0 -25 -39.5 -74t-118.5 -99.5t-200.5 -89t-285.5 -38.5h-243 q-117 0 -185 34.5t-105 102.5l-12 12l4 4l-6 15q-52 -81 -130.5 -124.5t-177.5 -43.5h-135zM287 -593l121 123l125 -123l-125 -125zM538 -593l122 123l125 -123l-125 -125z" arabic-form="isolated" unicode="ﺿﻲ"/>
<glyph horiz-adv-x="2801" glyph-name="uniFD0D" d="M1914 1228l109 109l112 -109l-112 -112zM1776 1019l122 123l125 -123l-125 -125zM2028 1019l121 123l125 -123l-125 -125zM982 0q-78 0 -156.5 32t-152.5 132q-23 -82 -64 -160.5t-96 -152t-120.5 -139.5t-136.5 -123h-240l-2 32q118 64 217.5 146t175 172.5t122 186.5 t58.5 191l-162 390h173q15 -43 28 -76.5t22 -62.5l69 -182q30 -76 65 -121t71.5 -67t72 -29t73.5 -7h150q126 0 194 74t68 212v259h136v-235q0 -146 47.5 -231.5t152.5 -85.5q52 0 92 21.5t65 58.5t38 88.5t13 111.5v272h137v-235q0 -61 13 -118t41 -102t71 -71t100 -26 q39 0 76.5 17t67.5 53t48.5 94t18.5 140q0 73 -17.5 166t-58.5 211h157q35 -97 51 -182.5t16 -162.5q0 -124 -36.5 -218.5t-91.5 -158.5t-121 -96.5t-126 -32.5q-120 0 -190 56t-105 140q-41 -92 -109 -144t-160 -52q-113 0 -181.5 52t-103.5 144q-49 -86 -129 -133.5 t-183 -47.5h-158z" arabic-form="isolated" unicode="ﺷﺮ"/>
<glyph horiz-adv-x="2801" glyph-name="uniFD0E" d="M982 0q-78 0 -156.5 32t-152.5 132q-23 -82 -64 -160.5t-96 -152t-120.5 -139.5t-136.5 -123h-240l-2 32q118 64 217.5 146t175 172.5t122 186.5t58.5 191l-162 390h173q15 -43 28 -76.5t22 -62.5l69 -182q30 -76 65 -121t71.5 -67t72 -29t73.5 -7h150q126 0 194 74 t68 212v259h136v-235q0 -146 47.5 -231.5t152.5 -85.5q52 0 92 21.5t65 58.5t38 88.5t13 111.5v272h137v-235q0 -61 13 -118t41 -102t71 -71t100 -26q39 0 76.5 17t67.5 53t48.5 94t18.5 140q0 73 -17.5 166t-58.5 211h157q35 -97 51 -182.5t16 -162.5q0 -124 -36.5 -218.5 t-91.5 -158.5t-121 -96.5t-126 -32.5q-120 0 -190 56t-105 140q-41 -92 -109 -144t-160 -52q-113 0 -181.5 52t-103.5 144q-49 -86 -129 -133.5t-183 -47.5h-158z" arabic-form="isolated" unicode="ﺳﺮ"/>
<glyph horiz-adv-x="2700" glyph-name="uniFD0F" d="M2215 566q-67 0 -146.5 -29.5t-161.5 -80t-165 -117.5t-159 -141q25 -20 61.5 -28t87.5 -8h175q116 0 210 13.5t167 34.5t125 48t86 55q-9 57 -26 103.5t-49 79t-81 51.5t-124 19zM982 0q-78 0 -156.5 32t-152.5 132q-23 -82 -64 -160.5t-96 -152t-120.5 -139.5 t-136.5 -123h-240l-2 32q118 64 217.5 146t175 172.5t122 186.5t58.5 191l-162 390h173q15 -43 28 -76.5t22 -62.5l69 -182q30 -76 65 -121t71.5 -67t72 -29t73.5 -7h116q123 0 189.5 70t70.5 201v274h142v-251q0 -107 13 -167q96 106 193.5 191.5t191 144t181 89 t162.5 30.5q112 0 180 -40t104.5 -104t48.5 -143.5t12 -155.5q0 -25 -39 -74t-118.5 -99.5t-200.5 -89t-286 -38.5h-242q-118 0 -186 34.5t-105 102.5l-12 12l5 4l-7 15q-51 -81 -129.5 -124.5t-177.5 -43.5h-123z" arabic-form="isolated" unicode="ﺻﺮ"/>
<glyph horiz-adv-x="2700" glyph-name="uniFD10" d="M2215 566q-67 0 -146.5 -29.5t-161.5 -80t-165 -117.5t-159 -141q25 -20 61.5 -28t87.5 -8h175q116 0 210 13.5t167 34.5t125 48t86 55q-9 57 -26 103.5t-49 79t-81 51.5t-124 19zM1765 935l122 123l125 -123l-125 -125zM982 0q-78 0 -156.5 32t-152.5 132 q-23 -82 -64 -160.5t-96 -152t-120.5 -139.5t-136.5 -123h-240l-2 32q118 64 217.5 146t175 172.5t122 186.5t58.5 191l-162 390h173q15 -43 28 -76.5t22 -62.5l69 -182q30 -76 65 -121t71.5 -67t72 -29t73.5 -7h116q123 0 189.5 70t70.5 201v274h142v-251q0 -107 13 -167 q96 106 193.5 191.5t191 144t181 89t162.5 30.5q112 0 180 -40t104.5 -104t48.5 -143.5t12 -155.5q0 -25 -39 -74t-118.5 -99.5t-200.5 -89t-286 -38.5h-242q-118 0 -186 34.5t-105 102.5l-12 12l5 4l-7 15q-51 -81 -129.5 -124.5t-177.5 -43.5h-123z" arabic-form="isolated" unicode="ﺿﺮ"/>
<glyph horiz-adv-x="3068" glyph-name="uniFD17" d="M1161 0q-18 0 -54 5q11 -23 19 -47t8 -49q0 -62 -52.5 -119t-138 -101.5t-196 -72t-224.5 -27.5q-220 0 -343 128t-123 358q0 93 21.5 200.5t67.5 228.5h114q-57 -185 -57 -335q0 -197 94 -303.5t255 -106.5q74 0 151.5 12t143.5 30t117.5 40t75.5 43q-15 21 -41 48 t-57.5 53t-66.5 47.5t-63 31.5l-14 3l83 159q29 -16 65.5 -27.5t74.5 -20.5t77 -12.5t73 -3.5h125q126 0 193.5 74t67.5 212v259h137v-235q0 -146 47.5 -231.5t152.5 -85.5q52 0 92 21.5t65.5 58.5t38 88.5t12.5 111.5v272h139v-235q0 -146 47 -231.5t152 -85.5 q52 0 92 21.5t65.5 58.5t38.5 88.5t13 111.5v272h137v-251q0 -91 12.5 -148t41.5 -89t73 -44.5t106 -12.5h108l-37 -162h-87q-135 0 -210 36.5t-107 116.5q-43 -78 -107 -123t-148 -45q-108 0 -176.5 47.5t-105.5 133.5q-43 -86 -109 -133.5t-155 -47.5q-114 0 -182.5 52 t-104.5 144q-48 -86 -128 -133.5t-183 -47.5h-126z" arabic-form="final" unicode="ﺴﻰ"/>
<glyph horiz-adv-x="3068" glyph-name="uniFD18" d="M1161 0q-18 0 -54 5q11 -23 19 -47t8 -49q0 -62 -52.5 -119t-138 -101.5t-196 -72t-224.5 -27.5q-220 0 -343 128t-123 358q0 93 21.5 200.5t67.5 228.5h114q-57 -185 -57 -335q0 -197 94 -303.5t255 -106.5q74 0 151.5 12t143.5 30t117.5 40t75.5 43q-15 21 -41 48 t-57.5 53t-66.5 47.5t-63 31.5l-14 3l83 159q29 -16 65.5 -27.5t74.5 -20.5t77 -12.5t73 -3.5h125q126 0 193.5 74t67.5 212v259h137v-235q0 -146 47.5 -231.5t152.5 -85.5q52 0 92 21.5t65.5 58.5t38 88.5t12.5 111.5v272h139v-235q0 -146 47 -231.5t152 -85.5 q52 0 92 21.5t65.5 58.5t38.5 88.5t13 111.5v272h137v-251q0 -91 12.5 -148t41.5 -89t73 -44.5t106 -12.5h108l-37 -162h-87q-135 0 -210 36.5t-107 116.5q-43 -78 -107 -123t-148 -45q-108 0 -176.5 47.5t-105.5 133.5q-43 -86 -109 -133.5t-155 -47.5q-114 0 -182.5 52 t-104.5 144q-48 -86 -128 -133.5t-183 -47.5h-126zM287 -593l121 123l125 -123l-125 -125zM538 -593l122 123l125 -123l-125 -125z" arabic-form="final" unicode="ﺴﻲ"/>
<glyph horiz-adv-x="3068" glyph-name="uniFD19" d="M2059 1228l109 109l112 -109l-112 -112zM1922 1019l121 123l125 -123l-125 -125zM2173 1019l121 123l125 -123l-125 -125zM1161 0q-18 0 -54 5q11 -23 19 -47t8 -49q0 -62 -52.5 -119t-138 -101.5t-196 -72t-224.5 -27.5q-220 0 -343 128t-123 358q0 93 21.5 200.5 t67.5 228.5h114q-57 -185 -57 -335q0 -197 94 -303.5t255 -106.5q74 0 151.5 12t143.5 30t117.5 40t75.5 43q-15 21 -41 48t-57.5 53t-66.5 47.5t-63 31.5l-14 3l83 159q29 -16 65.5 -27.5t74.5 -20.5t77 -12.5t73 -3.5h125q126 0 193.5 74t67.5 212v259h137v-235 q0 -146 47.5 -231.5t152.5 -85.5q52 0 92 21.5t65.5 58.5t38 88.5t12.5 111.5v272h139v-235q0 -146 47 -231.5t152 -85.5q52 0 92 21.5t65.5 58.5t38.5 88.5t13 111.5v272h137v-251q0 -91 12.5 -148t41.5 -89t73 -44.5t106 -12.5h108l-37 -162h-87q-135 0 -210 36.5 t-107 116.5q-43 -78 -107 -123t-148 -45q-108 0 -176.5 47.5t-105.5 133.5q-43 -86 -109 -133.5t-155 -47.5q-114 0 -182.5 52t-104.5 144q-48 -86 -128 -133.5t-183 -47.5h-126z" arabic-form="final" unicode="ﺸﻰ"/>
<glyph horiz-adv-x="3068" glyph-name="uniFD1A" d="M2059 1228l109 109l112 -109l-112 -112zM1922 1019l121 123l125 -123l-125 -125zM2173 1019l121 123l125 -123l-125 -125zM1161 0q-18 0 -54 5q11 -23 19 -47t8 -49q0 -62 -52.5 -119t-138 -101.5t-196 -72t-224.5 -27.5q-220 0 -343 128t-123 358q0 93 21.5 200.5 t67.5 228.5h114q-57 -185 -57 -335q0 -197 94 -303.5t255 -106.5q74 0 151.5 12t143.5 30t117.5 40t75.5 43q-15 21 -41 48t-57.5 53t-66.5 47.5t-63 31.5l-14 3l83 159q29 -16 65.5 -27.5t74.5 -20.5t77 -12.5t73 -3.5h125q126 0 193.5 74t67.5 212v259h137v-235 q0 -146 47.5 -231.5t152.5 -85.5q52 0 92 21.5t65.5 58.5t38 88.5t12.5 111.5v272h139v-235q0 -146 47 -231.5t152 -85.5q52 0 92 21.5t65.5 58.5t38.5 88.5t13 111.5v272h137v-251q0 -91 12.5 -148t41.5 -89t73 -44.5t106 -12.5h108l-37 -162h-87q-135 0 -210 36.5 t-107 116.5q-43 -78 -107 -123t-148 -45q-108 0 -176.5 47.5t-105.5 133.5q-43 -86 -109 -133.5t-155 -47.5q-114 0 -182.5 52t-104.5 144q-48 -86 -128 -133.5t-183 -47.5h-126zM287 -593l121 123l125 -123l-125 -125zM538 -593l122 123l125 -123l-125 -125z" arabic-form="final" unicode="ﺸﻲ"/>
<glyph horiz-adv-x="3025" glyph-name="uniFD21" d="M2407 566q-68 0 -147 -29.5t-161 -80t-165 -117.5t-160 -141q26 -20 62.5 -28t87.5 -8h197q224 4 362.5 51t202.5 100q-9 57 -26 103.5t-48.5 79t-81 51.5t-123.5 19zM1161 0q-18 0 -54 5q11 -23 19 -47t8 -49q0 -62 -52.5 -119t-138 -101.5t-196 -72t-224.5 -27.5 q-220 0 -343 128t-123 358q0 93 21.5 200.5t67.5 228.5h114q-57 -185 -57 -335q0 -197 94 -303.5t255 -106.5q74 0 151.5 12t143.5 30t117.5 40t75.5 43q-15 21 -41 48t-57.5 53t-66.5 47.5t-63 31.5l-14 3l83 159q29 -16 65.5 -27.5t74.5 -20.5t77 -12.5t73 -3.5h135 q123 0 190 70t71 201v274h142v-251q0 -107 12 -167q96 106 194 191.5t191.5 144t181 89t161.5 30.5q107 0 173 -37t104.5 -96t52.5 -133t16 -145q28 -75 76 -123t120 -48h92l-37 -162h-93q-95 0 -151.5 47.5t-87.5 137.5q-35 -32 -88.5 -65.5t-123 -59.5t-157.5 -43 t-194 -17h-243q-117 0 -185 34.5t-105 102.5l-12 12l4 4l-6 15q-52 -81 -130.5 -124.5t-177.5 -43.5h-135z" arabic-form="final" unicode="ﺼﻰ"/>
<glyph horiz-adv-x="3025" glyph-name="uniFD22" d="M2407 566q-68 0 -147 -29.5t-161 -80t-165 -117.5t-160 -141q26 -20 62.5 -28t87.5 -8h197q224 4 362.5 51t202.5 100q-9 57 -26 103.5t-48.5 79t-81 51.5t-123.5 19zM1161 0q-18 0 -54 5q11 -23 19 -47t8 -49q0 -62 -52.5 -119t-138 -101.5t-196 -72t-224.5 -27.5 q-220 0 -343 128t-123 358q0 93 21.5 200.5t67.5 228.5h114q-57 -185 -57 -335q0 -197 94 -303.5t255 -106.5q74 0 151.5 12t143.5 30t117.5 40t75.5 43q-15 21 -41 48t-57.5 53t-66.5 47.5t-63 31.5l-14 3l83 159q29 -16 65.5 -27.5t74.5 -20.5t77 -12.5t73 -3.5h135 q123 0 190 70t71 201v274h142v-251q0 -107 12 -167q96 106 194 191.5t191.5 144t181 89t161.5 30.5q107 0 173 -37t104.5 -96t52.5 -133t16 -145q28 -75 76 -123t120 -48h92l-37 -162h-93q-95 0 -151.5 47.5t-87.5 137.5q-35 -32 -88.5 -65.5t-123 -59.5t-157.5 -43 t-194 -17h-243q-117 0 -185 34.5t-105 102.5l-12 12l4 4l-6 15q-52 -81 -130.5 -124.5t-177.5 -43.5h-135zM287 -593l121 123l125 -123l-125 -125zM538 -593l122 123l125 -123l-125 -125z" arabic-form="final" unicode="ﺼﻲ"/>
<glyph horiz-adv-x="3025" glyph-name="uniFD23" d="M2407 566q-68 0 -147 -29.5t-161 -80t-165 -117.5t-160 -141q26 -20 62.5 -28t87.5 -8h197q224 4 362.5 51t202.5 100q-9 57 -26 103.5t-48.5 79t-81 51.5t-123.5 19zM1957 935l122 123l124 -123l-124 -125zM1161 0q-18 0 -54 5q11 -23 19 -47t8 -49q0 -62 -52.5 -119 t-138 -101.5t-196 -72t-224.5 -27.5q-220 0 -343 128t-123 358q0 93 21.5 200.5t67.5 228.5h114q-57 -185 -57 -335q0 -197 94 -303.5t255 -106.5q74 0 151.5 12t143.5 30t117.5 40t75.5 43q-15 21 -41 48t-57.5 53t-66.5 47.5t-63 31.5l-14 3l83 159q29 -16 65.5 -27.5 t74.5 -20.5t77 -12.5t73 -3.5h135q123 0 190 70t71 201v274h142v-251q0 -107 12 -167q96 106 194 191.5t191.5 144t181 89t161.5 30.5q107 0 173 -37t104.5 -96t52.5 -133t16 -145q28 -75 76 -123t120 -48h92l-37 -162h-93q-95 0 -151.5 47.5t-87.5 137.5 q-35 -32 -88.5 -65.5t-123 -59.5t-157.5 -43t-194 -17h-243q-117 0 -185 34.5t-105 102.5l-12 12l4 4l-6 15q-52 -81 -130.5 -124.5t-177.5 -43.5h-135z" arabic-form="final" unicode="ﻀﻰ"/>
<glyph horiz-adv-x="3025" glyph-name="uniFD24" d="M2407 566q-68 0 -147 -29.5t-161 -80t-165 -117.5t-160 -141q26 -20 62.5 -28t87.5 -8h197q224 4 362.5 51t202.5 100q-9 57 -26 103.5t-48.5 79t-81 51.5t-123.5 19zM1957 935l122 123l124 -123l-124 -125zM1161 0q-18 0 -54 5q11 -23 19 -47t8 -49q0 -62 -52.5 -119 t-138 -101.5t-196 -72t-224.5 -27.5q-220 0 -343 128t-123 358q0 93 21.5 200.5t67.5 228.5h114q-57 -185 -57 -335q0 -197 94 -303.5t255 -106.5q74 0 151.5 12t143.5 30t117.5 40t75.5 43q-15 21 -41 48t-57.5 53t-66.5 47.5t-63 31.5l-14 3l83 159q29 -16 65.5 -27.5 t74.5 -20.5t77 -12.5t73 -3.5h135q123 0 190 70t71 201v274h142v-251q0 -107 12 -167q96 106 194 191.5t191.5 144t181 89t161.5 30.5q107 0 173 -37t104.5 -96t52.5 -133t16 -145q28 -75 76 -123t120 -48h92l-37 -162h-93q-95 0 -151.5 47.5t-87.5 137.5 q-35 -32 -88.5 -65.5t-123 -59.5t-157.5 -43t-194 -17h-243q-117 0 -185 34.5t-105 102.5l-12 12l4 4l-6 15q-52 -81 -130.5 -124.5t-177.5 -43.5h-135zM287 -593l121 123l125 -123l-125 -125zM538 -593l122 123l125 -123l-125 -125z" arabic-form="final" unicode="ﻀﻲ"/>
<glyph horiz-adv-x="2873" glyph-name="uniFD29" d="M1868 1228l108 109l112 -109l-112 -112zM1730 1019l122 123l124 -123l-124 -125zM1982 1019l121 123l125 -123l-125 -125zM982 0q-78 0 -156.5 32t-152.5 132q-23 -82 -64 -160.5t-96 -152t-120.5 -139.5t-136.5 -123h-240l-2 32q118 64 217.5 146t175 172.5t122 186.5 t58.5 191l-162 390h173q15 -43 28 -76.5t22 -62.5l69 -182q30 -76 65 -121t71.5 -67t72 -29t73.5 -7h106q125 0 193 74t68 212v259h137v-235q0 -146 47 -231.5t152 -85.5q52 0 92 21.5t65.5 58.5t38.5 88.5t13 111.5v272h138v-235q0 -146 47.5 -231.5t152.5 -85.5 q52 0 92 21.5t65.5 58.5t38 88.5t12.5 111.5v272h137v-251q0 -91 13 -148t42 -89t72.5 -44.5t105.5 -12.5h109l-38 -162h-86q-136 0 -210.5 36.5t-106.5 116.5q-43 -78 -107.5 -123t-147.5 -45q-109 0 -177 47.5t-106 133.5q-43 -86 -109 -133.5t-155 -47.5 q-114 0 -182.5 52t-103.5 144q-48 -86 -128.5 -133.5t-183.5 -47.5h-113z" arabic-form="final" unicode="ﺸﺮ"/>
<glyph horiz-adv-x="2873" glyph-name="uniFD2A" d="M982 0q-78 0 -156.5 32t-152.5 132q-23 -82 -64 -160.5t-96 -152t-120.5 -139.5t-136.5 -123h-240l-2 32q118 64 217.5 146t175 172.5t122 186.5t58.5 191l-162 390h173q15 -43 28 -76.5t22 -62.5l69 -182q30 -76 65 -121t71.5 -67t72 -29t73.5 -7h106q125 0 193 74 t68 212v259h137v-235q0 -146 47 -231.5t152 -85.5q52 0 92 21.5t65.5 58.5t38.5 88.5t13 111.5v272h138v-235q0 -146 47.5 -231.5t152.5 -85.5q52 0 92 21.5t65.5 58.5t38 88.5t12.5 111.5v272h137v-251q0 -91 13 -148t42 -89t72.5 -44.5t105.5 -12.5h109l-38 -162h-86 q-136 0 -210.5 36.5t-106.5 116.5q-43 -78 -107.5 -123t-147.5 -45q-109 0 -177 47.5t-106 133.5q-43 -86 -109 -133.5t-155 -47.5q-114 0 -182.5 52t-103.5 144q-48 -86 -128.5 -133.5t-183.5 -47.5h-113z" arabic-form="final" unicode="ﺴﺮ"/>
<glyph horiz-adv-x="2847" glyph-name="uniFD2B" d="M2224 566q-67 0 -146.5 -29.5t-161.5 -80t-165 -117.5t-159 -141q25 -20 61.5 -28t87.5 -8h198q223 4 361.5 51t203.5 100q-9 57 -26 103.5t-49 79t-81 51.5t-124 19zM982 0q-78 0 -156.5 32t-152.5 132q-23 -82 -64 -160.5t-96 -152t-120.5 -139.5t-136.5 -123h-240 l-2 32q118 64 217.5 146t175 172.5t122 186.5t58.5 191l-162 390h173q15 -43 28 -76.5t22 -62.5l69 -182q30 -76 65 -121t71.5 -67t72 -29t73.5 -7h125q123 0 190 70t70 201v274h142v-251q0 -107 13 -167q96 106 194 191.5t191 144t180.5 89t162.5 30.5q107 0 173 -37 t104 -96t52 -133t16 -145q29 -75 77 -123t119 -48h93l-37 -162h-93q-95 0 -152 47.5t-87 137.5q-35 -32 -88.5 -65.5t-123 -59.5t-157.5 -43t-195 -17h-242q-118 0 -185.5 34.5t-105.5 102.5l-12 12l5 4l-6 15q-52 -81 -130.5 -124.5t-177.5 -43.5h-132z" arabic-form="final" unicode="ﺼﺮ"/>
<glyph horiz-adv-x="2847" glyph-name="uniFD2C" d="M2224 566q-67 0 -146.5 -29.5t-161.5 -80t-165 -117.5t-159 -141q25 -20 61.5 -28t87.5 -8h198q223 4 361.5 51t203.5 100q-9 57 -26 103.5t-49 79t-81 51.5t-124 19zM1774 935l122 123l125 -123l-125 -125zM982 0q-78 0 -156.5 32t-152.5 132q-23 -82 -64 -160.5 t-96 -152t-120.5 -139.5t-136.5 -123h-240l-2 32q118 64 217.5 146t175 172.5t122 186.5t58.5 191l-162 390h173q15 -43 28 -76.5t22 -62.5l69 -182q30 -76 65 -121t71.5 -67t72 -29t73.5 -7h125q123 0 190 70t70 201v274h142v-251q0 -107 13 -167q96 106 194 191.5t191 144 t180.5 89t162.5 30.5q107 0 173 -37t104 -96t52 -133t16 -145q29 -75 77 -123t119 -48h93l-37 -162h-93q-95 0 -152 47.5t-87 137.5q-35 -32 -88.5 -65.5t-123 -59.5t-157.5 -43t-195 -17h-242q-118 0 -185.5 34.5t-105.5 102.5l-12 12l5 4l-6 15q-52 -81 -130.5 -124.5 t-177.5 -43.5h-132z" arabic-form="final" unicode="ﻀﺮ"/>
<glyph horiz-adv-x="1092" glyph-name="uniFEF5" d="M50 90q319 56 489 145q-49 157 -101 298.5t-113 275t-128 259.5t-142 251h204q119 -220 217 -475.5t167 -539.5q103 86 141 210t38 298v653l142 43l2 -685q0 -202 -61.5 -357.5t-158.5 -262t-212 -162.5t-221 -56q-28 0 -64.5 6.5t-73 17t-70 21.5t-55.5 22v38zM552 1573 q-32 -32 -72 -48.5t-91 -16.5q-26 0 -63 7t-73.5 15.5t-68 16t-46.5 7.5q-23 -9 -47 -29.5t-50 -63.5l-62 88q26 54 72.5 81t86.5 27q28 0 65 -6.5t76.5 -14t76.5 -14t65 -6.5q34 0 76 13t73 28z" arabic-form="isolated" unicode="ﻟﺂ"/>
<glyph horiz-adv-x="1227" glyph-name="uniFEF6" d="M49 90q159 16 281 50t212 80q-49 159 -102 303.5t-112.5 279t-127.5 262t-145 254.5h203q124 -226 222.5 -486t167.5 -551q86 61 128 131t46 139v913l142 43v-1053q0 -89 13 -146t42 -89.5t72.5 -45t105.5 -12.5h88l-38 -162h-65q-93 0 -157.5 17t-105.5 53t-62.5 92 t-29.5 135q-48 -62 -108.5 -119t-129 -100t-139 -68t-137.5 -25q-28 0 -64.5 6.5t-73 17t-70 21.5t-56.5 22v38zM531 1573q-32 -32 -72 -48.5t-91 -16.5q-26 0 -63 7t-73.5 15.5t-68 16t-46.5 7.5q-23 -9 -47 -29.5t-50 -63.5l-62 88q26 54 72.5 81t86.5 27q28 0 65 -6.5 t76.5 -14t76.5 -14t65 -6.5q34 0 76 13t73 28z" arabic-form="final" unicode="ﻠﺂ"/>
<glyph horiz-adv-x="1092" glyph-name="uniFEF7" d="M47 90q319 56 489 145q-49 157 -101 298.5t-112.5 275t-128 259.5t-141.5 251h203q119 -220 217 -475.5t167 -539.5q103 86 141 210t38 298v653l142 43l2 -685q0 -202 -61.5 -357.5t-158.5 -262t-212 -162.5t-221 -56q-28 0 -64.5 6.5t-72.5 17t-70 21.5t-56 22v38z M403 1541q-28 -2 -70.5 -7.5t-92 -14t-103 -20.5t-103.5 -25q4 9 9.5 24t11.5 30q5 17 11 32l132 18q-54 10 -91.5 35t-37.5 51q0 41 26.5 77.5t68.5 64.5t93 46.5t102 26.5l37 -101q-39 0 -76.5 -7.5t-67.5 -18.5t-51 -27t-29 -35q17 -24 60 -35t86 -17q50 -7 112 -7z" arabic-form="isolated" unicode="ﻟﺄ"/>
<glyph horiz-adv-x="1227" glyph-name="uniFEF8" d="M48 90q159 16 281 50t212 80q-49 159 -102 303.5t-113 279t-128 262t-144 254.5h203q123 -226 222 -486t168 -551q86 61 128 131t45 139v913l142 43v-1053q0 -89 13 -146t42 -89.5t73 -45t105 -12.5h88l-37 -162h-65q-94 0 -158 17t-105.5 53t-63 92t-28.5 135 q-48 -62 -109 -119t-129 -100t-139 -68t-138 -25q-28 0 -64.5 6.5t-72.5 17t-70 21.5t-56 22v38zM425 1541q-28 -2 -71 -7.5t-92.5 -14t-102.5 -20.5t-104 -25q4 9 9.5 24t11.5 30q6 17 11 32l133 18q-54 10 -91.5 35t-37.5 51q0 41 26 77.5t68 64.5t93.5 46.5t101.5 26.5 l37 -101q-39 0 -76 -7.5t-67 -18.5t-51.5 -27t-28.5 -35q16 -24 59 -35t86 -17q50 -7 112 -7z" arabic-form="final" unicode="ﻠﺄ"/>
<glyph horiz-adv-x="1092" glyph-name="uniFEF9" d="M48 90q319 56 489 145q-49 157 -101 298.5t-112.5 275t-128 259.5t-141.5 251h203q119 -220 217 -475.5t167 -539.5q103 86 141 210t38 298v653l142 43l2 -685q0 -202 -61.5 -357.5t-158.5 -262t-212 -162.5t-221 -56q-28 0 -64.5 6.5t-72.5 17t-70 21.5t-56 22v38z M606 -410q-28 -2 -71 -8t-92.5 -14t-102.5 -20.5t-104 -25.5q4 10 9.5 25t11.5 29q6 17 11 32l133 19q-54 9 -91.5 34.5t-37.5 51.5q0 41 26 77t68 64t93.5 47t101.5 26l37 -101q-39 0 -76 -7t-67 -18.5t-51.5 -27.5t-28.5 -34q16 -24 59 -35.5t86 -16.5q50 -8 112 -8z" arabic-form="isolated" unicode="ﻟﺈ"/>
<glyph horiz-adv-x="1227" glyph-name="uniFEFA" d="M48 90q159 16 281 50t212 80q-49 159 -102 303.5t-113 279t-128 262t-144 254.5h203q123 -226 222 -486t168 -551q86 61 128 131t45 139v913l142 43v-1053q0 -89 13 -146t42 -89.5t73 -45t105 -12.5h88l-37 -162h-65q-94 0 -158 17t-105.5 53t-63 92t-28.5 135 q-48 -62 -109 -119t-129 -100t-139 -68t-138 -25q-28 0 -64.5 6.5t-72.5 17t-70 21.5t-56 22v38zM535 -410q-28 -2 -71 -8t-92.5 -14t-102.5 -20.5t-103 -25.5q3 10 8.5 25t11.5 29q6 17 11 32l133 19q-54 9 -91.5 34.5t-37.5 51.5q0 41 26 77t68 64t93.5 47t101.5 26 l38 -101q-40 0 -77 -7t-67 -18.5t-51.5 -27.5t-28.5 -34q16 -24 59 -35.5t86 -16.5q51 -8 112 -8z" arabic-form="final" unicode="ﻠﺈ"/>
<glyph horiz-adv-x="1113" glyph-name="uniFEFB" d="M48 90q319 56 489 145q-49 157 -101 298.5t-112.5 275t-128 259.5t-141.5 251h203q119 -220 217 -475.5t167 -539.5q103 86 141 210t38 298v653l142 43l2 -685q0 -202 -61.5 -357.5t-158.5 -262t-212 -162.5t-221 -56q-28 0 -64.5 6.5t-72.5 17t-70 21.5t-56 22v38z" arabic-form="isolated" unicode="ﻟﺎ"/>
<glyph horiz-adv-x="1227" glyph-name="uniFEFC" d="M48 90q159 16 281 50t212 80q-49 159 -102 303.5t-113 279t-128 262t-144 254.5h203q123 -226 222 -486t168 -551q86 61 128 131t45 139v913l142 43v-1053q0 -89 13 -146t42 -89.5t73 -45t105 -12.5h88l-37 -162h-65q-94 0 -158 17t-105.5 53t-63 92t-28.5 135 q-48 -62 -109 -119t-129 -100t-139 -68t-138 -25q-28 0 -64.5 6.5t-72.5 17t-70 21.5t-56 22v38z" arabic-form="final" unicode="ﻠﺎ"/>
<glyph horiz-adv-x="1802" glyph-name="uniFE8B_uniFEE4.liga" d="M628 552q-23 0 -46 -17.5t-49.5 -48t-55 -70t-58.5 -83.5q60 -62 134.5 -104t176.5 -80q53 49 76.5 100.5t23.5 99.5q0 41 -15 78.5t-42 65t-64.5 43.5t-80.5 16zM1738 1011q-28 -2 -71 -7.5t-92.5 -14t-103 -20.5t-103.5 -25q4 10 9.5 24.5t11.5 29.5q5 17 11 31l132 20 q-54 9 -91 34.5t-37 50.5q0 41 25.5 77.5t67.5 65t93.5 47t101.5 25.5l38 -101q-39 0 -76.5 -7t-67 -18.5t-51 -27.5t-28.5 -34q16 -25 59 -36t85 -16q51 -8 112 -8zM1158 0q-99 0 -156 50.5t-85 145.5q-28 -52 -71 -104.5t-105 -106.5q-72 19 -130.5 41t-107.5 49.5 t-91.5 60t-83.5 73.5q-68 -84 -145.5 -146.5t-164.5 -62.5h-73l37 162h56q56 0 106.5 40t99 101t97.5 132t103.5 131.5t115 100.5t135.5 40q43 0 85 -16t77 -45.5t62.5 -70.5t40.5 -92h2q0 -9 3 -24l4 -26q12 -54 30.5 -102.5t46.5 -86t65 -60t84 -22.5h276q29 57 45 125.5 t16 143.5q0 67 -14.5 138t-46.5 138h168q26 -67 39 -128.5t13 -122.5q0 -102 -35.5 -209t-107.5 -247h-390z" unicode="ﺋﻤ"/>
<glyph horiz-adv-x="1794" glyph-name="uniFE8B_uniFEF0.liga" d="M1728 1011q-28 -2 -71 -7.5t-92.5 -14t-103 -20.5t-103.5 -25q4 10 9.5 24.5t11.5 29.5q5 17 11 31l132 20q-54 9 -91.5 34.5t-37.5 50.5q0 41 26 77.5t68 65t93.5 47t101.5 25.5l38 -101q-40 0 -77 -7t-66.5 -18.5t-51 -27.5t-29.5 -34q17 -25 59.5 -36t85.5 -16 q51 -8 112 -8zM1161 0q-18 0 -54 5q11 -23 19 -47t8 -49q0 -62 -52.5 -119t-138 -101.5t-196 -72t-224.5 -27.5q-220 0 -343 128t-123 358q0 93 21.5 200.5t67.5 228.5h114q-57 -185 -57 -335q0 -197 94 -303.5t255 -106.5q74 0 151.5 12t143.5 30t117.5 40t75.5 43 q-15 21 -41 48t-57.5 53t-66.5 47.5t-63 31.5l-14 3l83 159q29 -16 65.5 -27.5t74.5 -20.5t77 -12.5t73 -3.5h290q29 57 45 125.5t16 143.5q0 67 -14.5 138t-46.5 138h168q26 -67 38.5 -128.5t12.5 -122.5q0 -102 -35 -209t-108 -247h-376z" unicode="ﺋﻰ"/>
<glyph horiz-adv-x="1794" glyph-name="uniFE8B_uniFEF2.liga" d="M1728 1011q-28 -2 -71 -7.5t-92.5 -14t-103 -20.5t-103.5 -25q4 10 9.5 24.5t11.5 29.5q5 17 11 31l132 20q-54 9 -91.5 34.5t-37.5 50.5q0 41 26 77.5t68 65t93.5 47t101.5 25.5l38 -101q-40 0 -77 -7t-66.5 -18.5t-51 -27.5t-29.5 -34q17 -25 59.5 -36t85.5 -16 q51 -8 112 -8zM1161 0q-18 0 -54 5q11 -23 19 -47t8 -49q0 -62 -52.5 -119t-138 -101.5t-196 -72t-224.5 -27.5q-220 0 -343 128t-123 358q0 93 21.5 200.5t67.5 228.5h114q-57 -185 -57 -335q0 -197 94 -303.5t255 -106.5q74 0 151.5 12t143.5 30t117.5 40t75.5 43 q-15 21 -41 48t-57.5 53t-66.5 47.5t-63 31.5l-14 3l83 159q29 -16 65.5 -27.5t74.5 -20.5t77 -12.5t73 -3.5h290q29 57 45 125.5t16 143.5q0 67 -14.5 138t-46.5 138h168q26 -67 38.5 -128.5t12.5 -122.5q0 -102 -35 -209t-108 -247h-376zM287 -593l121 123l125 -123 l-125 -125zM538 -593l122 123l125 -123l-125 -125z" unicode="ﺋﻲ"/>
<glyph horiz-adv-x="1815" glyph-name="uniFE91_uniFEE4.liga" d="M628 552q-23 0 -46 -17.5t-49.5 -48t-55 -70t-58.5 -83.5q60 -62 134.5 -104t176.5 -80q53 49 76.5 100.5t23.5 99.5q0 41 -15 78.5t-42 65t-64.5 43.5t-80.5 16zM1158 0q-99 0 -156 50.5t-85 145.5q-28 -52 -71 -104.5t-105 -106.5q-72 19 -130.5 41t-107.5 49.5 t-91.5 60t-83.5 73.5q-68 -84 -145.5 -146.5t-164.5 -62.5h-73l37 162h56q56 0 106.5 40t99 101t97.5 132t103.5 131.5t115 100.5t135.5 40q43 0 85 -16t77 -45.5t62.5 -70.5t40.5 -92h2q0 -9 3 -24l4 -26q12 -54 30.5 -102.5t46.5 -86t65 -60t84 -22.5h276q29 57 45 125.5 t16 143.5q0 67 -14.5 138t-46.5 138h168q26 -67 39 -128.5t13 -122.5q0 -102 -35.5 -209t-107.5 -247h-390zM1333 -246l121 123l125 -123l-125 -126z" unicode="ﺑﻤ"/>
<glyph horiz-adv-x="2132" glyph-name="uniFE92_uniFEE6.liga" d="M451 705l121 123l125 -123l-125 -125zM1647 -246l121 123l126 -123l-126 -126zM1360 0q-90 0 -156.5 36.5t-114.5 103.5q-12 -110 -49 -209.5t-108 -175.5t-177.5 -121t-253.5 -45q-218 0 -331 111t-113 315q0 170 84 398h131q-37 -107 -54 -194t-17 -157q0 -155 84 -225 t249 -70q126 0 211.5 40t138 110t76 162t23.5 197q0 21 -1 42.5t-3 41.5l-73 196l144 47l78 -217q47 -126 111 -175t137 -49h94q125 0 193 74t68 212v259h142v-251q0 -91 10.5 -148t35.5 -89t66 -44.5t103 -12.5h104l-38 -162h-82q-128 0 -200 42t-104 126 q-52 -81 -130.5 -124.5t-177.5 -43.5h-100z" unicode="ﺒﻦ"/>
<glyph horiz-adv-x="1807" glyph-name="uniFE91_uniFEF0.liga" d="M1161 0q-18 0 -54 5q11 -23 19 -47t8 -49q0 -62 -52.5 -119t-138 -101.5t-196 -72t-224.5 -27.5q-220 0 -343 128t-123 358q0 93 21.5 200.5t67.5 228.5h114q-57 -185 -57 -335q0 -197 94 -303.5t255 -106.5q74 0 151.5 12t143.5 30t117.5 40t75.5 43q-15 21 -41 48 t-57.5 53t-66.5 47.5t-63 31.5l-14 3l83 159q29 -16 65.5 -27.5t74.5 -20.5t77 -12.5t73 -3.5h290q29 57 45 125.5t16 143.5q0 67 -14.5 138t-46.5 138h168q26 -67 38.5 -128.5t12.5 -122.5q0 -102 -35 -209t-108 -247h-376zM1322 -246l122 123l125 -123l-125 -126z" unicode="ﺑﻰ"/>
<glyph horiz-adv-x="1807" glyph-name="uniFE91_uniFEF2.liga" d="M1161 0q-18 0 -54 5q11 -23 19 -47t8 -49q0 -62 -52.5 -119t-138 -101.5t-196 -72t-224.5 -27.5q-220 0 -343 128t-123 358q0 93 21.5 200.5t67.5 228.5h114q-57 -185 -57 -335q0 -197 94 -303.5t255 -106.5q74 0 151.5 12t143.5 30t117.5 40t75.5 43q-15 21 -41 48 t-57.5 53t-66.5 47.5t-63 31.5l-14 3l83 159q29 -16 65.5 -27.5t74.5 -20.5t77 -12.5t73 -3.5h290q29 57 45 125.5t16 143.5q0 67 -14.5 138t-46.5 138h168q26 -67 38.5 -128.5t12.5 -122.5q0 -102 -35 -209t-108 -247h-376zM1322 -246l122 123l125 -123l-125 -126z M287 -593l121 123l125 -123l-125 -125zM538 -593l122 123l125 -123l-125 -125z" unicode="ﺑﻲ"/>
<glyph horiz-adv-x="1785" glyph-name="uniFE97_uniFEE4.liga" d="M628 552q-23 0 -46 -17.5t-49.5 -48t-55 -70t-58.5 -83.5q60 -62 134.5 -104t176.5 -80q53 49 76.5 100.5t23.5 99.5q0 41 -15 78.5t-42 65t-64.5 43.5t-80.5 16zM1262 1015l122 123l124 -123l-124 -125zM1514 1015l121 123l126 -123l-126 -125zM1158 0q-99 0 -156 50.5 t-85 145.5q-28 -52 -71 -104.5t-105 -106.5q-72 19 -130.5 41t-107.5 49.5t-91.5 60t-83.5 73.5q-68 -84 -145.5 -146.5t-164.5 -62.5h-73l37 162h56q56 0 106.5 40t99 101t97.5 132t103.5 131.5t115 100.5t135.5 40q43 0 85 -16t77 -45.5t62.5 -70.5t40.5 -92h2q0 -9 3 -24 l4 -26q12 -54 30.5 -102.5t46.5 -86t65 -60t84 -22.5h258q29 57 45 125.5t16 143.5q0 67 -14.5 138t-46.5 138h167q27 -67 39.5 -128.5t12.5 -122.5q0 -102 -35 -209t-108 -247h-371z" unicode="ﺗﻤ"/>
<glyph horiz-adv-x="2124" glyph-name="uniFE98_uniFEE6.liga" d="M451 705l121 123l125 -123l-125 -125zM1791 1015l121 123l126 -123l-126 -125zM1539 1015l121 123l125 -123l-125 -125zM1356 0q-87 1 -152 36q-67 37 -115 104q-12 -110 -49 -209.5t-108 -175.5t-177.5 -121t-253.5 -45q-218 0 -331 111t-113 315q0 170 84 398h131 q-37 -107 -54 -194t-17 -157q0 -155 84 -225t249 -70q126 0 211.5 40t138 110t76 162t23.5 197q0 21 -1 42.5t-3 41.5l-73 196l144 47l78 -217q47 -126 111 -175t137 -49h85q123 0 190 72t70 206v267h143v-251q0 -91 10.5 -148t35.5 -89t66 -44.5t103 -12.5h103l-37 -162 h-82q-128 0 -200 42t-104 126q-52 -81 -130.5 -124.5t-177.5 -43.5h-95z" unicode="ﺘﻦ"/>
<glyph horiz-adv-x="1794" glyph-name="uniFE97_uniFEF0.liga" d="M1270 1015l122 123l124 -123l-124 -125zM1522 1015l121 123l126 -123l-126 -125zM1161 0q-18 0 -54 5q11 -23 19 -47t8 -49q0 -62 -52.5 -119t-138 -101.5t-196 -72t-224.5 -27.5q-220 0 -343 128t-123 358q0 93 21.5 200.5t67.5 228.5h114q-57 -185 -57 -335 q0 -197 94 -303.5t255 -106.5q74 0 151.5 12t143.5 30t117.5 40t75.5 43q-15 21 -41 48t-57.5 53t-66.5 47.5t-63 31.5l-14 3l83 159q29 -16 65.5 -27.5t74.5 -20.5t77 -12.5t73 -3.5h290q29 57 45 125.5t16 143.5q0 67 -14.5 138t-46.5 138h168q26 -67 38.5 -128.5 t12.5 -122.5q0 -102 -35 -209t-108 -247h-376z" unicode="ﺗﻰ"/>
<glyph horiz-adv-x="1794" glyph-name="uniFE97_uniFEF2.liga" d="M1270 1015l122 123l124 -123l-124 -125zM1522 1015l121 123l126 -123l-126 -125zM1161 0q-18 0 -54 5q11 -23 19 -47t8 -49q0 -62 -52.5 -119t-138 -101.5t-196 -72t-224.5 -27.5q-220 0 -343 128t-123 358q0 93 21.5 200.5t67.5 228.5h114q-57 -185 -57 -335 q0 -197 94 -303.5t255 -106.5q74 0 151.5 12t143.5 30t117.5 40t75.5 43q-15 21 -41 48t-57.5 53t-66.5 47.5t-63 31.5l-14 3l83 159q29 -16 65.5 -27.5t74.5 -20.5t77 -12.5t73 -3.5h290q29 57 45 125.5t16 143.5q0 67 -14.5 138t-46.5 138h168q26 -67 38.5 -128.5 t12.5 -122.5q0 -102 -35 -209t-108 -247h-376zM287 -593l121 123l125 -123l-125 -125zM538 -593l122 123l125 -123l-125 -125z" unicode="ﺗﻲ"/>
<glyph horiz-adv-x="1785" glyph-name="uniFE9C_uniFEAE.liga" d="M1340 1224l108 110l112 -110l-112 -112zM1453 1015l122 123l125 -123l-125 -125zM1202 1015l121 123l125 -123l-125 -125zM982 0q-78 0 -156.5 32t-152.5 132q-23 -82 -64 -160.5t-96 -152t-120.5 -139.5t-136.5 -123h-240l-2 32q118 64 217.5 146t175 172.5t122 186.5 t58.5 191l-162 390h173q15 -43 28 -76.5t22 -62.5l69 -182q30 -76 65 -121t71.5 -67t72 -29t73.5 -7h125q123 0 190 72t70 206v267h142v-251q0 -91 10.5 -148t35.5 -89t66 -44.5t103 -12.5h104l-37 -162h-82q-129 0 -201 42t-103 126q-52 -81 -130.5 -124.5t-177.5 -43.5 h-132z" unicode="ﺜﺮ"/>
<glyph horiz-adv-x="1785" glyph-name="uniFE9B_uniFEE4.liga" d="M628 552q-23 0 -46 -17.5t-49.5 -48t-55 -70t-58.5 -83.5q60 -62 134.5 -104t176.5 -80q53 49 76.5 100.5t23.5 99.5q0 41 -15 78.5t-42 65t-64.5 43.5t-80.5 16zM1262 1015l122 123l124 -123l-124 -125zM1400 1224l108 110l112 -110l-112 -112zM1514 1015l121 123 l126 -123l-126 -125zM1158 0q-99 0 -156 50.5t-85 145.5q-28 -52 -71 -104.5t-105 -106.5q-72 19 -130.5 41t-107.5 49.5t-91.5 60t-83.5 73.5q-68 -84 -145.5 -146.5t-164.5 -62.5h-73l37 162h56q56 0 106.5 40t99 101t97.5 132t103.5 131.5t115 100.5t135.5 40 q43 0 85 -16t77 -45.5t62.5 -70.5t40.5 -92h2q0 -9 3 -24l4 -26q12 -54 30.5 -102.5t46.5 -86t65 -60t84 -22.5h258q29 57 45 125.5t16 143.5q0 67 -14.5 138t-46.5 138h167q27 -67 39.5 -128.5t12.5 -122.5q0 -102 -35 -209t-108 -247h-371z" unicode="ﺛﻤ"/>
<glyph horiz-adv-x="2124" glyph-name="uniFE9C_uniFEE6.liga" d="M451 705l121 123l125 -123l-125 -125zM1677 1224l108 110l112 -110l-112 -112zM1791 1015l121 123l126 -123l-126 -125zM1539 1015l121 123l125 -123l-125 -125zM1356 0q-87 1 -152 36q-67 37 -115 104q-12 -110 -49 -209.5t-108 -175.5t-177.5 -121t-253.5 -45 q-218 0 -331 111t-113 315q0 170 84 398h131q-37 -107 -54 -194t-17 -157q0 -155 84 -225t249 -70q126 0 211.5 40t138 110t76 162t23.5 197q0 21 -1 42.5t-3 41.5l-73 196l144 47l78 -217q47 -126 111 -175t137 -49h85q123 0 190 72t70 206v267h143v-251q0 -91 10.5 -148 t35.5 -89t66 -44.5t103 -12.5h103l-37 -162h-82q-128 0 -200 42t-104 126q-52 -81 -130.5 -124.5t-177.5 -43.5h-95z" unicode="ﺜﻦ"/>
<glyph horiz-adv-x="1794" glyph-name="uniFE9B_uniFEF0.liga" d="M1270 1015l122 123l124 -123l-124 -125zM1408 1224l108 110l113 -110l-113 -112zM1522 1015l121 123l126 -123l-126 -125zM1161 0q-18 0 -54 5q11 -23 19 -47t8 -49q0 -62 -52.5 -119t-138 -101.5t-196 -72t-224.5 -27.5q-220 0 -343 128t-123 358q0 93 21.5 200.5 t67.5 228.5h114q-57 -185 -57 -335q0 -197 94 -303.5t255 -106.5q74 0 151.5 12t143.5 30t117.5 40t75.5 43q-15 21 -41 48t-57.5 53t-66.5 47.5t-63 31.5l-14 3l83 159q29 -16 65.5 -27.5t74.5 -20.5t77 -12.5t73 -3.5h290q29 57 45 125.5t16 143.5q0 67 -14.5 138 t-46.5 138h168q26 -67 38.5 -128.5t12.5 -122.5q0 -102 -35 -209t-108 -247h-376z" unicode="ﺛﻰ"/>
<glyph horiz-adv-x="1794" glyph-name="uniFE9B_uniFEF2.liga" d="M1270 1015l122 123l124 -123l-124 -125zM1408 1224l108 110l113 -110l-113 -112zM1522 1015l121 123l126 -123l-126 -125zM1161 0q-18 0 -54 5q11 -23 19 -47t8 -49q0 -62 -52.5 -119t-138 -101.5t-196 -72t-224.5 -27.5q-220 0 -343 128t-123 358q0 93 21.5 200.5 t67.5 228.5h114q-57 -185 -57 -335q0 -197 94 -303.5t255 -106.5q74 0 151.5 12t143.5 30t117.5 40t75.5 43q-15 21 -41 48t-57.5 53t-66.5 47.5t-63 31.5l-14 3l83 159q29 -16 65.5 -27.5t74.5 -20.5t77 -12.5t73 -3.5h290q29 57 45 125.5t16 143.5q0 67 -14.5 138 t-46.5 138h168q26 -67 38.5 -128.5t12.5 -122.5q0 -102 -35 -209t-108 -247h-376zM287 -593l121 123l125 -123l-125 -125zM538 -593l122 123l125 -123l-125 -125z" unicode="ﺛﻲ"/>
<glyph horiz-adv-x="2137" glyph-name="uniFEDB_uniFEF0.liga" d="M1161 0q-18 0 -54 5q11 -23 19 -47t8 -49q0 -62 -52.5 -119t-138 -101.5t-196 -72t-224.5 -27.5q-220 0 -343 128t-123 358q0 93 21.5 200.5t67.5 228.5h114q-57 -185 -57 -335q0 -197 94 -303.5t255 -106.5q74 0 151.5 12t143.5 30t117.5 40t75.5 43q-15 21 -41 48 t-57.5 53t-66.5 47.5t-63 31.5l-14 3l83 159q29 -16 65.5 -27.5t74.5 -20.5t77 -12.5t73 -3.5h58q114 0 197 13.5t142 34.5t96 46.5t60 47.5l-411 532q-30 45 -49.5 92.5t-19.5 91.5q0 38 14 66q25 56 96 114.5t162.5 112.5t192.5 100t188 77l137 -135q-233 -73 -391 -157 t-274 -181l402 -513q53 -82 53 -164q0 -69 -40 -130.5t-117.5 -108.5t-189.5 -74t-255 -27h-61z" unicode="ﻛﻰ"/>
<glyph horiz-adv-x="2175" glyph-name="uniFEDC_uniFEF0.liga" d="M1161 0q-18 0 -54 5q11 -23 19 -47t8 -49q0 -62 -52.5 -119t-138 -101.5t-196 -72t-224.5 -27.5q-220 0 -343 128t-123 358q0 93 21.5 200.5t67.5 228.5h114q-57 -185 -57 -335q0 -197 94 -303.5t255 -106.5q74 0 151.5 12t143.5 30t117.5 40t75.5 43q-15 21 -41 48 t-57.5 53t-66.5 47.5t-63 31.5l-14 3l83 159q29 -16 65.5 -27.5t74.5 -20.5t77 -12.5t73 -3.5h68q113 0 190 13.5t126 34.5t78 46.5t49 49.5l-408 530q-30 45 -49.5 92.5t-19.5 91.5q0 38 13 66q17 37 69 76.5t123 78.5t155.5 75.5t171 69t164.5 60.5t136 48l136 -136 q-117 -37 -241.5 -76t-239 -82t-209.5 -89t-153 -94l482 -616q41 -54 78 -97.5t74 -74.5t76 -49t85 -18h104l-37 -162h-116q-54 0 -97.5 15t-80 41t-70.5 64.5t-69 82.5q-52 -89 -183.5 -146t-344.5 -57h-70z" unicode="ﻜﻰ"/>
<glyph horiz-adv-x="2137" glyph-name="uniFEDB_uniFEF2.liga" d="M1161 0q-18 0 -54 5q11 -23 19 -47t8 -49q0 -62 -52.5 -119t-138 -101.5t-196 -72t-224.5 -27.5q-220 0 -343 128t-123 358q0 93 21.5 200.5t67.5 228.5h114q-57 -185 -57 -335q0 -197 94 -303.5t255 -106.5q74 0 151.5 12t143.5 30t117.5 40t75.5 43q-15 21 -41 48 t-57.5 53t-66.5 47.5t-63 31.5l-14 3l83 159q29 -16 65.5 -27.5t74.5 -20.5t77 -12.5t73 -3.5h58q114 0 197 13.5t142 34.5t96 46.5t60 47.5l-411 532q-30 45 -49.5 92.5t-19.5 91.5q0 38 14 66q25 56 96 114.5t162.5 112.5t192.5 100t188 77l137 -135q-233 -73 -391 -157 t-274 -181l402 -513q53 -82 53 -164q0 -69 -40 -130.5t-117.5 -108.5t-189.5 -74t-255 -27h-61zM287 -593l121 123l125 -123l-125 -125zM538 -593l122 123l125 -123l-125 -125z" unicode="ﻛﻲ"/>
<glyph horiz-adv-x="2175" glyph-name="uniFEDC_uniFEF2.liga" d="M538 -593l122 123l125 -123l-125 -125zM287 -593l121 123l125 -123l-125 -125zM1161 0q-18 0 -54 5q11 -23 19 -47t8 -49q0 -62 -52.5 -119t-138 -101.5t-196 -72t-224.5 -27.5q-220 0 -343 128t-123 358q0 93 21.5 200.5t67.5 228.5h114q-57 -185 -57 -335 q0 -197 94 -303.5t255 -106.5q74 0 151.5 12t143.5 30t117.5 40t75.5 43q-15 21 -41 48t-57.5 53t-66.5 47.5t-63 31.5l-14 3l83 159q29 -16 65.5 -27.5t74.5 -20.5t77 -12.5t73 -3.5h68q113 0 190 13.5t126 34.5t78 46.5t49 49.5l-408 530q-30 45 -49.5 92.5t-19.5 91.5 q0 38 13 66q17 37 69 76.5t123 78.5t155.5 75.5t171 69t164.5 60.5t136 48l136 -136q-117 -37 -241.5 -76t-239 -82t-209.5 -89t-153 -94l482 -616q41 -54 78 -97.5t74 -74.5t76 -49t85 -18h104l-37 -162h-116q-54 0 -97.5 15t-80 41t-70.5 64.5t-69 82.5 q-52 -89 -183.5 -146t-344.5 -57h-70z" unicode="ﻜﻲ"/>
<glyph horiz-adv-x="1092" glyph-name="uniFEDF_uniFB51.rlig" d="M49 90q319 56 489 145q-49 157 -101 298.5t-112.5 275t-128 259.5t-141.5 251h203q119 -220 217 -475.5t167 -539.5q103 86 141.5 210t38.5 298v653l141 43l2 -685q0 -202 -61.5 -357.5t-158.5 -262t-211.5 -162.5t-221.5 -56q-28 0 -64.5 6.5t-72.5 17t-70 21.5t-56 22 v38zM-20 1551q12 23 30.5 44.5t39 36t40 24t32.5 9.5q19 0 33 -5.5t33 -14.5q71 99 139 159.5t144 60.5q40 0 71.5 -17t51.5 -45t30.5 -65t10.5 -76q0 -93 -62.5 -146t-157.5 -53q-49 0 -95.5 9.5t-86 21.5t-69 25.5t-44.5 24.5q-24 -9 -43.5 -26.5t-42.5 -59.5zM240 1617 q37 -19 81.5 -30.5t95.5 -11.5q25 0 51.5 5.5t49 15.5t38 23.5t15.5 30.5q-13 42 -45.5 70.5t-73.5 28.5q-53 0 -106.5 -34.5t-105.5 -97.5z" unicode="ﻟﭑ"/>
<glyph horiz-adv-x="1227" glyph-name="uniFEE0_uniFB51.rlig" d="M49 90q158 16 280.5 50t211.5 80q-48 159 -101 303.5t-113 279t-128 262t-145 254.5h204q123 -226 222 -486t168 -551q86 61 128 131t45 139v913l142 43v-1053q0 -89 13 -146t42 -89.5t73 -45t105 -12.5h88l-37 -162h-66q-93 0 -157.5 17t-105.5 53t-62.5 92t-28.5 135 q-49 -62 -109.5 -119t-128.5 -100t-139 -68t-138 -25q-28 0 -64.5 6.5t-73 17t-70 21.5t-55.5 22v38zM-38 1551q12 23 30.5 44.5t39 36t40 24t32.5 9.5q19 0 33 -5.5t33 -14.5q71 99 139 159.5t144 60.5q40 0 71.5 -17t51.5 -45t30.5 -65t10.5 -76q0 -93 -62.5 -146 t-157.5 -53q-49 0 -95.5 9.5t-86 21.5t-69 25.5t-44.5 24.5q-24 -9 -43.5 -26.5t-42.5 -59.5zM222 1617q37 -19 81.5 -30.5t95.5 -11.5q25 0 51.5 5.5t49 15.5t38 23.5t15.5 30.5q-13 42 -45.5 70.5t-73.5 28.5q-53 0 -106.5 -34.5t-105.5 -97.5z" unicode="ﻠﭑ"/>
<glyph horiz-adv-x="1667" glyph-name="uniFEDF_uniFEE2.liga" d="M559 552q-19 0 -43.5 -17t-52 -46.5t-58.5 -67.5t-59 -79q60 -66 136.5 -109.5t182.5 -83.5q52 49 75.5 100.5t23.5 99.5q0 41 -16 78.5t-43 65t-64.5 43.5t-81.5 16zM1087 0q-97 0 -154 49.5t-85 139.5q-28 -49 -70 -100.5t-102 -103.5q-73 19 -131.5 41t-107 49.5 t-91.5 60t-84 73.5q-31 -56 -50 -101.5t-19 -68.5q0 -48 10.5 -110.5t25.5 -126t30.5 -120t26.5 -93.5h-174q-9 49 -19 95.5t-18.5 97t-14 107.5t-5.5 126q0 28 24 90.5t65 139t97 158.5t120 149.5t132.5 111t136.5 43.5q50 0 99.5 -22.5t89 -62.5t63.5 -97t24 -124 q11 -48 30.5 -92t47.5 -76.5t62.5 -51.5t78.5 -19h87q62 0 98.5 19t55 55t24 89.5t5.5 122.5v1007l142 44v-1074q-4 -97 -26.5 -175.5t-64.5 -134t-102.5 -85.5t-140.5 -30h-116z" unicode="ﻟﻢ"/>
<glyph horiz-adv-x="1705" glyph-name="uniFEE4_uniFE8E.liga" d="M1101 552q-23 0 -46 -17.5t-49.5 -48t-55.5 -70t-59 -83.5q61 -62 135.5 -104t176.5 -80q53 49 76 100.5t23 99.5q0 41 -15 78.5t-42 65t-64 43.5t-80 16zM415 0q-67 0 -117.5 22.5t-84 63.5t-49.5 97t-16 121v1151l142 44v-1156q0 -102 38.5 -141.5t99.5 -39.5h83 q56 0 106 40t99 101t98 132t103.5 131.5t115 100.5t134.5 40q43 0 85.5 -16t77.5 -45.5t62.5 -70.5t40.5 -92h1q0 -9 4 -24l4 -26q12 -54 30.5 -102.5t46 -86t65 -60t84.5 -22.5h93l-37 -162h-94q-98 0 -155 50.5t-85 145.5q-29 -52 -71.5 -104.5t-104.5 -106.5 q-72 19 -131 41t-107.5 49.5t-91.5 60t-84 73.5q-67 -84 -144.5 -146.5t-164.5 -62.5h-76z" unicode="ﻤﺎ"/>
<glyph horiz-adv-x="1705" glyph-name="uniFEE4_uniFE82.liga" d="M552 1684q-32 -30 -72 -47t-90 -17q-27 0 -64 7t-73.5 15.5t-68.5 16t-46 7.5q-22 -9 -47 -29.5t-50 -64.5l-62 89q26 54 72.5 81t86.5 27q28 0 65 -6.5t76.5 -14t77 -14.5t64.5 -7q34 0 75.5 13.5t73.5 28.5zM1102 552q-22 0 -45.5 -17.5t-50 -48t-55 -70t-58.5 -83.5 q60 -62 134.5 -104t176.5 -80q53 49 76.5 100.5t23.5 99.5q0 41 -15 78.5t-42 65t-64.5 43.5t-80.5 16zM417 0q-66 0 -116.5 22.5t-84.5 63.5t-50 97t-16 121v1151l142 44v-1156q0 -102 38.5 -141.5t100.5 -39.5h81q56 0 106.5 40t99 101t98 132t103.5 131.5t114.5 100.5 t135.5 40q43 0 85 -16t77.5 -45.5t62.5 -70.5t40 -92h2q0 -9 3 -24l4 -26q12 -54 30.5 -102.5t46.5 -86t65.5 -60t83.5 -22.5h94l-38 -162h-93q-99 0 -156 50.5t-85 145.5q-28 -52 -71 -104.5t-105 -106.5q-72 19 -130.5 41t-107.5 49.5t-91.5 60t-83.5 73.5 q-68 -84 -145.5 -146.5t-164.5 -62.5h-75z" unicode="ﻤﺂ"/>
<glyph horiz-adv-x="1697" glyph-name="uniFEE4_uniFE84.liga" d="M425 1672q-28 -2 -71 -7.5t-92.5 -14t-103 -20.5t-103.5 -26q4 10 9.5 25t11.5 30q5 16 11 31l132 19q-54 9 -91 34.5t-37 51.5q0 41 25.5 77.5t67.5 64.5t93.5 46.5t101.5 26.5l38 -101q-39 0 -76.5 -7.5t-67 -19t-51 -27.5t-29.5 -34q17 -24 60 -35t85 -17 q51 -8 112 -8zM1101 552q-23 0 -46 -17.5t-49.5 -48t-55.5 -70t-59 -83.5q60 -62 135 -104t177 -80q53 49 76 100.5t23 99.5q0 41 -15 78.5t-42 65t-64 43.5t-80 16zM415 0q-67 0 -117.5 22.5t-84 63.5t-49.5 97t-16 121v1151l142 44v-1156q0 -102 38.5 -141.5t100.5 -39.5 h82q56 0 106 40t99 101t98 132t103 131.5t115 100.5t135 40q43 0 85.5 -16t77.5 -45.5t62.5 -70.5t39.5 -92h2q0 -9 4 -24l4 -26q11 -54 30 -102.5t46.5 -86t65 -60t84.5 -22.5h93l-37 -162h-94q-98 0 -155 50.5t-85 145.5q-29 -52 -71.5 -104.5t-104.5 -106.5 q-72 19 -131 41t-107.5 49.5t-91.5 60t-84 73.5q-67 -84 -144.5 -146.5t-165.5 -62.5h-75z" unicode="ﻤﺄ"/>
<glyph horiz-adv-x="1697" glyph-name="uniFEE4_uniFE88.liga" d="M443 -411q-28 -2 -71 -7.5t-92.5 -13.5t-103 -20.5t-103.5 -24.5q4 9 9.5 24t11.5 29q5 18 11 32l132 18q-54 10 -91 35.5t-37 51.5q0 41 25.5 77.5t67.5 64t93.5 46.5t101.5 26l38 -100q-39 0 -76.5 -8t-67 -18.5t-51 -26.5t-29.5 -35q17 -24 60 -35.5t85 -16.5 q51 -8 112 -8zM1101 552q-23 0 -46.5 -17.5t-49.5 -48t-55 -70t-59 -83.5q60 -62 135 -104t177 -80q53 49 76 100.5t23 99.5q0 41 -15 78.5t-42 65t-64.5 43.5t-79.5 16zM413 0q-68 0 -118.5 22.5t-83.5 63.5t-49 97t-16 121v1151l142 44v-1156q0 -102 38 -141.5t100 -39.5 h84q57 0 107 40t98.5 101t98 132t103.5 131.5t114.5 100.5t135.5 40q43 0 85.5 -16t77.5 -45.5t62.5 -70.5t39.5 -92h2q0 -9 4 -24l3 -26q12 -54 31 -102.5t46.5 -86t65 -60t83.5 -22.5h94l-37 -162h-94q-98 0 -155 50.5t-86 145.5q-28 -52 -70.5 -104.5t-104.5 -106.5 q-72 19 -131 41t-107.5 49.5t-91.5 60t-84 73.5q-67 -84 -144.5 -146.5t-165.5 -62.5h-77z" unicode="ﻤﺈ"/>
<glyph horiz-adv-x="1785" glyph-name="uniFEE8_uniFEAE.liga" d="M1321 1020l121 123l125 -123l-125 -124zM982 0q-78 0 -156.5 32t-152.5 132q-23 -82 -64 -160.5t-96 -152t-120.5 -139.5t-136.5 -123h-240l-2 32q118 64 217.5 146t175 172.5t122 186.5t58.5 191l-162 390h173q15 -43 28 -76.5t22 -62.5l69 -182q30 -76 65 -121 t71.5 -67t72 -29t73.5 -7h125q123 0 190 72t70 206v267h142v-251q0 -91 10.5 -148t35.5 -89t66 -44.5t103 -12.5h104l-37 -162h-82q-129 0 -201 42t-103 126q-52 -81 -130.5 -124.5t-177.5 -43.5h-132z" unicode="ﻨﺮ"/>
<glyph horiz-adv-x="1790" glyph-name="uniFEE7_uniFEE4.liga" d="M628 552q-23 0 -46 -17.5t-49.5 -48t-55 -70t-58.5 -83.5q60 -62 134.5 -104t176.5 -80q53 49 76.5 100.5t23.5 99.5q0 41 -15 78.5t-42 65t-64.5 43.5t-80.5 16zM1158 0q-99 0 -156 50.5t-85 145.5q-28 -52 -71 -104.5t-105 -106.5q-72 19 -130.5 41t-107.5 49.5 t-91.5 60t-83.5 73.5q-68 -84 -145.5 -146.5t-164.5 -62.5h-73l37 162h56q56 0 106.5 40t99 101t97.5 132t103.5 131.5t115 100.5t135.5 40q43 0 85 -16t77 -45.5t62.5 -70.5t40.5 -92h2q0 -9 3 -24l4 -26q12 -54 30.5 -102.5t46.5 -86t65 -60t84 -22.5h258q29 57 45 125.5 t16 143.5q0 67 -14.5 138t-46.5 138h167q27 -67 39.5 -128.5t12.5 -122.5q0 -102 -35 -209t-108 -247h-371zM1333 1020l122 123l124 -123l-124 -124z" unicode="ﻧﻤ"/>
<glyph horiz-adv-x="1730" glyph-name="uniFEE7_uniFEF0.liga" d="M1162 0q-19 0 -54 5q11 -23 18.5 -47t7.5 -49q0 -62 -52.5 -119t-138 -101.5t-196 -72t-224.5 -27.5q-219 0 -342.5 128t-123.5 358q0 93 22 200.5t68 228.5h114q-58 -185 -58 -335q0 -197 94 -303.5t255 -106.5q74 0 151.5 12t144 30t117.5 40t76 43q-16 21 -42 48 t-57.5 53t-66 47.5t-62.5 31.5l-14 3l83 159q28 -16 64.5 -27.5t74.5 -20.5t77 -12.5t73 -3.5h208q29 57 45 125.5t16 143.5q0 67 -14.5 138t-46.5 138h168q26 -67 38.5 -128.5t12.5 -122.5q0 -102 -35 -209t-108 -247h-293zM1260 1020l121 123l125 -123l-125 -124z" unicode="ﻧﻰ"/>
<glyph horiz-adv-x="1730" glyph-name="uniFEE7_uniFEF2.liga" d="M539 -593l121 123l125 -123l-125 -125zM287 -593l121 123l125 -123l-125 -125zM1162 0q-19 0 -54 5q11 -23 18.5 -47t7.5 -49q0 -62 -52.5 -119t-138 -101.5t-196 -72t-224.5 -27.5q-219 0 -342.5 128t-123.5 358q0 93 22 200.5t68 228.5h114q-58 -185 -58 -335 q0 -197 94 -303.5t255 -106.5q74 0 151.5 12t144 30t117.5 40t76 43q-16 21 -42 48t-57.5 53t-66 47.5t-62.5 31.5l-14 3l83 159q28 -16 64.5 -27.5t74.5 -20.5t77 -12.5t73 -3.5h208q29 57 45 125.5t16 143.5q0 67 -14.5 138t-46.5 138h168q26 -67 38.5 -128.5t12.5 -122.5 q0 -102 -35 -209t-108 -247h-293zM1260 1020l121 123l125 -123l-125 -124z" unicode="ﻧﻲ"/>
<glyph horiz-adv-x="1777" glyph-name="uniFEF4_uniFEAE.liga" d="M1404 -228l121 123l125 -123l-125 -125zM1153 -228l121 123l125 -123l-125 -125zM982 0q-78 0 -156.5 32t-152.5 132q-23 -82 -64 -160.5t-96 -152t-120.5 -139.5t-136.5 -123h-240l-2 32q118 64 217.5 146t175 172.5t122 186.5t58.5 191l-162 390h173q15 -43 28 -76.5 t22 -62.5l69 -182q30 -76 65 -121t71.5 -67t72 -29t73.5 -7h116q124 0 192 74t68 212v259h142v-251q0 -91 10.5 -148t35.5 -89t66 -44.5t103 -12.5h104l-37 -162h-82q-129 0 -201 42t-104 126q-51 -81 -129.5 -124.5t-177.5 -43.5h-123z" unicode="ﻴﺮ"/>
<glyph horiz-adv-x="1807" glyph-name="uniFEF3_uniFEE4.liga" d="M1163 -228l121 123l125 -123l-125 -125zM1414 -228l123 123l124 -123l-124 -125zM628 552q-23 0 -46 -17.5t-49.5 -48t-55 -70t-58.5 -83.5q60 -62 134.5 -104t176.5 -80q53 49 76.5 100.5t23.5 99.5q0 41 -15 78.5t-42 65t-64.5 43.5t-80.5 16zM1158 0q-99 0 -156 50.5 t-85 145.5q-28 -52 -71 -104.5t-105 -106.5q-72 19 -130.5 41t-107.5 49.5t-91.5 60t-83.5 73.5q-68 -84 -145.5 -146.5t-164.5 -62.5h-73l37 162h56q56 0 106.5 40t99 101t97.5 132t103.5 131.5t115 100.5t135.5 40q43 0 85 -16t77 -45.5t62.5 -70.5t40.5 -92h2q0 -9 3 -24 l4 -26q12 -54 30.5 -102.5t46.5 -86t65 -60t84 -22.5h266q30 57 46 125.5t16 143.5q0 67 -15 138t-47 138h168q26 -67 39 -128.5t13 -122.5q0 -102 -35.5 -209t-108.5 -247h-379z" unicode="ﻳﻤ"/>
<glyph horiz-adv-x="2124" glyph-name="uniFEF4_uniFEE6.liga" d="M451 705l122 123l124 -123l-124 -125zM1751 -228l121 123l125 -123l-125 -125zM1499 -228l121 123l125 -123l-125 -125zM1356 0q-87 1 -152 36q-67 37 -115 104q-11 -110 -48 -209.5t-108.5 -175.5t-177.5 -121t-253 -45q-219 0 -332 111t-113 315q0 170 85 398h130 q-37 -107 -54 -194t-17 -157q0 -155 84 -225t250 -70q125 0 210.5 40t138 110t76 162t23.5 197q0 21 -1 42.5t-3 41.5l-73 196l144 47l78 -217q47 -126 111.5 -175t136.5 -49h85q125 0 192.5 74t67.5 212v259h143v-251q0 -91 10.5 -148t35.5 -89t66 -44.5t103 -12.5h103 l-37 -162h-82q-128 0 -200 42t-104 126q-52 -81 -130.5 -124.5t-177.5 -43.5h-95z" unicode="ﻴﻦ"/>
<glyph horiz-adv-x="2281" glyph-name="T_h.liga" d="M2224 99q0 -73 -10 -99h-462q-8 60 -6 91l80 36q54 22 54 110l6 272v157q0 137 -35 180q-41 51 -176 51q-185 0 -319 -84v-304l6 -324q2 -54 37 -60l175 -30q0 -69 -9 -95h-519q-7 57 -5 82l85 37q61 27 64 125l4 265v683h-521v-683l9 -317q0 -59 40 -67l177 -34 q0 -64 -8 -91h-600q-11 52 -8 91l138 36q73 19 77 129l5 253v683h-255q-120 0 -155 -186q-43 -8 -86 5v308h1009q184 45 267 45q73 0 73 -67v-392q185 134 384 134q194 0 260 -96q48 -70 48 -247v-187l6 -345q0 -31 35 -39z" unicode="Th"/>
<glyph horiz-adv-x="1869" glyph-name="f_b.liga" d="M1643 139q-143 -152 -360 -152q-231 0 -360 39l9 483v771q-98 69 -194 69q-179 0 -256 -52q-74 -50 -74 -164v-122h222v-115h-222v-387l10 -309q1 -35 7 -44q6 -11 32 -16l173 -39q0 -75 -9 -101h-543q-10 50 -8 82l107 45q61 27 61 112l6 270v387h-149v93l149 26v91 q0 150 143 261q133 103 292 103q173 0 280 -48q44 3 61 3q73 0 73 -67v-849l9 -373q97 -18 187 -18q160 0 241 113q74 103 74 286q0 181 -53 271q-65 109 -219 109q-97 0 -159 -13l-22 77q89 67 227 67q206 0 303 -110q106 -118 106 -386q0 -239 -144 -393z" unicode="fb"/>
<glyph horiz-adv-x="2559" glyph-name="f_f_b.liga" d="M1613 26l10 483v771q-101 69 -194 69q-180 0 -256 -52q-74 -50 -74 -164v-122h222v-115h-222v-387l9 -309q1 -35 7 -44q6 -11 32 -16l174 -39q0 -75 -10 -101h-543q-10 50 -7 82l106 45q62 27 62 112l5 270v387h-526v-387l10 -309q1 -35 7 -44q6 -11 32 -16l173 -39 q0 -75 -9 -101h-543q-10 50 -8 82l107 45q61 27 61 112l6 270v387h-149v93l149 26v62q0 149 143 260q133 103 292 103q240 0 367 -100q140 130 323 130q162 0 284 -48q28 3 58 3q72 0 72 -67v-849l10 -373q97 -18 186 -18q161 0 242 113q74 103 74 286q0 181 -53 271 q-65 109 -220 109q-96 0 -158 -13l-23 77q90 67 228 67q205 0 303 -110q105 -118 105 -386q0 -239 -144 -393q-142 -152 -359 -152q-232 0 -361 39zM934 1011v95q0 54 19 99q-111 114 -215 114q-179 0 -256 -51q-74 -50 -74 -165v-92h526z" unicode="ffb"/>
<glyph horiz-adv-x="1458" glyph-name="f_f.liga" d="M78 0q-10 50 -8 82l107 45q61 27 61 112l6 270v387h-149v93l149 26v62q0 149 143 260q133 103 292 103q247 0 378 -108q111 105 254 105q282 0 282 -112q0 -78 -63 -122q-122 107 -200 107q-150 0 -198 -73q-33 -50 -33 -183v-43h222v-115h-222v-387l13 -332 q0 -27 20 -31l228 -49q0 -67 -10 -97h-582q-7 37 -7 82l80 34q88 35 88 123l5 270v387h-526v-387l10 -309q1 -35 7 -44q6 -11 32 -16l173 -39q0 -75 -9 -101h-543zM934 1011v51q0 72 28 134q-116 123 -224 123q-179 0 -256 -51q-74 -50 -74 -165v-92h526z" unicode="ff"/>
<glyph horiz-adv-x="2005" glyph-name="f_h.liga" d="M78 0q-10 50 -8 82l107 45q61 27 61 112l6 270v387h-149v93l149 26v91q0 150 143 261q133 103 292 103q172 0 281 -48q42 3 60 3q73 0 73 -67v-453q185 134 384 134q194 0 260 -96q48 -70 48 -247v-187l6 -345q0 -31 35 -39l135 -26q0 -73 -10 -99h-463q-8 60 -5 91 l80 36q54 22 54 110l6 272v157q0 137 -35 180q-41 51 -176 51q-185 0 -319 -84v-304l7 -324q0 -54 36 -60l175 -30q0 -69 -9 -95h-519q-7 57 -5 82l85 37q61 27 64 125l4 265v773q-101 67 -193 67q-179 0 -256 -52q-74 -50 -74 -164v-122h222v-115h-222v-387l10 -309 q1 -35 7 -44q6 -11 32 -16l173 -39q0 -75 -9 -101h-543z" unicode="fh"/>
<glyph horiz-adv-x="2713" glyph-name="f_f_h.liga" d="M78 0q-10 50 -8 82l107 45q61 27 61 112l6 270v387h-149v93l149 26v62q0 149 143 260q133 103 292 103q240 0 367 -100q140 130 323 130q171 0 286 -50l74 5q73 0 73 -67v-453q185 134 384 134q194 0 260 -96q48 -70 48 -247v-187l6 -345q0 -31 35 -39l135 -26 q0 -73 -10 -99h-463q-8 60 -5 91l80 36q54 22 54 110l6 272v157q0 137 -35 180q-41 51 -176 51q-185 0 -319 -84v-304l7 -324q0 -54 36 -60l175 -30q0 -69 -9 -95h-519q-7 57 -5 82l85 37q61 27 64 125l4 265v760q-107 80 -211 80q-180 0 -256 -52q-74 -50 -74 -164v-122 h222v-115h-222v-387l9 -309q1 -35 7 -44q6 -11 32 -16l174 -39q0 -75 -10 -101h-543q-10 50 -7 82l106 45q62 27 62 112l5 270v387h-526v-387l10 -309q1 -35 7 -44q6 -11 32 -16l173 -39q0 -75 -9 -101h-543zM934 1011v95q0 54 19 99q-111 114 -215 114q-179 0 -256 -51 q-74 -50 -74 -165v-92h526z" unicode="ffh"/>
<glyph horiz-adv-x="2061" glyph-name="f_f_i.liga" d="M78 0q-10 50 -8 82l107 45q61 27 61 112l6 270v387h-149v93l149 26v62q0 149 143 260q133 103 292 103q246 0 375 -106q137 140 323 140q184 0 281 -50q86 -44 86 -116q0 -68 -114 -123q-126 160 -158 166h-66q-138 0 -205 -37q-102 -57 -102 -211v-92h455q109 21 177 21 q75 0 75 -67v-458l5 -341q2 -36 32 -41l162 -30q0 -68 -7 -95h-530q-10 50 -7 82l117 41q23 8 42 43q18 32 18 58l5 283v389h-544v-387l9 -309q1 -35 7 -44q6 -11 32 -16l192 -39q0 -75 -9 -101h-562q-10 50 -7 82l106 45q62 27 62 112l5 270v387h-526v-387l10 -309 q1 -35 7 -44q6 -11 32 -16l173 -39q0 -75 -9 -101h-543zM934 1011v51q0 69 26 136q-114 121 -222 121q-179 0 -256 -51q-74 -50 -74 -165v-92h526z" unicode="ffi"/>
<glyph horiz-adv-x="1316" glyph-name="f_j.liga" d="M668 -381l16 122q64 -15 118 -15q93 0 126 61q27 49 27 176v933h-545v-387l10 -309q1 -35 7 -44q6 -11 32 -16l192 -39q0 -75 -9 -101h-562q-10 50 -8 82l107 45q61 27 61 112l6 270v387h-147v93l147 22v51q0 165 137 290q134 122 305 122q185 0 282 -50q86 -44 86 -116 q0 -68 -114 -123q-127 160 -159 166h-65q-138 0 -206 -37q-102 -57 -102 -211v-92h459q110 21 177 21q71 0 71 -67v-458l10 -490q4 -185 -100 -302q-99 -111 -247 -111q-74 0 -112 15z" unicode="fj"/>
<glyph horiz-adv-x="2005" glyph-name="f_f_j.liga" d="M1356 -381l17 122q63 -15 117 -15q93 0 127 61q26 49 26 176v933h-544v-387l9 -309q1 -35 7 -44q6 -11 32 -16l192 -39q0 -75 -9 -101h-562q-10 50 -7 82l106 45q62 27 62 112l5 270v387h-526v-387l10 -309q1 -35 7 -44q6 -11 32 -16l173 -39q0 -75 -9 -101h-543 q-10 50 -8 82l107 45q61 27 61 112l6 270v387h-149v93l149 26v62q0 149 143 260q133 103 292 103q246 0 375 -106q137 140 323 140q184 0 281 -50q86 -44 86 -116q0 -68 -114 -123q-126 160 -158 166h-66q-138 0 -205 -37q-102 -57 -102 -211v-92h459q109 21 177 21 q71 0 71 -67v-458l9 -490q4 -185 -100 -302q-99 -111 -247 -111q-73 0 -112 15zM934 1011v51q0 69 26 136q-114 121 -222 121q-179 0 -256 -51q-74 -50 -74 -165v-92h526z" unicode="ffj"/>
<glyph horiz-adv-x="1832" glyph-name="f_k.liga" d="M78 0q-10 50 -8 82l107 45q61 27 61 112l6 270v387h-149v93l149 26v91q0 150 143 261q133 103 292 103q173 0 280 -48q44 3 61 3q73 0 73 -72v-844l6 -278q3 -93 56 -115l70 -32q0 -58 -9 -84h-451q-8 57 -6 82l99 39q65 26 65 122l8 266v773q-101 67 -193 67 q-179 0 -256 -52q-74 -50 -74 -164v-122h222v-115h-222v-387l10 -309q1 -35 7 -44q6 -11 32 -16l173 -39q0 -75 -9 -101h-543zM1815 -39q-265 0 -390 168l-304 401l298 291q27 26 27 50q0 42 -30 51l-81 30q-1 46 4 67h370v-67l-398 -375l256 -346q100 -135 254 -182z" unicode="fk"/>
<glyph horiz-adv-x="2542" glyph-name="f_f_k.liga" d="M78 0q-10 50 -8 82l107 45q61 27 61 112l6 270v387h-149v93l149 26v62q0 149 143 260q133 103 292 103q240 0 367 -100q140 130 323 130q180 0 284 -50q42 5 78 5q73 0 73 -72v-844l5 -278q4 -93 56 -115l71 -32q0 -58 -9 -84h-452q-7 57 -5 82l99 39q65 26 65 122l7 266 v758q-109 82 -212 82q-180 0 -256 -52q-74 -50 -74 -164v-122h222v-115h-222v-387l9 -309q1 -35 7 -44q6 -11 32 -16l174 -39q0 -75 -10 -101h-543q-10 50 -7 82l106 45q62 27 62 112l5 270v387h-526v-387l10 -309q1 -35 7 -44q6 -11 32 -16l173 -39q0 -75 -9 -101h-543z M2526 -39q-265 0 -390 168l-304 401l298 291q26 26 26 50q0 42 -29 51l-81 30q-2 46 4 67h370v-67l-398 -375l256 -346q100 -135 253 -182zM934 1011v95q0 54 19 99q-111 114 -215 114q-179 0 -256 -51q-74 -50 -74 -165v-92h526z" unicode="ffk"/>
<glyph horiz-adv-x="2019" glyph-name="f_f_l.liga" d="M78 0q-10 50 -8 82l107 45q61 27 61 112l6 270v387h-149v93l149 26v62q0 149 143 260q133 103 292 103q240 0 367 -100q140 130 323 130q178 0 282 -50q42 5 60 5q72 0 72 -72v-844l10 -349q0 -31 22 -35l170 -32q0 -67 -10 -93h-522q-8 57 -6 82l99 36q62 23 66 104 l9 287v771q-91 69 -192 69q-180 0 -256 -52q-74 -50 -74 -164v-122h222v-115h-222v-387l9 -309q1 -35 7 -44q6 -11 32 -16l174 -39q0 -75 -10 -101h-543q-10 50 -7 82l106 45q62 27 62 112l5 270v387h-526v-387l10 -309q1 -35 7 -44q6 -11 32 -16l173 -39q0 -75 -9 -101 h-543zM934 1011v95q0 54 19 99q-111 114 -215 114q-179 0 -256 -51q-74 -50 -74 -165v-92h526z" unicode="ffl"/>
<glyph horiz-adv-x="1527" glyph-name="f_t.liga" d="M410 896v-387l10 -309q1 -35 6 -44q7 -10 33 -16l192 -39q0 -75 -10 -101h-561q-10 50 -7 82l105 45q62 27 62 112l6 270v387h-148v92l148 23v50q0 166 137 291q134 122 306 122q184 0 281 -50q86 -45 86 -116q0 -68 -114 -124q-127 161 -159 167h-65q-139 0 -205 -37 q-103 -57 -103 -212v-91h447l238 217h26v-209h342v-123h-342v-389l6 -227q3 -98 47 -136q41 -36 140 -36q82 0 160 30l30 -123q-87 -36 -221 -36q-187 0 -260 62q-77 66 -75 237l6 618h-544z" unicode="ft"/>
<glyph horiz-adv-x="2226" glyph-name="f_f_t.liga" d="M934 1011v50q0 71 27 137q-115 121 -222 121q-180 0 -256 -52q-75 -50 -75 -165v-91h526zM1098 896v-387l9 -309q2 -35 8 -44q6 -10 32 -16l192 -39q0 -75 -9 -101h-561q-10 50 -9 82l107 45q62 27 62 112l5 270v387h-526v-387l10 -309q1 -35 6 -44q7 -10 33 -16l173 -39 q0 -75 -9 -101h-543q-10 50 -7 82l105 45q62 27 62 112l6 270v387h-150v92l150 27v62q0 149 143 259q133 104 291 104q246 0 376 -106q136 140 322 140q185 0 283 -50q85 -45 85 -116q0 -68 -114 -124q-126 161 -158 167h-66q-138 0 -206 -37q-102 -57 -102 -212v-91h450v-1 l239 218h27v-209h341v-123h-341v-389l5 -227q3 -98 47 -136q41 -36 140 -36q83 0 160 30l30 -123q-87 -36 -220 -36q-188 0 -261 62q-76 66 -75 237l6 618h-548z" unicode="fft"/>
<glyph horiz-adv-x="1087" glyph-name="uni0647.fina" d="M285 162v19q0 140 51.5 303.5t171.5 351.5h104q140 -65 197.5 -161t57.5 -199q0 -70 -29.5 -135t-82.5 -121t-126 -101.5t-161 -75.5q38 -112 108 -190.5t168 -115.5q-1 15 -1 29v29q0 78 24 172.5t99 194.5h278l-37 -162h-202q-29 -52 -44 -100.5t-15 -100.5 q0 -40 9 -81t30 -90l-159 -70q-73 24 -140.5 65t-122 98t-95.5 128t-62 156q-50 -5 -105 -5h-83l-45 162h196h16zM539 700q-53 -118 -77.5 -227t-24.5 -210v-39.5t3 -38.5q55 15 106 37t91.5 53t64.5 67.5t24 79.5q0 89 -42.5 162t-144.5 116z" arabic-form="final" unicode="ه"/>
<glyph horiz-adv-x="467" glyph-name="uni0672.fina" d="M488 0h-58q-67 0 -117.5 22.5t-84 63.5t-49 97t-15.5 121v1151l141 44v-1156q0 -102 38 -141.5t100 -39.5h82zM473 2022q6 -10 43 -110q-3 -2 -5 -2q-118 0 -207 -54q-34 -27 -35 -42q21 -21 80 -39q133 -27 203 -27v-1q-26 -99 -31 -99h-2q-89 0 -287 -76 q-35 -11 -52 -11h-13q-47 3 -133 68q-71 -21 -194 -106q-8 8 -8 12q15 78 19 78q136 124 195 124q29 0 112 -56q27 -12 40 -12h11q29 0 85 20q0 3 -46 13q-93 39 -93 83v1q0 114 179 196q105 40 139 40z" unicode="ٲ"/>
<glyph horiz-adv-x="475" glyph-name="uni0673.fina" d="M496 0h-58q-67 0 -117.5 22.5t-84 63.5t-49 97t-15.5 121v1151l141 44v-1156q0 -102 38 -141.5t100 -39.5h82zM481 -100q6 -10 43 -110q-3 -2 -5 -2q-118 0 -207 -55q-34 -26 -35 -42q21 -21 80 -39q133 -26 203 -26v-1q-26 -100 -31 -100h-2q-89 0 -287 -75 q-35 -12 -52 -12h-13q-47 4 -133 68q-71 -21 -194 -105q-8 7 -8 11q15 78 19 78q136 125 195 125q29 0 112 -57q27 -12 40 -12h11q29 0 85 20q0 3 -46 13q-93 39 -93 83v1q0 115 179 197q105 40 139 40z" unicode="ٳ"/>
<glyph horiz-adv-x="805" glyph-name="uni0675.fina" d="M828 0h-413q-67 0 -117.5 22.5t-84 63.5t-49.5 97t-16 121v1151l142 44v-1156q0 -102 38.5 -141.5t99.5 -39.5h437zM743 1459q-28 -1 -71 -6.5t-92.5 -14.5t-102.5 -20.5t-104 -25.5q5 10 10.5 24.5t10.5 30.5t11 31l133 19q-55 9 -92 34.5t-37 50.5q0 41 26 77.5t68 65 t93 47t102 25.5l38 -101q-40 0 -77 -7t-67 -18.5t-51.5 -27.5t-28.5 -34q16 -25 59 -36t86 -16q50 -8 112 -8z" unicode="ٵ"/>
<glyph horiz-adv-x="1125" glyph-name="uni0676.fina" d="M73 -269q222 6 375 74t218 195h-136q-90 0 -156 22.5t-109 61.5t-63.5 91.5t-20.5 109.5t19 115.5t54.5 114.5t86.5 105.5t118 86.5h71q75 -48 134 -106t99 -118.5t61.5 -121t21.5 -113.5q0 -45 -6 -86h344l-38 -162h-349q-39 -99 -107.5 -174.5t-152 -127.5t-178 -79.5 t-185.5 -27.5l-101 114v26zM317 338q0 -71 50.5 -123.5t150.5 -52.5h189v17q0 43 -20.5 97t-55 109t-79 104t-95.5 80q-71 -49 -105.5 -110.5t-34.5 -120.5zM1018 957q-28 -1 -71 -7t-92.5 -14.5t-102.5 -20.5t-103 -25q3 9 8.5 24t11.5 30q6 17 12 32l132 19 q-54 9 -91.5 34t-37.5 51q0 41 26 77.5t68 64.5t93.5 46.5t101.5 26.5l37 -101q-39 0 -76 -7.5t-67 -18.5t-51 -27t-30 -35q18 -24 60.5 -35t85.5 -17q50 -7 112 -7z" unicode="ٶ"/>
<glyph horiz-adv-x="1125" glyph-name="uni0677.fina" d="M73 -269q222 6 375 74t218 195h-136q-90 0 -156 22.5t-109 61.5t-63.5 91.5t-20.5 109.5t19 115.5t54.5 114.5t86.5 105.5t118 86.5h71q75 -48 134 -106t99 -118.5t61.5 -121t21.5 -113.5q0 -45 -6 -86h344l-38 -162h-349q-39 -99 -107.5 -174.5t-152 -127.5t-178 -79.5 t-185.5 -27.5l-101 114v26zM317 338q0 -71 50.5 -123.5t150.5 -52.5h189v17q0 43 -20.5 97t-55 109t-79 104t-95.5 80q-71 -49 -105.5 -110.5t-34.5 -120.5zM1018 957q-28 -1 -71 -7t-92.5 -14.5t-102.5 -20.5t-103 -25q3 9 8.5 24t11.5 30q6 17 12 32l132 19 q-54 9 -91.5 34t-37.5 51q0 41 26 77.5t68 64.5t93.5 46.5t101.5 26.5l37 -101q-39 0 -76 -7.5t-67 -18.5t-51 -27t-30 -35q18 -24 60.5 -35t85.5 -17q50 -7 112 -7zM102 957q97 1 171.5 15t124.5 41q-79 26 -112 66t-33 83q0 31 15.5 61.5t40 54t56 37.5t64.5 14 q28 0 51.5 -15t41.5 -38t27.5 -53t9.5 -61q0 -47 -18 -89l55 -6l-66 -82q-12 1 -22 2t-20 4q-57 -59 -141.5 -88t-163.5 -29l-81 67v16zM319 1190q0 -27 33 -54.5t119 -47.5q4 7 5 15.5t1 17.5q0 51 -27 89t-65 38q-24 0 -45 -16.5t-21 -41.5z" unicode="ٷ"/>
<glyph horiz-adv-x="819" glyph-name="uni0678.init" d="M-20 162h224q30 57 46 125.5t16 143.5q0 67 -15 138t-47 138h168q27 -67 39.5 -128.5t12.5 -122.5q0 -102 -35 -209t-108 -247h-338zM754 1011q-28 -2 -71 -7.5t-92.5 -14t-103 -20.5t-103.5 -25q4 10 9.5 24.5t11.5 29.5q5 17 11 31l132 20q-54 9 -91.5 34.5t-37.5 50.5 q0 41 26 77.5t68 65t93.5 47t101.5 25.5l38 -101q-40 0 -77 -7t-66.5 -18.5t-51 -27.5t-29.5 -34q17 -25 59.5 -36t85.5 -16q51 -8 112 -8z" unicode="ٸ"/>
<glyph horiz-adv-x="914" glyph-name="uni0678.medi" d="M652 0q-128 0 -200 42t-104 126q-52 -81 -130.5 -124.5t-177.5 -43.5h-95l37 162h68q123 0 190 72t70 206v267h142v-251q0 -91 10.5 -148t36 -89t66 -44.5t102.5 -12.5h305l-38 -162h-282zM823 1011q-28 -2 -71 -7.5t-92 -14t-102.5 -20.5t-103.5 -25q4 10 9.5 24.5 t10.5 29.5q6 17 11 31l133 20q-54 9 -91.5 34.5t-37.5 50.5q0 41 26.5 77.5t68.5 65t93 47t102 25.5l37 -101q-39 0 -76.5 -7t-67.5 -18.5t-51.5 -27.5t-28.5 -34q17 -25 60 -36t86 -16q50 -8 112 -8z" unicode="ٸ"/>
<glyph horiz-adv-x="1632" glyph-name="uni0678.fina" d="M552 -241q74 0 151.5 12t143.5 30t117.5 40t75.5 43q-15 21 -41 48t-57.5 53t-66.5 47.5t-63 31.5l-14 3l83 159q29 -16 65.5 -27.5t74.5 -20.5t77 -12.5t73 -3.5h687l-205 -162h-492q-18 0 -54 5q11 -23 19 -47t8 -49q0 -62 -52.5 -119t-138 -101.5t-196 -72 t-224.5 -27.5q-220 0 -343 128t-123 358q0 93 21.5 200.5t67.5 228.5h114q-57 -185 -57 -335q0 -197 94 -303.5t255 -106.5zM1475 517q-29 -2 -71.5 -8t-92 -14.5t-102.5 -20.5t-103 -25q3 9 8.5 24t11.5 30q5 17 11 32l133 19q-55 9 -92.5 34t-37.5 52q0 41 26.5 77 t68.5 64t93.5 46.5t101.5 26.5l37 -101q-39 0 -76.5 -7.5t-67.5 -18.5t-51.5 -27t-28.5 -35q17 -24 60 -35t86 -17q50 -7 112 -7z" unicode="ٸ"/>
<glyph horiz-adv-x="545" glyph-name="uni067C.init" d="M3 1017l121 123l125 -123l-125 -125zM89 0h-146l37 162h224q30 57 46 125.5t16 143.5q0 67 -15 138t-47 138h168q27 -67 39.5 -128.5t12.5 -122.5q0 -102 -35 -209q-35 -106 -107 -244q19 -18 34 -35q21 -24 34 -48.5t13 -49.5q0 -35 -14.5 -68t-40.5 -60t-60.5 -43.5 t-74.5 -16.5q-41 0 -72 11.5t-53.5 31t-35 45t-12.5 54.5q0 58 37 113q21 32 52 63zM167 0h-4q-44 -41 -66 -74q-24 -34 -24 -70q0 -24 9.5 -40.5t24.5 -27.5t32 -15.5t34 -4.5q50 0 81.5 23.5t31.5 57.5q0 15 -8.5 31t-23.5 34t-37 39q-22 20 -50 47zM255 1017l121 123 l125 -123l-125 -125z" unicode="ټ"/>
<glyph horiz-adv-x="714" glyph-name="uni067C.medi" d="M277 -142q0 15 -8.5 31t-23.5 34t-37 39t-52 49q-45 -42 -68.5 -76t-23.5 -70q0 -24 9.5 -40.5t24.5 -27.5t32 -15.5t35 -4.5q49 0 80.5 23.5t31.5 57.5zM130 1019l121 123l125 -123l-125 -125zM73 1q-16 -1 -33 -1h-95l37 162h68q125 0 192.5 74t67.5 212v259h142v-251 q0 -91 10.5 -148t36 -89t66 -44.5t102.5 -12.5h104l-37 -162h-82q-128 0 -200 42t-104 126q-48 -75 -118 -117q15 -13 29 -26q27 -24 48.5 -48t34 -48.5t12.5 -49.5q0 -35 -14.5 -68t-40.5 -60t-60.5 -43.5t-74.5 -16.5t-71.5 11.5t-54 31t-35 45t-12.5 54.5q0 58 37 113 q18 28 45 55zM381 1019l122 123l125 -123l-125 -125z" unicode="ټ"/>
<glyph horiz-adv-x="1757" glyph-name="uni067C.fina" d="M514 894l122 123l124 -123l-124 -125zM672 0h-70q-274 0 -409.5 119.5t-135.5 324.5q0 119 45 263h147q-37 -121 -37 -209q0 -83 27.5 -147t80 -106t124.5 -62.5t160 -20.5h179q123 0 223 11.5t170 40t108 79t38 131.5v283h142v-251q0 -91 13 -148t41.5 -89t73 -44.5 t105.5 -12.5h116l-38 -162h-93q-144 0 -220.5 43.5t-108.5 134.5q-80 -89 -219 -133q-117 -38 -268 -44q18 -16 33 -33q21 -24 33.5 -48.5t12.5 -49.5q0 -35 -14.5 -68t-40.5 -60t-60.5 -43.5t-74.5 -16.5t-71.5 11.5t-54 31t-34.5 45t-12 54.5q0 58 37 113q21 32 52 63z M750 0h-4q-45 -41 -67 -74q-23 -34 -23 -70q0 -24 9.5 -40.5t24 -27.5t31.5 -15.5t35 -4.5q49 0 80.5 23.5t31.5 57.5q0 15 -8.5 31t-23.5 34t-37 39q-21 20 -49 47zM766 894l121 123l126 -123l-126 -125z" unicode="ټ"/>
<glyph horiz-adv-x="545" glyph-name="uni067D.init" d="M-20 162h224q30 57 46 125.5t16 143.5q0 67 -15 138t-47 138h168q27 -67 39.5 -128.5t12.5 -122.5q0 -102 -35 -209t-108 -247h-338zM387 1334l125 -125l-125 -123l-121 123zM260 1112l112 -112l-112 -110l-108 110zM135 1334l125 -125l-125 -123l-121 123z" unicode="ٽ"/>
<glyph horiz-adv-x="714" glyph-name="uni067D.medi" d="M652 0q-128 0 -200 42t-104 126q-52 -81 -130.5 -124.5t-177.5 -43.5h-95l37 162h68q123 0 190 72t70 206v267h142v-251q0 -91 10.5 -148t36 -89t66 -44.5t102.5 -12.5h104l-37 -162h-82zM249 1334l125 -125l-125 -123l-121 123zM501 1334l125 -125l-125 -123l-121 123z M374 1112l112 -112l-112 -110l-108 110z" unicode="ٽ"/>
<glyph horiz-adv-x="1757" glyph-name="uni067D.fina" d="M783 162q123 0 223 11.5t170 40t108 79t38 131.5v283h142v-251q0 -91 13 -148t41.5 -89t73 -44.5t105.5 -12.5h116l-38 -162h-93q-144 0 -220.5 43.5t-108.5 134.5q-80 -89 -219 -133.5t-325 -44.5h-207q-274 0 -409.5 119.5t-135.5 324.5q0 119 45 263h147 q-37 -121 -37 -209q0 -83 27.5 -147t80 -106t124.5 -62.5t160 -20.5h179zM887 1213l126 -125l-126 -123l-121 123zM760 990l112 -111l-112 -110l-108 110zM636 1213l124 -125l-124 -123l-122 123z" unicode="ٽ"/>
<glyph horiz-adv-x="1193" glyph-name="uni0681.init" d="M1074 299q-32 3 -72 14t-87 27q-76 -58 -161 -118t-191.5 -109t-238 -81t-297.5 -32h-82l37 162h84q127 0 231 20.5t191 51.5t163.5 69.5t149.5 73.5q-62 20 -126 41.5t-125.5 38.5t-119.5 27.5t-106 10.5q-60 0 -124.5 -9.5t-135.5 -31.5l49 166q60 20 114 29.5t108 9.5 q101 0 195 -22.5t187 -55.5t187.5 -70t195.5 -67zM608 865q-28 -1 -71 -6.5t-92.5 -14.5t-103 -20.5t-103.5 -25.5q4 10 9.5 24.5t11.5 30.5t11 31l132 19q-53 9 -90.5 34.5t-37.5 50.5q0 41 26 77.5t68 65t93.5 47t101.5 25.5l37 -101q-39 0 -76.5 -7t-67 -18.5t-51 -27.5 t-28.5 -34q16 -25 59 -36t86 -16q51 -8 112 -8z" unicode="ځ"/>
<glyph horiz-adv-x="1202" glyph-name="uni0681.medi" d="M1074 299q-20 3 -46.5 8.5t-53.5 13.5q31 -70 78.5 -114.5t114.5 -44.5h94l-38 -162h-94q-123 0 -183.5 80t-78.5 222q-73 -54 -156 -108t-184 -97t-224 -70t-276 -27h-82l37 162h84q127 0 231 20.5t191 51.5t163.5 69.5t149.5 73.5q-62 20 -126 41.5t-125.5 38.5 t-119.5 27.5t-106 10.5q-60 0 -124.5 -9.5t-135.5 -31.5l49 166q60 20 114 29.5t108 9.5q101 0 195 -22.5t187 -55.5t187.5 -70t195.5 -67zM654 865q-28 -1 -71 -6.5t-92.5 -14.5t-103 -20.5t-103.5 -25.5q4 10 9 24.5t12 30.5q5 16 11 31l132 19q-54 9 -91.5 34.5 t-37.5 50.5q0 41 26 77.5t68 65t93.5 47t101.5 25.5l38 -101q-40 0 -77 -7t-67 -18.5t-51 -27.5t-29 -34q17 -25 59.5 -36t85.5 -16q51 -8 112 -8z" unicode="ځ"/>
<glyph horiz-adv-x="1180" glyph-name="uni0681.fina" d="M1058 491h-4l-143 -23q7 -59 26 -114t47.5 -98.5t68 -68.5t90.5 -25h92l-37 -162h-93q-76 0 -127.5 32t-83.5 90.5t-45.5 141.5t-15.5 188q-308 -68 -472.5 -172t-164.5 -213q0 -158 165.5 -246t489.5 -88l134 4l-76 -155q-53 -6 -101 -7.5t-93 -1.5q-312 0 -475 111 t-163 325q0 129 61.5 225t161 165t227.5 114.5t262 75.5q-66 23 -126 41t-116 29.5t-111 18.5t-115 7q-116 0 -248 -25l43 163q60 15 113 20.5t105 5.5q113 0 210.5 -24t189.5 -60.5t182 -78.5t185 -77zM643 1029q-28 -1 -71 -6.5t-92.5 -14.5t-102.5 -20.5t-104 -25.5 q4 10 9.5 24.5t11.5 30.5t11 31l132 19q-53 9 -90.5 34.5t-37.5 50.5q0 41 26 77.5t68 65t93.5 47t101.5 25.5l37 -101q-39 0 -76.5 -7t-67 -18.5t-51 -27.5t-28.5 -34q16 -25 59 -36t86 -16q51 -8 112 -8z" unicode="ځ"/>
<glyph horiz-adv-x="1193" glyph-name="uni0682.init" d="M1074 299q-32 3 -72 14t-87 27q-76 -58 -161 -118t-191.5 -109t-238 -81t-297.5 -32h-82l37 162h84q127 0 231 20.5t191 51.5t163.5 69.5t149.5 73.5q-62 20 -126 41.5t-125.5 38.5t-119.5 27.5t-106 10.5q-60 0 -124.5 -9.5t-135.5 -31.5l49 166q60 20 114 29.5t108 9.5 q101 0 195 -22.5t187 -55.5t187.5 -70t195.5 -67zM311 795l-123 121l123 125l125 -125zM311 1047l-123 121l123 125l125 -125z" unicode="ڂ"/>
<glyph horiz-adv-x="1202" glyph-name="uni0682.medi" d="M1074 299q-20 3 -46.5 8.5t-53.5 13.5q31 -70 78.5 -114.5t114.5 -44.5h94l-38 -162h-94q-123 0 -183.5 80t-78.5 222q-73 -54 -156 -108t-184 -97t-224 -70t-276 -27h-82l37 162h84q127 0 231 20.5t191 51.5t163.5 69.5t149.5 73.5q-62 20 -126 41.5t-125.5 38.5 t-119.5 27.5t-106 10.5q-60 0 -124.5 -9.5t-135.5 -31.5l49 166q60 20 114 29.5t108 9.5q101 0 195 -22.5t187 -55.5t187.5 -70t195.5 -67zM393 795l-123 121l123 125l125 -125zM393 1047l-123 121l123 125l125 -125z" unicode="ڂ"/>
<glyph horiz-adv-x="1180" glyph-name="uni0682.fina" d="M1058 491h-4l-143 -23q7 -59 26 -114t47.5 -98.5t68 -68.5t90.5 -25h92l-37 -162h-93q-76 0 -127.5 32t-83.5 90.5t-45.5 141.5t-15.5 188q-308 -68 -472.5 -172t-164.5 -213q0 -158 165.5 -246t489.5 -88l134 4l-76 -155q-53 -6 -101 -7.5t-93 -1.5q-312 0 -475 111 t-163 325q0 129 61.5 225t161 165t227.5 114.5t262 75.5q-66 23 -126 41t-116 29.5t-111 18.5t-115 7q-116 0 -248 -25l43 163q60 15 113 20.5t105 5.5q113 0 210.5 -24t189.5 -60.5t182 -78.5t185 -77zM365 968l-123 122l123 124l124 -124zM365 1220l-123 121l123 125 l124 -125z" unicode="ڂ"/>
<glyph horiz-adv-x="1193" glyph-name="uni0685.init" d="M1074 299q-32 3 -72 14t-87 27q-76 -58 -161 -118t-191.5 -109t-238 -81t-297.5 -32h-82l37 162h84q127 0 231 20.5t191 51.5t163.5 69.5t149.5 73.5q-62 20 -126 41.5t-125.5 38.5t-119.5 27.5t-106 10.5q-60 0 -124.5 -9.5t-135.5 -31.5l49 166q60 20 114 29.5t108 9.5 q101 0 195 -22.5t187 -55.5t187.5 -70t195.5 -67zM315 794l-125 125l125 123l121 -123zM442 1017l-112 112l112 109l108 -109zM567 794l-125 125l125 123l121 -123z" unicode="څ"/>
<glyph horiz-adv-x="1202" glyph-name="uni0685.medi" d="M1074 299q-20 3 -46.5 8.5t-53.5 13.5q31 -70 78.5 -114.5t114.5 -44.5h94l-38 -162h-94q-123 0 -183.5 80t-78.5 222q-73 -54 -156 -108t-184 -97t-224 -70t-276 -27h-82l37 162h84q127 0 231 20.5t191 51.5t163.5 69.5t149.5 73.5q-62 20 -126 41.5t-125.5 38.5 t-119.5 27.5t-106 10.5q-60 0 -124.5 -9.5t-135.5 -31.5l49 166q60 20 114 29.5t108 9.5q101 0 195 -22.5t187 -55.5t187.5 -70t195.5 -67zM388 794l-125 125l125 123l121 -123zM514 1017l-111 112l111 109l109 -109zM640 794l-126 125l126 123l121 -123z" unicode="څ"/>
<glyph horiz-adv-x="1180" glyph-name="uni0685.fina" d="M1058 491h-4l-143 -23q7 -59 26 -114t47.5 -98.5t68 -68.5t90.5 -25h92l-37 -162h-93q-76 0 -127.5 32t-83.5 90.5t-45.5 141.5t-15.5 188q-308 -68 -472.5 -172t-164.5 -213q0 -158 165.5 -246t489.5 -88l134 4l-76 -155q-53 -6 -101 -7.5t-93 -1.5q-312 0 -475 111 t-163 325q0 129 61.5 225t161 165t227.5 114.5t262 75.5q-66 23 -126 41t-116 29.5t-111 18.5t-115 7q-116 0 -248 -25l43 163q60 15 113 20.5t105 5.5q113 0 210.5 -24t189.5 -60.5t182 -78.5t185 -77zM368 968l-125 124l125 123l121 -123zM495 1190l-111 112l111 109 l108 -109zM621 968l-126 124l126 123l121 -123z" unicode="څ"/>
<glyph horiz-adv-x="1171" glyph-name="uni0689.fina" d="M519 -7q-11 -1 -21 -3q-37 -35 -56 -64q-24 -34 -24 -70q0 -24 9.5 -40.5t24 -27.5t32 -15.5t34.5 -4.5q50 0 81 23.5t31 57.5q0 15 -8 31t-23 34t-37 39q-19 17 -43 40zM421 -15h-19q-107 0 -181.5 20t-128.5 51l69 156q52 -18 121.5 -31t143.5 -13q90 0 194 17.5 t194 58.5q-11 30 -21 62l-179 616h169l158 -577q24 -85 74.5 -134t102.5 -49h108l-37 -162h-71q-86 0 -146.5 38.5t-103.5 99.5q-76 -61 -196 -107q-27 -10 -55 -18q24 -23 44 -45q21 -24 34 -48.5t13 -49.5q0 -35 -14.5 -68t-40.5 -60t-60.5 -43.5t-75.5 -16.5 q-40 0 -71 11.5t-53.5 31t-35 45t-12.5 54.5q0 58 37 113q16 25 39 48z" unicode="ډ"/>
<glyph horiz-adv-x="1171" glyph-name="uni068A.fina" d="M1189 0h-71q-86 0 -146.5 38.5t-103.5 99.5q-76 -61 -195.5 -107t-270.5 -46q-107 0 -181.5 20t-128.5 51l69 156q52 -18 121.5 -31t143.5 -13q90 0 194 17.5t194 58.5q-11 30 -21 62l-179 616h169l158 -577q24 -85 74.5 -134t102.5 -49h108zM429 -246l121 123l126 -123 l-126 -126z" unicode="ڊ"/>
<glyph horiz-adv-x="1171" glyph-name="uni068B.fina" d="M1189 0h-71q-86 0 -146.5 38.5t-103.5 99.5q-76 -61 -195.5 -107t-270.5 -46q-107 0 -181.5 20t-128.5 51l69 156q52 -18 121.5 -31t143.5 -13q90 0 194 17.5t194 58.5q-11 30 -21 62l-179 616h169l158 -577q24 -85 74.5 -134t102.5 -49h108zM520 1601q0 -2 2 -2 q-2 -17 -2 -19q0 -44 -2 -227q-1 -27 -1 -34q89 102 158 102h21q100 0 137 -107q5 -14 5 -38v-12q0 -37 -66 -98q-55 -43 -133 -43h-271q-5 0 -25 102l3 2h92q-13 329 -13 361q7 4 95 13zM515 1229v-2h118q81 0 144 33q2 4 2 5q-28 61 -98 61q-88 0 -166 -97zM429 -246 l121 123l126 -123l-126 -126z" unicode="ڋ"/>
<glyph horiz-adv-x="1171" glyph-name="uni068F.fina" d="M1189 0h-71q-86 0 -146.5 38.5t-103.5 99.5q-76 -61 -195.5 -107t-270.5 -46q-107 0 -181.5 20t-128.5 51l69 156q52 -18 121.5 -31t143.5 -13q90 0 194 17.5t194 58.5q-11 30 -21 62l-179 616h169l158 -577q24 -85 74.5 -134t102.5 -49h108zM455 1567l124 -125 l-124 -123l-122 123zM706 1567l125 -125l-125 -123l-121 123zM579 1345l112 -111l-112 -111l-108 111z" unicode="ڏ"/>
<glyph horiz-adv-x="1171" glyph-name="uni0690.fina" d="M1189 0h-71q-86 0 -146.5 38.5t-103.5 99.5q-76 -61 -195.5 -107t-270.5 -46q-107 0 -181.5 20t-128.5 51l69 156q52 -18 121.5 -31t143.5 -13q90 0 194 17.5t194 58.5q-11 30 -21 62l-179 616h169l158 -577q24 -85 74.5 -134t102.5 -49h108zM453 1368l-120 123l121 123 l124 -123l-122 -123l122 -122l-124 -125l-121 125zM704 1368l-120 123l121 123l125 -123l-123 -123l123 -122l-125 -125l-121 125z" unicode="ڐ"/>
<glyph horiz-adv-x="1054" glyph-name="uni0692.fina" d="M598 707q4 -9 6.5 -17.5t6.5 -18.5l108 -285q25 -65 58 -108t70.5 -69t75.5 -36.5t76 -10.5h110l-37 -162h-90q-33 0 -70.5 7.5t-77.5 26t-80 51.5t-80 83q-22 -82 -64 -162.5t-96.5 -154t-119.5 -139.5t-138 -123h-240l-2 32q118 64 217.5 146t175 172.5t122 186.5 t58.5 191l-162 390h173zM430 859q-8 0 -18 43q-29 96 -172 258v7q24 94 32 104q31 -35 63 -76q69 -97 133 -204h2q44 112 224 265q4 -2 35 -134v-1q-36 -25 -116 -108q-88 -111 -93 -181q-5 0 -90 27z" unicode="ڒ"/>
<glyph horiz-adv-x="1054" glyph-name="uni0693.fina" d="M458 -220q-9 -9 -17 -18q-8 -11 -14 -20q-24 -34 -24 -70q0 -24 9.5 -40.5t24 -27.5t32 -15.5t34.5 -4.5q49 0 80.5 23.5t31.5 57.5q0 15 -8 31t-23 34t-37.5 39t-51.5 49q-21 -19 -37 -38zM538 -115q34 -30 60 -53q26 -24 47.5 -48.5t34.5 -48.5t13 -49q0 -35 -14.5 -68 t-40.5 -60t-61 -43.5t-75 -16.5t-71.5 11.5t-53.5 31t-34.5 45t-12.5 54.5v11q-35 -33 -74 -62h-240l-2 32q118 64 217.5 146t175 172.5t122 186.5t58.5 191l-162 390h173q4 -9 6.5 -17.5t6.5 -18.5l108 -285q25 -65 58 -108t70.5 -69t75.5 -36.5t76 -10.5h110l-37 -162h-90 q-33 0 -70.5 7.5t-77.5 26t-80 51.5t-80 83q-22 -82 -64 -163q-32 -61 -72 -120z" unicode="ړ"/>
<glyph horiz-adv-x="1054" glyph-name="uni0694.fina" d="M598 707q4 -9 6.5 -17.5t6.5 -18.5l108 -285q25 -65 58 -108t70.5 -69t75.5 -36.5t76 -10.5h110l-37 -162h-90q-33 0 -70.5 7.5t-77.5 26t-80 51.5t-80 83q-22 -82 -64 -162.5t-96.5 -154t-119.5 -139.5t-138 -123h-240l-2 32q118 64 217.5 146t175 172.5t122 186.5 t58.5 191l-162 390h173zM477 -409l121 123l125 -123l-125 -125z" unicode="ڔ"/>
<glyph horiz-adv-x="1054" glyph-name="uni0695.fina" d="M598 707q4 -9 6.5 -17.5t6.5 -18.5l108 -285q25 -65 58 -108t70.5 -69t75.5 -36.5t76 -10.5h110l-37 -162h-90q-33 0 -70.5 7.5t-77.5 26t-80 51.5t-80 83q-22 -82 -64 -162.5t-96.5 -154t-119.5 -139.5t-138 -123h-240l-2 32q118 64 217.5 146t175 172.5t122 186.5 t58.5 191l-162 390h173zM430 -927q-8 0 -18 43q-29 96 -172 258v7q24 94 32 104q31 -34 63 -75q69 -98 133 -204h2q44 112 224 265q4 -3 35 -134v-2q-36 -25 -116 -108q-88 -111 -93 -181q-5 0 -90 27z" unicode="ڕ"/>
<glyph horiz-adv-x="1054" glyph-name="uni0696.fina" d="M598 707q4 -9 6.5 -17.5t6.5 -18.5l108 -285q25 -65 58 -108t70.5 -69t75.5 -36.5t76 -10.5h110l-37 -162h-90q-33 0 -70.5 7.5t-77.5 26t-80 51.5t-80 83q-22 -82 -64 -162.5t-96.5 -154t-119.5 -139.5t-138 -123h-240l-2 32q118 64 217.5 146t175 172.5t122 186.5 t58.5 191l-162 390h173zM477 -409l121 123l125 -123l-125 -125zM145 271l122 123l125 -123l-125 -124z" unicode="ږ"/>
<glyph horiz-adv-x="1054" glyph-name="uni0697.fina" d="M598 707q4 -9 6.5 -17.5t6.5 -18.5l108 -285q25 -65 58 -108t70.5 -69t75.5 -36.5t76 -10.5h110l-37 -162h-90q-33 0 -70.5 7.5t-77.5 26t-80 51.5t-80 83q-22 -82 -64 -162.5t-96.5 -154t-119.5 -139.5t-138 -123h-240l-2 32q118 64 217.5 146t175 172.5t122 186.5 t58.5 191l-162 390h173zM214 961l121 123l124 -123l-124 -125zM466 961l121 123l125 -123l-125 -125z" unicode="ڗ"/>
<glyph horiz-adv-x="1054" glyph-name="uni0699.fina" d="M598 707q4 -9 6.5 -17.5t6.5 -18.5l108 -285q25 -65 58 -108t70.5 -69t75.5 -36.5t76 -10.5h110l-37 -162h-90q-33 0 -70.5 7.5t-77.5 26t-80 51.5t-80 83q-22 -82 -64 -162.5t-96.5 -154t-119.5 -139.5t-138 -123h-240l-2 32q118 64 217.5 146t175 172.5t122 186.5 t58.5 191l-162 390h173zM597 1082l-121 125l121 123l125 -123l-121 -121l124 -123l-125 -125l-121 125zM346 1082l-122 125l122 123l124 -123l-121 -121l124 -123l-125 -125l-122 125z" unicode="ڙ"/>
<glyph horiz-adv-x="1718" glyph-name="uni069A.init" d="M-18 162h93q126 0 194 74t68 212v259h136v-235q0 -146 47.5 -231.5t152.5 -85.5q52 0 92 21.5t65 58.5t38.5 88.5t13.5 111.5v272h136v-235q0 -61 13 -118t41 -102t71 -71t100 -26q39 0 76.5 17t67.5 53t49 94t19 140q0 73 -18 166t-59 211h157q35 -97 51 -182.5 t16 -162.5q0 -124 -36.5 -218.5t-91.5 -158.5t-121 -96.5t-126 -32.5q-120 0 -190 56t-105 140q-41 -92 -109 -144t-160 -52q-113 0 -181.5 52t-103.5 144q-49 -86 -129 -133.5t-183 -47.5h-121zM824 1023l121 123l125 -123l-125 -125zM824 -246l121 123l125 -123l-125 -126 z" unicode="ښ"/>
<glyph horiz-adv-x="1812" glyph-name="uni069A.medi" d="M628 -15q-114 0 -182 52t-104 144q-48 -86 -128 -133.5t-183 -47.5h-86l37 162h58q125 0 193 74t68 212v259h137v-235q0 -146 47.5 -231.5t151.5 -85.5q52 0 92 21.5t66 58.5t38.5 88.5t12.5 111.5v272h138v-235q0 -146 47.5 -231.5t152.5 -85.5q52 0 92 21.5t65.5 58.5 t38.5 88.5t13 111.5v5v267h136v-251q0 -91 13 -148t42 -89t73 -44.5t106 -12.5h108l-37 -162h-87q-136 0 -210.5 36.5t-106.5 116.5q-43 -78 -107 -123t-148 -45q-109 0 -177 47.5t-106 133.5q-42 -86 -108 -133.5t-156 -47.5zM804 1023l121 123l125 -123l-125 -125z M804 -246l121 123l125 -123l-125 -126z" unicode="ښ"/>
<glyph horiz-adv-x="2578" glyph-name="uni069A.fina" d="M1346 -15q-79 0 -135 26t-93 73q-16 -100 -56.5 -191t-110.5 -158.5t-171.5 -106.5t-241.5 -39q-218 0 -331 111t-113 315q0 170 84 398h131q-37 -107 -54 -194t-17 -157q0 -155 84 -225t249 -70q126 0 211.5 40t138 110t76 162t23.5 197q0 19 -1 36.5t-3 36.5l-12 86 l-33 272h138l34 -235q9 -71 24 -129t40 -100t60.5 -65t87.5 -23q101 0 167 68t66 180v15t-2 17l-7 63l-24 209h138l34 -235q9 -71 24 -129t40 -100t60.5 -65t87.5 -23q105 0 157 74.5t56 192.5v18v267h138v-251q0 -91 13 -148t42 -89t73 -44.5t105 -12.5h110l-37 -162h-88 q-137 0 -212 37.5t-107 117.5q-44 -80 -111.5 -125t-147.5 -45q-116 0 -182 56t-103 146q-49 -94 -130.5 -148t-168.5 -54zM1496 1015l121 123l126 -123l-126 -125zM1496 -246l121 123l126 -123l-126 -126z" unicode="ښ"/>
<glyph horiz-adv-x="1718" glyph-name="uni069B.init" d="M-18 162h93q126 0 194 74t68 212v259h136v-235q0 -146 47.5 -231.5t152.5 -85.5q52 0 92 21.5t65 58.5t38.5 88.5t13.5 111.5v272h136v-235q0 -61 13 -118t41 -102t71 -71t100 -26q39 0 76.5 17t67.5 53t49 94t19 140q0 73 -18 166t-59 211h157q35 -97 51 -182.5 t16 -162.5q0 -124 -36.5 -218.5t-91.5 -158.5t-121 -96.5t-126 -32.5q-120 0 -190 56t-105 140q-41 -92 -109 -144t-160 -52q-113 0 -181.5 52t-103.5 144q-49 -86 -129 -133.5t-183 -47.5h-121zM1201 -228l-121 -123l-125 123l125 125zM950 -228l-121 -123l-125 123 l125 125zM1064 -436l-109 -111l-112 111l112 112z" unicode="ڛ"/>
<glyph horiz-adv-x="1812" glyph-name="uni069B.medi" d="M628 -15q-114 0 -182 52t-104 144q-48 -86 -128 -133.5t-183 -47.5h-86l37 162h58q125 0 193 74t68 212v259h137v-235q0 -146 47.5 -231.5t151.5 -85.5q52 0 92 21.5t66 58.5t38.5 88.5t12.5 111.5v272h138v-235q0 -146 47.5 -231.5t152.5 -85.5q52 0 92 21.5t65.5 58.5 t38.5 88.5t13 111.5v5v267h136v-251q0 -91 13 -148t42 -89t73 -44.5t106 -12.5h108l-37 -162h-87q-136 0 -210.5 36.5t-106.5 116.5q-43 -78 -107 -123t-148 -45q-109 0 -177 47.5t-106 133.5q-42 -86 -108 -133.5t-156 -47.5zM1165 -228l-121 -123l-125 123l125 125z M913 -228l-121 -123l-125 123l125 125zM1027 -436l-108 -111l-112 111l112 112z" unicode="ڛ"/>
<glyph horiz-adv-x="2578" glyph-name="uni069B.fina" d="M1346 -15q-79 0 -135 26t-93 73q-16 -100 -56.5 -191t-110.5 -158.5t-171.5 -106.5t-241.5 -39q-218 0 -331 111t-113 315q0 170 84 398h131q-37 -107 -54 -194t-17 -157q0 -155 84 -225t249 -70q126 0 211.5 40t138 110t76 162t23.5 197q0 19 -1 36.5t-3 36.5l-12 86 l-33 272h138l34 -235q9 -71 24 -129t40 -100t60.5 -65t87.5 -23q101 0 167 68t66 180v15t-2 17l-7 63l-24 209h138l34 -235q9 -71 24 -129t40 -100t60.5 -65t87.5 -23q105 0 157 74.5t56 192.5v18v267h138v-251q0 -91 13 -148t42 -89t73 -44.5t105 -12.5h110l-37 -162h-88 q-137 0 -212 37.5t-107 117.5q-44 -80 -111.5 -125t-147.5 -45q-116 0 -182 56t-103 146q-49 -94 -130.5 -148t-168.5 -54zM1856 -228l-121 -123l-125 123l125 125zM1604 -228l-121 -123l-124 123l124 125zM1718 -436l-108 -111l-112 111l112 112z" unicode="ڛ"/>
<glyph horiz-adv-x="1718" glyph-name="uni069C.init" d="M-18 162h93q126 0 194 74t68 212v259h136v-235q0 -146 47.5 -231.5t152.5 -85.5q52 0 92 21.5t65 58.5t38.5 88.5t13.5 111.5v272h136v-235q0 -61 13 -118t41 -102t71 -71t100 -26q39 0 76.5 17t67.5 53t49 94t19 140q0 73 -18 166t-59 211h157q35 -97 51 -182.5 t16 -162.5q0 -124 -36.5 -218.5t-91.5 -158.5t-121 -96.5t-126 -32.5q-120 0 -190 56t-105 140q-41 -92 -109 -144t-160 -52q-113 0 -181.5 52t-103.5 144q-49 -86 -129 -133.5t-183 -47.5h-121zM954 1019l122 123l124 -123l-124 -125zM702 1019l122 123l125 -123l-125 -125 zM841 1228l108 109l112 -109l-112 -112zM1201 -228l-121 -123l-125 123l125 125zM950 -228l-121 -123l-125 123l125 125zM1064 -436l-109 -111l-112 111l112 112z" unicode="ڜ"/>
<glyph horiz-adv-x="1812" glyph-name="uni069C.medi" d="M628 -15q-114 0 -182 52t-104 144q-48 -86 -128 -133.5t-183 -47.5h-86l37 162h58q125 0 193 74t68 212v259h137v-235q0 -146 47.5 -231.5t151.5 -85.5q52 0 92 21.5t66 58.5t38.5 88.5t12.5 111.5v272h138v-235q0 -146 47.5 -231.5t152.5 -85.5q52 0 92 21.5t65.5 58.5 t38.5 88.5t13 111.5v5v267h136v-251q0 -91 13 -148t42 -89t73 -44.5t106 -12.5h108l-37 -162h-87q-136 0 -210.5 36.5t-106.5 116.5q-43 -78 -107 -123t-148 -45q-109 0 -177 47.5t-106 133.5q-42 -86 -108 -133.5t-156 -47.5zM917 1019l121 123l125 -123l-125 -125z M666 1019l121 123l125 -123l-125 -125zM803 1228l109 109l112 -109l-112 -112zM1165 -228l-121 -123l-125 123l125 125zM913 -228l-121 -123l-125 123l125 125zM1027 -436l-108 -111l-112 111l112 112z" unicode="ڜ"/>
<glyph horiz-adv-x="2578" glyph-name="uni069C.fina" d="M1346 -15q-79 0 -135 26t-93 73q-16 -100 -56.5 -191t-110.5 -158.5t-171.5 -106.5t-241.5 -39q-218 0 -331 111t-113 315q0 170 84 398h131q-37 -107 -54 -194t-17 -157q0 -155 84 -225t249 -70q126 0 211.5 40t138 110t76 162t23.5 197q0 19 -1 36.5t-3 36.5l-12 86 l-33 272h138l34 -235q9 -71 24 -129t40 -100t60.5 -65t87.5 -23q101 0 167 68t66 180v15t-2 17l-7 63l-24 209h138l34 -235q9 -71 24 -129t40 -100t60.5 -65t87.5 -23q105 0 157 74.5t56 192.5v18v267h138v-251q0 -91 13 -148t42 -89t73 -44.5t105 -12.5h110l-37 -162h-88 q-137 0 -212 37.5t-107 117.5q-44 -80 -111.5 -125t-147.5 -45q-116 0 -182 56t-103 146q-49 -94 -130.5 -148t-168.5 -54zM1600 1019l121 123l125 -123l-125 -125zM1348 1019l121 123l125 -123l-125 -125zM1486 1228l108 109l112 -109l-112 -112zM1856 -228l-121 -123 l-125 123l125 125zM1604 -228l-121 -123l-124 123l124 125zM1718 -436l-108 -111l-112 111l112 112z" unicode="ڜ"/>
<glyph horiz-adv-x="1592" glyph-name="uni069D.init" d="M-18 162h68q123 0 190 70t70 201v7v267h142v-251q0 -107 13 -167q96 106 194 191.5t191 144t180.5 89t162.5 30.5q112 0 180 -40t104.5 -104t48.5 -143.5t12 -155.5q0 -25 -38 -74t-117.5 -99.5t-199.5 -89t-282 -38.5h-249q-118 0 -185.5 34.5t-105.5 102.5l-12 12l5 4 l-6 15q-52 -81 -130.5 -124.5t-177.5 -43.5h-95zM1150 566q-67 0 -146.5 -29.5t-161.5 -80t-164.5 -117.5t-159.5 -141q26 -20 62 -28t87 -8h198q223 4 361.5 51t203.5 100q-9 57 -26 103.5t-49 79t-81 51.5t-124 19zM662 -228l121 123l125 -123l-125 -125zM913 -228 l123 123l124 -123l-124 -125z" unicode="ڝ"/>
<glyph horiz-adv-x="1771" glyph-name="uni069D.medi" d="M1793 0h-94q-95 0 -152 48.5t-87 138.5q-35 -34 -88.5 -67t-123 -59.5t-158.5 -43.5t-196 -17h-242q-118 0 -185.5 34.5t-105.5 102.5l-12 12l5 4l-6 15q-52 -81 -130.5 -124.5t-177.5 -43.5h-95l37 162h68q123 0 190 70t70 201v7v267h142v-251q0 -107 13 -167 q96 106 194 191.5t191 144t180.5 89t162.5 30.5q105 0 171 -36.5t104.5 -94t53.5 -130t16 -145.5q29 -77 78 -126.5t120 -49.5h93zM1150 566q-67 0 -146.5 -29.5t-161.5 -80t-164.5 -117.5t-159.5 -141q26 -20 62 -28t87 -8h198q223 4 361.5 51t203.5 100q-9 57 -26 103.5 t-49 79t-81 51.5t-124 19zM662 -228l121 123l125 -123l-125 -125zM913 -228l123 123l124 -123l-124 -125z" unicode="ڝ"/>
<glyph horiz-adv-x="2389" glyph-name="uni069D.fina" d="M1050 603l93 -256q179 192 350.5 294.5t313.5 102.5q105 0 170 -35.5t103.5 -92.5t53.5 -128.5t17 -144.5q30 -78 79 -129.5t122 -51.5h93l-38 -162h-92q-97 0 -154 49.5t-85 140.5q-38 -33 -92 -67t-126 -60.5t-161 -44.5t-198 -18h-5q-88 0 -150.5 10.5t-109 30 t-81.5 47.5t-62 63q-12 -112 -48.5 -213.5t-107 -179t-177 -123.5t-257.5 -46q-218 0 -331 111t-113 315q0 170 84 398h131q-37 -107 -54 -194t-17 -157q0 -155 84 -225t249 -70q126 0 211.5 40t138 110t76 161t23.5 196q0 21 -1 43.5t-3 42.5l-73 196zM1481 162 q114 0 203 13.5t158.5 34.5t118.5 48t83 55q-9 57 -26 103.5t-49 79t-81 51.5t-124 19q-62 0 -130.5 -24t-141.5 -65t-147.5 -97t-145.5 -119q47 -54 109.5 -76.5t153.5 -22.5h19zM1326 -228l121 123l125 -123l-125 -125zM1578 -228l122 123l124 -123l-124 -125z" unicode="ڝ"/>
<glyph horiz-adv-x="1592" glyph-name="uni069E.init" d="M-18 162h68q123 0 190 70t70 201v7v267h142v-251q0 -107 13 -167q96 106 194 191.5t191 144t180.5 89t162.5 30.5q112 0 180 -40t104.5 -104t48.5 -143.5t12 -155.5q0 -25 -39 -74t-118 -99.5t-200.5 -89t-286.5 -38.5h-242q-118 0 -185.5 34.5t-105.5 102.5l-12 12l5 4 l-6 15q-52 -81 -130.5 -124.5t-177.5 -43.5h-95zM1150 566q-67 0 -146.5 -29.5t-161.5 -80t-164.5 -117.5t-159.5 -141q26 -20 62 -28t87 -8h175q116 0 210.5 13.5t167 34.5t124.5 48t86 55q-9 57 -26 103.5t-49 79t-81 51.5t-124 19zM882 935l121 123l125 -123l-125 -125z M630 935l121 123l125 -123l-125 -125zM768 1144l108 110l112 -110l-112 -112z" unicode="ڞ"/>
<glyph horiz-adv-x="1770" glyph-name="uni069E.medi" d="M1790 0h-93q-95 0 -152 47.5t-87 137.5q-35 -32 -88.5 -65.5t-123 -59.5t-157.5 -43t-195 -17h-242q-118 0 -185.5 34.5t-105.5 102.5l-12 12l5 4l-6 15q-52 -81 -130.5 -124.5t-177.5 -43.5h-95l37 162h68q123 0 190 70t70 201v7v267h142v-251q0 -107 13 -167 q96 106 194 191.5t191 144t180.5 89t162.5 30.5q107 0 173 -37t104 -96t52.5 -133t15.5 -145q29 -75 77 -123t119 -48h93zM1150 566q-67 0 -146.5 -29.5t-161.5 -80t-164.5 -117.5t-159.5 -141q26 -20 62 -28t87 -8h198q223 4 361.5 51t203.5 100q-9 57 -26 103.5t-49 79 t-81 51.5t-124 19zM882 935l121 123l125 -123l-125 -125zM630 935l121 123l125 -123l-125 -125zM768 1144l108 110l112 -110l-112 -112z" unicode="ڞ"/>
<glyph horiz-adv-x="2393" glyph-name="uni069E.fina" d="M2412 0h-94q-95 0 -151.5 49.5t-87.5 139.5q-35 -34 -88.5 -68t-124 -60.5t-159 -43.5t-195.5 -17h-121q-93 0 -168.5 39t-133.5 110q-10 -112 -47.5 -213.5t-107 -178t-176 -122.5t-257.5 -46q-218 0 -331 111t-113 315q0 170 84 398h131q-37 -107 -54 -194t-17 -157 q0 -155 84 -225t249 -70q105 0 181.5 28.5t129 79t83 120t44.5 149.5l-5 5l6 8q4 30 7 58.5t3 60.5q0 21 -1 42.5t-3 41.5l-73 196l144 47l78 -217q4 -9 6.5 -17.5t6.5 -17.5q181 187 355.5 290t314.5 103q105 0 170 -35.5t103 -92.5t53 -128.5t17 -144.5 q30 -78 79.5 -129.5t122.5 -51.5h93zM1200 260q48 -55 102.5 -76.5t105.5 -21.5h52q116 0 210 13.5t167 34.5t125 48t86 55q-10 57 -26.5 103.5t-48.5 79t-81 51.5t-124 19q-62 0 -131 -24t-142.5 -65.5t-148.5 -97.5t-146 -119zM1507 935l122 123l124 -123l-124 -125z M1256 935l121 123l125 -123l-125 -125zM1393 1144l109 110l112 -110l-112 -112z" unicode="ڞ"/>
<glyph horiz-adv-x="1454" glyph-name="uni069F.init" d="M-18 162h217v1293l141 44v-1197q94 102 190 184.5t188 140.5t178.5 87.5t159.5 29.5q111 0 179 -40t104.5 -104t48.5 -143.5t12 -155.5q0 -25 -39 -74t-118.5 -99.5t-200.5 -89t-285 -38.5h-812zM705 162q116 0 209.5 13.5t166.5 34.5t125.5 48t85.5 55q-10 57 -26 103.5 t-48 79t-81.5 51.5t-124.5 19q-72 0 -156.5 -33t-172 -89t-174.5 -129t-165 -153h361zM789 935l121 123l125 -123l-125 -125zM537 935l121 123l125 -123l-125 -125zM675 1144l108 110l112 -110l-112 -112z" unicode="ڟ"/>
<glyph horiz-adv-x="1641" glyph-name="uni069F.medi" d="M1661 0h-93q-97 0 -155 50.5t-85 141.5q-32 -32 -80 -63.5t-111 -57.5t-141.5 -45t-173.5 -24v-2h-877l37 162h217v1293l141 44v-1197q94 102 190 184.5t188 140.5t178.5 87.5t159.5 29.5q100 0 164 -32.5t102.5 -86.5t55 -122t20.5 -139q27 -86 78 -144t130 -58h93z M1012 566q-72 0 -156.5 -33t-172 -89t-174.5 -129t-165 -153h361q116 0 209.5 13.5t166.5 34.5t125.5 48t85.5 55q-10 57 -26 103.5t-48 79t-81.5 51.5t-124.5 19zM789 935l121 123l125 -123l-125 -125zM537 935l121 123l125 -123l-125 -125zM675 1144l108 110l112 -110 l-112 -112z" unicode="ڟ"/>
<glyph horiz-adv-x="1689" glyph-name="uni069F.fina" d="M1709 0h-93q-95 0 -152 47.5t-87 137.5q-35 -32 -87.5 -65t-120.5 -59.5t-155 -43.5t-190 -17h-776l-48 162h250v1293l142 44v-1202q95 104 191 187.5t189 141t179.5 88t160.5 30.5q106 0 172.5 -37t105 -96t52 -133t15.5 -145q28 -75 76.5 -123t120.5 -48h92zM1070 566 q-73 0 -157.5 -33t-172 -89t-174.5 -129t-165 -153h361q115 0 209 13.5t167 34.5t125.5 48t85.5 55q-10 57 -26.5 103.5t-48 79t-81.5 51.5t-123 19zM824 935l122 123l124 -123l-124 -125zM573 935l121 123l125 -123l-125 -125zM711 1144l108 110l112 -110l-112 -112z" unicode="ڟ"/>
<glyph horiz-adv-x="949" glyph-name="uni06A0.init" d="M-18 162h248q90 0 170.5 5.5t164.5 19.5q-166 35 -251.5 113.5t-85.5 165.5q0 82 34 150.5t91 117t133.5 75.5t161.5 27q96 0 196 -37l105 -183l-28 -13q-66 31 -137.5 49t-142.5 18q-86 0 -160.5 -30t-124.5 -101q9 -52 43.5 -103.5t90 -91.5t133 -65t173.5 -25 q26 0 53 2t55 5q6 2 11.5 4t12.5 4v-2h2l-2 -2l49 -138q-53 -19 -131 -40t-170.5 -41t-191.5 -33t-190 -13h-349zM572 1060l121 123l125 -123l-125 -125zM320 1060l122 123l124 -123l-124 -125zM458 1269l108 109l112 -109l-112 -112z" unicode="ڠ"/>
<glyph horiz-adv-x="1225" glyph-name="uni06A0.medi" d="M1090 0q-137 0 -258.5 48.5t-227.5 120.5q-121 -74 -255.5 -121.5t-271.5 -47.5h-132l37 162h95q112 0 216 26.5t197 69.5q-95 80 -167 160t-120 138v158q98 62 204 91t208 29q74 0 143.5 -14t128 -40.5t105 -63.5t76.5 -82q-11 -34 -40 -77.5t-72.5 -92.5t-99.5 -101.5 t-122 -102.5q80 -43 169 -70.5t187 -27.5h192l-37 -162h-155zM315 623q54 -64 131.5 -143t175.5 -150q106 65 181 137t112 124q-54 49 -133.5 68.5t-165.5 19.5q-83 0 -162.5 -14.5t-138.5 -41.5zM572 1060l121 123l125 -123l-125 -125zM320 1060l122 123l124 -123 l-124 -125zM458 1269l108 109l112 -109l-112 -112z" unicode="ڠ"/>
<glyph horiz-adv-x="1200" glyph-name="uni06A0.fina" d="M842 -409q-37 -4 -73.5 -6.5t-71.5 -2.5q-131 0 -247.5 27t-204 74.5t-139 115t-51.5 145.5q0 65 31 130.5t82 128t119.5 123t141.5 116.5q-83 88 -144 166.5t-92 130.5v144q88 64 196 95t220 31q69 0 134 -12t124 -36t107 -59t81 -81v-84q-78 -50 -193.5 -125.5 t-237.5 -161.5q63 -56 129.5 -108.5t132.5 -92.5t127.5 -63.5t116.5 -23.5h127l-38 -162h-87q-73 0 -153 30t-161.5 80t-161 115.5t-149.5 136.5q-69 -54 -130.5 -106.5t-107.5 -101.5t-72 -92.5t-26 -76.5q46 -71 112.5 -117.5t147.5 -73.5t176.5 -38.5t199.5 -11.5h53 t53 2zM306 796q31 -46 92 -118.5t144 -153.5q123 86 225.5 151.5t145.5 102.5q-55 39 -133.5 56t-165.5 17q-83 0 -165 -14t-143 -41zM607 1224l121 123l125 -123l-125 -125zM356 1224l121 123l125 -123l-125 -125zM493 1433l109 109l112 -109l-112 -112z" unicode="ڠ"/>
<glyph horiz-adv-x="887" glyph-name="uni06A1.init" d="M210 162q110 0 195 33t145 87q-83 5 -153.5 28t-122 61t-81 90t-29.5 118q0 51 26 105.5t69.5 103t100.5 88t119 64.5h114q100 -84 147 -183.5t47 -202.5q0 -106 -47 -206t-131.5 -177.5t-206 -124t-272.5 -46.5h-185l37 162h228zM294 610q0 -33 25 -63t72 -53.5 t111 -39.5t141 -19q9 37 9 71q0 76 -42 150t-137 133q-30 -9 -61.5 -28.5t-57.5 -44.5t-43 -52.5t-17 -53.5z" unicode="ڡ"/>
<glyph horiz-adv-x="962" glyph-name="uni06A1.medi" d="M983 0h-92q-118 0 -221.5 30t-192.5 80q-92 -50 -199 -80t-225 -30h-108l37 162h116q71 0 134.5 9.5t116.5 26.5q-76 65 -119 140t-43 141q0 53 22.5 104t61 99t89.5 87t109 67h136q102 -81 143 -168.5t41 -156.5q0 -75 -43.5 -151.5t-117.5 -142.5q65 -27 139.5 -41 t156.5 -14h96zM309 507q0 -51 54 -116t150 -119q70 45 108 96.5t38 97.5q0 21 -16.5 51.5t-43.5 64.5t-60 64.5t-64 49.5q-71 -30 -118.5 -79t-47.5 -110z" unicode="ڡ"/>
<glyph horiz-adv-x="1755" glyph-name="uni06A1.fina" d="M1773 0h-91q-117 0 -221 30t-193 80q-123 -69 -261 -97t-295 -28q-153 0 -274 29t-206.5 87.5t-130 145t-44.5 201.5q0 58 11.5 123t36.5 136h142q-22 -61 -32 -114.5t-10 -101.5q0 -174 139.5 -254t401.5 -80q100 0 165.5 3.5t109.5 9.5t70.5 13t49.5 15 q-76 65 -119 140t-43 141q0 53 22.5 104t60.5 99t89 87t109 67h136q101 -81 142 -168.5t41 -156.5q0 -75 -42.5 -151.5t-117.5 -142.5q66 -27 140.5 -41t156.5 -14h95zM1100 507q0 -51 54.5 -116t148.5 -119q71 45 109.5 96.5t38.5 97.5q0 21 -17 51.5t-44 64.5t-59.5 64.5 t-64.5 49.5q-71 -30 -118.5 -79t-47.5 -110z" unicode="ڡ"/>
<glyph horiz-adv-x="887" glyph-name="uni06A2.init" d="M210 162q110 0 195 33t145 87q-83 5 -153.5 28t-122 61t-81 90t-29.5 118q0 51 26 105.5t69.5 103t100.5 88t119 64.5h114q100 -84 147 -183.5t47 -202.5q0 -106 -47 -206t-131.5 -177.5t-206 -124t-272.5 -46.5h-185l37 162h228zM294 610q0 -33 25 -63t72 -53.5 t111 -39.5t141 -19q9 37 9 71q0 76 -42 150t-137 133q-30 -9 -61.5 -28.5t-57.5 -44.5t-43 -52.5t-17 -53.5zM332 -246l121 123l125 -123l-125 -126z" unicode="ڢ"/>
<glyph horiz-adv-x="962" glyph-name="uni06A2.medi" d="M983 0h-92q-118 0 -221.5 30t-192.5 80q-92 -50 -199 -80t-225 -30h-108l37 162h116q71 0 134.5 9.5t116.5 26.5q-76 65 -119 140t-43 141q0 53 22.5 104t61 99t89.5 87t109 67h136q102 -81 143 -168.5t41 -156.5q0 -75 -43.5 -151.5t-117.5 -142.5q65 -27 139.5 -41 t156.5 -14h96zM309 507q0 -51 54 -116t150 -119q70 45 108 96.5t38 97.5q0 21 -16.5 51.5t-43.5 64.5t-60 64.5t-64 49.5q-71 -30 -118.5 -79t-47.5 -110zM332 -246l121 123l125 -123l-125 -126z" unicode="ڢ"/>
<glyph horiz-adv-x="1755" glyph-name="uni06A2.fina" d="M1773 0h-91q-117 0 -221 30t-193 80q-123 -69 -261 -97t-295 -28q-153 0 -274 29t-206.5 87.5t-130 145t-44.5 201.5q0 58 11.5 123t36.5 136h142q-22 -61 -32 -114.5t-10 -101.5q0 -174 139.5 -254t401.5 -80q100 0 165.5 3.5t109.5 9.5t70.5 13t49.5 15 q-76 65 -119 140t-43 141q0 53 22.5 104t60.5 99t89 87t109 67h136q101 -81 142 -168.5t41 -156.5q0 -75 -42.5 -151.5t-117.5 -142.5q66 -27 140.5 -41t156.5 -14h95zM1100 507q0 -51 54.5 -116t148.5 -119q71 45 109.5 96.5t38.5 97.5q0 21 -17 51.5t-44 64.5t-59.5 64.5 t-64.5 49.5q-71 -30 -118.5 -79t-47.5 -110zM1151 -246l121 123l125 -123l-125 -126z" unicode="ڢ"/>
<glyph horiz-adv-x="887" glyph-name="uni06A3.init" d="M210 162q110 0 195 33t145 87q-83 5 -153.5 28t-122 61t-81 90t-29.5 118q0 51 26 105.5t69.5 103t100.5 88t119 64.5h114q100 -84 147 -183.5t47 -202.5q0 -106 -47 -206t-131.5 -177.5t-206 -124t-272.5 -46.5h-185l37 162h228zM294 610q0 -33 25 -63t72 -53.5 t111 -39.5t141 -19q9 37 9 71q0 76 -42 150t-137 133q-30 -9 -61.5 -28.5t-57.5 -44.5t-43 -52.5t-17 -53.5zM383 1152l121 123l126 -123l-126 -126zM378 -246l121 123l125 -123l-125 -126z" unicode="ڣ"/>
<glyph horiz-adv-x="962" glyph-name="uni06A3.medi" d="M983 0h-92q-118 0 -221.5 30t-192.5 80q-92 -50 -199 -80t-225 -30h-108l37 162h116q71 0 134.5 9.5t116.5 26.5q-76 65 -119 140t-43 141q0 53 22.5 104t61 99t89.5 87t109 67h136q102 -81 143 -168.5t41 -156.5q0 -75 -43.5 -151.5t-117.5 -142.5q65 -27 139.5 -41 t156.5 -14h96zM309 507q0 -51 54 -116t150 -119q70 45 108 96.5t38 97.5q0 21 -16.5 51.5t-43.5 64.5t-60 64.5t-64 49.5q-71 -30 -118.5 -79t-47.5 -110zM370 1075l122 123l124 -123l-124 -126zM378 -246l121 123l125 -123l-125 -126z" unicode="ڣ"/>
<glyph horiz-adv-x="1755" glyph-name="uni06A3.fina" d="M1145 1075l121 123l125 -123l-125 -126zM1773 0h-91q-117 0 -221 30t-193 80q-123 -69 -261 -97t-295 -28q-153 0 -274 29t-206.5 87.5t-130 145t-44.5 201.5q0 58 11.5 123t36.5 136h142q-22 -61 -32 -114.5t-10 -101.5q0 -174 139.5 -254t401.5 -80q100 0 165.5 3.5 t109.5 9.5t70.5 13t49.5 15q-76 65 -119 140t-43 141q0 53 22.5 104t60.5 99t89 87t109 67h136q101 -81 142 -168.5t41 -156.5q0 -75 -42.5 -151.5t-117.5 -142.5q66 -27 140.5 -41t156.5 -14h95zM1100 507q0 -51 54.5 -116t148.5 -119q71 45 109.5 96.5t38.5 97.5 q0 21 -17 51.5t-44 64.5t-59.5 64.5t-64.5 49.5q-71 -30 -118.5 -79t-47.5 -110zM677 -246l122 123l124 -123l-124 -126z" unicode="ڣ"/>
<glyph horiz-adv-x="887" glyph-name="uni06A5.init" d="M210 162q110 0 195 33t145 87q-83 5 -153.5 28t-122 61t-81 90t-29.5 118q0 51 26 105.5t69.5 103t100.5 88t119 64.5h114q100 -84 147 -183.5t47 -202.5q0 -106 -47 -206t-131.5 -177.5t-206 -124t-272.5 -46.5h-185l37 162h228zM294 610q0 -33 25 -63t72 -53.5 t111 -39.5t141 -19q9 37 9 71q0 76 -42 150t-137 133q-30 -9 -61.5 -28.5t-57.5 -44.5t-43 -52.5t-17 -53.5zM755 -228l-121 -123l-125 123l125 125zM503 -228l-121 -123l-125 123l125 125zM617 -436l-108 -111l-112 111l112 112z" unicode="ڥ"/>
<glyph horiz-adv-x="962" glyph-name="uni06A5.medi" d="M983 0h-92q-118 0 -221.5 30t-192.5 80q-92 -50 -199 -80t-225 -30h-108l37 162h116q71 0 134.5 9.5t116.5 26.5q-76 65 -119 140t-43 141q0 53 22.5 104t61 99t89.5 87t109 67h136q102 -81 143 -168.5t41 -156.5q0 -75 -43.5 -151.5t-117.5 -142.5q65 -27 139.5 -41 t156.5 -14h96zM309 507q0 -51 54 -116t150 -119q70 45 108 96.5t38 97.5q0 21 -16.5 51.5t-43.5 64.5t-60 64.5t-64 49.5q-71 -30 -118.5 -79t-47.5 -110zM737 -228l-121 -123l-125 123l125 125zM485 -228l-121 -123l-125 123l125 125zM599 -436l-108 -111l-112 111l112 112 z" unicode="ڥ"/>
<glyph horiz-adv-x="1755" glyph-name="uni06A5.fina" d="M1773 0h-91q-117 0 -221 30t-193 80q-123 -69 -261 -97t-295 -28q-153 0 -274 29t-206.5 87.5t-130 145t-44.5 201.5q0 58 11.5 123t36.5 136h142q-22 -61 -32 -114.5t-10 -101.5q0 -174 139.5 -254t401.5 -80q100 0 165.5 3.5t109.5 9.5t70.5 13t49.5 15 q-76 65 -119 140t-43 141q0 53 22.5 104t60.5 99t89 87t109 67h136q101 -81 142 -168.5t41 -156.5q0 -75 -42.5 -151.5t-117.5 -142.5q66 -27 140.5 -41t156.5 -14h95zM1100 507q0 -51 54.5 -116t148.5 -119q71 45 109.5 96.5t38.5 97.5q0 21 -17 51.5t-44 64.5t-59.5 64.5 t-64.5 49.5q-71 -30 -118.5 -79t-47.5 -110zM1556 -228l-122 -123l-124 123l124 125zM1304 -228l-121 -123l-125 123l125 125zM1418 -436l-108 -111l-112 111l112 112z" unicode="ڥ"/>
<glyph horiz-adv-x="887" glyph-name="uni06A7.init" d="M210 162q110 0 195 33t145 87q-83 5 -153.5 28t-122 61t-81 90t-29.5 118q0 51 26 105.5t69.5 103t100.5 88t119 64.5h114q100 -84 147 -183.5t47 -202.5q0 -106 -47 -206t-131.5 -177.5t-206 -124t-272.5 -46.5h-185l37 162h228zM294 610q0 -33 25 -63t72 -53.5 t111 -39.5t141 -19q9 37 9 71q0 76 -42 150t-137 133q-30 -9 -61.5 -28.5t-57.5 -44.5t-43 -52.5t-17 -53.5zM383 1152l121 123l126 -123l-126 -126z" unicode="ڧ"/>
<glyph horiz-adv-x="962" glyph-name="uni06A7.medi" d="M983 0h-92q-118 0 -221.5 30t-192.5 80q-92 -50 -199 -80t-225 -30h-108l37 162h116q71 0 134.5 9.5t116.5 26.5q-76 65 -119 140t-43 141q0 53 22.5 104t61 99t89.5 87t109 67h136q102 -81 143 -168.5t41 -156.5q0 -75 -43.5 -151.5t-117.5 -142.5q65 -27 139.5 -41 t156.5 -14h96zM309 507q0 -51 54 -116t150 -119q70 45 108 96.5t38 97.5q0 21 -16.5 51.5t-43.5 64.5t-60 64.5t-64 49.5q-71 -30 -118.5 -79t-47.5 -110zM370 1075l122 123l124 -123l-124 -126z" unicode="ڧ"/>
<glyph horiz-adv-x="1604" glyph-name="uni06A7.fina" d="M1433 0q-93 0 -175 18q-101 -109 -243.5 -177.5t-308.5 -68.5q-144 0 -263 40t-206 117.5t-134.5 188t-47.5 249.5q0 114 37 254h132q-9 -44 -13.5 -87t-4.5 -82q0 -128 41 -221t111.5 -156.5t162.5 -94t193 -30.5q124 0 226.5 30.5t179.5 85.5q-125 55 -206 151t-81 219 q0 53 20.5 113t58 116t89 100.5t112.5 70.5h114q106 -95 152.5 -200.5t46.5 -211.5q0 -66 -17 -131t-46 -125q56 -6 118 -6h178l-37 -162h-189zM963 468q0 -106 79.5 -175t196.5 -101q50 80 50 170q0 82 -42 166t-134 166q-29 -15 -55.5 -39.5t-48 -54t-34 -64t-12.5 -68.5z M1021 1080l121 123l126 -123l-126 -124z" unicode="ڧ"/>
<glyph horiz-adv-x="887" glyph-name="uni06A8.init" d="M210 162q110 0 195 33t145 87q-83 5 -153.5 28t-122 61t-81 90t-29.5 118q0 51 26 105.5t69.5 103t100.5 88t119 64.5h114q100 -84 147 -183.5t47 -202.5q0 -106 -47 -206t-131.5 -177.5t-206 -124t-272.5 -46.5h-185l37 162h228zM294 610q0 -33 25 -63t72 -53.5 t111 -39.5t141 -19q9 37 9 71q0 76 -42 150t-137 133q-30 -9 -61.5 -28.5t-57.5 -44.5t-43 -52.5t-17 -53.5zM506 1172l122 123l125 -123l-125 -125zM255 1172l121 123l125 -123l-125 -125zM393 1381l108 109l112 -109l-112 -112z" unicode="ڨ"/>
<glyph horiz-adv-x="962" glyph-name="uni06A8.medi" d="M983 0h-92q-118 0 -221.5 30t-192.5 80q-92 -50 -199 -80t-225 -30h-108l37 162h116q71 0 134.5 9.5t116.5 26.5q-76 65 -119 140t-43 141q0 53 22.5 104t61 99t89.5 87t109 67h136q102 -81 143 -168.5t41 -156.5q0 -75 -43.5 -151.5t-117.5 -142.5q65 -27 139.5 -41 t156.5 -14h96zM309 507q0 -51 54 -116t150 -119q70 45 108 96.5t38 97.5q0 21 -16.5 51.5t-43.5 64.5t-60 64.5t-64 49.5q-71 -30 -118.5 -79t-47.5 -110zM527 1060l121 123l125 -123l-125 -125zM275 1060l122 123l125 -123l-125 -125zM413 1269l109 109l112 -109l-112 -112 z" unicode="ڨ"/>
<glyph horiz-adv-x="1604" glyph-name="uni06A8.fina" d="M1433 0q-93 0 -175 18q-101 -109 -243.5 -177.5t-308.5 -68.5q-144 0 -263 40t-206 117.5t-134.5 188t-47.5 249.5q0 114 37 254h132q-9 -44 -13.5 -87t-4.5 -82q0 -128 41 -221t111.5 -156.5t162.5 -94t193 -30.5q124 0 226.5 30.5t179.5 85.5q-125 55 -206 151t-81 219 q0 53 20.5 113t58 116t89 100.5t112.5 70.5h114q106 -95 152.5 -200.5t46.5 -211.5q0 -66 -17 -131t-46 -125q56 -6 118 -6h178l-37 -162h-189zM963 468q0 -106 79.5 -175t196.5 -101q50 80 50 170q0 82 -42 166t-134 166q-29 -15 -55.5 -39.5t-48 -54t-34 -64t-12.5 -68.5z M1152 1082l122 123l125 -123l-125 -125zM900 1082l122 123l124 -123l-124 -125zM1039 1292l107 109l112 -109l-112 -112z" unicode="ڨ"/>
<glyph horiz-adv-x="969" glyph-name="uni06AA.init" d="M860 1355q-234 -73 -392 -157t-273 -181l401 -513q54 -82 54 -164q0 -69 -40 -130.5t-117.5 -108.5t-189.5 -74t-255 -27h-103l37 162h73q114 0 197 13.5t141.5 34.5t96 46.5t60.5 47.5l-411 532q-30 45 -49.5 92.5t-19.5 91.5q0 38 13 66q26 56 97 114.5t162.5 112.5 t192.5 100t188 77z" unicode="ڪ"/>
<glyph horiz-adv-x="988" glyph-name="uni06AA.medi" d="M1008 0h-116q-53 0 -97 15t-80.5 41t-70 64.5t-69.5 82.5q-51 -89 -183 -146t-344 -57h-103l37 162h73q114 0 190.5 13.5t126 34.5t78.5 46.5t49 49.5l-408 530q-30 45 -49.5 92.5t-19.5 91.5q0 38 12 66q18 37 69.5 76.5t123 78.5t156 75.5t170.5 69t164.5 60.5 t135.5 48l137 -136q-118 -37 -242 -76t-238.5 -82t-209.5 -89t-154 -94l482 -616q41 -54 78.5 -97.5t74.5 -74.5t76 -49t85 -18h104z" unicode="ڪ"/>
<glyph horiz-adv-x="1585" glyph-name="uni06AA.fina" d="M1604 0h-116q-55 0 -99.5 16t-82 43.5t-73 67t-71.5 88.5q-164 -112 -355 -171t-393 -59q-99 0 -167 25.5t-111 76.5t-65.5 130.5t-31.5 186.5l116 21q12 -71 33.5 -121t56.5 -82.5t83.5 -48.5t119.5 -16q145 0 311 36.5t325 127.5l-395 515q-30 45 -50 92.5t-20 91.5 q0 38 13 66q17 35 65.5 73.5t117 76t150.5 74t167.5 68.5t168 62t150.5 54l137 -136q-118 -33 -242 -72.5t-238.5 -83t-210 -90.5t-153.5 -95l479 -616q42 -54 79 -97.5t74.5 -74.5t76.5 -49t85 -18h104z" unicode="ڪ"/>
<glyph horiz-adv-x="895" glyph-name="uni06AB.init" d="M64 1339q60 42 128 84t139 81t139 72.5t128 59.5l45 -48q-66 -28 -144 -68t-157.5 -85t-152.5 -91t-125 -85v80zM860 1355q-234 -73 -392 -157t-273 -181l401 -513q54 -82 54 -164q0 -69 -40 -130.5t-117.5 -108.5t-189.5 -74t-255 -27h-103l37 162h73q114 0 197 13.5 t141.5 34.5t96 46.5t60.5 47.5l-411 532q-30 45 -49.5 92.5t-19.5 91.5q0 38 13 66q26 56 97 114.5t162.5 112.5t192.5 100t188 77z" unicode="ګ"/>
<glyph horiz-adv-x="988" glyph-name="uni06AB.medi" d="M29 1308q60 39 153 85.5t195 91.5t198 84t159 62l47 -52q-71 -23 -174.5 -65t-211.5 -91.5t-206 -99.5t-160 -88v73zM1008 0h-116q-53 0 -97 15t-80.5 41t-70 64.5t-69.5 82.5q-51 -89 -183 -146t-344 -57h-103l37 162h73q114 0 190.5 13.5t126 34.5t78.5 46.5t49 49.5 l-408 530q-30 45 -49.5 92.5t-19.5 91.5q0 38 12 66q18 37 69.5 76.5t123 78.5t156 75.5t170.5 69t164.5 60.5t135.5 48l137 -136q-118 -37 -242 -76t-238.5 -82t-209.5 -89t-154 -94l482 -616q41 -54 78.5 -97.5t74.5 -74.5t76 -49t85 -18h104z" unicode="ګ"/>
<glyph horiz-adv-x="1585" glyph-name="uni06AB.fina" d="M625 1308q60 39 153 85.5t195 91.5t198 84t159 62l46 -52q-70 -23 -173.5 -65t-211.5 -91.5t-206 -99.5t-160 -88v73zM1604 0h-116q-55 0 -99.5 16t-82 43.5t-73 67t-71.5 88.5q-164 -112 -355 -171t-393 -59q-99 0 -167 25.5t-111 76.5t-65.5 130.5t-31.5 186.5l116 21 q12 -71 33.5 -121t56.5 -82.5t83.5 -48.5t119.5 -16q145 0 311 36.5t325 127.5l-395 515q-30 45 -50 92.5t-20 91.5q0 38 13 66q17 35 65.5 73.5t117 76t150.5 74t167.5 68.5t168 62t150.5 54l137 -136q-118 -33 -242 -72.5t-238.5 -83t-210 -90.5t-153.5 -95l479 -616 q42 -54 79 -97.5t74.5 -74.5t76.5 -49t85 -18h104z" unicode="ګ"/>
<glyph horiz-adv-x="969" glyph-name="uni06AC.init" d="M860 1355q-234 -73 -392 -157t-273 -181l401 -513q54 -82 54 -164q0 -69 -40 -130.5t-117.5 -108.5t-189.5 -74t-255 -27h-103l37 162h73q114 0 197 13.5t141.5 34.5t96 46.5t60.5 47.5l-411 532q-30 45 -49.5 92.5t-19.5 91.5q0 38 13 66q26 56 97 114.5t162.5 112.5 t192.5 100t188 77zM101 1519l122 123l125 -123l-125 -125z" unicode="ڬ"/>
<glyph horiz-adv-x="988" glyph-name="uni06AC.medi" d="M1008 0h-116q-53 0 -97 15t-80.5 41t-70 64.5t-69.5 82.5q-51 -89 -183 -146t-344 -57h-103l37 162h73q114 0 190.5 13.5t126 34.5t78.5 46.5t49 49.5l-408 530q-30 45 -49.5 92.5t-19.5 91.5q0 38 12 66q18 37 69.5 76.5t123 78.5t156 75.5t170.5 69t164.5 60.5 t135.5 48l137 -136q-118 -37 -242 -76t-238.5 -82t-209.5 -89t-154 -94l482 -616q41 -54 78.5 -97.5t74.5 -74.5t76 -49t85 -18h104zM110 1519l122 123l125 -123l-125 -125z" unicode="ڬ"/>
<glyph horiz-adv-x="1602" glyph-name="uni06AC.fina" d="M1528 0q-166 0 -243.5 54t-102.5 176q-165 -118 -362 -181.5t-406 -63.5q-99 0 -167 25.5t-111 76.5t-65.5 130.5t-31.5 186.5l116 21q12 -71 33.5 -121t56.5 -82.5t83.5 -48.5t119.5 -16q82 0 172 11t183.5 37t186 67t178.5 103v50v1030l142 44v-1063q2 -83 15.5 -136.5 t42 -84t72 -42t103.5 -11.5h116l-38 -162h-93zM794 767q-27 -2 -70 -8t-92.5 -14t-103 -20.5t-103.5 -24.5q4 9 9.5 24t10.5 29q7 18 12 32l132 19q-53 10 -90.5 35t-37.5 51q0 41 26 77.5t68 64.5t93 46.5t102 25.5l37 -100q-39 0 -76.5 -8t-67 -18.5t-51 -26.5t-29.5 -35 q17 -24 60 -35.5t86 -16.5q51 -8 112 -8zM1114 1704l122 123l125 -123l-125 -125z" unicode="ڬ"/>
<glyph horiz-adv-x="969" glyph-name="uni06AE.init" d="M860 1355q-234 -73 -392 -157t-273 -181l401 -513q54 -82 54 -164q0 -69 -40 -130.5t-117.5 -108.5t-189.5 -74t-255 -27h-103l37 162h73q114 0 197 13.5t141.5 34.5t96 46.5t60.5 47.5l-411 532q-30 45 -49.5 92.5t-19.5 91.5q0 38 13 66q26 56 97 114.5t162.5 112.5 t192.5 100t188 77zM591 -228l-121 -123l-125 123l125 125zM339 -228l-121 -123l-125 123l125 125zM453 -436l-108 -111l-112 111l112 112z" unicode="ڮ"/>
<glyph horiz-adv-x="988" glyph-name="uni06AE.medi" d="M1008 0h-116q-53 0 -97 15t-80.5 41t-70 64.5t-69.5 82.5q-51 -89 -183 -146t-344 -57h-103l37 162h73q114 0 190.5 13.5t126 34.5t78.5 46.5t49 49.5l-408 530q-30 45 -49.5 92.5t-19.5 91.5q0 38 12 66q18 37 69.5 76.5t123 78.5t156 75.5t170.5 69t164.5 60.5 t135.5 48l137 -136q-118 -37 -242 -76t-238.5 -82t-209.5 -89t-154 -94l482 -616q41 -54 78.5 -97.5t74.5 -74.5t76 -49t85 -18h104zM636 -228l-121 -123l-125 123l125 125zM385 -228l-121 -123l-125 123l125 125zM499 -436l-109 -111l-112 111l112 112z" unicode="ڮ"/>
<glyph horiz-adv-x="1602" glyph-name="uni06AE.fina" d="M1528 0q-166 0 -243.5 54t-102.5 176q-165 -118 -362 -181.5t-406 -63.5q-99 0 -167 25.5t-111 76.5t-65.5 130.5t-31.5 186.5l116 21q12 -71 33.5 -121t56.5 -82.5t83.5 -48.5t119.5 -16q82 0 172 11t183.5 37t186 67t178.5 103v50v1030l142 44v-1063q2 -83 15.5 -136.5 t42 -84t72 -42t103.5 -11.5h116l-38 -162h-93zM794 767q-27 -2 -70 -8t-92.5 -14t-103 -20.5t-103.5 -24.5q4 9 9.5 24t10.5 29q7 18 12 32l132 19q-53 10 -90.5 35t-37.5 51q0 41 26 77.5t68 64.5t93 46.5t102 25.5l37 -100q-39 0 -76.5 -8t-67 -18.5t-51 -26.5t-29.5 -35 q17 -24 60 -35.5t86 -16.5q51 -8 112 -8zM927 -228l-121 -123l-125 123l125 125zM676 -228l-121 -123l-125 123l125 125zM790 -436l-109 -111l-112 111l112 112z" unicode="ڮ"/>
<glyph horiz-adv-x="895" glyph-name="uni06B0.init" d="M64 1339q60 42 128 84t139 81t139 72.5t128 59.5l45 -48q-66 -28 -144 -68t-157.5 -85t-152.5 -91t-125 -85v80zM555 1241q-5 -3 -11 -6q-39 -37 -60 -67q-23 -35 -23 -70q0 -24 9.5 -41t24 -27.5t32 -15.5t34.5 -5q49 0 80.5 24t31.5 58q0 15 -8 31t-23.5 33.5 t-36.5 38.5q-22 20 -50 47zM420 1172q-128 -73 -225 -155l401 -513q54 -82 54 -164q0 -69 -40 -130.5t-117.5 -108.5t-189.5 -74t-255 -27h-103l37 162h73q114 0 197 13.5t141.5 34.5t96 46.5t60.5 47.5l-411 532q-30 45 -49.5 92.5t-19.5 91.5q0 38 13 66q26 56 97 114.5 t162.5 112.5t192.5 100t188 77l137 -135q-122 -39 -224 -80q10 -9 20 -17q26 -24 47.5 -48.5t34 -48.5t12.5 -50q0 -34 -14.5 -67.5t-40.5 -60t-60.5 -43t-74.5 -16.5t-71.5 11.5t-54 31t-34.5 45t-12 54.5q0 54 32 106z" unicode="ڰ"/>
<glyph horiz-adv-x="988" glyph-name="uni06B0.medi" d="M29 1308q60 39 153 85.5t195 91.5t198 84t159 62l47 -52q-71 -23 -174.5 -65t-211.5 -91.5t-206 -99.5t-160 -88v73zM627 1242q-2 -1 -5 -2q-43 -39 -65 -72q-23 -35 -23 -70q0 -24 9.5 -41t24 -27.5t31.5 -15.5t35 -5q49 0 80.5 24t31.5 58q0 15 -8.5 31t-23.5 33.5 t-37 38.5q-21 20 -50 48zM513 1202q-1 -1 -3 -2q-115 -43 -210 -89t-154 -94l482 -616q41 -54 78.5 -97.5t74.5 -74.5t76 -49t85 -18h104l-38 -162h-116q-53 0 -97 15t-80.5 41t-70 64.5t-69.5 82.5q-51 -89 -183 -146t-344 -57h-103l37 162h73q114 0 190.5 13.5t126 34.5 t78.5 46.5t49 49.5l-408 530q-30 45 -49.5 92.5t-19.5 91.5q0 38 12 66q18 37 69.5 76.5t123 78.5t156 75.5t170.5 69t164.5 60.5t135.5 48l137 -136q-118 -37 -241 -76q-19 -6 -36 -11q8 -6 15 -13q27 -24 48.5 -48.5t34 -48.5t12.5 -50q0 -34 -14.5 -67.5t-40.5 -60 t-60.5 -43t-74.5 -16.5t-71.5 11.5t-54 31t-34.5 45t-12 54.5q0 57 36 113q7 11 16 23z" unicode="ڰ"/>
<glyph horiz-adv-x="1585" glyph-name="uni06B0.fina" d="M625 1308q60 39 153 85.5t195 91.5t198 84t159 62l46 -52q-70 -23 -173.5 -65t-211.5 -91.5t-206 -99.5t-160 -88v73zM1218 1243q-1 0 -3 -1q-44 -41 -66 -74q-24 -35 -24 -70q0 -24 9.5 -41t24 -27.5t32 -15.5t34.5 -5q49 0 80.5 24t31.5 58q0 15 -8 31t-23 33.5 t-37 38.5q-23 21 -51 49zM1106 1202q-114 -43 -208 -90q-96 -47 -154 -95l479 -616q42 -54 79 -97.5t74.5 -74.5t76.5 -49t85 -18h104l-38 -162h-116q-55 0 -99.5 16t-82 43.5t-73 67t-71.5 88.5q-164 -112 -355 -171t-393 -59q-99 0 -167 25.5t-111 76.5t-65.5 130.5 t-31.5 186.5l116 21q12 -71 33.5 -121t56.5 -82.5t83.5 -48.5t119.5 -16q145 0 311 36.5t325 127.5l-395 515q-30 45 -50 92.5t-20 91.5q0 38 13 66q17 35 65.5 73.5t117 76t150.5 74t167.5 68.5t168 62t150.5 54l137 -136q-118 -33 -242 -73q-22 -6 -42 -13l16 -14 q26 -24 47.5 -48.5t34.5 -48.5t13 -50q0 -34 -14.5 -67.5t-40.5 -60t-61 -43t-75 -16.5t-71.5 11.5t-53.5 31t-34.5 45t-12.5 54.5q0 57 37 113q8 12 17 23z" unicode="ڰ"/>
<glyph horiz-adv-x="895" glyph-name="uni06B2.init" d="M64 1339q60 42 128 84t139 81t139 72.5t128 59.5l45 -48q-66 -28 -144 -68t-157.5 -85t-152.5 -91t-125 -85v80zM860 1355q-234 -73 -392 -157t-273 -181l401 -513q54 -82 54 -164q0 -69 -40 -130.5t-117.5 -108.5t-189.5 -74t-255 -27h-103l37 162h73q114 0 197 13.5 t141.5 34.5t96 46.5t60.5 47.5l-411 532q-30 45 -49.5 92.5t-19.5 91.5q0 38 13 66q26 56 97 114.5t162.5 112.5t192.5 100t188 77zM591 -228l-121 -123l-125 123l125 125zM339 -228l-121 -123l-125 123l125 125z" unicode="ڲ"/>
<glyph horiz-adv-x="988" glyph-name="uni06B2.medi" d="M29 1308q60 39 153 85.5t195 91.5t198 84t159 62l47 -52q-71 -23 -174.5 -65t-211.5 -91.5t-206 -99.5t-160 -88v73zM1008 0h-116q-53 0 -97 15t-80.5 41t-70 64.5t-69.5 82.5q-51 -89 -183 -146t-344 -57h-103l37 162h73q114 0 190.5 13.5t126 34.5t78.5 46.5t49 49.5 l-408 530q-30 45 -49.5 92.5t-19.5 91.5q0 38 12 66q18 37 69.5 76.5t123 78.5t156 75.5t170.5 69t164.5 60.5t135.5 48l137 -136q-118 -37 -242 -76t-238.5 -82t-209.5 -89t-154 -94l482 -616q41 -54 78.5 -97.5t74.5 -74.5t76 -49t85 -18h104zM591 -228l-121 -123 l-125 123l125 125zM339 -228l-121 -123l-125 123l125 125z" unicode="ڲ"/>
<glyph horiz-adv-x="1585" glyph-name="uni06B2.fina" d="M625 1308q60 39 153 85.5t195 91.5t198 84t159 62l46 -52q-70 -23 -173.5 -65t-211.5 -91.5t-206 -99.5t-160 -88v73zM1604 0h-116q-55 0 -99.5 16t-82 43.5t-73 67t-71.5 88.5q-164 -112 -355 -171t-393 -59q-99 0 -167 25.5t-111 76.5t-65.5 130.5t-31.5 186.5l116 21 q12 -71 33.5 -121t56.5 -82.5t83.5 -48.5t119.5 -16q145 0 311 36.5t325 127.5l-395 515q-30 45 -50 92.5t-20 91.5q0 38 13 66q17 35 65.5 73.5t117 76t150.5 74t167.5 68.5t168 62t150.5 54l137 -136q-118 -33 -242 -72.5t-238.5 -83t-210 -90.5t-153.5 -95l479 -616 q42 -54 79 -97.5t74.5 -74.5t76.5 -49t85 -18h104zM927 -228l-121 -123l-125 123l125 125zM676 -228l-121 -123l-125 123l125 125z" unicode="ڲ"/>
<glyph horiz-adv-x="911" glyph-name="uni06B4.init" d="M83 1321q60 42 127.5 84t139 81t139 72.5t127.5 59.5l45 -48q-66 -29 -144 -69t-157.5 -84.5t-152.5 -90.5t-124 -85v80zM878 1336q-233 -72 -391 -156t-274 -182l383 -494q54 -82 54 -164q0 -69 -40 -130.5t-117.5 -108.5t-189.5 -74t-255 -27h-103l37 162h73 q114 0 197 13.5t141.5 34.5t96 46.5t60.5 47.5l-411 532q-30 45 -40.5 83t-10.5 83q0 37 14 66q25 55 96 114t162.5 113t192.5 100t188 77zM256 1701l122 123l125 -123l-125 -125zM4 1701l121 123l125 -123l-125 -125zM143 1910l107 110l112 -110l-112 -112z" unicode="ڴ"/>
<glyph horiz-adv-x="988" glyph-name="uni06B4.medi" d="M29 1308q60 39 153 85.5t195 91.5t198 84t159 62l47 -52q-71 -23 -174.5 -65t-211.5 -91.5t-206 -99.5t-160 -88v73zM1008 0h-116q-53 0 -97 15t-80.5 41t-70 64.5t-69.5 82.5q-51 -89 -183 -146t-344 -57h-103l37 162h73q114 0 190.5 13.5t126 34.5t78.5 46.5t49 49.5 l-408 530q-30 45 -49.5 92.5t-19.5 91.5q0 38 12 66q18 37 69.5 76.5t123 78.5t156 75.5t170.5 69t164.5 60.5t135.5 48l137 -136q-118 -37 -242 -76t-238.5 -82t-209.5 -89t-154 -94l482 -616q41 -54 78.5 -97.5t74.5 -74.5t76 -49t85 -18h104zM256 1701l122 123l125 -123 l-125 -125zM4 1701l121 123l125 -123l-125 -125zM143 1910l107 110l112 -110l-112 -112z" unicode="ڴ"/>
<glyph horiz-adv-x="1585" glyph-name="uni06B4.fina" d="M625 1308q60 39 153 85.5t195 91.5t198 84t159 62l46 -52q-70 -23 -173.5 -65t-211.5 -91.5t-206 -99.5t-160 -88v73zM1604 0h-116q-55 0 -99.5 16t-82 43.5t-73 67t-71.5 88.5q-164 -112 -355 -171t-393 -59q-99 0 -167 25.5t-111 76.5t-65.5 130.5t-31.5 186.5l116 21 q12 -71 33.5 -121t56.5 -82.5t83.5 -48.5t119.5 -16q145 0 311 36.5t325 127.5l-395 515q-30 45 -50 92.5t-20 91.5q0 38 13 66q17 35 65.5 73.5t117 76t150.5 74t167.5 68.5t168 62t150.5 54l137 -136q-118 -33 -242 -72.5t-238.5 -83t-210 -90.5t-153.5 -95l479 -616 q42 -54 79 -97.5t74.5 -74.5t76.5 -49t85 -18h104zM856 1701l122 123l125 -123l-125 -125zM605 1701l121 123l125 -123l-125 -125zM743 1910l108 110l112 -110l-112 -112z" unicode="ڴ"/>
<glyph horiz-adv-x="535" glyph-name="uni06B5.init" d="M354 425q-5 -97 -27 -175.5t-64 -134t-102.5 -85.5t-140.5 -30h-75l37 162h47q62 0 98.5 19t55 55t24 89.5t5.5 122.5v1007l142 44v-1074zM236 1622q-9 0 -19 42q-29 96 -172 258v8q24 93 32 103q31 -34 63 -75q69 -98 133 -204h2q44 112 224 265q4 -3 35 -134v-2 q-36 -24 -116 -107q-88 -112 -93 -182q-5 0 -89 28z" unicode="ڵ"/>
<glyph horiz-adv-x="714" glyph-name="uni06B5.medi" d="M652 0q-128 0 -200 42t-104 126q-52 -81 -130.5 -124.5t-177.5 -43.5h-95l37 162h68q123 0 190 72t70 206v1015l142 44v-1074q2 -80 13.5 -131.5t36.5 -80t65 -40t100 -11.5h104l-37 -162h-82zM336 1622q-8 0 -18 42q-30 96 -173 258v8q24 93 32 103q31 -34 63 -75 q69 -98 133 -204h2q45 112 224 265q5 -3 36 -134v-2q-37 -24 -117 -107q-87 -112 -93 -182q-4 0 -89 28z" unicode="ڵ"/>
<glyph horiz-adv-x="1314" glyph-name="uni06B5.fina" d="M1273 0q-160 0 -228 54q-18 -97 -55 -181.5t-100.5 -147.5t-158.5 -99.5t-230 -36.5q-218 0 -331 111t-113 315q0 170 84 398h126q-37 -107 -54.5 -194t-17.5 -157q0 -159 87 -231t252 -72q141 0 224.5 51.5t129 137.5t60 197t15.5 229v39v1042l143 44v-1074 q0 -78 6 -129.5t26 -81t55.5 -41t95.5 -11.5h82l-38 -162h-60zM963 1622q-8 0 -18 42q-29 96 -172 258v8q24 93 32 103q31 -34 63 -75q69 -98 133 -204h2q44 112 224 265q4 -3 35 -134v-2q-36 -24 -116 -107q-88 -112 -93 -182q-5 0 -90 28z" unicode="ڵ"/>
<glyph horiz-adv-x="535" glyph-name="uni06B6.init" d="M354 425q-5 -97 -27 -175.5t-64 -134t-102.5 -85.5t-140.5 -30h-75l37 162h47q62 0 98.5 19t55 55t24 89.5t5.5 122.5v1007l142 44v-1074zM157 1719l122 123l125 -123l-125 -125z" unicode="ڶ"/>
<glyph horiz-adv-x="714" glyph-name="uni06B6.medi" d="M652 0q-128 0 -200 42t-104 126q-52 -81 -130.5 -124.5t-177.5 -43.5h-95l37 162h68q123 0 190 72t70 206v1015l142 44v-1074q2 -80 13.5 -131.5t36.5 -80t65 -40t100 -11.5h104l-37 -162h-82zM257 1719l123 123l124 -123l-124 -125z" unicode="ڶ"/>
<glyph horiz-adv-x="1314" glyph-name="uni06B6.fina" d="M1273 0q-160 0 -228 54q-18 -97 -55 -181.5t-100.5 -147.5t-158.5 -99.5t-230 -36.5q-218 0 -331 111t-113 315q0 170 84 398h126q-37 -107 -54.5 -194t-17.5 -157q0 -159 87 -231t252 -72q141 0 224.5 51.5t129 137.5t60 197t15.5 229v39v1042l143 44v-1074 q0 -78 6 -129.5t26 -81t55.5 -41t95.5 -11.5h82l-38 -162h-60zM903 1719l122 123l125 -123l-125 -125z" unicode="ڶ"/>
<glyph horiz-adv-x="535" glyph-name="uni06B7.init" d="M354 425q-5 -97 -27 -175.5t-64 -134t-102.5 -85.5t-140.5 -30h-75l37 162h47q62 0 98.5 19t55 55t24 89.5t5.5 122.5v1007l142 44v-1074zM285 1719l122 123l125 -123l-125 -125zM33 1719l122 123l124 -123l-124 -125zM172 1929l107 109l112 -109l-112 -112z" unicode="ڷ"/>
<glyph horiz-adv-x="714" glyph-name="uni06B7.medi" d="M652 0q-128 0 -200 42t-104 126q-52 -81 -130.5 -124.5t-177.5 -43.5h-95l37 162h68q123 0 190 72t70 206v1015l142 44v-1074q2 -80 13.5 -131.5t36.5 -80t65 -40t100 -11.5h104l-37 -162h-82zM385 1719l122 123l125 -123l-125 -125zM134 1719l121 123l125 -123 l-125 -125zM272 1929l108 109l112 -109l-112 -112z" unicode="ڷ"/>
<glyph horiz-adv-x="1314" glyph-name="uni06B7.fina" d="M1273 0q-160 0 -228 54q-18 -97 -55 -181.5t-100.5 -147.5t-158.5 -99.5t-230 -36.5q-218 0 -331 111t-113 315q0 170 84 398h126q-37 -107 -54.5 -194t-17.5 -157q0 -159 87 -231t252 -72q141 0 224.5 51.5t129 137.5t60 197t15.5 229v39v1042l143 44v-1074 q0 -78 6 -129.5t26 -81t55.5 -41t95.5 -11.5h82l-38 -162h-60zM1013 1719l122 123l125 -123l-125 -125zM761 1719l121 123l125 -123l-125 -125zM900 1929l107 109l112 -109l-112 -112z" unicode="ڷ"/>
<glyph horiz-adv-x="509" glyph-name="uni06B8.init" d="M354 425q-5 -97 -27 -175.5t-64 -134t-102.5 -85.5t-140.5 -30h-75l37 162h47q62 0 98.5 19t55 55t24 89.5t5.5 122.5v1007l142 44v-1074zM454 -228l-121 -123l-125 123l125 125zM203 -228l-121 -123l-125 123l125 125zM317 -436l-109 -111l-112 111l112 112z" unicode="ڸ"/>
<glyph horiz-adv-x="714" glyph-name="uni06B8.medi" d="M652 0q-128 0 -200 42t-104 126q-52 -81 -130.5 -124.5t-177.5 -43.5h-95l37 162h68q123 0 190 72t70 206v1015l142 44v-1074q2 -80 13.5 -131.5t36.5 -80t65 -40t100 -11.5h104l-37 -162h-82zM527 -228l-121 -123l-125 123l125 125zM276 -228l-121 -123l-125 123 l125 125zM390 -436l-109 -111l-112 111l112 112z" unicode="ڸ"/>
<glyph horiz-adv-x="1314" glyph-name="uni06B8.fina" d="M1273 0q-160 0 -228 54q-18 -97 -55 -181.5t-100.5 -147.5t-158.5 -99.5t-230 -36.5q-218 0 -331 111t-113 315q0 170 84 398h126q-37 -107 -54.5 -194t-17.5 -157q0 -159 87 -231t252 -72q141 0 224.5 51.5t129 137.5t60 197t15.5 229v39v1042l143 44v-1074 q0 -78 6 -129.5t26 -81t55.5 -41t95.5 -11.5h82l-38 -162h-60zM657 -514l125 -125l-125 -123l-122 123zM405 -514l125 -125l-125 -123l-121 123zM530 -735l112 -112l-112 -110l-108 110z" unicode="ڸ"/>
<glyph horiz-adv-x="545" glyph-name="uni06B9.init" d="M85 1020l121 123l125 -123l-125 -124zM-20 162h224q30 57 46 125.5t16 143.5q0 67 -15 138t-47 138h168q27 -67 39.5 -128.5t12.5 -122.5q0 -102 -35 -209t-108 -247h-338zM66 -246l121 123l126 -123l-126 -126z" unicode="ڹ"/>
<glyph horiz-adv-x="714" glyph-name="uni06B9.medi" d="M652 0q-128 0 -200 42t-104 126q-52 -81 -130.5 -124.5t-177.5 -43.5h-95l37 162h68q123 0 190 72t70 206v267h142v-251q0 -91 10.5 -148t36 -89t66 -44.5t102.5 -12.5h104l-37 -162h-82zM247 1020l122 123l124 -123l-124 -124zM227 -246l121 123l125 -123l-125 -126z " unicode="ڹ"/>
<glyph horiz-adv-x="1392" glyph-name="uni06B9.fina" d="M451 705l121 123l125 -123l-125 -125zM1360 0q-90 0 -156.5 36.5t-114.5 103.5q-12 -110 -49 -209.5t-108 -175.5t-177.5 -121t-253.5 -45q-218 0 -331 111t-113 315q0 170 84 398h131q-37 -107 -54 -194t-17 -157q0 -155 84 -225t249 -70q126 0 211.5 40t138 110t76 162 t23.5 197q0 21 -1 42.5t-3 41.5l-73 196l144 47l78 -217q47 -126 111 -175t137 -49h73l-37 -162h-52zM415 -640l121 123l126 -123l-126 -125z" unicode="ڹ"/>
<glyph horiz-adv-x="545" glyph-name="uni06BC.init" d="M85 1020l121 123l125 -123l-125 -124zM167 0h-4q-44 -41 -66 -74q-24 -34 -24 -70q0 -24 9.5 -40.5t24.5 -27.5t32 -15.5t34 -4.5q50 0 81.5 23.5t31.5 57.5q0 15 -8.5 31t-23.5 34t-37 39q-22 20 -50 47zM90 0h-147l37 162h224q30 57 46 125.5t16 143.5q0 67 -15 138 t-47 138h168q27 -67 39.5 -128.5t12.5 -122.5q0 -102 -35 -208q-35 -107 -107 -245q19 -18 35 -35q20 -24 33 -48.5t13 -49.5q0 -35 -14.5 -68t-40.5 -60t-60.5 -43.5t-74.5 -16.5q-41 0 -72 11.5t-53.5 31t-35 45t-12.5 54.5q0 58 37 113q21 32 53 63z" unicode="ڼ"/>
<glyph horiz-adv-x="714" glyph-name="uni06BC.medi" d="M247 1020l122 123l124 -123l-124 -124zM277 -142q0 15 -8.5 31t-23.5 34t-37 39t-52 49q-45 -42 -68.5 -76t-23.5 -70q0 -24 9.5 -40.5t24.5 -27.5t32 -15.5t35 -4.5q49 0 80.5 23.5t31.5 57.5zM73 1q-16 -1 -33 -1h-95l37 162h68q125 0 192.5 74t67.5 212v259h142v-251 q0 -91 10.5 -148t36 -89t66 -44.5t102.5 -12.5h104l-37 -162h-82q-128 0 -200 42t-104 126q-48 -74 -119 -117q16 -13 30 -25q27 -25 48.5 -49t34 -48.5t12.5 -49.5q0 -35 -14.5 -68t-40.5 -60t-60.5 -43.5t-74.5 -16.5t-71.5 11.5t-54 31t-35 45t-12.5 54.5q0 58 37 113 q19 28 45 55z" unicode="ڼ"/>
<glyph horiz-adv-x="1392" glyph-name="uni06BC.fina" d="M451 705l121 123l125 -123l-125 -125zM532 -410q-1 0 -3 -1q-44 -41 -67 -74q-23 -34 -23 -70q0 -24 9.5 -40.5t24 -27.5t32 -15.5t34.5 -4.5q49 0 80.5 23.5t31.5 57.5q0 15 -8 31t-23 34t-37 39t-51 48zM456 -410q-185 11 -286 110q-113 111 -113 315q0 170 84 398h131 q-37 -107 -54 -194t-17 -157q0 -155 84 -225t249 -70q126 0 211.5 40t138 110t76 162t23.5 197q0 21 -1 42.5t-3 41.5l-73 196l144 47l78 -217q47 -126 111 -175t137 -49h73l-37 -162h-52q-90 0 -156.5 36.5t-114.5 103.5q-12 -110 -49 -209.5t-108 -175.5t-177 -120 q-53 -23 -117 -35q24 -22 44 -43q21 -24 33.5 -48.5t12.5 -49.5q0 -35 -14.5 -68t-40.5 -60t-60.5 -43.5t-74.5 -16.5t-71.5 11.5t-54 31t-34.5 45t-12 54.5q0 58 36 113q22 33 54 64z" unicode="ڼ"/>
<glyph horiz-adv-x="545" glyph-name="uni06BD.init" d="M-20 162h224q30 57 46 125.5t16 143.5q0 67 -15 138t-47 138h168q27 -67 39.5 -128.5t12.5 -122.5q0 -102 -35 -209t-108 -247h-338zM266 1015l121 123l125 -123l-125 -125zM152 1224l108 110l112 -110l-112 -112zM14 1015l121 123l125 -123l-125 -125z" unicode="ڽ"/>
<glyph horiz-adv-x="714" glyph-name="uni06BD.medi" d="M652 0q-128 0 -200 42t-104 126q-52 -81 -130.5 -124.5t-177.5 -43.5h-95l37 162h68q123 0 190 72t70 206v267h142v-251q0 -91 10.5 -148t36 -89t66 -44.5t102.5 -12.5h104l-37 -162h-82zM128 1015l121 123l125 -123l-125 -125zM380 1015l121 123l125 -123l-125 -125z M266 1224l108 110l112 -110l-112 -112z" unicode="ڽ"/>
<glyph horiz-adv-x="1392" glyph-name="uni06BD.fina" d="M1360 0q-90 0 -156.5 36.5t-114.5 103.5q-12 -110 -49 -209.5t-108 -175.5t-177.5 -121t-253.5 -45q-218 0 -331 111t-113 315q0 170 84 398h131q-37 -107 -54 -194t-17 -157q0 -155 84 -225t249 -70q126 0 211.5 40t138 110t76 162t23.5 197q0 21 -1 42.5t-3 41.5 l-73 196l144 47l78 -217q47 -126 111 -175t137 -49h73l-37 -162h-52zM578 822l121 123l126 -123l-126 -125zM464 1030l109 111l112 -111l-112 -111zM327 822l121 123l125 -123l-125 -125z" unicode="ڽ"/>
<glyph horiz-adv-x="1193" glyph-name="uni06BF.init" d="M1074 299q-32 3 -72 14t-87 27q-76 -58 -161 -118t-191.5 -109t-238 -81t-297.5 -32h-82l37 162h84q127 0 231 20.5t191 51.5t163.5 69.5t149.5 73.5q-62 20 -126 41.5t-125.5 38.5t-119.5 27.5t-106 10.5q-60 0 -124.5 -9.5t-135.5 -31.5l49 166q60 20 114 29.5t108 9.5 q101 0 195 -22.5t187 -55.5t187.5 -70t195.5 -67zM828 -190l-121 -123l-126 123l126 124zM575 -190l-121 -123l-125 123l125 124zM689 -399l-108 -110l-112 110l112 112zM311 795l-123 121l123 125l125 -125z" unicode="ڿ"/>
<glyph horiz-adv-x="1202" glyph-name="uni06BF.medi" d="M1074 299q-20 3 -46.5 8.5t-53.5 13.5q31 -70 78.5 -114.5t114.5 -44.5h94l-38 -162h-94q-123 0 -183.5 80t-78.5 222q-73 -54 -156 -108t-184 -97t-224 -70t-276 -27h-82l37 162h84q127 0 231 20.5t191 51.5t163.5 69.5t149.5 73.5q-62 20 -126 41.5t-125.5 38.5 t-119.5 27.5t-106 10.5q-60 0 -124.5 -9.5t-135.5 -31.5l49 166q60 20 114 29.5t108 9.5q101 0 195 -22.5t187 -55.5t187.5 -70t195.5 -67zM680 -190l-121 -123l-125 123l125 124zM932 -190l-122 -123l-124 123l124 124zM794 -399l-108 -110l-112 110l112 112zM393 795 l-123 121l123 125l125 -125z" unicode="ڿ"/>
<glyph horiz-adv-x="1180" glyph-name="uni06BF.fina" d="M1058 491h-4l-143 -23q7 -59 26 -114t47.5 -98.5t68 -68.5t90.5 -25h92l-37 -162h-93q-76 0 -127.5 32t-83.5 90.5t-45.5 141.5t-15.5 188q-308 -68 -472.5 -172t-164.5 -213q0 -158 165.5 -246t489.5 -88l134 4l-76 -155q-53 -6 -101 -7.5t-93 -1.5q-312 0 -475 111 t-163 325q0 129 61.5 225t161 165t227.5 114.5t262 75.5q-66 23 -126 41t-116 29.5t-111 18.5t-115 7q-116 0 -248 -25l43 163q60 15 113 20.5t105 5.5q113 0 210.5 -24t189.5 -60.5t182 -78.5t185 -77zM595 127l-121 -123l-125 123l125 124zM847 127l-121 -123l-125 123 l125 124zM709 -82l-108 -110l-112 110l112 112zM365 968l-123 122l123 124l124 -124z" unicode="ڿ"/>
<glyph horiz-adv-x="1022" glyph-name="uni06C2.fina" d="M92 300q26 15 103 60q89 52 182 93q154 70 228 70h8q54 0 69 -47q10 -22 23 -95q6 -23 19 -51q27 -55 63 -91q33 -32 68 -50q58 -27 103 -27h116l-37 -162h-69q-75 5 -146 32q-39 16 -78 42q-22 15 -80 72q-39 47 -58 81q-18 31 -36 83q-16 39 -32 39q-39 -6 -169 -64 q-118 -58 -214 -121q-32 -23 -73 -57l-10 9zM726 769q-28 -2 -71 -7.5t-92.5 -14t-103 -20.5t-103.5 -26q4 11 10 25.5t11 29.5q6 17 11 31l132 19q-54 9 -91 34.5t-37 51.5q0 41 26 77.5t68 64.5t93 47t102 26l37 -101q-39 0 -76 -7.5t-67 -19t-51.5 -27t-28.5 -34.5 q16 -24 59 -35t86 -17q51 -8 112 -8z" unicode="ۂ"/>
<glyph horiz-adv-x="1022" glyph-name="uni06C3.fina" d="M92 300q26 15 103 60q89 52 182 93q154 70 228 70h8q54 0 69 -47q10 -22 23 -95q6 -23 19 -51q27 -55 63 -91q33 -32 68 -50q58 -27 103 -27h116l-37 -162h-69q-75 5 -146 32q-39 16 -78 42q-22 15 -80 72q-39 47 -58 81q-18 31 -36 83q-16 39 -32 39q-39 -6 -169 -64 q-118 -58 -214 -121q-32 -23 -73 -57l-10 9zM299 837l121 123l125 -123l-125 -125zM550 837l121 123l126 -123l-126 -125z" unicode="ۃ"/>
<glyph horiz-adv-x="973" glyph-name="uni06C4.fina" d="M317 338q0 -71 50.5 -123.5t150.5 -52.5h189v17q0 43 -20.5 97t-55 109t-79 104t-95.5 80q-71 -49 -105.5 -110.5t-34.5 -120.5zM406 -212q2 1 5 2v4q0 14 -7 32t-18.5 36.5t-26.5 34.5t-31 26q-24 -16 -35.5 -36.5t-11.5 -39.5q0 -24 16.5 -41.5t50.5 -17.5h58z M457 -191q146 68 209 191h-136q-90 0 -156 22.5t-109 61.5t-63.5 91.5t-20.5 109.5t19 115.5t54.5 114.5t86.5 105.5t118 86.5h71q75 -48 134 -106t99 -118.5t61.5 -121t21.5 -113.5q0 -45 -6 -86h189l-38 -162h-194q-39 -99 -107.5 -174.5t-152 -127.5t-178 -79.5 t-185.5 -27.5l-101 114v26q111 3 204 21q-7 5 -13 10q-14 13 -21 30.5t-7 36.5t6.5 38.5t18.5 38t28.5 34.5t38.5 29h24q24 -16 44 -35.5t33 -39.5t20.5 -40t7.5 -37v-8z" unicode="ۄ"/>
<glyph horiz-adv-x="973" glyph-name="uni06CA.fina" d="M73 -269q222 6 375 74t218 195h-136q-90 0 -156 22.5t-109 61.5t-63.5 91.5t-20.5 109.5t19 115.5t54.5 114.5t86.5 105.5t118 86.5h71q75 -48 134 -106t99 -118.5t61.5 -121t21.5 -113.5q0 -45 -6 -86h189l-38 -162h-194q-39 -99 -107.5 -174.5t-152 -127.5t-178 -79.5 t-185.5 -27.5l-101 114v26zM317 338q0 -71 50.5 -123.5t150.5 -52.5h189v17q0 43 -20.5 97t-55 109t-79 104t-95.5 80q-71 -49 -105.5 -110.5t-34.5 -120.5zM501 988l121 123l126 -123l-126 -125zM250 988l121 123l125 -123l-125 -125z" unicode="ۊ"/>
<glyph horiz-adv-x="1707" glyph-name="uni06CD.fina" d="M689 504q-57 -185 -57 -335q0 -197 94 -303.5t255 -106.5q75 0 152 12t143.5 30t117.5 40t75 43q-14 21 -40 48t-58 53t-66.5 47.5t-63.5 31.5l-14 3l84 159q28 -16 64.5 -27.5t74.5 -20.5t77.5 -12.5t72.5 -3.5h332l-205 -162h-137q-18 0 -53 5q10 -23 18 -47t8 -49 q0 -62 -52.5 -119t-138 -101.5t-196 -72t-223.5 -27.5q-221 0 -344 128t-123 358q0 53 10 136q-95 -121 -176 -183h-240l-2 32q77 36 178.5 114.5t190.5 176.5q63 74 106 154h136v-1z" unicode="ۍ"/>
<glyph horiz-adv-x="527" glyph-name="uni06CE.init" d="M-19 162h223q30 57 46 125.5t16 143.5q0 67 -15 138t-47 138h168q26 -67 39 -128.5t13 -122.5q0 -102 -35.5 -209t-108.5 -247h-337zM-85 -228l121 123l125 -123l-125 -125zM166 -228l123 123l124 -123l-124 -125zM208 894q-8 0 -18 43q-29 95 -172 257v8q24 93 32 104 q31 -35 63 -76q69 -98 133 -204h2q44 112 224 265q4 -3 35 -134v-2q-36 -24 -116 -107q-88 -111 -93 -182q-5 0 -90 28z" unicode="ێ"/>
<glyph horiz-adv-x="714" glyph-name="uni06CE.medi" d="M652 0q-128 0 -200 42t-104 126q-52 -81 -130.5 -124.5t-177.5 -43.5h-95l37 162h68q125 0 192.5 74t67.5 212v259h142v-251q0 -91 10.5 -148t36 -89t66 -44.5t102.5 -12.5h104l-37 -162h-82zM75 -246l121 123l125 -123l-125 -126zM327 -246l121 123l125 -123l-125 -126z M336 894q-8 0 -18 43q-30 95 -173 257v8q24 93 32 104q31 -35 63 -76q69 -98 133 -204h2q45 112 224 265q5 -3 36 -134v-2q-37 -24 -117 -107q-87 -111 -93 -182q-4 0 -89 28z" unicode="ێ"/>
<glyph horiz-adv-x="1282" glyph-name="uni06CE.fina" d="M552 -241q74 0 151.5 12t143.5 30t117.5 40t75.5 43q-15 21 -41 48t-57.5 53t-66.5 47.5t-63 31.5l-14 3l83 159q29 -16 65.5 -27.5t74.5 -20.5t77 -12.5t73 -3.5h332l-205 -162h-137q-18 0 -54 5q11 -23 19 -47t8 -49q0 -62 -52.5 -119t-138 -101.5t-196 -72 t-224.5 -27.5q-220 0 -343 128t-123 358q0 93 21.5 200.5t67.5 228.5h114q-57 -185 -57 -335q0 -197 94 -303.5t255 -106.5zM478 478q-8 0 -18 43q-29 96 -173 258v7q24 94 32 104q31 -35 63 -76q69 -97 133 -204h2q45 112 224 266q5 -3 36 -134v-2q-37 -25 -117 -108 q-87 -111 -93 -181q-4 0 -89 27z" unicode="ێ"/>
<glyph horiz-adv-x="973" glyph-name="uni06CF.fina" d="M73 -269q222 6 375 74t218 195h-136q-90 0 -156 22.5t-109 61.5t-63.5 91.5t-20.5 109.5t19 115.5t54.5 114.5t86.5 105.5t118 86.5h71q75 -48 134 -106t99 -118.5t61.5 -121t21.5 -113.5q0 -45 -6 -86h189l-38 -162h-194q-39 -99 -107.5 -174.5t-152 -127.5t-178 -79.5 t-185.5 -27.5l-101 114v26zM317 338q0 -71 50.5 -123.5t150.5 -52.5h189v17q0 43 -20.5 97t-55 109t-79 104t-95.5 80q-71 -49 -105.5 -110.5t-34.5 -120.5zM374 988l121 123l126 -123l-126 -125z" unicode="ۏ"/>
<glyph horiz-adv-x="531" glyph-name="uni06D1.init" d="M-20 162h224q30 57 46 125.5t16 143.5q0 67 -15 138t-47 138h168q26 -67 39.5 -128.5t13.5 -122.5q0 -102 -35.5 -209t-108.5 -247h-338zM114 -228l-121 -123l-125 123l125 125zM228 -436l-109 -111l-111 111l111 112zM366 -228l-121 -123l-126 123l126 125z" unicode="ۑ"/>
<glyph horiz-adv-x="714" glyph-name="uni06D1.medi" d="M652 0q-128 0 -200 42t-104 126q-52 -81 -130.5 -124.5t-177.5 -43.5h-95l37 162h68q123 0 190 72t70 206v267h142v-251q0 -91 10.5 -148t36 -89t66 -44.5t102.5 -12.5h104l-37 -162h-82zM582 -228l-121 -123l-125 123l125 125zM330 -228l-121 -123l-125 123l125 125z M444 -436l-108 -111l-112 111l112 112z" unicode="ۑ"/>
<glyph horiz-adv-x="1282" glyph-name="uni06D1.fina" d="M552 -241q74 0 151.5 12t143.5 30t117.5 40t75.5 43q-15 21 -41 48t-57.5 53t-66.5 47.5t-63 31.5l-14 3l83 159q29 -16 65.5 -27.5t74.5 -20.5t77 -12.5t73 -3.5h332l-205 -162h-137q-18 0 -54 5q11 -23 19 -47t8 -49q0 -62 -52.5 -119t-138 -101.5t-196 -72 t-224.5 -27.5q-220 0 -343 128t-123 358q0 93 21.5 200.5t67.5 228.5h114q-57 -185 -57 -335q0 -197 94 -303.5t255 -106.5zM531 -594l-121 -123l-125 123l125 125zM645 -803l-109 -110l-111 110l111 112zM783 -594l-121 -123l-126 123l126 125z" unicode="ۑ"/>
<glyph horiz-adv-x="962" glyph-name="uni06D5.fina" d="M866 0q-104 0 -173.5 52.5t-99.5 137.5q-43 -9 -82 -11.5t-74 -2.5q-95 0 -163.5 24t-113 60.5t-66 80t-21.5 83.5q0 69 45.5 139.5t118.5 134.5t162.5 115.5t177.5 83.5v71l142 49v-668q0 -108 46.5 -147.5t130.5 -39.5h121l-38 -162h-113zM545 313q7 0 15 -0.5t17 0.5 v419q-123 -49 -219 -106.5t-151 -112.5q6 -34 27.5 -69t63.5 -64t102.5 -48t144.5 -19z" unicode="ە"/>
<glyph horiz-adv-x="1171" glyph-name="uni06EE.fina" d="M1189 0h-71q-86 0 -146.5 38.5t-103.5 99.5q-76 -61 -195.5 -107t-270.5 -46q-107 0 -181.5 20t-128.5 51l69 156q52 -18 121.5 -31t143.5 -13q90 0 194 17.5t194 58.5q-11 30 -21 62l-179 616h169l158 -577q24 -85 74.5 -134t102.5 -49h108zM621 1552q6 -70 93 -181 q80 -83 117 -107v-2q-31 -131 -36 -134q-179 153 -224 265h-2q-63 -107 -133 -204q-32 -41 -62 -76q-9 10 -32 104v7q143 163 172 258q10 43 18 43q85 27 89 27z" unicode="ۮ"/>
<glyph horiz-adv-x="1054" glyph-name="uni06EF.fina" d="M598 707q4 -9 6.5 -17.5t6.5 -18.5l108 -285q25 -65 58 -108t70.5 -69t75.5 -36.5t76 -10.5h110l-37 -162h-90q-33 0 -70.5 7.5t-77.5 26t-80 51.5t-80 83q-22 -82 -64 -162.5t-96.5 -154t-119.5 -139.5t-138 -123h-240l-2 32q118 64 217.5 146t175 172.5t122 186.5 t58.5 191l-162 390h173zM520 1271q5 -70 93 -181q80 -83 116 -108v-2q-31 -131 -35 -134q-180 153 -224 265h-2q-64 -106 -133 -204q-32 -41 -63 -75q-8 10 -32 104v7q143 162 172 258q10 43 18 43q85 27 90 27z" unicode="ۯ"/>
<glyph horiz-adv-x="1718" glyph-name="uni06FA.init" d="M-18 162h93q126 0 194 74t68 212v259h136v-235q0 -146 47.5 -231.5t152.5 -85.5q52 0 92 21.5t65 58.5t38.5 88.5t13.5 111.5v272h136v-235q0 -61 13 -118t41 -102t71 -71t100 -26q39 0 76.5 17t67.5 53t49 94t19 140q0 73 -18 166t-59 211h157q35 -97 51 -182.5 t16 -162.5q0 -124 -36.5 -218.5t-91.5 -158.5t-121 -96.5t-126 -32.5q-120 0 -190 56t-105 140q-41 -92 -109 -144t-160 -52q-113 0 -181.5 52t-103.5 144q-49 -86 -129 -133.5t-183 -47.5h-121zM954 1019l122 123l124 -123l-124 -125zM702 1019l122 123l125 -123l-125 -125 zM841 1228l108 109l112 -109l-112 -112zM824 -246l121 123l125 -123l-125 -126z" unicode="ۺ"/>
<glyph horiz-adv-x="1812" glyph-name="uni06FA.medi" d="M628 -15q-114 0 -182 52t-104 144q-48 -86 -128 -133.5t-183 -47.5h-86l37 162h58q125 0 193 74t68 212v259h137v-235q0 -146 47.5 -231.5t151.5 -85.5q52 0 92 21.5t66 58.5t38.5 88.5t12.5 111.5v272h138v-235q0 -146 47.5 -231.5t152.5 -85.5q52 0 92 21.5t65.5 58.5 t38.5 88.5t13 111.5v5v267h136v-251q0 -91 13 -148t42 -89t73 -44.5t106 -12.5h108l-37 -162h-87q-136 0 -210.5 36.5t-106.5 116.5q-43 -78 -107 -123t-148 -45q-109 0 -177 47.5t-106 133.5q-42 -86 -108 -133.5t-156 -47.5zM917 1019l121 123l125 -123l-125 -125z M666 1019l121 123l125 -123l-125 -125zM803 1228l109 109l112 -109l-112 -112zM804 -246l121 123l125 -123l-125 -126z" unicode="ۺ"/>
<glyph horiz-adv-x="2578" glyph-name="uni06FA.fina" d="M1346 -15q-79 0 -135 26t-93 73q-16 -100 -56.5 -191t-110.5 -158.5t-171.5 -106.5t-241.5 -39q-218 0 -331 111t-113 315q0 170 84 398h131q-37 -107 -54 -194t-17 -157q0 -155 84 -225t249 -70q126 0 211.5 40t138 110t76 162t23.5 197q0 19 -1 36.5t-3 36.5l-12 86 l-33 272h138l34 -235q9 -71 24 -129t40 -100t60.5 -65t87.5 -23q101 0 167 68t66 180v15t-2 17l-7 63l-24 209h138l34 -235q9 -71 24 -129t40 -100t60.5 -65t87.5 -23q105 0 157 74.5t56 192.5v18v267h138v-251q0 -91 13 -148t42 -89t73 -44.5t105 -12.5h110l-37 -162h-88 q-137 0 -212 37.5t-107 117.5q-44 -80 -111.5 -125t-147.5 -45q-116 0 -182 56t-103 146q-49 -94 -130.5 -148t-168.5 -54zM1600 1019l121 123l125 -123l-125 -125zM1348 1019l121 123l125 -123l-125 -125zM1486 1228l108 109l112 -109l-112 -112zM1502 -246l122 123 l124 -123l-124 -126z" unicode="ۺ"/>
<glyph horiz-adv-x="1592" glyph-name="uni06FB.init" d="M-18 162h68q123 0 190 70t70 201v7v267h142v-251q0 -107 13 -167q96 106 194 191.5t191 144t180.5 89t162.5 30.5q112 0 180 -40t104.5 -104t48.5 -143.5t12 -155.5q0 -25 -39 -74t-118 -99.5t-200.5 -89t-286.5 -38.5h-242q-118 0 -185.5 34.5t-105.5 102.5l-12 12l5 4 l-6 15q-52 -81 -130.5 -124.5t-177.5 -43.5h-95zM1150 566q-67 0 -146.5 -29.5t-161.5 -80t-164.5 -117.5t-159.5 -141q26 -20 62 -28t87 -8h175q116 0 210.5 13.5t167 34.5t124.5 48t86 55q-9 57 -26 103.5t-49 79t-81 51.5t-124 19zM700 935l122 123l125 -123l-125 -125z M692 -246l122 123l125 -123l-125 -126z" unicode="ۻ"/>
<glyph horiz-adv-x="1770" glyph-name="uni06FB.medi" d="M1790 0h-93q-95 0 -152 47.5t-87 137.5q-35 -32 -88.5 -65.5t-123 -59.5t-157.5 -43t-195 -17h-242q-118 0 -185.5 34.5t-105.5 102.5l-12 12l5 4l-6 15q-52 -81 -130.5 -124.5t-177.5 -43.5h-95l37 162h68q123 0 190 70t70 201v7v267h142v-251q0 -107 13 -167 q96 106 194 191.5t191 144t180.5 89t162.5 30.5q107 0 173 -37t104 -96t52.5 -133t15.5 -145q29 -75 77 -123t119 -48h93zM1150 566q-67 0 -146.5 -29.5t-161.5 -80t-164.5 -117.5t-159.5 -141q26 -20 62 -28t87 -8h198q223 4 361.5 51t203.5 100q-9 57 -26 103.5t-49 79 t-81 51.5t-124 19zM700 935l122 123l125 -123l-125 -125zM692 -246l122 123l125 -123l-125 -126z" unicode="ۻ"/>
<glyph horiz-adv-x="2393" glyph-name="uni06FB.fina" d="M2412 0h-94q-95 0 -151.5 49.5t-87.5 139.5q-35 -34 -88.5 -68t-124 -60.5t-159 -43.5t-195.5 -17h-121q-93 0 -168.5 39t-133.5 110q-10 -112 -47.5 -213.5t-107 -178t-176 -122.5t-257.5 -46q-218 0 -331 111t-113 315q0 170 84 398h131q-37 -107 -54 -194t-17 -157 q0 -155 84 -225t249 -70q105 0 181.5 28.5t129 79t83 120t44.5 149.5l-5 5l6 8q4 30 7 58.5t3 60.5q0 21 -1 42.5t-3 41.5l-73 196l144 47l78 -217q4 -9 6.5 -17.5t6.5 -17.5q181 187 355.5 290t314.5 103q105 0 170 -35.5t103 -92.5t53 -128.5t17 -144.5 q30 -78 79.5 -129.5t122.5 -51.5h93zM1200 260q48 -55 102.5 -76.5t105.5 -21.5h52q116 0 210 13.5t167 34.5t125 48t86 55q-10 57 -26.5 103.5t-48.5 79t-81 51.5t-124 19q-62 0 -131 -24t-142.5 -65.5t-148.5 -97.5t-146 -119zM1257 935l121 123l125 -123l-125 -125z M1329 -246l122 123l125 -123l-125 -126z" unicode="ۻ"/>
<glyph horiz-adv-x="949" glyph-name="uni06FC.init" d="M-18 162h248q90 0 170.5 5.5t164.5 19.5q-166 35 -251.5 113.5t-85.5 165.5q0 82 34 150.5t91 117t133.5 75.5t161.5 27q96 0 196 -37l105 -183l-28 -13q-66 31 -137.5 49t-142.5 18q-86 0 -160.5 -30t-124.5 -101q9 -52 43.5 -103.5t90 -91.5t133 -65t173.5 -25 q26 0 53 2t55 5q6 2 11.5 4t12.5 4v-2h2l-2 -2l49 -138q-53 -19 -131 -40t-170.5 -41t-191.5 -33t-190 -13h-349zM445 1056l121 123l125 -123l-125 -125zM447 -222l122 123l125 -123l-125 -125z" unicode="ۼ"/>
<glyph horiz-adv-x="1225" glyph-name="uni06FC.medi" d="M1090 0q-137 0 -258.5 48.5t-227.5 120.5q-121 -74 -255.5 -121.5t-271.5 -47.5h-132l37 162h95q112 0 216 26.5t197 69.5q-95 80 -167 160t-120 138v158q98 62 204 91t208 29q74 0 143.5 -14t128 -40.5t105 -63.5t76.5 -82q-11 -34 -40 -77.5t-72.5 -92.5t-99.5 -101.5 t-122 -102.5q80 -43 169 -70.5t187 -27.5h192l-37 -162h-155zM315 623q54 -64 131.5 -143t175.5 -150q106 65 181 137t112 124q-54 49 -133.5 68.5t-165.5 19.5q-83 0 -162.5 -14.5t-138.5 -41.5zM445 1056l121 123l125 -123l-125 -125zM447 -222l122 123l125 -123 l-125 -125z" unicode="ۼ"/>
<glyph horiz-adv-x="1200" glyph-name="uni06FC.fina" d="M842 -409q-37 -4 -73.5 -6.5t-71.5 -2.5q-131 0 -247.5 27t-204 74.5t-139 115t-51.5 145.5q0 65 31 130.5t82 128t119.5 123t141.5 116.5q-83 88 -144 166.5t-92 130.5v144q88 64 196 95t220 31q69 0 134 -12t124 -36t107 -59t81 -81v-84q-78 -50 -193.5 -125.5 t-237.5 -161.5q63 -56 129.5 -108.5t132.5 -92.5t127.5 -63.5t116.5 -23.5h127l-38 -162h-87q-73 0 -153 30t-161.5 80t-161 115.5t-149.5 136.5q-69 -54 -130.5 -106.5t-107.5 -101.5t-72 -92.5t-26 -76.5q46 -71 112.5 -117.5t147.5 -73.5t176.5 -38.5t199.5 -11.5h53 t53 2zM306 796q31 -46 92 -118.5t144 -153.5q123 86 225.5 151.5t145.5 102.5q-55 39 -133.5 56t-165.5 17q-83 0 -165 -14t-143 -41zM477 1220l121 124l125 -124l-125 -125zM389 30l122 123l124 -123l-124 -125z" unicode="ۼ"/>
<glyph horiz-adv-x="1273" glyph-name="uni06FF.init" d="M135 162q93 0 187 21q-64 73 -99.5 146.5t-35.5 138.5q0 47 20.5 100t56 103.5t82.5 93.5t97 71h97q45 -13 85.5 -39t74.5 -62l128 101q63 -54 122.5 -134.5t106.5 -176.5t74 -200.5t27 -205.5t-31.5 -190t-102.5 -157q-164 38 -313.5 116t-267.5 176q-73 -30 -154 -47 t-171 -17h-173l37 162h153zM830 463q0 -75 -61 -159.5t-167 -155.5q93 -68 196.5 -118.5t198.5 -70.5q49 54 49 138q0 60 -22.5 129t-61 141.5t-89.5 146.5t-109 141q32 -48 49 -98.5t17 -93.5zM456 694q-50 -26 -90 -74.5t-40 -119.5q0 -55 44.5 -122.5t119.5 -136.5 q91 42 147 101t56 123q0 44 -28 83.5t-66 70.5t-78 50.5t-65 24.5zM544 1366q5 -71 92 -182q81 -83 117 -107v-2q-31 -131 -35 -134q-180 153 -225 265h-1q-64 -106 -133 -204q-32 -41 -63 -75q-8 10 -32 103v8q143 162 172 257q10 43 18 43q85 28 90 28z" unicode="ۿ"/>
<glyph horiz-adv-x="995" glyph-name="uni06FF.medi" d="M195 162v19q0 140 51.5 303.5t170.5 351.5h105q139 -65 197 -161t58 -199q0 -70 -29.5 -135t-83 -121t-126.5 -101.5t-160 -75.5q37 -112 107 -190.5t169 -115.5q-2 15 -2 29v29q0 78 24 172.5t99 194.5h279l-38 -162h-202q-29 -52 -44 -100.5t-15 -100.5q0 -40 9 -81 t30 -90l-158 -70q-73 24 -140.5 65t-122 98t-96 128t-61.5 156q-51 -5 -105 -5h-166l37 162h196h17zM449 700q-54 -118 -78.5 -227t-24.5 -210v-39.5t3 -38.5q55 15 106 37t91.5 53t65 67.5t24.5 79.5q0 89 -43 162t-144 116zM516 1366q6 -71 93 -182q80 -83 117 -107v-2 q-31 -131 -36 -134q-179 153 -224 265h-2q-63 -106 -133 -204q-32 -41 -63 -75q-8 10 -31 103v8q143 162 172 257q10 43 18 43q85 28 89 28z" unicode="ۿ"/>
<glyph horiz-adv-x="1087" glyph-name="uni06FF.fina" d="M285 162v19q0 140 51.5 303.5t171.5 351.5h104q140 -65 197.5 -161t57.5 -199q0 -70 -29.5 -135t-82.5 -121t-126 -101.5t-161 -75.5q38 -112 108 -190.5t168 -115.5q-1 15 -1 29v29q0 78 24 172.5t99 194.5h278l-37 -162h-202q-29 -52 -44 -100.5t-15 -100.5 q0 -40 9 -81t30 -90l-159 -70q-73 24 -140.5 65t-122 98t-95.5 128t-62 156q-50 -5 -105 -5h-83l-45 162h196h16zM539 700q-53 -118 -77.5 -227t-24.5 -210v-39.5t3 -38.5q55 15 106 37t91.5 53t64.5 67.5t24 79.5q0 89 -42.5 162t-144.5 116zM597 1366q5 -71 93 -182 q80 -83 116 -107v-2q-31 -131 -35 -134q-180 153 -224 265h-2q-64 -106 -133 -204q-32 -41 -63 -75q-8 10 -32 103v8q143 162 172 257q10 43 19 43q84 28 89 28z" unicode="ۿ"/>
<glyph horiz-adv-x="514" glyph-name="uniFB50" d="M329 1499v-1499h-142v1455zM-83 1661q13 25 33.5 49t43 40t44 26.5t36.5 10.5q21 0 36.5 -6t36.5 -16q78 110 153.5 176.5t159.5 66.5q45 0 79.5 -18.5t56.5 -49.5t33.5 -72t11.5 -84q0 -103 -69 -162t-174 -59q-54 0 -105.5 10.5t-95 24.5t-76.5 29t-49 27 q-27 -10 -48 -30t-47 -66zM204 1734q41 -21 90.5 -33.5t105.5 -12.5q28 0 57 6t54.5 17t42 26t16.5 34q-13 47 -49 78t-82 31q-59 0 -118 -38t-117 -108z" arabic-form="isolated" unicode="ٱ"/>
<glyph horiz-adv-x="480" glyph-name="uniFB51" d="M501 0h-59q-66 0 -116.5 22.5t-84.5 63.5t-49.5 97t-15.5 121v1151l142 44v-1156q0 -102 38 -141.5t100 -39.5h82zM-158 1661q13 25 33.5 49t43 40t44 26.5t36.5 10.5q21 0 36.5 -6t36.5 -16q78 110 153.5 176.5t159.5 66.5q45 0 79.5 -18.5t56.5 -49.5t33.5 -72 t11.5 -84q0 -103 -69 -162t-174 -59q-54 0 -105.5 10.5t-95 24.5t-76.5 29t-49 27q-27 -10 -48 -30t-47 -66zM129 1734q41 -21 90.5 -33.5t105.5 -12.5q28 0 57 6t54.5 17t42 26t16.5 34q-13 47 -49 78t-82 31q-59 0 -118 -38t-117 -108z" arabic-form="final" unicode="ٱ"/>
<glyph horiz-adv-x="1512" glyph-name="uniFB52" d="M212 498q0 -83 27.5 -147t80 -106t124.5 -62.5t159 -20.5h634q30 57 46 125.5t16 143.5q0 67 -15 138t-47 138h169q25 -67 38.5 -128.5t13.5 -122.5q0 -102 -35.5 -209t-108.5 -247h-712q-273 0 -405.5 119.5t-132.5 320.5q0 126 46 267h139q-37 -121 -37 -209zM771 -600 l-123 121l123 125l125 -125zM771 -349l-123 121l123 125l125 -125z" arabic-form="isolated" unicode="ٻ"/>
<glyph horiz-adv-x="1757" glyph-name="uniFB53" d="M783 162q123 0 223 11.5t170 40t108 79t38 131.5v283h142v-251q0 -91 13 -148t41.5 -89t73 -44.5t105.5 -12.5h116l-38 -162h-93q-144 0 -220.5 43.5t-108.5 134.5q-80 -89 -219 -133.5t-325 -44.5h-207q-274 0 -409.5 119.5t-135.5 324.5q0 119 45 263h147 q-37 -121 -37 -209q0 -83 27.5 -147t80 -106t124.5 -62.5t160 -20.5h179zM771 -600l-123 121l123 125l126 -125zM771 -349l-123 121l123 125l126 -125z" arabic-form="final" unicode="ٻ"/>
<glyph horiz-adv-x="531" glyph-name="uniFB54" d="M-19 162h224q30 57 46 125.5t16 143.5q0 67 -15 138t-47 138h168q27 -67 39.5 -128.5t12.5 -122.5q0 -102 -35 -209t-108 -247h-338zM100 -600l-123 121l123 125l126 -125zM100 -349l-123 121l123 125l126 -125z" arabic-form="initial" unicode="ٻ"/>
<glyph horiz-adv-x="714" glyph-name="uniFB55" d="M652 0q-128 0 -200 42t-104 126q-52 -81 -130.5 -124.5t-177.5 -43.5h-95l37 162h68q123 0 190 72t70 206v267h142v-251q0 -91 10.5 -148t36 -89t66 -44.5t102.5 -12.5h104l-37 -162h-82zM345 -600l-123 121l123 125l126 -125zM345 -349l-123 121l123 125l126 -125z" arabic-form="medial" unicode="ٻ"/>
<glyph horiz-adv-x="1512" glyph-name="uniFB56" d="M212 498q0 -83 27.5 -147t80 -106t124.5 -62.5t159 -20.5h634q30 57 46 125.5t16 143.5q0 67 -15 138t-47 138h169q25 -67 38.5 -128.5t13.5 -122.5q0 -102 -35.5 -209t-108.5 -247h-712q-273 0 -405.5 119.5t-132.5 320.5q0 126 46 267h139q-37 -121 -37 -209z M1018 -228l-122 -123l-125 123l125 125zM765 -228l-121 -123l-124 123l124 125zM879 -436l-108 -111l-112 111l112 112z" arabic-form="isolated" unicode="پ"/>
<glyph horiz-adv-x="1757" glyph-name="uniFB57" d="M783 162q123 0 223 11.5t170 40t108 79t38 131.5v283h142v-251q0 -91 13 -148t41.5 -89t73 -44.5t105.5 -12.5h116l-38 -162h-93q-144 0 -220.5 43.5t-108.5 134.5q-80 -89 -219 -133.5t-325 -44.5h-207q-274 0 -409.5 119.5t-135.5 324.5q0 119 45 263h147 q-37 -121 -37 -209q0 -83 27.5 -147t80 -106t124.5 -62.5t160 -20.5h179zM766 -228l-121 -123l-125 123l125 125zM880 -436l-109 -111l-111 111l111 112zM1018 -228l-121 -123l-126 123l126 125z" arabic-form="final" unicode="پ"/>
<glyph horiz-adv-x="545" glyph-name="uniFB58" d="M-19 162h224q30 57 46 125.5t16 143.5q0 67 -15 138t-47 138h168q26 -67 39.5 -128.5t13.5 -122.5q0 -102 -36 -209t-108 -247h-338zM124 -228l-121 -123l-125 123l125 125zM238 -436l-109 -111l-111 111l111 112zM376 -228l-121 -123l-126 123l126 125z" arabic-form="initial" unicode="پ"/>
<glyph horiz-adv-x="714" glyph-name="uniFB59" d="M652 0q-128 0 -200 42t-104 126q-52 -81 -130.5 -124.5t-177.5 -43.5h-95l37 162h68q123 0 190 72t70 206v267h142v-251q0 -91 10.5 -148t36 -89t66 -44.5t102.5 -12.5h104l-37 -162h-82zM573 -228l-121 -123l-125 123l125 125zM321 -228l-121 -123l-125 123l125 125z M435 -436l-108 -111l-112 111l112 112z" arabic-form="medial" unicode="پ"/>
<glyph horiz-adv-x="1512" glyph-name="uniFB5A" d="M212 498q0 -83 27.5 -147t80 -106t124.5 -62.5t159 -20.5h634q30 57 46 125.5t16 143.5q0 67 -15 138t-47 138h169q25 -67 38.5 -128.5t13.5 -122.5q0 -102 -35.5 -209t-108.5 -247h-712q-273 0 -405.5 119.5t-132.5 320.5q0 126 46 267h139q-37 -121 -37 -209zM643 -352 l-121 123l121 123l125 -123l-123 -123l123 -122l-125 -125l-121 125zM894 -352l-120 123l121 123l125 -123l-123 -123l123 -122l-125 -125l-121 125z" arabic-form="isolated" unicode="ڀ"/>
<glyph horiz-adv-x="1757" glyph-name="uniFB5B" d="M783 162q123 0 223 11.5t170 40t108 79t38 131.5v283h142v-251q0 -91 13 -148t41.5 -89t73 -44.5t105.5 -12.5h116l-38 -162h-93q-144 0 -220.5 43.5t-108.5 134.5q-80 -89 -219 -133.5t-325 -44.5h-207q-274 0 -409.5 119.5t-135.5 324.5q0 119 45 263h147 q-37 -121 -37 -209q0 -83 27.5 -147t80 -106t124.5 -62.5t160 -20.5h179zM643 -352l-120 123l121 123l125 -123l-123 -123l123 -122l-125 -125l-121 125zM894 -352l-120 123l121 123l125 -123l-123 -123l123 -122l-125 -125l-121 125z" arabic-form="final" unicode="ڀ"/>
<glyph horiz-adv-x="531" glyph-name="uniFB5C" d="M-20 162h224q30 57 46 125.5t16 143.5q0 67 -15 138t-47 138h168q26 -67 39.5 -128.5t13.5 -122.5q0 -102 -36 -209t-108 -247h-338zM-13 -352l-120 123l121 123l125 -123l-123 -123l123 -122l-125 -125l-121 125zM239 -352l-121 123l122 123l124 -123l-123 -123 l123 -122l-124 -125l-122 125z" arabic-form="initial" unicode="ڀ"/>
<glyph horiz-adv-x="714" glyph-name="uniFB5D" d="M652 0q-128 0 -200 42t-104 126q-52 -81 -130.5 -124.5t-177.5 -43.5h-95l37 162h68q123 0 190 72t70 206v267h142v-251q0 -91 10.5 -148t36 -89t66 -44.5t102.5 -12.5h104l-37 -162h-82zM197 -352l-120 123l121 123l125 -123l-123 -123l123 -122l-125 -125l-121 125z M449 -352l-120 123l121 123l125 -123l-123 -123l123 -122l-125 -125l-121 125z" arabic-form="medial" unicode="ڀ"/>
<glyph horiz-adv-x="1512" glyph-name="uniFB5E" d="M212 498q0 -83 27.5 -147t80 -106t124.5 -62.5t159 -20.5h634q30 57 46 125.5t16 143.5q0 67 -15 138t-47 138h169q25 -67 38.5 -128.5t13.5 -122.5q0 -102 -35.5 -209t-108.5 -247h-712q-273 0 -405.5 119.5t-132.5 320.5q0 126 46 267h139q-37 -121 -37 -209zM756 769 l-123 121l123 125l125 -125zM756 1020l-123 122l123 124l125 -124z" arabic-form="isolated" unicode="ٺ"/>
<glyph horiz-adv-x="1757" glyph-name="uniFB5F" d="M783 162q123 0 223 11.5t170 40t108 79t38 131.5v283h142v-251q0 -91 13 -148t41.5 -89t73 -44.5t105.5 -12.5h116l-38 -162h-93q-144 0 -220.5 43.5t-108.5 134.5q-80 -89 -219 -133.5t-325 -44.5h-207q-274 0 -409.5 119.5t-135.5 324.5q0 119 45 263h147 q-37 -121 -37 -209q0 -83 27.5 -147t80 -106t124.5 -62.5t160 -20.5h179zM757 769l-123 121l123 125l124 -125zM757 1020l-123 122l123 124l124 -124z" arabic-form="final" unicode="ٺ"/>
<glyph horiz-adv-x="527" glyph-name="uniFB60" d="M-20 162h224q30 57 46 125.5t16 143.5q0 67 -15 138t-47 138h168q27 -67 39.5 -128.5t12.5 -122.5q0 -102 -35 -209t-108 -247h-338zM261 890l-123 121l123 125l125 -125zM261 1142l-123 121l123 125l125 -125z" arabic-form="initial" unicode="ٺ"/>
<glyph horiz-adv-x="714" glyph-name="uniFB61" d="M652 0q-128 0 -200 42t-104 126q-52 -81 -130.5 -124.5t-177.5 -43.5h-95l37 162h68q123 0 190 72t70 206v267h142v-251q0 -91 10.5 -148t36 -89t66 -44.5t102.5 -12.5h104l-37 -162h-82zM370 890l-123 121l123 125l125 -125zM370 1142l-123 121l123 125l125 -125z" arabic-form="medial" unicode="ٺ"/>
<glyph horiz-adv-x="1512" glyph-name="uniFB62" d="M212 498q0 -83 27.5 -147t80 -106t124.5 -62.5t159 -20.5h634q30 57 46 125.5t16 143.5q0 67 -15 138t-47 138h169q25 -67 38.5 -128.5t13.5 -122.5q0 -102 -35.5 -209t-108.5 -247h-712q-273 0 -405.5 119.5t-132.5 320.5q0 126 46 267h139q-37 -121 -37 -209zM634 1016 l-120 123l121 123l125 -123l-123 -123l123 -122l-125 -125l-121 125zM886 1016l-121 123l122 123l124 -123l-123 -123l123 -122l-124 -125l-122 125z" arabic-form="isolated" unicode="ٿ"/>
<glyph horiz-adv-x="1757" glyph-name="uniFB63" d="M783 162q123 0 223 11.5t170 40t108 79t38 131.5v283h142v-251q0 -91 13 -148t41.5 -89t73 -44.5t105.5 -12.5h116l-38 -162h-93q-144 0 -220.5 43.5t-108.5 134.5q-80 -89 -219 -133.5t-325 -44.5h-207q-274 0 -409.5 119.5t-135.5 324.5q0 119 45 263h147 q-37 -121 -37 -209q0 -83 27.5 -147t80 -106t124.5 -62.5t160 -20.5h179zM635 1016l-121 123l122 123l124 -123l-123 -123l123 -122l-124 -125l-122 125zM886 1016l-120 123l121 123l125 -123l-123 -123l123 -122l-125 -125l-121 125z" arabic-form="final" unicode="ٿ"/>
<glyph horiz-adv-x="545" glyph-name="uniFB64" d="M-20 162h224q30 57 46 125.5t16 143.5q0 67 -15 138t-47 138h168q27 -67 39.5 -128.5t12.5 -122.5q0 -102 -35 -209t-108 -247h-338zM133 1137l-120 123l121 123l125 -123l-123 -123l123 -122l-125 -125l-121 125zM385 1137l-120 123l121 123l125 -123l-123 -123 l123 -122l-125 -125l-121 125z" arabic-form="initial" unicode="ٿ"/>
<glyph horiz-adv-x="714" glyph-name="uniFB65" d="M652 0q-128 0 -200 42t-104 126q-52 -81 -130.5 -124.5t-177.5 -43.5h-95l37 162h68q123 0 190 72t70 206v267h142v-251q0 -91 10.5 -148t36 -89t66 -44.5t102.5 -12.5h104l-37 -162h-82zM252 1137l-120 123l121 123l125 -123l-123 -123l123 -122l-125 -125l-121 125z M503 1137l-120 123l121 123l125 -123l-123 -123l123 -122l-125 -125l-121 125z" arabic-form="medial" unicode="ٿ"/>
<glyph horiz-adv-x="1512" glyph-name="uniFB66" d="M1237 162q30 57 46 125.5t16 143.5q0 67 -15 138t-47 138h169q25 -67 38.5 -128.5t13.5 -122.5q0 -102 -35.5 -209t-108.5 -247h-712q-273 0 -405.5 119.5t-132.5 320.5q0 126 46 267h139q-37 -121 -37 -209q0 -83 27.5 -147t80 -106t124.5 -62.5t159 -20.5h634z M694 1241q0 -2 1 -2q-1 -16 -1 -19q0 -44 -2 -227q-2 -26 -2 -34q89 102 158 102h21q101 0 137 -107q5 -14 5 -38v-12q0 -37 -66 -98q-55 -43 -133 -43h-271q-5 0 -25 102l4 2h92q-13 329 -13 361q6 4 95 13zM688 869v-2h118q82 0 144 33q2 4 2 6q-28 61 -98 61 q-88 0 -166 -98z" arabic-form="isolated" unicode="ٹ"/>
<glyph horiz-adv-x="1757" glyph-name="uniFB67" d="M783 162q123 0 223 11.5t170 40t108 79t38 131.5v283h142v-251q0 -91 13 -148t41.5 -89t73 -44.5t105.5 -12.5h116l-38 -162h-93q-144 0 -220.5 43.5t-108.5 134.5q-80 -89 -219 -133.5t-325 -44.5h-207q-274 0 -409.5 119.5t-135.5 324.5q0 119 45 263h147 q-37 -121 -37 -209q0 -83 27.5 -147t80 -106t124.5 -62.5t160 -20.5h179zM694 1241q0 -2 2 -2q-2 -16 -2 -19q0 -44 -2 -227q-2 -26 -2 -34q89 102 159 102h21q100 0 136 -107q6 -14 6 -38v-12q0 -37 -67 -98q-54 -43 -133 -43h-270q-6 0 -26 102l4 2h92q-13 329 -13 361 q6 4 95 13zM688 869v-2h119q81 0 144 33q2 4 2 6q-29 61 -99 61q-87 0 -166 -98z" arabic-form="final" unicode="ٹ"/>
<glyph horiz-adv-x="531" glyph-name="uniFB68" d="M-20 162h224q30 57 46 125.5t16 143.5q0 67 -15 138t-47 138h168q27 -67 39.5 -128.5t12.5 -122.5q0 -102 -35 -209t-108 -247h-338zM184 1359q0 -2 2 -2q-2 -16 -2 -19q0 -43 -1 -227q-2 -26 -2 -33q89 102 158 102h21q100 0 137 -108q5 -13 5 -37v-13q0 -36 -66 -97 q-55 -43 -133 -43h-271q-5 0 -25 102l3 2h92q-12 329 -12 361q6 3 94 12zM179 988v-2h118q81 0 144 33q2 3 2 5q-28 61 -98 61q-88 0 -166 -97z" arabic-form="initial" unicode="ٹ"/>
<glyph horiz-adv-x="714" glyph-name="uniFB69" d="M652 0q-128 0 -200 42t-104 126q-52 -81 -130.5 -124.5t-177.5 -43.5h-95l37 162h68q125 0 192.5 74t67.5 212v259h142v-251q0 -91 10.5 -148t36 -89t66 -44.5t102.5 -12.5h104l-37 -162h-82zM312 1359q0 -2 2 -2q-2 -16 -2 -19q0 -43 -2 -227q-1 -26 -1 -33 q89 102 158 102h21q100 0 137 -108q5 -13 5 -37v-13q0 -36 -66 -97q-55 -43 -133 -43h-271q-5 0 -26 102l4 2h92q-13 329 -13 361q7 3 95 12zM307 988v-2h118q81 0 144 33q2 3 2 5q-28 61 -99 61q-87 0 -165 -97z" arabic-form="medial" unicode="ٹ"/>
<glyph horiz-adv-x="1677" glyph-name="uniFB6A" d="M1373 180l-30 -21l-36 -25l-42 -26q-122 -67 -258 -94q-138 -29 -295 -29q-153 0 -274 29t-206.5 87.5t-130 145t-44.5 201.5q0 58 11.5 123t36.5 136h142q-22 -61 -32 -114.5t-10 -101.5q0 -174 139.5 -254t401.5 -80q100 0 165.5 3.5t109.5 9.5t70.5 13t49.5 15 q-76 65 -119 140t-43 141q0 53 22.5 104t60.5 99t89 87t109 67h136q101 -81 142 -168.5t41 -156.5q0 -75 -42.5 -151.5t-113.5 -139.5l-21 -17zM1100 507q0 -51 54.5 -116t148.5 -119q71 45 109.5 96.5t38.5 97.5q0 21 -17 51.5t-44 64.5t-59.5 64.5t-64.5 49.5 q-71 -30 -118.5 -79t-47.5 -110zM1303 1047l121 123l126 -123l-126 -125zM1189 1255l109 111l112 -111l-112 -112zM1052 1047l121 123l125 -123l-125 -125z" arabic-form="isolated" unicode="ڤ"/>
<glyph horiz-adv-x="1755" glyph-name="uniFB6B" d="M1312 1047l122 123l125 -123l-125 -125zM1199 1255l108 111l112 -111l-112 -112zM1061 1047l121 123l125 -123l-125 -125zM1773 0h-91q-117 0 -221 30t-193 80q-123 -69 -261 -97t-295 -28q-153 0 -274 29t-206.5 87.5t-130 145t-44.5 201.5q0 58 11.5 123t36.5 136h142 q-22 -61 -32 -114.5t-10 -101.5q0 -174 139.5 -254t401.5 -80q100 0 165.5 3.5t109.5 9.5t70.5 13t49.5 15q-76 65 -119 140t-43 141q0 53 22.5 104t60.5 99t89 87t109 67h136q101 -81 142 -168.5t41 -156.5q0 -75 -42.5 -151.5t-117.5 -142.5q66 -27 140.5 -41t156.5 -14 h95zM1100 507q0 -51 54.5 -116t148.5 -119q71 45 109.5 96.5t38.5 97.5q0 21 -17 51.5t-44 64.5t-59.5 64.5t-64.5 49.5q-71 -30 -118.5 -79t-47.5 -110z" arabic-form="final" unicode="ڤ"/>
<glyph horiz-adv-x="887" glyph-name="uniFB6C" d="M210 162q110 0 195 33t145 87q-83 5 -153.5 28t-122 61t-81 90t-29.5 118q0 51 26 105.5t69.5 103t100.5 88t119 64.5h114q100 -84 147 -183.5t47 -202.5q0 -106 -47 -206t-131.5 -177.5t-206 -124t-272.5 -46.5h-185l37 162h228zM294 610q0 -33 25 -63t72 -53.5 t111 -39.5t141 -19q9 37 9 71q0 76 -42 150t-137 133q-30 -9 -61.5 -28.5t-57.5 -44.5t-43 -52.5t-17 -53.5zM506 1172l122 123l125 -123l-125 -125zM255 1172l121 123l125 -123l-125 -125zM393 1381l108 109l112 -109l-112 -112z" arabic-form="initial" unicode="ڤ"/>
<glyph horiz-adv-x="962" glyph-name="uniFB6D" d="M983 0h-92q-118 0 -221.5 30t-192.5 80q-92 -50 -199 -80t-225 -30h-108l37 162h116q71 0 134.5 9.5t116.5 26.5q-76 65 -119 140t-43 141q0 53 22.5 104t61 99t89.5 87t109 67h136q102 -81 143 -168.5t41 -156.5q0 -75 -43.5 -151.5t-117.5 -142.5q65 -27 139.5 -41 t156.5 -14h96zM309 507q0 -51 54 -116t150 -119q70 45 108 96.5t38 97.5q0 21 -16.5 51.5t-43.5 64.5t-60 64.5t-64 49.5q-71 -30 -118.5 -79t-47.5 -110zM527 1060l121 123l125 -123l-125 -125zM275 1060l122 123l125 -123l-125 -125zM413 1269l109 109l112 -109l-112 -112 z" arabic-form="medial" unicode="ڤ"/>
<glyph horiz-adv-x="1677" glyph-name="uniFB6E" d="M1373 180l-30 -21l-36 -25l-42 -26q-122 -67 -258 -94q-138 -29 -295 -29q-153 0 -274 29t-206.5 87.5t-130 145t-44.5 201.5q0 58 11.5 123t36.5 136h142q-22 -61 -32 -114.5t-10 -101.5q0 -174 139.5 -254t401.5 -80q100 0 165.5 3.5t109.5 9.5t70.5 13t49.5 15 q-76 65 -119 140t-43 141q0 53 22.5 104t60.5 99t89 87t109 67h136q101 -81 142 -168.5t41 -156.5q0 -75 -42.5 -151.5t-113.5 -139.5l-21 -17zM1100 507q0 -51 54.5 -116t148.5 -119q71 45 109.5 96.5t38.5 97.5q0 21 -17 51.5t-44 64.5t-59.5 64.5t-64.5 49.5 q-71 -30 -118.5 -79t-47.5 -110zM1173 1172l-120 123l121 123l125 -123l-123 -123l123 -122l-125 -125l-121 125zM1424 1172l-120 123l121 123l125 -123l-123 -123l123 -122l-125 -125l-121 125z" arabic-form="isolated" unicode="ڦ"/>
<glyph horiz-adv-x="1755" glyph-name="uniFB6F" d="M1773 0h-91q-117 0 -221 30t-193 80q-123 -69 -261 -97t-295 -28q-153 0 -274 29t-206.5 87.5t-130 145t-44.5 201.5q0 58 11.5 123t36.5 136h142q-22 -61 -32 -114.5t-10 -101.5q0 -174 139.5 -254t401.5 -80q100 0 165.5 3.5t109.5 9.5t70.5 13t49.5 15 q-76 65 -119 140t-43 141q0 53 22.5 104t60.5 99t89 87t109 67h136q101 -81 142 -168.5t41 -156.5q0 -75 -42.5 -151.5t-117.5 -142.5q66 -27 140.5 -41t156.5 -14h95zM1100 507q0 -51 54.5 -116t148.5 -119q71 45 109.5 96.5t38.5 97.5q0 21 -17 51.5t-44 64.5t-59.5 64.5 t-64.5 49.5q-71 -30 -118.5 -79t-47.5 -110zM1182 1172l-120 123l121 123l125 -123l-123 -123l123 -122l-125 -125l-121 125zM1434 1172l-121 123l121 123l125 -123l-123 -123l123 -122l-125 -125l-121 125z" arabic-form="final" unicode="ڦ"/>
<glyph horiz-adv-x="887" glyph-name="uniFB70" d="M210 162q110 0 195 33t145 87q-83 5 -153.5 28t-122 61t-81 90t-29.5 118q0 51 26 105.5t69.5 103t100.5 88t119 64.5h114q100 -84 147 -183.5t47 -202.5q0 -106 -47 -206t-131.5 -177.5t-206 -124t-272.5 -46.5h-185l37 162h228zM294 610q0 -33 25 -63t72 -53.5 t111 -39.5t141 -19q9 37 9 71q0 76 -42 150t-137 133q-30 -9 -61.5 -28.5t-57.5 -44.5t-43 -52.5t-17 -53.5zM374 1296l-120 123l121 123l125 -123l-123 -123l123 -122l-125 -124l-121 124zM626 1296l-121 123l121 123l125 -123l-123 -123l123 -122l-125 -124l-121 124z" arabic-form="initial" unicode="ڦ"/>
<glyph horiz-adv-x="962" glyph-name="uniFB71" d="M983 0h-92q-118 0 -221.5 30t-192.5 80q-92 -50 -199 -80t-225 -30h-108l37 162h116q71 0 134.5 9.5t116.5 26.5q-76 65 -119 140t-43 141q0 53 22.5 104t61 99t89.5 87t109 67h136q102 -81 143 -168.5t41 -156.5q0 -75 -43.5 -151.5t-117.5 -142.5q65 -27 139.5 -41 t156.5 -14h96zM309 507q0 -51 54 -116t150 -119q70 45 108 96.5t38 97.5q0 21 -16.5 51.5t-43.5 64.5t-60 64.5t-64 49.5q-71 -30 -118.5 -79t-47.5 -110zM392 1187l-120 123l121 123l125 -123l-123 -123l123 -122l-125 -125l-121 125zM644 1187l-120 123l121 123l124 -123 l-123 -123l123 -122l-124 -125l-121 125z" arabic-form="medial" unicode="ڦ"/>
<glyph horiz-adv-x="1157" glyph-name="uniFB72" d="M1058 491h-4q-205 -30 -365 -75.5t-269.5 -102.5t-166.5 -120t-57 -126q0 -158 165.5 -246t489.5 -88l134 4l-76 -155q-53 -6 -101 -7.5t-93 -1.5q-312 0 -475 111t-163 325q0 129 61.5 225t161 165t227.5 114.5t262 75.5q-66 23 -126 41t-116 29.5t-111 18.5t-115 7 q-116 0 -248 -25l43 163q60 15 113 20.5t105 5.5q113 0 210.5 -24t189.5 -60.5t182 -78.5t185 -77zM699 -179l-123 121l123 125l125 -125zM699 72l-123 121l123 125l125 -125z" arabic-form="isolated" unicode="ڄ"/>
<glyph horiz-adv-x="1126" glyph-name="uniFB73" d="M1058 491h-4q-104 -15 -196 -34q9 -58 28 -111t48 -94.5t67.5 -65.5t86.5 -24h94l-38 -162h-93q-75 0 -126 31t-83 88t-47 139t-17 182q-283 -68 -432.5 -169.5t-149.5 -203.5q0 -158 165.5 -246t489.5 -88l134 4l-76 -155q-53 -6 -101 -7.5t-93 -1.5q-312 0 -475 111 t-163 325q0 129 61.5 225t161 165t227.5 114.5t262 75.5q-66 23 -126 41t-116 29.5t-111 18.5t-115 7q-116 0 -248 -25l43 163q60 15 113 20.5t105 5.5q113 0 210.5 -24t189.5 -60.5t182 -78.5t185 -77zM617 -179l-123 121l123 125l125 -125zM617 72l-123 121l123 125 l125 -125z" arabic-form="final" unicode="ڄ"/>
<glyph horiz-adv-x="1198" glyph-name="uniFB74" d="M1074 299q-32 3 -72 14t-87 27q-76 -58 -161 -118t-191.5 -109t-238 -81t-297.5 -32h-82l37 162h84q127 0 231 20.5t191 51.5t163.5 69.5t149.5 73.5q-62 20 -126 41.5t-125.5 38.5t-119.5 27.5t-106 10.5q-60 0 -124.5 -9.5t-135.5 -31.5l49 166q60 20 114 29.5t108 9.5 q101 0 195 -22.5t187 -55.5t187.5 -70t195.5 -67zM403 -608l-123 122l123 124l125 -124zM403 -356l-123 121l123 125l125 -125z" arabic-form="initial" unicode="ڄ"/>
<glyph horiz-adv-x="1180" glyph-name="uniFB75" d="M1074 299q-27 3 -58.5 11.5t-66.5 17.5q30 -70 78.5 -118t117.5 -48h93l-38 -162h-93q-119 0 -179.5 75.5t-81.5 211.5q-71 -52 -152 -103.5t-180 -92.5t-219 -66t-268 -25h-82l37 162h84q127 0 231 20.5t191 51.5t163.5 69.5t149.5 73.5q-62 20 -126 41.5t-125.5 38.5 t-119.5 27.5t-106 10.5q-60 0 -124.5 -9.5t-135.5 -31.5l49 166q60 20 114 29.5t108 9.5q101 0 195 -22.5t187 -55.5t187.5 -70t195.5 -67zM431 -599l-123 122l123 124l124 -124zM431 -347l-123 121l123 125l124 -125z" arabic-form="medial" unicode="ڄ"/>
<glyph horiz-adv-x="1102" glyph-name="uniFB76" d="M1058 491h-4q-205 -30 -365 -75.5t-269.5 -102.5t-166.5 -120t-57 -126q0 -158 165.5 -246t489.5 -88l134 4l-76 -155q-53 -6 -101 -7.5t-93 -1.5q-312 0 -475 111t-163 325q0 129 61.5 225t161 165t227.5 114.5t262 75.5q-66 23 -126 41t-116 29.5t-111 18.5t-115 7 q-116 0 -248 -25l43 163q60 15 113 20.5t105 5.5q113 0 210.5 -24t189.5 -60.5t182 -78.5t185 -77zM956 64l-121 -123l-126 123l126 125zM703 64l-121 -123l-125 123l125 125z" arabic-form="isolated" unicode="ڃ"/>
<glyph horiz-adv-x="1180" glyph-name="uniFB77" d="M1058 491h-4l-143 -23q7 -59 26 -114t47.5 -98.5t68 -68.5t90.5 -25h92l-37 -162h-93q-76 0 -127.5 32t-83.5 90.5t-45.5 141.5t-15.5 188q-308 -68 -472.5 -172t-164.5 -213q0 -158 165.5 -246t489.5 -88l134 4l-76 -155q-53 -6 -101 -7.5t-93 -1.5q-312 0 -475 111 t-163 325q0 129 61.5 225t161 165t227.5 114.5t262 75.5q-66 23 -126 41t-116 29.5t-111 18.5t-115 7q-116 0 -248 -25l43 163q60 15 113 20.5t105 5.5q113 0 210.5 -24t189.5 -60.5t182 -78.5t185 -77zM846 64l-121 -123l-125 123l125 125zM594 64l-121 -123l-125 123 l125 125z" arabic-form="final" unicode="ڃ"/>
<glyph horiz-adv-x="1193" glyph-name="uniFB78" d="M1074 299q-32 3 -72 14t-87 27q-76 -58 -161 -118t-191.5 -109t-238 -81t-297.5 -32h-82l37 162h84q127 0 231 20.5t191 51.5t163.5 69.5t149.5 73.5q-62 20 -126 41.5t-125.5 38.5t-119.5 27.5t-106 10.5q-60 0 -124.5 -9.5t-135.5 -31.5l49 166q60 20 114 29.5t108 9.5 q101 0 195 -22.5t187 -55.5t187.5 -70t195.5 -67zM828 -190l-121 -123l-126 123l126 124zM575 -190l-121 -123l-125 123l125 124z" arabic-form="initial" unicode="ڃ"/>
<glyph horiz-adv-x="1202" glyph-name="uniFB79" d="M1074 299q-20 3 -46.5 8.5t-53.5 13.5q31 -70 78.5 -114.5t114.5 -44.5h94l-38 -162h-94q-123 0 -183.5 80t-78.5 222q-73 -54 -156 -108t-184 -97t-224 -70t-276 -27h-82l37 162h84q127 0 231 20.5t191 51.5t163.5 69.5t149.5 73.5q-62 20 -126 41.5t-125.5 38.5 t-119.5 27.5t-106 10.5q-60 0 -124.5 -9.5t-135.5 -31.5l49 166q60 20 114 29.5t108 9.5q101 0 195 -22.5t187 -55.5t187.5 -70t195.5 -67zM680 -190l-121 -123l-125 123l125 124zM932 -190l-122 -123l-124 123l124 124z" arabic-form="medial" unicode="ڃ"/>
<glyph horiz-adv-x="1102" glyph-name="uniFB7A" d="M1058 491h-4q-205 -30 -365 -75.5t-269.5 -102.5t-166.5 -120t-57 -126q0 -158 165.5 -246t489.5 -88l134 4l-76 -155q-53 -6 -101 -7.5t-93 -1.5q-312 0 -475 111t-163 325q0 129 61.5 225t161 165t227.5 114.5t262 75.5q-66 23 -126 41t-116 29.5t-111 18.5t-115 7 q-116 0 -248 -25l43 163q60 15 113 20.5t105 5.5q113 0 210.5 -24t189.5 -60.5t182 -78.5t185 -77zM956 146l-121 -123l-126 123l126 125zM703 146l-121 -123l-125 123l125 125zM817 -64l-108 -109l-112 109l112 112z" arabic-form="isolated" unicode="چ"/>
<glyph horiz-adv-x="1180" glyph-name="uniFB7B" d="M1058 491h-4l-143 -23q7 -59 26 -114t47.5 -98.5t68 -68.5t90.5 -25h92l-37 -162h-93q-76 0 -127.5 32t-83.5 90.5t-45.5 141.5t-15.5 188q-308 -68 -472.5 -172t-164.5 -213q0 -158 165.5 -246t489.5 -88l134 4l-76 -155q-53 -6 -101 -7.5t-93 -1.5q-312 0 -475 111 t-163 325q0 129 61.5 225t161 165t227.5 114.5t262 75.5q-66 23 -126 41t-116 29.5t-111 18.5t-115 7q-116 0 -248 -25l43 163q60 15 113 20.5t105 5.5q113 0 210.5 -24t189.5 -60.5t182 -78.5t185 -77zM595 127l-121 -123l-125 123l125 124zM847 127l-121 -123l-125 123 l125 124zM709 -82l-108 -110l-112 110l112 112z" arabic-form="final" unicode="چ"/>
<glyph horiz-adv-x="1193" glyph-name="uniFB7C" d="M1074 299q-32 3 -72 14t-87 27q-76 -58 -161 -118t-191.5 -109t-238 -81t-297.5 -32h-82l37 162h84q127 0 231 20.5t191 51.5t163.5 69.5t149.5 73.5q-62 20 -126 41.5t-125.5 38.5t-119.5 27.5t-106 10.5q-60 0 -124.5 -9.5t-135.5 -31.5l49 166q60 20 114 29.5t108 9.5 q101 0 195 -22.5t187 -55.5t187.5 -70t195.5 -67zM828 -190l-121 -123l-126 123l126 124zM575 -190l-121 -123l-125 123l125 124zM689 -399l-108 -110l-112 110l112 112z" arabic-form="initial" unicode="چ"/>
<glyph horiz-adv-x="1202" glyph-name="uniFB7D" d="M1074 299q-20 3 -46.5 8.5t-53.5 13.5q31 -70 78.5 -114.5t114.5 -44.5h94l-38 -162h-94q-123 0 -183.5 80t-78.5 222q-73 -54 -156 -108t-184 -97t-224 -70t-276 -27h-82l37 162h84q127 0 231 20.5t191 51.5t163.5 69.5t149.5 73.5q-62 20 -126 41.5t-125.5 38.5 t-119.5 27.5t-106 10.5q-60 0 -124.5 -9.5t-135.5 -31.5l49 166q60 20 114 29.5t108 9.5q101 0 195 -22.5t187 -55.5t187.5 -70t195.5 -67zM680 -190l-121 -123l-125 123l125 124zM932 -190l-122 -123l-124 123l124 124zM794 -399l-108 -110l-112 110l112 112z" arabic-form="medial" unicode="چ"/>
<glyph horiz-adv-x="1102" glyph-name="uniFB7E" d="M1058 491h-4q-205 -30 -365 -75.5t-269.5 -102.5t-166.5 -120t-57 -126q0 -158 165.5 -246t489.5 -88l134 4l-76 -155q-53 -6 -101 -7.5t-93 -1.5q-312 0 -475 111t-163 325q0 129 61.5 225t161 165t227.5 114.5t262 75.5q-66 23 -126 41t-116 29.5t-111 18.5t-115 7 q-116 0 -248 -25l43 163q60 15 113 20.5t105 5.5q113 0 210.5 -24t189.5 -60.5t182 -78.5t185 -77zM566 66l-120 123l121 123l125 -123l-123 -123l123 -122l-125 -125l-121 125zM817 66l-120 123l121 123l125 -123l-123 -123l123 -122l-125 -125l-121 125z" arabic-form="isolated" unicode="ڇ"/>
<glyph horiz-adv-x="1180" glyph-name="uniFB7F" d="M1058 491h-4l-143 -23q7 -59 26 -114t47.5 -98.5t68 -68.5t90.5 -25h92l-37 -162h-93q-76 0 -127.5 32t-83.5 90.5t-45.5 141.5t-15.5 188q-308 -68 -472.5 -172t-164.5 -213q0 -158 165.5 -246t489.5 -88l134 4l-76 -155q-53 -6 -101 -7.5t-93 -1.5q-312 0 -475 111 t-163 325q0 129 61.5 225t161 165t227.5 114.5t262 75.5q-66 23 -126 41t-116 29.5t-111 18.5t-115 7q-116 0 -248 -25l43 163q60 15 113 20.5t105 5.5q113 0 210.5 -24t189.5 -60.5t182 -78.5t185 -77zM470 54l-101 104l102 103l105 -103l-104 -104l104 -103l-105 -105 l-102 105zM682 54l-102 104l103 103l105 -103l-104 -104l104 -103l-105 -105l-103 105z" arabic-form="final" unicode="ڇ"/>
<glyph horiz-adv-x="1193" glyph-name="uniFB80" d="M1074 299q-32 3 -72 14t-87 27q-76 -58 -161 -118t-191.5 -109t-238 -81t-297.5 -32h-82l37 162h84q127 0 231 20.5t191 51.5t163.5 69.5t149.5 73.5q-62 20 -126 41.5t-125.5 38.5t-119.5 27.5t-106 10.5q-60 0 -124.5 -9.5t-135.5 -31.5l49 166q60 20 114 29.5t108 9.5 q101 0 195 -22.5t187 -55.5t187.5 -70t195.5 -67zM452 -315l-121 123l121 123l125 -123l-123 -123l123 -122l-125 -125l-121 125zM703 -315l-120 123l121 123l125 -123l-123 -123l123 -122l-125 -125l-121 125z" arabic-form="initial" unicode="ڇ"/>
<glyph horiz-adv-x="1202" glyph-name="uniFB81" d="M1074 299q-20 3 -46.5 8.5t-53.5 13.5q31 -70 78.5 -114.5t114.5 -44.5h94l-38 -162h-94q-123 0 -183.5 80t-78.5 222q-73 -54 -156 -108t-184 -97t-224 -70t-276 -27h-82l37 162h84q127 0 231 20.5t191 51.5t163.5 69.5t149.5 73.5q-62 20 -126 41.5t-125.5 38.5 t-119.5 27.5t-106 10.5q-60 0 -124.5 -9.5t-135.5 -31.5l49 166q60 20 114 29.5t108 9.5q101 0 195 -22.5t187 -55.5t187.5 -70t195.5 -67zM561 -315l-120 123l121 123l125 -123l-123 -123l123 -122l-125 -125l-121 125zM812 -315l-120 123l121 123l125 -123l-123 -123 l123 -122l-125 -125l-121 125z" arabic-form="medial" unicode="ڇ"/>
<glyph horiz-adv-x="1100" glyph-name="uniFB82" d="M991 200q0 -38 -52.5 -76t-133.5 -68.5t-179.5 -50.5t-193.5 -20q-118 0 -204 20.5t-136 51.5l67 152q22 -9 56 -17.5t73 -15.5t80 -10.5t78 -3.5q57 0 118.5 4.5t118.5 13.5t107 19t87 21q-44 92 -93.5 174.5t-109.5 162t-133.5 157t-165.5 159.5l189 76 q78 -72 154.5 -164.5t137 -192t98 -201.5t37.5 -191zM287 -228l121 123l125 -123l-125 -125zM538 -228l122 123l125 -123l-125 -125z" arabic-form="isolated" unicode="ڍ"/>
<glyph horiz-adv-x="1171" glyph-name="uniFB83" d="M1189 0h-71q-86 0 -146.5 38.5t-103.5 99.5q-76 -61 -195.5 -107t-270.5 -46q-107 0 -181.5 20t-128.5 51l69 156q52 -18 121.5 -31t143.5 -13q90 0 194 17.5t194 58.5q-11 30 -21 62l-179 616h169l158 -577q24 -85 74.5 -134t102.5 -49h108zM287 -228l121 123l125 -123 l-125 -125zM538 -228l122 123l125 -123l-125 -125z" arabic-form="final" unicode="ڍ"/>
<glyph horiz-adv-x="1100" glyph-name="uniFB84" d="M991 200q0 -38 -52.5 -76t-133.5 -68.5t-179.5 -50.5t-193.5 -20q-118 0 -204 20.5t-136 51.5l67 152q22 -9 56 -17.5t73 -15.5t80 -10.5t78 -3.5q57 0 118.5 4.5t118.5 13.5t107 19t87 21q-44 92 -93.5 174.5t-109.5 162t-133.5 157t-165.5 159.5l189 76 q78 -72 154.5 -164.5t137 -192t98 -201.5t37.5 -191zM270 1248l121 123l125 -123l-125 -125zM521 1248l121 123l125 -123l-125 -125z" arabic-form="isolated" unicode="ڌ"/>
<glyph horiz-adv-x="1171" glyph-name="uniFB85" d="M1189 0h-71q-86 0 -146.5 38.5t-103.5 99.5q-76 -61 -195.5 -107t-270.5 -46q-107 0 -181.5 20t-128.5 51l69 156q52 -18 121.5 -31t143.5 -13q90 0 194 17.5t194 58.5q-11 30 -21 62l-179 616h169l158 -577q24 -85 74.5 -134t102.5 -49h108zM333 1248l122 123l124 -123 l-124 -125zM585 1248l121 123l125 -123l-125 -125z" arabic-form="final" unicode="ڌ"/>
<glyph horiz-adv-x="1100" glyph-name="uniFB86" d="M991 200q0 -38 -52.5 -76t-133.5 -68.5t-179.5 -50.5t-193.5 -20q-118 0 -204 20.5t-136 51.5l67 152q22 -9 56 -17.5t73 -15.5t80 -10.5t78 -3.5q57 0 118.5 4.5t118.5 13.5t107 19t87 21q-44 92 -93.5 174.5t-109.5 162t-133.5 157t-165.5 159.5l189 76 q78 -72 154.5 -164.5t137 -192t98 -201.5t37.5 -191zM270 1248l121 123l125 -123l-125 -125zM521 1248l121 123l125 -123l-125 -125zM407 1457l109 110l112 -110l-112 -112z" arabic-form="isolated" unicode="ڎ"/>
<glyph horiz-adv-x="1171" glyph-name="uniFB87" d="M1189 0h-71q-86 0 -146.5 38.5t-103.5 99.5q-76 -61 -195.5 -107t-270.5 -46q-107 0 -181.5 20t-128.5 51l69 156q52 -18 121.5 -31t143.5 -13q90 0 194 17.5t194 58.5q-11 30 -21 62l-179 616h169l158 -577q24 -85 74.5 -134t102.5 -49h108zM333 1248l122 123l124 -123 l-124 -125zM585 1248l121 123l125 -123l-125 -125zM471 1457l108 110l112 -110l-112 -112z" arabic-form="final" unicode="ڎ"/>
<glyph horiz-adv-x="1100" glyph-name="uniFB88" d="M991 200q0 -38 -52.5 -76t-133.5 -68.5t-179.5 -50.5t-193.5 -20q-118 0 -204 20.5t-136 51.5l67 152q22 -9 56 -17.5t73 -15.5t80 -10.5t78 -3.5q57 0 118.5 4.5t118.5 13.5t107 19t87 21q-44 92 -93.5 174.5t-109.5 162t-133.5 157t-165.5 159.5l189 76 q78 -72 154.5 -164.5t137 -192t98 -201.5t37.5 -191zM466 1601q0 -2 1 -2q-1 -17 -1 -19q0 -44 -2 -227q-2 -27 -2 -34q89 102 158 102h21q101 0 137 -107q5 -14 5 -38v-12q0 -37 -66 -98q-55 -43 -133 -43h-271q-5 0 -25 102l4 2h92q-13 329 -13 361q6 4 95 13zM460 1229 v-2h118q82 0 144 33q2 4 2 5q-28 61 -98 61q-88 0 -166 -97z" arabic-form="isolated" unicode="ڈ"/>
<glyph horiz-adv-x="1171" glyph-name="uniFB89" d="M1189 0h-71q-86 0 -146.5 38.5t-103.5 99.5q-76 -61 -195.5 -107t-270.5 -46q-107 0 -181.5 20t-128.5 51l69 156q52 -18 121.5 -31t143.5 -13q90 0 194 17.5t194 58.5q-11 30 -21 62l-179 616h169l158 -577q24 -85 74.5 -134t102.5 -49h108zM520 1601q0 -2 2 -2 q-2 -17 -2 -19q0 -44 -2 -227q-1 -27 -1 -34q89 102 158 102h21q100 0 137 -107q5 -14 5 -38v-12q0 -37 -66 -98q-55 -43 -133 -43h-271q-5 0 -25 102l3 2h92q-13 329 -13 361q7 4 95 13zM515 1229v-2h118q81 0 144 33q2 4 2 5q-28 61 -98 61q-88 0 -166 -97z" arabic-form="final" unicode="ڈ"/>
<glyph horiz-adv-x="810" glyph-name="uniFB8A" d="M598 707q34 -89 53.5 -148t30.5 -100t14 -68t3 -51q0 -103 -35.5 -206.5t-95 -201.5t-140 -186t-172.5 -157h-240l-2 32q118 64 217.5 146t175 172.5t122 186.5t58.5 191l-162 390h173zM479 963l121 123l125 -123l-125 -125zM365 1172l108 110l112 -110l-112 -112z M226 963l122 123l125 -123l-125 -125z" arabic-form="isolated" unicode="ژ"/>
<glyph horiz-adv-x="1054" glyph-name="uniFB8B" d="M598 707q4 -9 6.5 -17.5t6.5 -18.5l108 -285q25 -65 58 -108t70.5 -69t75.5 -36.5t76 -10.5h110l-37 -162h-90q-33 0 -70.5 7.5t-77.5 26t-80 51.5t-80 83q-22 -82 -64 -162.5t-96.5 -154t-119.5 -139.5t-138 -123h-240l-2 32q118 64 217.5 146t175 172.5t122 186.5 t58.5 191l-162 390h173zM214 961l121 123l124 -123l-124 -125zM466 961l121 123l125 -123l-125 -125zM352 1170l107 110l113 -110l-113 -112z" arabic-form="final" unicode="ژ"/>
<glyph horiz-adv-x="810" glyph-name="uniFB8C" d="M598 707q34 -89 53.5 -148t30.5 -100t14 -68t3 -51q0 -103 -35.5 -206.5t-95 -201.5t-140 -186t-172.5 -157h-240l-2 32q118 64 217.5 146t175 172.5t122 186.5t58.5 191l-162 390h173zM408 1322q0 -2 1 -2q-1 -16 -1 -19q0 -44 -2 -227q-2 -26 -2 -34q89 102 158 102h21 q101 0 137 -107q6 -14 6 -37v-13q0 -37 -67 -98q-55 -42 -133 -42h-271q-5 0 -25 102l4 1h92q-13 329 -13 361q6 4 95 13zM402 950v-2h119q81 0 143 33q2 4 2 6q-28 61 -98 61q-88 0 -166 -98z" arabic-form="isolated" unicode="ڑ"/>
<glyph horiz-adv-x="1054" glyph-name="uniFB8D" d="M598 707q4 -9 6.5 -17.5t6.5 -18.5l108 -285q25 -65 58 -108t70.5 -69t75.5 -36.5t76 -10.5h110l-37 -162h-90q-33 0 -70.5 7.5t-77.5 26t-80 51.5t-80 83q-22 -82 -64 -162.5t-96.5 -154t-119.5 -139.5t-138 -123h-240l-2 32q118 64 217.5 146t175 172.5t122 186.5 t58.5 191l-162 390h173zM408 1322q0 -2 1 -2q-1 -16 -1 -19q0 -44 -2 -227q-2 -26 -2 -34q89 102 158 102h21q101 0 137 -107q6 -14 6 -37v-13q0 -37 -67 -98q-55 -42 -133 -42h-271q-5 0 -25 102l4 1h92q-13 329 -13 361q6 4 95 13zM402 950v-2h119q81 0 143 33q2 4 2 6 q-28 61 -98 61q-88 0 -166 -98z" arabic-form="final" unicode="ڑ"/>
<glyph horiz-adv-x="1404" glyph-name="uniFB8E" d="M548 157q183 0 307 41t203 106l-411 532q-30 45 -49.5 92.5t-19.5 91.5q0 38 13 66q26 56 97 114.5t162.5 112.5t192 100t188.5 77l136 -135q-233 -73 -391 -157t-273 -181l401 -513q63 -91 63 -171q0 -83 -56.5 -147.5t-147 -109t-204.5 -68t-228 -23.5q-117 0 -201 28 t-140 82t-87 131.5t-42 177.5l110 21q41 -134 129.5 -201t247.5 -67z" arabic-form="isolated" unicode="ک"/>
<glyph horiz-adv-x="1585" glyph-name="uniFB8F" d="M1604 0h-116q-55 0 -99.5 16t-82 43.5t-73 67t-71.5 88.5q-164 -112 -355 -171t-393 -59q-99 0 -167 25.5t-111 76.5t-65.5 130.5t-31.5 186.5l116 21q12 -71 33.5 -121t56.5 -82.5t83.5 -48.5t119.5 -16q145 0 311 36.5t325 127.5l-395 515q-30 45 -50 92.5t-20 91.5 q0 38 13 66q17 35 65.5 73.5t117 76t150.5 74t167.5 68.5t168 62t150.5 54l137 -136q-118 -33 -242 -72.5t-238.5 -83t-210 -90.5t-153.5 -95l479 -616q42 -54 79 -97.5t74.5 -74.5t76.5 -49t85 -18h104z" arabic-form="final" unicode="ک"/>
<glyph horiz-adv-x="969" glyph-name="uniFB90" d="M860 1355q-234 -73 -392 -157t-273 -181l401 -513q54 -82 54 -164q0 -69 -40 -130.5t-117.5 -108.5t-189.5 -74t-255 -27h-103l37 162h73q114 0 197 13.5t141.5 34.5t96 46.5t60.5 47.5l-411 532q-30 45 -49.5 92.5t-19.5 91.5q0 38 13 66q26 56 97 114.5t162.5 112.5 t192.5 100t188 77z" arabic-form="initial" unicode="ک"/>
<glyph horiz-adv-x="988" glyph-name="uniFB91" d="M1008 0h-116q-53 0 -97 15t-80.5 41t-70 64.5t-69.5 82.5q-51 -89 -183 -146t-344 -57h-103l37 162h73q114 0 190.5 13.5t126 34.5t78.5 46.5t49 49.5l-408 530q-30 45 -49.5 92.5t-19.5 91.5q0 38 12 66q18 37 69.5 76.5t123 78.5t156 75.5t170.5 69t164.5 60.5 t135.5 48l137 -136q-118 -37 -242 -76t-238.5 -82t-209.5 -89t-154 -94l482 -616q41 -54 78.5 -97.5t74.5 -74.5t76 -49t85 -18h104z" arabic-form="medial" unicode="ک"/>
<glyph horiz-adv-x="1404" glyph-name="uniFB92" d="M572 1339q60 42 128 84t139 81t139 72.5t128 59.5l45 -48q-66 -28 -144.5 -68t-157.5 -85t-152 -91t-125 -85v80zM548 157q183 0 307 41t203 106l-411 532q-30 45 -49.5 92.5t-19.5 91.5q0 38 13 66q26 56 97 114.5t162.5 112.5t192 100t188.5 77l136 -135 q-233 -73 -391 -157t-273 -181l401 -513q63 -91 63 -171q0 -83 -56.5 -147.5t-147 -109t-204.5 -68t-228 -23.5q-117 0 -201 28t-140 82t-87 131.5t-42 177.5l110 21q41 -134 129.5 -201t247.5 -67z" arabic-form="isolated" unicode="گ"/>
<glyph horiz-adv-x="1585" glyph-name="uniFB93" d="M625 1308q60 39 153 85.5t195 91.5t198 84t159 62l46 -52q-70 -23 -173.5 -65t-211.5 -91.5t-206 -99.5t-160 -88v73zM1604 0h-116q-55 0 -99.5 16t-82 43.5t-73 67t-71.5 88.5q-164 -112 -355 -171t-393 -59q-99 0 -167 25.5t-111 76.5t-65.5 130.5t-31.5 186.5l116 21 q12 -71 33.5 -121t56.5 -82.5t83.5 -48.5t119.5 -16q145 0 311 36.5t325 127.5l-395 515q-30 45 -50 92.5t-20 91.5q0 38 13 66q17 35 65.5 73.5t117 76t150.5 74t167.5 68.5t168 62t150.5 54l137 -136q-118 -33 -242 -72.5t-238.5 -83t-210 -90.5t-153.5 -95l479 -616 q42 -54 79 -97.5t74.5 -74.5t76.5 -49t85 -18h104z" arabic-form="final" unicode="گ"/>
<glyph horiz-adv-x="895" glyph-name="uniFB94" d="M64 1339q60 42 128 84t139 81t139 72.5t128 59.5l45 -48q-66 -28 -144 -68t-157.5 -85t-152.5 -91t-125 -85v80zM860 1355q-234 -73 -392 -157t-273 -181l401 -513q54 -82 54 -164q0 -69 -40 -130.5t-117.5 -108.5t-189.5 -74t-255 -27h-103l37 162h73q114 0 197 13.5 t141.5 34.5t96 46.5t60.5 47.5l-411 532q-30 45 -49.5 92.5t-19.5 91.5q0 38 13 66q26 56 97 114.5t162.5 112.5t192.5 100t188 77z" arabic-form="initial" unicode="گ"/>
<glyph horiz-adv-x="988" glyph-name="uniFB95" d="M29 1308q60 39 153 85.5t195 91.5t198 84t159 62l47 -52q-71 -23 -174.5 -65t-211.5 -91.5t-206 -99.5t-160 -88v73zM1008 0h-116q-53 0 -97 15t-80.5 41t-70 64.5t-69.5 82.5q-51 -89 -183 -146t-344 -57h-103l37 162h73q114 0 190.5 13.5t126 34.5t78.5 46.5t49 49.5 l-408 530q-30 45 -49.5 92.5t-19.5 91.5q0 38 12 66q18 37 69.5 76.5t123 78.5t156 75.5t170.5 69t164.5 60.5t135.5 48l137 -136q-118 -37 -242 -76t-238.5 -82t-209.5 -89t-154 -94l482 -616q41 -54 78.5 -97.5t74.5 -74.5t76 -49t85 -18h104z" arabic-form="medial" unicode="گ"/>
<glyph horiz-adv-x="1404" glyph-name="uniFB96" d="M572 1339q60 42 128 84t139 81t139 72.5t128 59.5l45 -48q-66 -28 -144.5 -68t-157.5 -85t-152 -91t-125 -85v80zM548 157q183 0 307 41t203 106l-411 532q-30 45 -49.5 92.5t-19.5 91.5q0 38 13 66q26 56 97 114.5t162.5 112.5t192 100t188.5 77l136 -135 q-233 -73 -391 -157t-273 -181l401 -513q63 -91 63 -171q0 -83 -56.5 -147.5t-147 -109t-204.5 -68t-228 -23.5q-117 0 -201 28t-140 82t-87 131.5t-42 177.5l110 21q41 -134 129.5 -201t247.5 -67zM677 -349l-123 121l125 125l121 -125l-119 -121l119 -123l-121 -123 l-125 123z" arabic-form="isolated" unicode="ڳ"/>
<glyph horiz-adv-x="1585" glyph-name="uniFB97" d="M625 1308q60 39 153 85.5t195 91.5t198 84t159 62l46 -52q-70 -23 -173.5 -65t-211.5 -91.5t-206 -99.5t-160 -88v73zM1604 0h-116q-55 0 -99.5 16t-82 43.5t-73 67t-71.5 88.5q-164 -112 -355 -171t-393 -59q-99 0 -167 25.5t-111 76.5t-65.5 130.5t-31.5 186.5l116 21 q12 -71 33.5 -121t56.5 -82.5t83.5 -48.5t119.5 -16q145 0 311 36.5t325 127.5l-395 515q-30 45 -50 92.5t-20 91.5q0 38 13 66q17 35 65.5 73.5t117 76t150.5 74t167.5 68.5t168 62t150.5 54l137 -136q-118 -33 -242 -72.5t-238.5 -83t-210 -90.5t-153.5 -95l479 -616 q42 -54 79 -97.5t74.5 -74.5t76.5 -49t85 -18h104zM677 -349l-123 121l125 125l121 -125l-120 -121l120 -123l-121 -123l-125 123z" arabic-form="final" unicode="ڳ"/>
<glyph horiz-adv-x="895" glyph-name="uniFB98" d="M64 1339q60 42 128 84t139 81t139 72.5t128 59.5l45 -48q-66 -28 -144 -68t-157.5 -85t-152.5 -91t-125 -85v80zM860 1355q-234 -73 -392 -157t-273 -181l401 -513q54 -82 54 -164q0 -69 -40 -130.5t-117.5 -108.5t-189.5 -74t-255 -27h-103l37 162h73q114 0 197 13.5 t141.5 34.5t96 46.5t60.5 47.5l-411 532q-30 45 -49.5 92.5t-19.5 91.5q0 38 13 66q26 56 97 114.5t162.5 112.5t192.5 100t188 77zM304 -349l-123 121l125 125l121 -125l-119 -121l119 -123l-121 -123l-125 123z" arabic-form="initial" unicode="ڳ"/>
<glyph horiz-adv-x="988" glyph-name="uniFB99" d="M29 1308q60 39 153 85.5t195 91.5t198 84t159 62l47 -52q-71 -23 -174.5 -65t-211.5 -91.5t-206 -99.5t-160 -88v73zM1008 0h-116q-53 0 -97 15t-80.5 41t-70 64.5t-69.5 82.5q-51 -89 -183 -146t-344 -57h-103l37 162h73q114 0 190.5 13.5t126 34.5t78.5 46.5t49 49.5 l-408 530q-30 45 -49.5 92.5t-19.5 91.5q0 38 12 66q18 37 69.5 76.5t123 78.5t156 75.5t170.5 69t164.5 60.5t135.5 48l137 -136q-118 -37 -242 -76t-238.5 -82t-209.5 -89t-154 -94l482 -616q41 -54 78.5 -97.5t74.5 -74.5t76 -49t85 -18h104zM304 -349l-123 121l125 125 l121 -125l-119 -121l119 -123l-121 -123l-125 123z" arabic-form="medial" unicode="ڳ"/>
<glyph horiz-adv-x="1404" glyph-name="uniFB9A" d="M572 1339q60 42 128 84t139 81t139 72.5t128 59.5l45 -48q-66 -28 -144.5 -68t-157.5 -85t-152 -91t-125 -85v80zM548 157q183 0 307 41t203 106l-411 532q-30 45 -49.5 92.5t-19.5 91.5q0 38 13 66q26 56 97 114.5t162.5 112.5t192 100t188.5 77l136 -135 q-233 -73 -391 -157t-273 -181l401 -513q63 -91 63 -171q0 -83 -56.5 -147.5t-147 -109t-204.5 -68t-228 -23.5q-117 0 -201 28t-140 82t-87 131.5t-42 177.5l110 21q41 -134 129.5 -201t247.5 -67zM756 1701l122 123l125 -123l-125 -125zM505 1701l121 123l125 -123 l-125 -125z" arabic-form="isolated" unicode="ڱ"/>
<glyph horiz-adv-x="1585" glyph-name="uniFB9B" d="M625 1308q60 39 153 85.5t195 91.5t198 84t159 62l46 -52q-70 -23 -173.5 -65t-211.5 -91.5t-206 -99.5t-160 -88v73zM1604 0h-116q-55 0 -99.5 16t-82 43.5t-73 67t-71.5 88.5q-164 -112 -355 -171t-393 -59q-99 0 -167 25.5t-111 76.5t-65.5 130.5t-31.5 186.5l116 21 q12 -71 33.5 -121t56.5 -82.5t83.5 -48.5t119.5 -16q145 0 311 36.5t325 127.5l-395 515q-30 45 -50 92.5t-20 91.5q0 38 13 66q17 35 65.5 73.5t117 76t150.5 74t167.5 68.5t168 62t150.5 54l137 -136q-118 -33 -242 -72.5t-238.5 -83t-210 -90.5t-153.5 -95l479 -616 q42 -54 79 -97.5t74.5 -74.5t76.5 -49t85 -18h104zM856 1701l122 123l125 -123l-125 -125zM605 1701l121 123l125 -123l-125 -125z" arabic-form="final" unicode="ڱ"/>
<glyph horiz-adv-x="911" glyph-name="uniFB9C" d="M83 1321q60 42 127.5 84t139 81t139 72.5t127.5 59.5l45 -48q-66 -29 -144 -69t-157.5 -84.5t-152.5 -90.5t-124 -85v80zM878 1336q-233 -72 -391 -156t-274 -182l383 -494q54 -82 54 -164q0 -69 -40 -130.5t-117.5 -108.5t-189.5 -74t-255 -27h-103l37 162h73 q114 0 197 13.5t141.5 34.5t96 46.5t60.5 47.5l-411 532q-30 45 -40.5 83t-10.5 83q0 37 14 66q25 55 96 114t162.5 113t192.5 100t188 77zM256 1701l122 123l125 -123l-125 -125zM4 1701l121 123l125 -123l-125 -125z" arabic-form="initial" unicode="ڱ"/>
<glyph horiz-adv-x="988" glyph-name="uniFB9D" d="M29 1308q60 39 153 85.5t195 91.5t198 84t159 62l47 -52q-71 -23 -174.5 -65t-211.5 -91.5t-206 -99.5t-160 -88v73zM1008 0h-116q-53 0 -97 15t-80.5 41t-70 64.5t-69.5 82.5q-51 -89 -183 -146t-344 -57h-103l37 162h73q114 0 190.5 13.5t126 34.5t78.5 46.5t49 49.5 l-408 530q-30 45 -49.5 92.5t-19.5 91.5q0 38 12 66q18 37 69.5 76.5t123 78.5t156 75.5t170.5 69t164.5 60.5t135.5 48l137 -136q-118 -37 -242 -76t-238.5 -82t-209.5 -89t-154 -94l482 -616q41 -54 78.5 -97.5t74.5 -74.5t76 -49t85 -18h104zM256 1701l122 123l125 -123 l-125 -125zM4 1701l121 123l125 -123l-125 -125z" arabic-form="medial" unicode="ڱ"/>
<glyph horiz-adv-x="1175" glyph-name="uniFB9E" d="M1020 707l54 -237q9 -35 14 -94t5 -128q0 -127 -29 -245.5t-98 -211t-182 -147.5t-283 -55q-218 0 -331 111t-113 315q0 170 84 398h131q-37 -107 -54 -194t-17 -157q0 -155 84 -225t249 -70q118 0 200.5 36.5t135 98.5t79 147t32.5 181l-133 477h172z" arabic-form="isolated" unicode="ں"/>
<glyph horiz-adv-x="1392" glyph-name="uniFB9F" d="M1360 0q-90 0 -156.5 36.5t-114.5 103.5q-12 -110 -49 -209.5t-108 -175.5t-177.5 -121t-253.5 -45q-218 0 -331 111t-113 315q0 170 84 398h131q-37 -107 -54 -194t-17 -157q0 -155 84 -225t249 -70q126 0 211.5 40t138 110t76 162t23.5 197q0 21 -1 42.5t-3 41.5 l-73 196l144 47l78 -217q47 -126 111 -175t137 -49h73l-37 -162h-52z" arabic-form="final" unicode="ں"/>
<glyph horiz-adv-x="1175" glyph-name="uniFBA0" d="M1020 707l54 -237q9 -35 14 -94t5 -128q0 -127 -29 -245.5t-98 -211t-182 -147.5t-283 -55q-218 0 -331 111t-113 315q0 170 84 398h131q-37 -107 -54 -194t-17 -157q0 -155 84 -225t249 -70q118 0 200.5 36.5t135 98.5t79 147t32.5 181l-133 477h172zM457 1183 q0 -2 2 -2q-2 -17 -2 -19q0 -44 -2 -227q-2 -27 -2 -34q90 102 159 102h21q100 0 136 -107q6 -14 6 -38v-13q0 -36 -67 -97q-54 -43 -133 -43h-270q-6 0 -26 102l4 2h92q-13 329 -13 361q7 3 95 13zM451 811v-2h119q81 0 144 33q2 3 2 5q-29 61 -99 61q-87 0 -166 -97z" arabic-form="isolated" unicode="ڻ"/>
<glyph horiz-adv-x="1392" glyph-name="uniFBA1" d="M1360 0q-90 0 -156.5 36.5t-114.5 103.5q-12 -110 -49 -209.5t-108 -175.5t-177.5 -121t-253.5 -45q-218 0 -331 111t-113 315q0 170 84 398h131q-37 -107 -54 -194t-17 -157q0 -155 84 -225t249 -70q126 0 211.5 40t138 110t76 162t23.5 197q0 21 -1 42.5t-3 41.5 l-73 196l144 47l78 -217q47 -126 111 -175t137 -49h73l-37 -162h-52zM457 1183q0 -2 2 -2q-2 -17 -2 -19q0 -44 -2 -227q-2 -27 -2 -34q90 102 159 102h21q100 0 136 -107q6 -14 6 -38v-13q0 -36 -67 -97q-54 -43 -133 -43h-270q-6 0 -26 102l4 2h92q-13 329 -13 361 q7 3 95 13zM451 811v-2h119q81 0 144 33q2 3 2 5q-29 61 -99 61q-87 0 -166 -97z" arabic-form="final" unicode="ڻ"/>
<glyph horiz-adv-x="545" glyph-name="uniFBA2" d="M-20 162h224q30 57 46 125.5t16 143.5q0 67 -15 138t-47 138h168q27 -67 39.5 -128.5t12.5 -122.5q0 -102 -35 -209t-108 -247h-338zM184 1359q0 -2 2 -2q-2 -16 -2 -19q0 -43 -1 -227q-2 -26 -2 -33q89 102 158 102h21q100 0 137 -108q5 -13 5 -37v-13q0 -36 -66 -97 q-55 -43 -133 -43h-271q-5 0 -25 102l3 2h92q-12 329 -12 361q6 3 94 12zM179 988v-2h118q81 0 144 33q2 3 2 5q-28 61 -98 61q-88 0 -166 -97z" arabic-form="initial" unicode="ڻ"/>
<glyph horiz-adv-x="714" glyph-name="uniFBA3" d="M652 0q-128 0 -200 42t-104 126q-52 -81 -130.5 -124.5t-177.5 -43.5h-95l37 162h68q125 0 192.5 74t67.5 212v259h142v-251q0 -91 10.5 -148t36 -89t66 -44.5t102.5 -12.5h104l-37 -162h-82zM312 1359q0 -2 2 -2q-2 -16 -2 -19q0 -43 -2 -227q-1 -26 -1 -33 q89 102 158 102h21q100 0 137 -108q5 -13 5 -37v-13q0 -36 -66 -97q-55 -43 -133 -43h-271q-5 0 -26 102l4 2h92q-13 329 -13 361q7 3 95 12zM307 988v-2h118q81 0 144 33q2 3 2 5q-28 61 -99 61q-87 0 -165 -97z" arabic-form="medial" unicode="ڻ"/>
<glyph horiz-adv-x="833" glyph-name="uniFBA4" d="M472 707q55 -47 106 -92.5t91 -91.5t64.5 -91.5t24.5 -91.5q0 -66 -28 -129t-76.5 -114t-114 -81.5t-142.5 -30.5q-74 0 -134 21.5t-102 58t-65 85t-23 104.5q0 110 71 213.5t194 200.5l48 39h86zM611 299q0 29 -15.5 59t-44 64t-71 74t-95.5 92q-86 -79 -130 -143 t-44 -132q0 -44 17.5 -76t46 -52.5t61 -29.5t63.5 -9q94 0 153 44.5t59 108.5zM598 945q-28 -2 -71 -7.5t-92.5 -14t-103 -20.5t-103.5 -26q4 10 9.5 24.5t11.5 30.5q5 16 11 31l132 19q-54 9 -91.5 34.5t-37.5 51.5q0 41 26 77.5t68.5 64.5t93.5 46.5t102 26.5l37 -101 q-40 0 -76.5 -7.5t-67 -19t-51.5 -27.5t-29 -34q17 -24 59.5 -35t85.5 -17q51 -8 112 -8z" arabic-form="isolated" unicode="ۀ"/>
<glyph horiz-adv-x="962" glyph-name="uniFBA5" d="M866 0q-104 0 -173.5 52.5t-99.5 137.5q-43 -9 -82 -11.5t-74 -2.5q-95 0 -163.5 24t-113 60.5t-66 80t-21.5 83.5q0 69 45.5 139.5t118.5 134.5t162.5 115.5t177.5 83.5v71l142 49v-668q0 -108 46.5 -147.5t130.5 -39.5h121l-38 -162h-113zM545 313q7 0 15 -0.5t17 0.5 v419q-123 -49 -219 -106.5t-151 -112.5q6 -34 27.5 -69t63.5 -64t102.5 -48t144.5 -19zM625 1172q-28 -1 -71 -6.5t-92.5 -14.5t-103 -20.5t-103.5 -25.5q4 10 10 24.5t11 30.5q6 16 11 31l132 19q-54 9 -91 34.5t-37 50.5q0 41 26 77.5t68 65t93 47t102 25.5l37 -101 q-39 0 -76 -7t-67 -18.5t-51.5 -27.5t-28.5 -34q16 -25 59 -36t86 -16q51 -8 112 -8z" arabic-form="final" unicode="ۀ"/>
<glyph horiz-adv-x="833" glyph-name="uniFBA6" d="M472 707q55 -47 106 -92.5t91 -91.5t64.5 -91.5t24.5 -91.5q0 -66 -28 -129t-76.5 -114t-114 -81.5t-142.5 -30.5q-74 0 -134 21.5t-102 58t-65 85t-23 104.5q0 108 69 211.5t192 200.5l4 2l48 39h86zM611 299q0 29 -15.5 59t-44 64t-71 74t-95.5 92q-86 -79 -130 -143 t-44 -132q0 -44 17.5 -76t46 -52.5t61 -29.5t63.5 -9q94 0 153 44.5t59 108.5z" arabic-form="isolated" unicode="ہ"/>
<glyph horiz-adv-x="1022" glyph-name="uniFBA7" d="M92 300q26 15 103 60q89 52 182 93q154 70 228 70h8q54 0 69 -47q10 -22 23 -95q6 -23 19 -51q27 -55 63 -91q33 -32 68 -50q58 -27 103 -27h116l-37 -162h-69q-75 5 -146 32q-39 16 -78 42q-22 15 -80 72q-39 47 -58 81q-18 31 -36 83q-16 39 -32 39q-39 -6 -169 -64 q-118 -58 -214 -121q-32 -23 -73 -57l-10 9z" arabic-form="final" unicode="ہ"/>
<glyph horiz-adv-x="527" glyph-name="uniFBA8" d="M-20 162h224q30 57 46 125.5t16 143.5q0 67 -15 138t-47 138h168q26 -67 39.5 -128.5t13.5 -122.5q0 -102 -35.5 -209t-108.5 -247h-338zM-81 -344q0 22 15 60t42 78.5t64.5 80t84.5 69.5l50 -45q-22 -14 -45 -35t-43.5 -44t-37 -49.5t-25.5 -52.5l136 -92l-83 -105 q-44 27 -80 53q-30 21 -54 43.5t-24 38.5z" arabic-form="initial" unicode="ہ"/>
<glyph horiz-adv-x="995" glyph-name="uniFBA9" d="M649 430q0 -69 -15 -127.5t-45 -105t-83.5 -86.5t-127.5 -68q37 -112 107 -190.5t169 -115.5q-2 15 -2 29v29q0 78 24 172.5t99 194.5h279l-38 -162h-202q-29 -52 -44 -100.5t-15 -100.5q0 -40 9 -81t30 -90l-158 -70q-73 24 -140.5 65t-122 98t-96 128t-61.5 156 q-51 -5 -105 -5h-166l37 162h213q93 5 158 27q52 22 81.5 47t49 57t24.5 83q0 56 -16 106l112 127q45 -87 45 -179zM-55 -447q0 22 15 60t42 78.5t64.5 80t84.5 69.5l50 -45q-22 -14 -45 -35t-43.5 -44t-37 -49.5t-25.5 -51.5l136 -92l-83 -106q-44 27 -80 53 q-30 21 -54 43.5t-24 38.5z" arabic-form="medial" unicode="ہ"/>
<glyph horiz-adv-x="1383" glyph-name="uniFBAA" d="M247 162q93 0 187 21q-64 73 -99.5 146.5t-35.5 138.5q0 47 20.5 100t56 103.5t82.5 93.5t97 71h97q45 -13 85 -39t75 -62l127 101q63 -54 123 -134.5t106.5 -176.5t73.5 -200.5t27 -205.5t-31.5 -190t-102.5 -157q-164 38 -313 116t-267 176q-73 -30 -154 -47t-170 -17 h-83l-54 162h153zM941 463q0 -75 -60.5 -159.5t-166.5 -155.5q92 -68 196 -118.5t199 -70.5q48 54 48 138q0 60 -22 129t-60.5 141.5t-89.5 146.5t-109 141q32 -48 48.5 -98.5t16.5 -93.5zM568 694q-50 -26 -90.5 -74.5t-40.5 -119.5q0 -55 45 -122.5t119 -136.5 q92 42 148 101t56 123q0 44 -28 83.5t-66 70.5t-78.5 50.5t-64.5 24.5z" arabic-form="isolated" unicode="ھ"/>
<glyph horiz-adv-x="1087" glyph-name="uniFBAB" d="M285 162v19q0 140 51.5 303.5t171.5 351.5h104q140 -65 197.5 -161t57.5 -199q0 -70 -29.5 -135t-82.5 -121t-126 -101.5t-161 -75.5q38 -112 108 -190.5t168 -115.5q-1 15 -1 29v29q0 78 24 172.5t99 194.5h278l-37 -162h-202q-29 -52 -44 -100.5t-15 -100.5 q0 -40 9 -81t30 -90l-159 -70q-73 24 -140.5 65t-122 98t-95.5 128t-62 156q-50 -5 -105 -5h-83l-45 162h196h16zM539 700q-53 -118 -77.5 -227t-24.5 -210v-39.5t3 -38.5q55 15 106 37t91.5 53t64.5 67.5t24 79.5q0 89 -42.5 162t-144.5 116z" arabic-form="final" unicode="ھ"/>
<glyph horiz-adv-x="1273" glyph-name="uniFBAC" d="M135 162q93 0 187 21q-64 73 -99.5 146.5t-35.5 138.5q0 47 20.5 100t56 103.5t82.5 93.5t97 71h97q45 -13 85.5 -39t74.5 -62l128 101q63 -54 122.5 -134.5t106.5 -176.5t74 -200.5t27 -205.5t-31.5 -190t-102.5 -157q-164 38 -313.5 116t-267.5 176q-73 -30 -154 -47 t-171 -17h-173l37 162h153zM830 463q0 -75 -61 -159.5t-167 -155.5q93 -68 196.5 -118.5t198.5 -70.5q49 54 49 138q0 60 -22.5 129t-61 141.5t-89.5 146.5t-109 141q32 -48 49 -98.5t17 -93.5zM456 694q-50 -26 -90 -74.5t-40 -119.5q0 -55 44.5 -122.5t119.5 -136.5 q91 42 147 101t56 123q0 44 -28 83.5t-66 70.5t-78 50.5t-65 24.5z" arabic-form="initial" unicode="ھ"/>
<glyph horiz-adv-x="995" glyph-name="uniFBAD" d="M195 162v19q0 140 51.5 303.5t170.5 351.5h105q139 -65 197 -161t58 -199q0 -70 -29.5 -135t-83 -121t-126.5 -101.5t-160 -75.5q37 -112 107 -190.5t169 -115.5q-2 15 -2 29v29q0 78 24 172.5t99 194.5h279l-38 -162h-202q-29 -52 -44 -100.5t-15 -100.5q0 -40 9 -81 t30 -90l-158 -70q-73 24 -140.5 65t-122 98t-96 128t-61.5 156q-51 -5 -105 -5h-166l37 162h196h17zM449 700q-54 -118 -78.5 -227t-24.5 -210v-39.5t3 -38.5q55 15 106 37t91.5 53t65 67.5t24.5 79.5q0 89 -43 162t-144 116z" arabic-form="medial" unicode="ھ"/>
</font>
</defs>
</svg>
